<mxfile host="app.diagrams.net" modified="2023-03-08T02:47:43.011Z" agent="5.0 (Windows NT 10.0; Win64; x64) AppleWebKit/537.36 (KHTML, like Gecko) Chrome/110.0.0.0 Safari/537.36" etag="IHG_ESKPW9LZdruLr-SL" version="20.8.23" type="github">
  <diagram name="第 1 页" id="_DKVz7CdkcuNj5TBdRFh">
    <mxGraphModel dx="3434" dy="2558" grid="1" gridSize="10" guides="1" tooltips="1" connect="1" arrows="1" fold="1" page="1" pageScale="1" pageWidth="827" pageHeight="1169" math="0" shadow="0">
      <root>
        <mxCell id="0" />
        <mxCell id="1" parent="0" />
        <mxCell id="3jxLnCF12T15F944jgeX-1" value="&lt;font size=&quot;1&quot; style=&quot;&quot; color=&quot;#1a1a1a&quot;&gt;&lt;b style=&quot;font-size: 30px;&quot;&gt;ABB Cloud&lt;/b&gt;&lt;/font&gt;" style="whiteSpace=wrap;html=1;rounded=1;shadow=0;strokeColor=default;strokeWidth=4;fillColor=none;fontSize=20;fontColor=#FFFFFF;align=center;arcSize=3;verticalAlign=top;spacingTop=4;dashed=1;" vertex="1" parent="1">
          <mxGeometry x="-165" y="-10" width="1340" height="1240" as="geometry" />
        </mxCell>
        <mxCell id="3jxLnCF12T15F944jgeX-2" value="&lt;font style=&quot;font-size: 22px;&quot;&gt;OIC Common Server&lt;/font&gt;" style="whiteSpace=wrap;html=1;rounded=1;shadow=0;strokeColor=none;strokeWidth=2;fillColor=#003366;fontSize=20;fontColor=#FFFFFF;align=center;arcSize=3;verticalAlign=top;spacingTop=4;" vertex="1" parent="1">
          <mxGeometry x="-34.87" y="957.5" width="1020" height="240" as="geometry" />
        </mxCell>
        <mxCell id="3jxLnCF12T15F944jgeX-3" style="edgeStyle=orthogonalEdgeStyle;rounded=0;orthogonalLoop=1;jettySize=auto;html=1;fontSize=20;fontColor=#FF0000;exitX=1;exitY=0.5;exitDx=0;exitDy=0;entryX=0;entryY=0.5;entryDx=0;entryDy=0;strokeWidth=3;" edge="1" parent="1" source="3jxLnCF12T15F944jgeX-5" target="3jxLnCF12T15F944jgeX-10">
          <mxGeometry relative="1" as="geometry">
            <mxPoint x="-350" y="457" as="sourcePoint" />
            <mxPoint x="-320" y="360" as="targetPoint" />
            <Array as="points">
              <mxPoint x="-380" y="950" />
              <mxPoint x="-300" y="950" />
              <mxPoint x="-300" y="440" />
            </Array>
          </mxGeometry>
        </mxCell>
        <mxCell id="3jxLnCF12T15F944jgeX-4" style="edgeStyle=orthogonalEdgeStyle;rounded=0;orthogonalLoop=1;jettySize=auto;html=1;exitX=1;exitY=0.5;exitDx=0;exitDy=0;fontSize=18;entryX=0.005;entryY=0.72;entryDx=0;entryDy=0;entryPerimeter=0;strokeWidth=3;" edge="1" parent="1" source="3jxLnCF12T15F944jgeX-5" target="3jxLnCF12T15F944jgeX-6">
          <mxGeometry relative="1" as="geometry">
            <mxPoint x="-40" y="1440" as="targetPoint" />
            <Array as="points">
              <mxPoint x="-310" y="955" />
              <mxPoint x="-310" y="1430" />
              <mxPoint x="-25" y="1430" />
            </Array>
          </mxGeometry>
        </mxCell>
        <mxCell id="3jxLnCF12T15F944jgeX-5" value="" style="rounded=1;whiteSpace=wrap;html=1;shadow=0;strokeWidth=2;fillColor=#CCCCCC;fontSize=12;fontColor=#000000;align=center;strokeColor=#FFFFFF;" vertex="1" parent="1">
          <mxGeometry x="-550" y="880" width="170" height="150" as="geometry" />
        </mxCell>
        <mxCell id="3jxLnCF12T15F944jgeX-6" value="&lt;font style=&quot;font-size: 36px;&quot;&gt;&lt;b&gt;Tuya Cloud&lt;/b&gt;&lt;/font&gt;" style="verticalLabelPosition=bottom;html=1;verticalAlign=top;align=center;strokeColor=none;fillColor=#00BEF2;shape=mxgraph.azure.cloud;" vertex="1" parent="1">
          <mxGeometry x="-26.75" y="1290" width="291" height="192.5" as="geometry" />
        </mxCell>
        <mxCell id="3jxLnCF12T15F944jgeX-7" value="&lt;p&gt;&lt;font style=&quot;font-size: 24px;&quot;&gt;MSP Cloud&lt;/font&gt;&lt;/p&gt;" style="verticalLabelPosition=bottom;html=1;verticalAlign=top;align=center;strokeColor=none;fillColor=#00BEF2;shape=mxgraph.azure.cloud;labelBackgroundColor=none;fontStyle=1" vertex="1" parent="1">
          <mxGeometry x="694.87" y="155.96" width="315.63" height="196.12" as="geometry" />
        </mxCell>
        <mxCell id="3jxLnCF12T15F944jgeX-8" value="&lt;font style=&quot;font-size: 24px;&quot;&gt;MICA Cloud&lt;/font&gt;" style="whiteSpace=wrap;html=1;rounded=1;shadow=0;strokeColor=none;strokeWidth=2;fillColor=#003366;fontSize=20;fontColor=#FFFFFF;align=center;arcSize=3;verticalAlign=top;spacingTop=4;" vertex="1" parent="1">
          <mxGeometry x="-40" y="58.51" width="650" height="850" as="geometry" />
        </mxCell>
        <mxCell id="3jxLnCF12T15F944jgeX-9" style="edgeStyle=orthogonalEdgeStyle;rounded=0;orthogonalLoop=1;jettySize=auto;html=1;exitX=0.5;exitY=1;exitDx=0;exitDy=0;exitPerimeter=0;" edge="1" parent="1">
          <mxGeometry relative="1" as="geometry">
            <mxPoint x="-100.00000000000011" y="940" as="sourcePoint" />
            <mxPoint x="-100.00000000000011" y="940" as="targetPoint" />
          </mxGeometry>
        </mxCell>
        <mxCell id="3jxLnCF12T15F944jgeX-10" value="APIM" style="shape=image;verticalLabelPosition=bottom;labelBackgroundColor=#ffffff;verticalAlign=top;aspect=fixed;imageAspect=0;image=data:image/svg+xml,PHN2ZyB4bWxuczpkYz0iaHR0cDovL3B1cmwub3JnL2RjL2VsZW1lbnRzLzEuMS8iIHhtbG5zOmNjPSJodHRwOi8vY3JlYXRpdmVjb21tb25zLm9yZy9ucyMiIHhtbG5zOnJkZj0iaHR0cDovL3d3dy53My5vcmcvMTk5OS8wMi8yMi1yZGYtc3ludGF4LW5zIyIgeG1sbnM6c3ZnPSJodHRwOi8vd3d3LnczLm9yZy8yMDAwL3N2ZyIgeG1sbnM9Imh0dHA6Ly93d3cudzMub3JnLzIwMDAvc3ZnIiB4bWxuczpzb2RpcG9kaT0iaHR0cDovL3NvZGlwb2RpLnNvdXJjZWZvcmdlLm5ldC9EVEQvc29kaXBvZGktMC5kdGQiIHhtbG5zOmlua3NjYXBlPSJodHRwOi8vd3d3Lmlua3NjYXBlLm9yZy9uYW1lc3BhY2VzL2lua3NjYXBlIiB2ZXJzaW9uPSIxLjEiIGlkPSJzdmc0OTI1OSIgaW5rc2NhcGU6dmVyc2lvbj0iMC45Mi4zICgyNDA1NTQ2LCAyMDE4LTAzLTExKSIgc29kaXBvZGk6ZG9jbmFtZT0iYXBwbGljYXRpb25fZ2F0ZXdheS5zdmciIHg9IjBweCIgeT0iMHB4IiB2aWV3Qm94PSIwIDAgMTAwLjMxIDEwMC4xMSIgeG1sOnNwYWNlPSJwcmVzZXJ2ZSIgd2lkdGg9IjEwMC4zMSIgaGVpZ2h0PSIxMDAuMTEiPjxtZXRhZGF0YSBpZD0ibWV0YWRhdGExNjMzNSI+PHJkZjpSREY+PGNjOldvcmsgcmRmOmFib3V0PSIiPjxkYzpmb3JtYXQ+aW1hZ2Uvc3ZnK3htbDwvZGM6Zm9ybWF0PjxkYzp0eXBlIHJkZjpyZXNvdXJjZT0iaHR0cDovL3B1cmwub3JnL2RjL2RjbWl0eXBlL1N0aWxsSW1hZ2UiLz48ZGM6dGl0bGUvPjwvY2M6V29yaz48L3JkZjpSREY+PC9tZXRhZGF0YT48ZGVmcyBpZD0iZGVmczE2MzMzIi8+JiN4YTs8ZmlsdGVyIGlkPSJmaWx0ZXJfMiI+JiN4YTsJPGZlR2F1c3NpYW5CbHVyIGlkPSJmZUdhdXNzaWFuQmx1cjQ5MTg0IiBzdGREZXZpYXRpb249IjIiLz4mI3hhOzwvZmlsdGVyPiYjeGE7PHNvZGlwb2RpOm5hbWVkdmlldyBib3JkZXJjb2xvcj0iIzY2NjY2NiIgYm9yZGVyb3BhY2l0eT0iMSIgZml0LW1hcmdpbi1ib3R0b209IjAiIGZpdC1tYXJnaW4tbGVmdD0iMCIgZml0LW1hcmdpbi1yaWdodD0iMCIgZml0LW1hcmdpbi10b3A9IjAiIGdyaWR0b2xlcmFuY2U9IjEwIiBndWlkZXRvbGVyYW5jZT0iMTAiIGlkPSJuYW1lZHZpZXc0OTI2MSIgaW5rc2NhcGU6Y3VycmVudC1sYXllcj0ic3ZnNDkyNTkiIGlua3NjYXBlOmN4PSIzNy42OTE3NzEiIGlua3NjYXBlOmN5PSI0OC40MTY5MjYiIGlua3NjYXBlOnBhZ2VvcGFjaXR5PSIwIiBpbmtzY2FwZTpwYWdlc2hhZG93PSIyIiBpbmtzY2FwZTp3aW5kb3ctaGVpZ2h0PSIxMDE3IiBpbmtzY2FwZTp3aW5kb3ctbWF4aW1pemVkPSIxIiBpbmtzY2FwZTp3aW5kb3ctd2lkdGg9IjE5MjAiIGlua3NjYXBlOndpbmRvdy14PSItOCIgaW5rc2NhcGU6d2luZG93LXk9Ii04IiBpbmtzY2FwZTp6b29tPSI1LjIxOTMxOTgiIG9iamVjdHRvbGVyYW5jZT0iMTAiIHBhZ2Vjb2xvcj0iI2ZmZmZmZiIgc2hvd2dyaWQ9ImZhbHNlIj4mI3hhOwk8L3NvZGlwb2RpOm5hbWVkdmlldz4mI3hhOyYjeGE7PHBhdGggaWQ9InBhdGg0OTE5NyIgaW5rc2NhcGU6Y29ubmVjdG9yLWN1cnZhdHVyZT0iMCIgc3R5bGU9ImZpbGw6IzdmYmEwMCIgZD0ibSA1MC4wNSwxMDAuMTEgYyAtMi40LDAgLTQuOCwtMS4wMSAtNi42LC0yLjgxIEwgMi44LDU2LjY2IEMgMSw1NC44NiAwLDUyLjQ2IDAsNTAuMDUgYyAwLC0yLjQgMSwtNC44IDIuOCwtNi42IEwgNDMuNDUsMi44IEMgNDUuMjUsMSA0Ny42NSwwIDUwLjA1LDAgYyAyLjQxLDAgNC44MSwxIDYuNjEsMi44IEwgOTcuNSw0My42NSBjIDEuOCwxLjggMi44MSw0IDIuODEsNi42IDAsMi40MSAtMS4wMSw0LjgxIC0yLjgxLDYuNjEgTCA1Ni42Niw5Ny4zIGMgLTEuOCwxLjggLTQuMiwyLjgxIC02LjYxLDIuODEgeiIvPiYjeGE7JiN4YTs8cGF0aCBpZD0icGF0aDQ5MjA1IiBpbmtzY2FwZTpjb25uZWN0b3ItY3VydmF0dXJlPSIwIiBzdHlsZT0iZmlsbDojZmZmZmZmIiBkPSJtIDU5LjU0LDM3LjIgYyAtMi44LDIuMTQgLTYuMDksMy4xOSAtOS4zNywzLjE5IC00LjY0LDAgLTkuMjQsLTIuMDkgLTEyLjI3LC02LjA2IC01LjE5LC02Ljc3IC0zLjkxLC0xNi40NiAyLjg3LC0yMS42NSAyLjgsLTIuMTUgNi4xLC0zLjE4IDkuMzcsLTMuMTggNC42NSwwIDkuMjQsMi4wOSAxMi4yOCw2LjA2IDUuMTgsNi43OCAzLjg5LDE2LjQ2IC0yLjg4LDIxLjY0IHoiLz4mI3hhOyYjeGE7PHBhdGggaWQ9InBhdGg0OTIxMyIgaW5rc2NhcGU6Y29ubmVjdG9yLWN1cnZhdHVyZT0iMCIgc3R5bGU9ImZpbGw6I2ZmZmZmZjtmaWxsLW9wYWNpdHk6MC4xNSIgZD0iTSA1Ni42NiwyLjggQyA1NC44NiwxIDUyLjQ2LDAgNTAuMDUsMCBjIC0yLjQsMCAtNC44LDEgLTYuNiwyLjggTCAyLjgsNDMuNDUgQyAxLDQ1LjI1IDAsNDcuNjUgMCw1MC4wNSBjIDAsMi40MSAxLDQuODEgMi44LDYuNjEgTCAyNS44Myw3OS42OSA2OS4yNywxNS40MiBaIi8+JiN4YTsmI3hhOzxwYXRoIGlkPSJwYXRoNDkyMjEiIGlua3NjYXBlOmNvbm5lY3Rvci1jdXJ2YXR1cmU9IjAiIHN0eWxlPSJmaWxsOiNmZmZmZmYiIGQ9Ik0gNTAuMDUsOTEuMyA2My4yNyw3OC4wOCBIIDUzLjg2IFYgMzguMzQgaCAtNy44MSB2IDM5Ljc0IGggLTkuMjEgeiIvPiYjeGE7JiN4YTs8cGF0aCBpZD0icGF0aDQ5MjI5IiBpbmtzY2FwZTpjb25uZWN0b3ItY3VydmF0dXJlPSIwIiBzdHlsZT0iZmlsbDojZmZmZmZmIiBkPSJNIDc4Ljc0LDY3LjA0IFYgNDguMzUgbCAtNi41MSw2LjUxIC0xNi45MSwtMTYuOTEgLTUuNjYsNS42NyAxNi45MSwxNi45IC02LjUyLDYuNTIgeiIvPiYjeGE7JiN4YTs8cGF0aCBpZD0icGF0aDQ5MjM3IiBpbmtzY2FwZTpjb25uZWN0b3ItY3VydmF0dXJlPSIwIiBzdHlsZT0iZmlsbDojZmZmZmZmIiBkPSJNIDIxLjM5LDY3LjExIEggNDAuMDggTCAzMy41Niw2MC41OSA1MC45NSw0My4yMSA0NS4yOCwzNy41NSAyNy45LDU0LjkzIDIxLjM5LDQ4LjQyIFoiLz4mI3hhOyYjeGE7PHBhdGggaWQ9InBhdGg0OTI0NSIgaW5rc2NhcGU6Y29ubmVjdG9yLWN1cnZhdHVyZT0iMCIgc3R5bGU9ImZpbGw6IzU5YjRkOSIgZD0ibSA1OC4yOSwzNS41OCBjIC0yLjQyLDEuODUgLTUuMjgsMi43NiAtOC4xMiwyLjc2IC00LjAzLDAgLTguMDEsLTEuODEgLTEwLjY0LC01LjI2IC00LjUsLTUuODcgLTMuMzksLTE0LjI3IDIuNDksLTE4Ljc3IDIuNDMsLTEuODYgNS4yOSwtMi43NSA4LjEyLC0yLjc1IDQuMDMsMCA4LjAyLDEuOCAxMC42NSw1LjI1IDQuNSw1Ljg3IDMuMzgsMTQuMjcgLTIuNSwxOC43NyB6Ii8+JiN4YTsmI3hhOzxwYXRoIGlkPSJwYXRoNDkyNTMiIGlua3NjYXBlOmNvbm5lY3Rvci1jdXJ2YXR1cmU9IjAiIHN0eWxlPSJmaWxsOiNmZmZmZmYiIGQ9Im0gNTUuODMsMjcuMyBjIDAuOTgsMS4yNyAyLjc4LDEuNDkgNC4wNCwwLjU0IDAuMDcsLTAuMDUgMC4xMiwtMC4xMiAwLjE4LC0wLjE3IDEuMjksMC45MSAyLjE4LDEuNTEgMi42OSwxLjg1IDAuMTUsLTAuMzkgMC4yNSwtMC43NiAwLjM2LC0xLjE1IC0wLjUzLC0wLjM5IC0xLjI2LC0wLjk1IC0yLjMsLTEuNzkgMC4zNCwtMC45IDAuMjMsLTEuOTUgLTAuMzksLTIuNzggLTAuOSwtMS4xNSAtMi40OCwtMS40NSAtMy43MiwtMC43MyAtMS4zNiwtMS4yMyAtMi44NiwtMi42MyAtNC40NCwtNC4yIDQuOTEsLTIuNjQgOC40LC0yLjI1IDguNCwtMi4yNSAtMC41OSwtMC43NSAtMS4yNCwtMS40IC0xLjkzLC0xLjk4IC0yLjA3LC0wLjMyIC01LjI5LC0wLjI5IC04Ljk3LDEuNjcgViAxNi4zIGMgLTEuMjIsLTEuMjggLTIuNDcsLTIuNjUgLTMuNzQsLTQuMTMgLTAuNiwwLjIgLTEuMiwwLjQ0IC0xLjc3LDAuNzMgMC45MywxLjUzIDIuMiwzLjA3IDMuNjIsNC41OCAwLDAuMDEgMCwwLjAxIDAuMDEsMC4wMSAtMS4xOSwwLjgzIC0yLjUxLDEuOTQgLTMuNzIsMy4yMyAtMC4xNiwwLjE2IC0wLjMxLDAuMzMgLTAuNDUsMC40OSAtMC43MywtMC4xNSAtMS41LC0wLjEgLTIuMjEsMC4xNSAtMS4yMSwtMi42MSAtMS4xMiwtNC43MSAtMC45MiwtNS44IC0wLjUzLDAuNTUgLTEuMDIsMS4xMyAtMS40NSwxLjc1IC0wLjMxLDEuMyAtMC40LDMuMTYgMC41Myw1LjQxIC0xLjA4LDEuNDIgLTEuMTMsMy40MiAwLDQuOSAwLjEsMC4xMiAwLjIsMC4yNCAwLjMsMC4zNSAtMC40OSwxLjY4IC0wLjcxLDMuMyAtMC43OCw0LjY5IDAuMTIsMC4xNyAwLjEyLDAuMzEgMC4yNSwwLjQ4IDAuNjQsMC44MyAxLjQ1LDEuNTIgMi4yMywyLjE1IC0wLjEsLTEuNDcgMC4wMSwtMy42NSAwLjkyLC02LjA5IDAuNjMsMC4wNCAxLjI3LC0wLjA2IDEuODYsLTAuMzEgMC4zNSwwLjMxIDAuNywwLjYxIDEuMDksMC45MiAxLjMxLDEuMDQgMi42MiwxLjg1IDMuOSwyLjQ5IC0wLjA2LDAuNjUgMC4xLDEuMzIgMC41MiwxLjg4IDAuOSwxLjE3IDIuNTcsMS4zOSAzLjc0LDAuNDkgMC4yNCwtMC4xOCAwLjQzLC0wLjQxIDAuNTksLTAuNjUgMi4wOSwwLjQ3IDMuOTEsMC41NSA1LjI2LDAuNTUgMC4yLDAgMS4xNiwtMS4zMSAxLjcxLC0yLjExIC0wLjgyLDAuMTcgLTMuMjYsMC41IC02LjU5LC0wLjQ1IC0wLjA4LC0wLjM4IC0wLjIzLC0wLjc0IC0wLjQ4LC0xLjA3IC0wLjg0LC0xLjEgLTIuMzksLTEuMzUgLTMuNTQsLTAuNiAtMS4xNiwtMC42MyAtMi4zNywtMS40MiAtMy42MiwtMi40MSAtMC4yNiwtMC4yIC0wLjUsLTAuNCAtMC43MywtMC42IDAuNzYsLTEuMiAwLjg0LC0yLjc0IDAuMTcsLTQuMDQgMC4xNSwtMC4xNSAwLjMsLTAuMzEgMC40NiwtMC40NiAxLjI0LC0xLjE2IDIuNDEsLTIuMDggMy41LC0yLjgyIC0wLjA1LC0wLjA0IC0wLjA5LC0wLjA5IC0wLjEzLC0wLjEzIDAuMDQsMC4wNCAwLjA4LDAuMDggMC4xMywwLjEyIHYgMCBjIDEuNjcsMS41NSAzLjQ0LDMuMDIgNS4xMiw0LjMzIC0wLjQ0LDAuOTQgLTAuMzcsMi4wOCAwLjMsMi45NyB6Ii8+JiN4YTs8L3N2Zz4=;fillColor=#CCCCCC;" vertex="1" parent="1">
          <mxGeometry x="-94.87000000000006" y="390.12" width="100" height="100" as="geometry" />
        </mxCell>
        <mxCell id="3jxLnCF12T15F944jgeX-11" value="" style="verticalLabelPosition=bottom;html=1;verticalAlign=top;strokeColor=none;fillColor=#3399FF;shape=mxgraph.azure.tablet;dashed=1;fontFamily=Helvetica;fontSize=14;fontColor=#004C99" vertex="1" parent="1">
          <mxGeometry x="-522.5" y="914.51" width="50" height="37.5" as="geometry" />
        </mxCell>
        <mxCell id="3jxLnCF12T15F944jgeX-12" value="" style="verticalLabelPosition=bottom;html=1;verticalAlign=top;strokeColor=none;fillColor=#3399FF;shape=mxgraph.azure.mobile;dashed=1;fontFamily=Helvetica;fontSize=14;fontColor=#004C99" vertex="1" parent="1">
          <mxGeometry x="-442.5" y="908.51" width="35" height="50" as="geometry" />
        </mxCell>
        <mxCell id="3jxLnCF12T15F944jgeX-13" value="Devices" style="verticalLabelPosition=bottom;html=1;verticalAlign=top;strokeColor=none;fillColor=#3399FF;shape=mxgraph.azure.laptop;dashed=1;fontFamily=Helvetica;fontSize=14;fontColor=#004C99" vertex="1" parent="1">
          <mxGeometry x="-492.5" y="964.51" width="49.5" height="27.86" as="geometry" />
        </mxCell>
        <mxCell id="3jxLnCF12T15F944jgeX-20" value="&lt;font style=&quot;font-size: 24px;&quot;&gt;ABB Acount Server&lt;/font&gt;" style="whiteSpace=wrap;html=1;dashed=1;strokeColor=none;strokeWidth=2;fillColor=#3399FF;fontFamily=Helvetica;fontSize=18;fontColor=#FFFFFF;fontStyle=1" vertex="1" parent="1">
          <mxGeometry x="5.130000000000001" y="1007.5" width="960" height="70" as="geometry" />
        </mxCell>
        <mxCell id="3jxLnCF12T15F944jgeX-25" value="" style="shape=image;verticalLabelPosition=bottom;labelBackgroundColor=#ffffff;verticalAlign=top;aspect=fixed;imageAspect=0;image=data:image/svg+xml,PHN2ZyB4bWxuczpjYz0iaHR0cDovL2NyZWF0aXZlY29tbW9ucy5vcmcvbnMjIiB4bWxuczpkYz0iaHR0cDovL3B1cmwub3JnL2RjL2VsZW1lbnRzLzEuMS8iIHhtbG5zOmlua3NjYXBlPSJodHRwOi8vd3d3Lmlua3NjYXBlLm9yZy9uYW1lc3BhY2VzL2lua3NjYXBlIiB4bWxuczpyZGY9Imh0dHA6Ly93d3cudzMub3JnLzE5OTkvMDIvMjItcmRmLXN5bnRheC1ucyMiIHhtbG5zOnNvZGlwb2RpPSJodHRwOi8vc29kaXBvZGkuc291cmNlZm9yZ2UubmV0L0RURC9zb2RpcG9kaS0wLmR0ZCIgeG1sbnM6c3ZnPSJodHRwOi8vd3d3LnczLm9yZy8yMDAwL3N2ZyIgeG1sbnM9Imh0dHA6Ly93d3cudzMub3JnLzIwMDAvc3ZnIiB4bWxuczp4bGluaz0iaHR0cDovL3d3dy53My5vcmcvMTk5OS94bGluayIgdmVyc2lvbj0iMS4xIiBpZD0ic3ZnNTY0MTEiIGlua3NjYXBlOnZlcnNpb249IjAuOTIuMyAoMjQwNTU0NiwgMjAxOC0wMy0xMSkiIHNvZGlwb2RpOmRvY25hbWU9ImF6dXJlX2NvbnRhaW5lcl9pbnN0YW5jZXMuc3ZnIiB4PSIwcHgiIHk9IjBweCIgdmlld0JveD0iMCAwIDM3LjcgMzcuOCIgc3R5bGU9ImVuYWJsZS1iYWNrZ3JvdW5kOm5ldyAwIDAgMzcuNyAzNy44OyIgeG1sOnNwYWNlPSJwcmVzZXJ2ZSI+JiN4YTs8c29kaXBvZGk6bmFtZWR2aWV3IGJvcmRlcmNvbG9yPSIjNjY2NjY2IiBib3JkZXJvcGFjaXR5PSIxIiBmaXQtbWFyZ2luLWJvdHRvbT0iMCIgZml0LW1hcmdpbi1sZWZ0PSIwIiBmaXQtbWFyZ2luLXJpZ2h0PSIwIiBmaXQtbWFyZ2luLXRvcD0iMCIgZ3JpZHRvbGVyYW5jZT0iMTAiIGd1aWRldG9sZXJhbmNlPSIxMCIgaWQ9Im5hbWVkdmlldzU2NDEzIiBpbmtzY2FwZTpjdXJyZW50LWxheWVyPSJzdmc1NjQxMSIgaW5rc2NhcGU6Y3g9IjI3LjYxODI3MyIgaW5rc2NhcGU6Y3k9IjIyLjQ3Mzg3NCIgaW5rc2NhcGU6cGFnZW9wYWNpdHk9IjAiIGlua3NjYXBlOnBhZ2VzaGFkb3c9IjIiIGlua3NjYXBlOndpbmRvdy1oZWlnaHQ9IjEwMTciIGlua3NjYXBlOndpbmRvdy1tYXhpbWl6ZWQ9IjEiIGlua3NjYXBlOndpbmRvdy13aWR0aD0iMTkyMCIgaW5rc2NhcGU6d2luZG93LXg9Ii04IiBpbmtzY2FwZTp3aW5kb3cteT0iLTgiIGlua3NjYXBlOnpvb209IjEwLjQyNTkxNCIgb2JqZWN0dG9sZXJhbmNlPSIxMCIgcGFnZWNvbG9yPSIjZmZmZmZmIiBzaG93Z3JpZD0iZmFsc2UiPiYjeGE7CTwvc29kaXBvZGk6bmFtZWR2aWV3PiYjeGE7PGcgaWQ9Imc1NjQwOSIgdHJhbnNmb3JtPSJ0cmFuc2xhdGUoLTEyLjI4NjgzNiwtMTIuMjgyMzczKSI+JiN4YTsJPHRpdGxlIGlkPSJ0aXRsZTU2MzY1Ij5QYWdlLTE8L3RpdGxlPiYjeGE7CTxnIGlkPSJncm91cDU3NjEtMSIgdHJhbnNmb3JtPSJ0cmFuc2xhdGUoMTIuNDQxOCwtMTIuMjg5MikiPiYjeGE7CQk8dGl0bGUgaWQ9InRpdGxlNTYzNjciPkF6dXJlIENvbnRhaW5lciBJbnN0YW5jZXM8L3RpdGxlPiYjeGE7CQk8ZyBpZD0ic2hhcGU1NzYyLTIiIHRyYW5zZm9ybT0idHJhbnNsYXRlKDAsLTEzLjYyOTMpIj4mI3hhOwkJCTx0aXRsZSBpZD0idGl0bGU1NjM2OSI+U2hlZXQuNTc2MjwvdGl0bGU+JiN4YTsJCQk8cGF0aCBpZD0icGF0aDU2MzcxIiBpbmtzY2FwZTpjb25uZWN0b3ItY3VydmF0dXJlPSIwIiBzdHlsZT0iZmlsbDojRkZGRkZGOyIgZD0iTTMxLjUsNDYuNzVjLTAuMjctNC45OC00LjUyLTguOC05LjUtOC41NCAgICAgYy0yLjc0LDAuMTUtNS4yNiwxLjUzLTYuODYsMy43NmMtMy4xMy0yLjQxLTcuNjItMS44My0xMC4wMywxLjI5Yy0xLjM0LDEuNzQtMS44MSw0LTEuMjcsNi4xM2MtMy40MiwxLjU0LTQuOTQsNS41Ny0zLjM5LDguOTkgICAgIGMxLjEsMi40MywzLjUyLDQsNi4xOSwzLjk5aDIzYzQuMzgtMC4wMSw3LjkyLTMuNTYsNy45MS03Ljk0QzM3LjU0LDUwLjc5LDM1LjA0LDQ3LjYxLDMxLjUsNDYuNzV6Ii8+JiN4YTsJCTwvZz4mI3hhOwkJPGcgaWQ9InNoYXBlNTc2My00IiB0cmFuc2Zvcm09InRyYW5zbGF0ZSgwLC0xMy42MjkzKSI+JiN4YTsJCQk8dGl0bGUgaWQ9InRpdGxlNTYzNzQiPlNoZWV0LjU3NjM8L3RpdGxlPiYjeGE7CQkJPHBhdGggaWQ9InBhdGg1NjM3NiIgaW5rc2NhcGU6Y29ubmVjdG9yLWN1cnZhdHVyZT0iMCIgc3R5bGU9ImZpbGw6IzI3QTlFMTtmaWxsLW9wYWNpdHk6MC42OyIgZD0iTTMxLjUsNDYuNzUgICAgIGMtMC4yNy00Ljk4LTQuNTItOC44LTkuNS04LjU0Yy0yLjc0LDAuMTUtNS4yNiwxLjUzLTYuODYsMy43NmMtMy4xMy0yLjQxLTcuNjItMS44My0xMC4wMywxLjI5Yy0xLjM0LDEuNzQtMS44MSw0LTEuMjcsNi4xMyAgICAgYy0zLjQyLDEuNTQtNC45NCw1LjU3LTMuMzksOC45OWMxLjEsMi40MywzLjUyLDQsNi4xOSwzLjk5aDIzYzQuMzgtMC4wMSw3LjkyLTMuNTYsNy45MS03Ljk0ICAgICBDMzcuNTQsNTAuNzksMzUuMDQsNDcuNjEsMzEuNSw0Ni43NXoiLz4mI3hhOwkJPC9nPiYjeGE7CQk8ZyBpZD0ic2hhcGU1NzY0LTYiIHRyYW5zZm9ybT0idHJhbnNsYXRlKDguODU4MjQpIj4mI3hhOwkJCTx0aXRsZSBpZD0idGl0bGU1NjM3OSI+U2hlZXQuNTc2NDwvdGl0bGU+JiN4YTsJCQk8cGF0aCBpZD0icGF0aDU2MzgxIiBpbmtzY2FwZTpjb25uZWN0b3ItY3VydmF0dXJlPSIwIiBzdHlsZT0iZmlsbDojNjcyQTdBOyIgZD0iTTAuNzYsNDEuMTdDMC4zNCw0MS4xNywwLDQxLjUxLDAsNDEuOTMgICAgIGMwLDAsMCwwLDAsMGwwLDE5LjY4YzAsMC40MiwwLjM0LDAuNzYsMC43NiwwLjc2YzAsMCwwLDAsMCwwbDE4LjE3LDBjMC40MiwwLDAuNzYtMC4zNCwwLjc2LTAuNzZsMC0xOS42OSAgICAgYzAtMC40Mi0wLjM0LTAuNzYtMC43Ni0wLjc2aDBMMC43Niw0MS4xN3oiLz4mI3hhOwkJPC9nPiYjeGE7CQk8ZyBpZD0ic2hhcGU1NzY1LTgiIHRyYW5zZm9ybT0idHJhbnNsYXRlKDIwLjE3ODEsLTI1Ljc0NDMpIj4mI3hhOwkJCTx0aXRsZSBpZD0idGl0bGU1NjM4NCI+U2hlZXQuNTc2NTwvdGl0bGU+JiN4YTsJCTwvZz4mI3hhOwkJPGcgaWQ9InNoYXBlNTc2Ni05IiB0cmFuc2Zvcm09InRyYW5zbGF0ZSgyNi4yMzU2LC0yMi43MTU1KSI+JiN4YTsJCQk8dGl0bGUgaWQ9InRpdGxlNTYzODciPlNoZWV0LjU3NjY8L3RpdGxlPiYjeGE7CQk8L2c+JiN4YTsJCTxnIGlkPSJzaGFwZTU3NjctMTAiIHRyYW5zZm9ybT0idHJhbnNsYXRlKDE0LjkxNTcsLTIxLjIwMTIpIj4mI3hhOwkJCTx0aXRsZSBpZD0idGl0bGU1NjM5MCI+U2hlZXQuNTc2NzwvdGl0bGU+JiN4YTsJCQk8cGF0aCBpZD0icGF0aDU2MzkyIiBpbmtzY2FwZTpjb25uZWN0b3ItY3VydmF0dXJlPSIwIiBzdHlsZT0iZmlsbDojRkZGRkZGOyIgZD0iTTIuMjcsNjIuMzd2LTUuM0gwbDMuNzktNS4zbDMuNzgsNS4zSDUuM3Y1LjMgICAgIEgyLjI3eiIvPiYjeGE7CQk8L2c+JiN4YTsJCTxnIGlkPSJzaGFwZTU3NjgtMTIiIHRyYW5zZm9ybT0idHJhbnNsYXRlKDIwLjE3ODEsLTI1Ljc0NDMpIj4mI3hhOwkJCTx0aXRsZSBpZD0idGl0bGU1NjM5NSI+U2hlZXQuNTc2ODwvdGl0bGU+JiN4YTsJCTwvZz4mI3hhOwkJPGcgaWQ9InNoYXBlNTc2OS0xMyIgdHJhbnNmb3JtPSJ0cmFuc2xhdGUoMTEuMTI5OCwtMi4yNzE1NSkiPiYjeGE7CQkJPHRpdGxlIGlkPSJ0aXRsZTU2Mzk4Ij5TaGVldC41NzY5PC90aXRsZT4mI3hhOwkJCTxwYXRoIGlkPSJwYXRoNTY0MDAiIGlua3NjYXBlOmNvbm5lY3Rvci1jdXJ2YXR1cmU9IjAiIHN0eWxlPSJmaWxsOiNCOTIwMjU7ZmlsbC1vcGFjaXR5OjAuMzsiIGQ9Ik0xMy42Myw0NS43MUgwdjE2LjY2aDE1LjE0ICAgICBWNDUuNzFIMTMuNjN6IE00LjU0LDYwLjg1SDEuNTFWNDcuMjJoMy4wM1Y2MC44NXogTTkuMDksNjAuODVINi4wNlY0Ny4yMmgzLjAzVjYwLjg1eiBNMTMuNjMsNjAuODVIMTAuNlY0Ny4yMmgzLjAzVjYwLjg1eiIvPiYjeGE7CQk8L2c+JiN4YTsJCTxnIGlkPSJzaGFwZTU3NzAtMTUiIHRyYW5zZm9ybT0idHJhbnNsYXRlKDExLjEyOTgsLTIuMjcxNTUpIj4mI3hhOwkJCTx0aXRsZSBpZD0idGl0bGU1NjQwMyI+U2hlZXQuNTc3MDwvdGl0bGU+JiN4YTsJCQk8cGF0aCBpZD0icGF0aDU2NDA1IiBpbmtzY2FwZTpjb25uZWN0b3ItY3VydmF0dXJlPSIwIiBzdHlsZT0iZmlsbDojRkZGRkZGOyIgZD0iTTEzLjYzLDQ1LjcxSDB2MTYuNjZoMTUuMTRWNDUuNzFIMTMuNjN6ICAgICAgTTQuNTQsNjAuODVIMS41MVY0Ny4yMmgzLjAzVjYwLjg1eiBNOS4wOSw2MC44NUg2LjA2VjQ3LjIyaDMuMDNWNjAuODV6IE0xMy42Myw2MC44NUgxMC42VjQ3LjIyaDMuMDNWNjAuODV6Ii8+JiN4YTsJCTwvZz4mI3hhOwk8L2c+JiN4YTs8L2c+JiN4YTs8L3N2Zz4=;fillColor=#CCCCCC;" vertex="1" parent="1">
          <mxGeometry x="105.7600000000001" y="1018.1299999999999" width="48.75" height="48.75" as="geometry" />
        </mxCell>
        <mxCell id="3jxLnCF12T15F944jgeX-26" value="" style="shape=image;verticalLabelPosition=bottom;labelBackgroundColor=#ffffff;verticalAlign=top;aspect=fixed;imageAspect=0;image=data:image/svg+xml,PHN2ZyB4bWxuczpjYz0iaHR0cDovL2NyZWF0aXZlY29tbW9ucy5vcmcvbnMjIiB4bWxuczpkYz0iaHR0cDovL3B1cmwub3JnL2RjL2VsZW1lbnRzLzEuMS8iIHhtbG5zOmlua3NjYXBlPSJodHRwOi8vd3d3Lmlua3NjYXBlLm9yZy9uYW1lc3BhY2VzL2lua3NjYXBlIiB4bWxuczpyZGY9Imh0dHA6Ly93d3cudzMub3JnLzE5OTkvMDIvMjItcmRmLXN5bnRheC1ucyMiIHhtbG5zOnNvZGlwb2RpPSJodHRwOi8vc29kaXBvZGkuc291cmNlZm9yZ2UubmV0L0RURC9zb2RpcG9kaS0wLmR0ZCIgeG1sbnM6c3ZnPSJodHRwOi8vd3d3LnczLm9yZy8yMDAwL3N2ZyIgeG1sbnM9Imh0dHA6Ly93d3cudzMub3JnLzIwMDAvc3ZnIiB4bWxuczp4bGluaz0iaHR0cDovL3d3dy53My5vcmcvMTk5OS94bGluayIgdmVyc2lvbj0iMS4xIiBpZD0ic3ZnNTY0MTEiIGlua3NjYXBlOnZlcnNpb249IjAuOTIuMyAoMjQwNTU0NiwgMjAxOC0wMy0xMSkiIHNvZGlwb2RpOmRvY25hbWU9ImF6dXJlX2NvbnRhaW5lcl9pbnN0YW5jZXMuc3ZnIiB4PSIwcHgiIHk9IjBweCIgdmlld0JveD0iMCAwIDM3LjcgMzcuOCIgc3R5bGU9ImVuYWJsZS1iYWNrZ3JvdW5kOm5ldyAwIDAgMzcuNyAzNy44OyIgeG1sOnNwYWNlPSJwcmVzZXJ2ZSI+JiN4YTs8c29kaXBvZGk6bmFtZWR2aWV3IGJvcmRlcmNvbG9yPSIjNjY2NjY2IiBib3JkZXJvcGFjaXR5PSIxIiBmaXQtbWFyZ2luLWJvdHRvbT0iMCIgZml0LW1hcmdpbi1sZWZ0PSIwIiBmaXQtbWFyZ2luLXJpZ2h0PSIwIiBmaXQtbWFyZ2luLXRvcD0iMCIgZ3JpZHRvbGVyYW5jZT0iMTAiIGd1aWRldG9sZXJhbmNlPSIxMCIgaWQ9Im5hbWVkdmlldzU2NDEzIiBpbmtzY2FwZTpjdXJyZW50LWxheWVyPSJzdmc1NjQxMSIgaW5rc2NhcGU6Y3g9IjI3LjYxODI3MyIgaW5rc2NhcGU6Y3k9IjIyLjQ3Mzg3NCIgaW5rc2NhcGU6cGFnZW9wYWNpdHk9IjAiIGlua3NjYXBlOnBhZ2VzaGFkb3c9IjIiIGlua3NjYXBlOndpbmRvdy1oZWlnaHQ9IjEwMTciIGlua3NjYXBlOndpbmRvdy1tYXhpbWl6ZWQ9IjEiIGlua3NjYXBlOndpbmRvdy13aWR0aD0iMTkyMCIgaW5rc2NhcGU6d2luZG93LXg9Ii04IiBpbmtzY2FwZTp3aW5kb3cteT0iLTgiIGlua3NjYXBlOnpvb209IjEwLjQyNTkxNCIgb2JqZWN0dG9sZXJhbmNlPSIxMCIgcGFnZWNvbG9yPSIjZmZmZmZmIiBzaG93Z3JpZD0iZmFsc2UiPiYjeGE7CTwvc29kaXBvZGk6bmFtZWR2aWV3PiYjeGE7PGcgaWQ9Imc1NjQwOSIgdHJhbnNmb3JtPSJ0cmFuc2xhdGUoLTEyLjI4NjgzNiwtMTIuMjgyMzczKSI+JiN4YTsJPHRpdGxlIGlkPSJ0aXRsZTU2MzY1Ij5QYWdlLTE8L3RpdGxlPiYjeGE7CTxnIGlkPSJncm91cDU3NjEtMSIgdHJhbnNmb3JtPSJ0cmFuc2xhdGUoMTIuNDQxOCwtMTIuMjg5MikiPiYjeGE7CQk8dGl0bGUgaWQ9InRpdGxlNTYzNjciPkF6dXJlIENvbnRhaW5lciBJbnN0YW5jZXM8L3RpdGxlPiYjeGE7CQk8ZyBpZD0ic2hhcGU1NzYyLTIiIHRyYW5zZm9ybT0idHJhbnNsYXRlKDAsLTEzLjYyOTMpIj4mI3hhOwkJCTx0aXRsZSBpZD0idGl0bGU1NjM2OSI+U2hlZXQuNTc2MjwvdGl0bGU+JiN4YTsJCQk8cGF0aCBpZD0icGF0aDU2MzcxIiBpbmtzY2FwZTpjb25uZWN0b3ItY3VydmF0dXJlPSIwIiBzdHlsZT0iZmlsbDojRkZGRkZGOyIgZD0iTTMxLjUsNDYuNzVjLTAuMjctNC45OC00LjUyLTguOC05LjUtOC41NCAgICAgYy0yLjc0LDAuMTUtNS4yNiwxLjUzLTYuODYsMy43NmMtMy4xMy0yLjQxLTcuNjItMS44My0xMC4wMywxLjI5Yy0xLjM0LDEuNzQtMS44MSw0LTEuMjcsNi4xM2MtMy40MiwxLjU0LTQuOTQsNS41Ny0zLjM5LDguOTkgICAgIGMxLjEsMi40MywzLjUyLDQsNi4xOSwzLjk5aDIzYzQuMzgtMC4wMSw3LjkyLTMuNTYsNy45MS03Ljk0QzM3LjU0LDUwLjc5LDM1LjA0LDQ3LjYxLDMxLjUsNDYuNzV6Ii8+JiN4YTsJCTwvZz4mI3hhOwkJPGcgaWQ9InNoYXBlNTc2My00IiB0cmFuc2Zvcm09InRyYW5zbGF0ZSgwLC0xMy42MjkzKSI+JiN4YTsJCQk8dGl0bGUgaWQ9InRpdGxlNTYzNzQiPlNoZWV0LjU3NjM8L3RpdGxlPiYjeGE7CQkJPHBhdGggaWQ9InBhdGg1NjM3NiIgaW5rc2NhcGU6Y29ubmVjdG9yLWN1cnZhdHVyZT0iMCIgc3R5bGU9ImZpbGw6IzI3QTlFMTtmaWxsLW9wYWNpdHk6MC42OyIgZD0iTTMxLjUsNDYuNzUgICAgIGMtMC4yNy00Ljk4LTQuNTItOC44LTkuNS04LjU0Yy0yLjc0LDAuMTUtNS4yNiwxLjUzLTYuODYsMy43NmMtMy4xMy0yLjQxLTcuNjItMS44My0xMC4wMywxLjI5Yy0xLjM0LDEuNzQtMS44MSw0LTEuMjcsNi4xMyAgICAgYy0zLjQyLDEuNTQtNC45NCw1LjU3LTMuMzksOC45OWMxLjEsMi40MywzLjUyLDQsNi4xOSwzLjk5aDIzYzQuMzgtMC4wMSw3LjkyLTMuNTYsNy45MS03Ljk0ICAgICBDMzcuNTQsNTAuNzksMzUuMDQsNDcuNjEsMzEuNSw0Ni43NXoiLz4mI3hhOwkJPC9nPiYjeGE7CQk8ZyBpZD0ic2hhcGU1NzY0LTYiIHRyYW5zZm9ybT0idHJhbnNsYXRlKDguODU4MjQpIj4mI3hhOwkJCTx0aXRsZSBpZD0idGl0bGU1NjM3OSI+U2hlZXQuNTc2NDwvdGl0bGU+JiN4YTsJCQk8cGF0aCBpZD0icGF0aDU2MzgxIiBpbmtzY2FwZTpjb25uZWN0b3ItY3VydmF0dXJlPSIwIiBzdHlsZT0iZmlsbDojNjcyQTdBOyIgZD0iTTAuNzYsNDEuMTdDMC4zNCw0MS4xNywwLDQxLjUxLDAsNDEuOTMgICAgIGMwLDAsMCwwLDAsMGwwLDE5LjY4YzAsMC40MiwwLjM0LDAuNzYsMC43NiwwLjc2YzAsMCwwLDAsMCwwbDE4LjE3LDBjMC40MiwwLDAuNzYtMC4zNCwwLjc2LTAuNzZsMC0xOS42OSAgICAgYzAtMC40Mi0wLjM0LTAuNzYtMC43Ni0wLjc2aDBMMC43Niw0MS4xN3oiLz4mI3hhOwkJPC9nPiYjeGE7CQk8ZyBpZD0ic2hhcGU1NzY1LTgiIHRyYW5zZm9ybT0idHJhbnNsYXRlKDIwLjE3ODEsLTI1Ljc0NDMpIj4mI3hhOwkJCTx0aXRsZSBpZD0idGl0bGU1NjM4NCI+U2hlZXQuNTc2NTwvdGl0bGU+JiN4YTsJCTwvZz4mI3hhOwkJPGcgaWQ9InNoYXBlNTc2Ni05IiB0cmFuc2Zvcm09InRyYW5zbGF0ZSgyNi4yMzU2LC0yMi43MTU1KSI+JiN4YTsJCQk8dGl0bGUgaWQ9InRpdGxlNTYzODciPlNoZWV0LjU3NjY8L3RpdGxlPiYjeGE7CQk8L2c+JiN4YTsJCTxnIGlkPSJzaGFwZTU3NjctMTAiIHRyYW5zZm9ybT0idHJhbnNsYXRlKDE0LjkxNTcsLTIxLjIwMTIpIj4mI3hhOwkJCTx0aXRsZSBpZD0idGl0bGU1NjM5MCI+U2hlZXQuNTc2NzwvdGl0bGU+JiN4YTsJCQk8cGF0aCBpZD0icGF0aDU2MzkyIiBpbmtzY2FwZTpjb25uZWN0b3ItY3VydmF0dXJlPSIwIiBzdHlsZT0iZmlsbDojRkZGRkZGOyIgZD0iTTIuMjcsNjIuMzd2LTUuM0gwbDMuNzktNS4zbDMuNzgsNS4zSDUuM3Y1LjMgICAgIEgyLjI3eiIvPiYjeGE7CQk8L2c+JiN4YTsJCTxnIGlkPSJzaGFwZTU3NjgtMTIiIHRyYW5zZm9ybT0idHJhbnNsYXRlKDIwLjE3ODEsLTI1Ljc0NDMpIj4mI3hhOwkJCTx0aXRsZSBpZD0idGl0bGU1NjM5NSI+U2hlZXQuNTc2ODwvdGl0bGU+JiN4YTsJCTwvZz4mI3hhOwkJPGcgaWQ9InNoYXBlNTc2OS0xMyIgdHJhbnNmb3JtPSJ0cmFuc2xhdGUoMTEuMTI5OCwtMi4yNzE1NSkiPiYjeGE7CQkJPHRpdGxlIGlkPSJ0aXRsZTU2Mzk4Ij5TaGVldC41NzY5PC90aXRsZT4mI3hhOwkJCTxwYXRoIGlkPSJwYXRoNTY0MDAiIGlua3NjYXBlOmNvbm5lY3Rvci1jdXJ2YXR1cmU9IjAiIHN0eWxlPSJmaWxsOiNCOTIwMjU7ZmlsbC1vcGFjaXR5OjAuMzsiIGQ9Ik0xMy42Myw0NS43MUgwdjE2LjY2aDE1LjE0ICAgICBWNDUuNzFIMTMuNjN6IE00LjU0LDYwLjg1SDEuNTFWNDcuMjJoMy4wM1Y2MC44NXogTTkuMDksNjAuODVINi4wNlY0Ny4yMmgzLjAzVjYwLjg1eiBNMTMuNjMsNjAuODVIMTAuNlY0Ny4yMmgzLjAzVjYwLjg1eiIvPiYjeGE7CQk8L2c+JiN4YTsJCTxnIGlkPSJzaGFwZTU3NzAtMTUiIHRyYW5zZm9ybT0idHJhbnNsYXRlKDExLjEyOTgsLTIuMjcxNTUpIj4mI3hhOwkJCTx0aXRsZSBpZD0idGl0bGU1NjQwMyI+U2hlZXQuNTc3MDwvdGl0bGU+JiN4YTsJCQk8cGF0aCBpZD0icGF0aDU2NDA1IiBpbmtzY2FwZTpjb25uZWN0b3ItY3VydmF0dXJlPSIwIiBzdHlsZT0iZmlsbDojRkZGRkZGOyIgZD0iTTEzLjYzLDQ1LjcxSDB2MTYuNjZoMTUuMTRWNDUuNzFIMTMuNjN6ICAgICAgTTQuNTQsNjAuODVIMS41MVY0Ny4yMmgzLjAzVjYwLjg1eiBNOS4wOSw2MC44NUg2LjA2VjQ3LjIyaDMuMDNWNjAuODV6IE0xMy42Myw2MC44NUgxMC42VjQ3LjIyaDMuMDNWNjAuODV6Ii8+JiN4YTsJCTwvZz4mI3hhOwk8L2c+JiN4YTs8L2c+JiN4YTs8L3N2Zz4=;fillColor=#CCCCCC;" vertex="1" parent="1">
          <mxGeometry x="215.5000000000001" y="1018.1299999999999" width="48.75" height="48.75" as="geometry" />
        </mxCell>
        <mxCell id="3jxLnCF12T15F944jgeX-27" value="" style="shape=image;verticalLabelPosition=bottom;labelBackgroundColor=#ffffff;verticalAlign=top;aspect=fixed;imageAspect=0;image=data:image/svg+xml,PHN2ZyB4bWxuczpjYz0iaHR0cDovL2NyZWF0aXZlY29tbW9ucy5vcmcvbnMjIiB4bWxuczpkYz0iaHR0cDovL3B1cmwub3JnL2RjL2VsZW1lbnRzLzEuMS8iIHhtbG5zOmlua3NjYXBlPSJodHRwOi8vd3d3Lmlua3NjYXBlLm9yZy9uYW1lc3BhY2VzL2lua3NjYXBlIiB4bWxuczpyZGY9Imh0dHA6Ly93d3cudzMub3JnLzE5OTkvMDIvMjItcmRmLXN5bnRheC1ucyMiIHhtbG5zOnNvZGlwb2RpPSJodHRwOi8vc29kaXBvZGkuc291cmNlZm9yZ2UubmV0L0RURC9zb2RpcG9kaS0wLmR0ZCIgeG1sbnM6c3ZnPSJodHRwOi8vd3d3LnczLm9yZy8yMDAwL3N2ZyIgeG1sbnM9Imh0dHA6Ly93d3cudzMub3JnLzIwMDAvc3ZnIiB4bWxuczp4bGluaz0iaHR0cDovL3d3dy53My5vcmcvMTk5OS94bGluayIgdmVyc2lvbj0iMS4xIiBpZD0ic3ZnNTY0MTEiIGlua3NjYXBlOnZlcnNpb249IjAuOTIuMyAoMjQwNTU0NiwgMjAxOC0wMy0xMSkiIHNvZGlwb2RpOmRvY25hbWU9ImF6dXJlX2NvbnRhaW5lcl9pbnN0YW5jZXMuc3ZnIiB4PSIwcHgiIHk9IjBweCIgdmlld0JveD0iMCAwIDM3LjcgMzcuOCIgc3R5bGU9ImVuYWJsZS1iYWNrZ3JvdW5kOm5ldyAwIDAgMzcuNyAzNy44OyIgeG1sOnNwYWNlPSJwcmVzZXJ2ZSI+JiN4YTs8c29kaXBvZGk6bmFtZWR2aWV3IGJvcmRlcmNvbG9yPSIjNjY2NjY2IiBib3JkZXJvcGFjaXR5PSIxIiBmaXQtbWFyZ2luLWJvdHRvbT0iMCIgZml0LW1hcmdpbi1sZWZ0PSIwIiBmaXQtbWFyZ2luLXJpZ2h0PSIwIiBmaXQtbWFyZ2luLXRvcD0iMCIgZ3JpZHRvbGVyYW5jZT0iMTAiIGd1aWRldG9sZXJhbmNlPSIxMCIgaWQ9Im5hbWVkdmlldzU2NDEzIiBpbmtzY2FwZTpjdXJyZW50LWxheWVyPSJzdmc1NjQxMSIgaW5rc2NhcGU6Y3g9IjI3LjYxODI3MyIgaW5rc2NhcGU6Y3k9IjIyLjQ3Mzg3NCIgaW5rc2NhcGU6cGFnZW9wYWNpdHk9IjAiIGlua3NjYXBlOnBhZ2VzaGFkb3c9IjIiIGlua3NjYXBlOndpbmRvdy1oZWlnaHQ9IjEwMTciIGlua3NjYXBlOndpbmRvdy1tYXhpbWl6ZWQ9IjEiIGlua3NjYXBlOndpbmRvdy13aWR0aD0iMTkyMCIgaW5rc2NhcGU6d2luZG93LXg9Ii04IiBpbmtzY2FwZTp3aW5kb3cteT0iLTgiIGlua3NjYXBlOnpvb209IjEwLjQyNTkxNCIgb2JqZWN0dG9sZXJhbmNlPSIxMCIgcGFnZWNvbG9yPSIjZmZmZmZmIiBzaG93Z3JpZD0iZmFsc2UiPiYjeGE7CTwvc29kaXBvZGk6bmFtZWR2aWV3PiYjeGE7PGcgaWQ9Imc1NjQwOSIgdHJhbnNmb3JtPSJ0cmFuc2xhdGUoLTEyLjI4NjgzNiwtMTIuMjgyMzczKSI+JiN4YTsJPHRpdGxlIGlkPSJ0aXRsZTU2MzY1Ij5QYWdlLTE8L3RpdGxlPiYjeGE7CTxnIGlkPSJncm91cDU3NjEtMSIgdHJhbnNmb3JtPSJ0cmFuc2xhdGUoMTIuNDQxOCwtMTIuMjg5MikiPiYjeGE7CQk8dGl0bGUgaWQ9InRpdGxlNTYzNjciPkF6dXJlIENvbnRhaW5lciBJbnN0YW5jZXM8L3RpdGxlPiYjeGE7CQk8ZyBpZD0ic2hhcGU1NzYyLTIiIHRyYW5zZm9ybT0idHJhbnNsYXRlKDAsLTEzLjYyOTMpIj4mI3hhOwkJCTx0aXRsZSBpZD0idGl0bGU1NjM2OSI+U2hlZXQuNTc2MjwvdGl0bGU+JiN4YTsJCQk8cGF0aCBpZD0icGF0aDU2MzcxIiBpbmtzY2FwZTpjb25uZWN0b3ItY3VydmF0dXJlPSIwIiBzdHlsZT0iZmlsbDojRkZGRkZGOyIgZD0iTTMxLjUsNDYuNzVjLTAuMjctNC45OC00LjUyLTguOC05LjUtOC41NCAgICAgYy0yLjc0LDAuMTUtNS4yNiwxLjUzLTYuODYsMy43NmMtMy4xMy0yLjQxLTcuNjItMS44My0xMC4wMywxLjI5Yy0xLjM0LDEuNzQtMS44MSw0LTEuMjcsNi4xM2MtMy40MiwxLjU0LTQuOTQsNS41Ny0zLjM5LDguOTkgICAgIGMxLjEsMi40MywzLjUyLDQsNi4xOSwzLjk5aDIzYzQuMzgtMC4wMSw3LjkyLTMuNTYsNy45MS03Ljk0QzM3LjU0LDUwLjc5LDM1LjA0LDQ3LjYxLDMxLjUsNDYuNzV6Ii8+JiN4YTsJCTwvZz4mI3hhOwkJPGcgaWQ9InNoYXBlNTc2My00IiB0cmFuc2Zvcm09InRyYW5zbGF0ZSgwLC0xMy42MjkzKSI+JiN4YTsJCQk8dGl0bGUgaWQ9InRpdGxlNTYzNzQiPlNoZWV0LjU3NjM8L3RpdGxlPiYjeGE7CQkJPHBhdGggaWQ9InBhdGg1NjM3NiIgaW5rc2NhcGU6Y29ubmVjdG9yLWN1cnZhdHVyZT0iMCIgc3R5bGU9ImZpbGw6IzI3QTlFMTtmaWxsLW9wYWNpdHk6MC42OyIgZD0iTTMxLjUsNDYuNzUgICAgIGMtMC4yNy00Ljk4LTQuNTItOC44LTkuNS04LjU0Yy0yLjc0LDAuMTUtNS4yNiwxLjUzLTYuODYsMy43NmMtMy4xMy0yLjQxLTcuNjItMS44My0xMC4wMywxLjI5Yy0xLjM0LDEuNzQtMS44MSw0LTEuMjcsNi4xMyAgICAgYy0zLjQyLDEuNTQtNC45NCw1LjU3LTMuMzksOC45OWMxLjEsMi40MywzLjUyLDQsNi4xOSwzLjk5aDIzYzQuMzgtMC4wMSw3LjkyLTMuNTYsNy45MS03Ljk0ICAgICBDMzcuNTQsNTAuNzksMzUuMDQsNDcuNjEsMzEuNSw0Ni43NXoiLz4mI3hhOwkJPC9nPiYjeGE7CQk8ZyBpZD0ic2hhcGU1NzY0LTYiIHRyYW5zZm9ybT0idHJhbnNsYXRlKDguODU4MjQpIj4mI3hhOwkJCTx0aXRsZSBpZD0idGl0bGU1NjM3OSI+U2hlZXQuNTc2NDwvdGl0bGU+JiN4YTsJCQk8cGF0aCBpZD0icGF0aDU2MzgxIiBpbmtzY2FwZTpjb25uZWN0b3ItY3VydmF0dXJlPSIwIiBzdHlsZT0iZmlsbDojNjcyQTdBOyIgZD0iTTAuNzYsNDEuMTdDMC4zNCw0MS4xNywwLDQxLjUxLDAsNDEuOTMgICAgIGMwLDAsMCwwLDAsMGwwLDE5LjY4YzAsMC40MiwwLjM0LDAuNzYsMC43NiwwLjc2YzAsMCwwLDAsMCwwbDE4LjE3LDBjMC40MiwwLDAuNzYtMC4zNCwwLjc2LTAuNzZsMC0xOS42OSAgICAgYzAtMC40Mi0wLjM0LTAuNzYtMC43Ni0wLjc2aDBMMC43Niw0MS4xN3oiLz4mI3hhOwkJPC9nPiYjeGE7CQk8ZyBpZD0ic2hhcGU1NzY1LTgiIHRyYW5zZm9ybT0idHJhbnNsYXRlKDIwLjE3ODEsLTI1Ljc0NDMpIj4mI3hhOwkJCTx0aXRsZSBpZD0idGl0bGU1NjM4NCI+U2hlZXQuNTc2NTwvdGl0bGU+JiN4YTsJCTwvZz4mI3hhOwkJPGcgaWQ9InNoYXBlNTc2Ni05IiB0cmFuc2Zvcm09InRyYW5zbGF0ZSgyNi4yMzU2LC0yMi43MTU1KSI+JiN4YTsJCQk8dGl0bGUgaWQ9InRpdGxlNTYzODciPlNoZWV0LjU3NjY8L3RpdGxlPiYjeGE7CQk8L2c+JiN4YTsJCTxnIGlkPSJzaGFwZTU3NjctMTAiIHRyYW5zZm9ybT0idHJhbnNsYXRlKDE0LjkxNTcsLTIxLjIwMTIpIj4mI3hhOwkJCTx0aXRsZSBpZD0idGl0bGU1NjM5MCI+U2hlZXQuNTc2NzwvdGl0bGU+JiN4YTsJCQk8cGF0aCBpZD0icGF0aDU2MzkyIiBpbmtzY2FwZTpjb25uZWN0b3ItY3VydmF0dXJlPSIwIiBzdHlsZT0iZmlsbDojRkZGRkZGOyIgZD0iTTIuMjcsNjIuMzd2LTUuM0gwbDMuNzktNS4zbDMuNzgsNS4zSDUuM3Y1LjMgICAgIEgyLjI3eiIvPiYjeGE7CQk8L2c+JiN4YTsJCTxnIGlkPSJzaGFwZTU3NjgtMTIiIHRyYW5zZm9ybT0idHJhbnNsYXRlKDIwLjE3ODEsLTI1Ljc0NDMpIj4mI3hhOwkJCTx0aXRsZSBpZD0idGl0bGU1NjM5NSI+U2hlZXQuNTc2ODwvdGl0bGU+JiN4YTsJCTwvZz4mI3hhOwkJPGcgaWQ9InNoYXBlNTc2OS0xMyIgdHJhbnNmb3JtPSJ0cmFuc2xhdGUoMTEuMTI5OCwtMi4yNzE1NSkiPiYjeGE7CQkJPHRpdGxlIGlkPSJ0aXRsZTU2Mzk4Ij5TaGVldC41NzY5PC90aXRsZT4mI3hhOwkJCTxwYXRoIGlkPSJwYXRoNTY0MDAiIGlua3NjYXBlOmNvbm5lY3Rvci1jdXJ2YXR1cmU9IjAiIHN0eWxlPSJmaWxsOiNCOTIwMjU7ZmlsbC1vcGFjaXR5OjAuMzsiIGQ9Ik0xMy42Myw0NS43MUgwdjE2LjY2aDE1LjE0ICAgICBWNDUuNzFIMTMuNjN6IE00LjU0LDYwLjg1SDEuNTFWNDcuMjJoMy4wM1Y2MC44NXogTTkuMDksNjAuODVINi4wNlY0Ny4yMmgzLjAzVjYwLjg1eiBNMTMuNjMsNjAuODVIMTAuNlY0Ny4yMmgzLjAzVjYwLjg1eiIvPiYjeGE7CQk8L2c+JiN4YTsJCTxnIGlkPSJzaGFwZTU3NzAtMTUiIHRyYW5zZm9ybT0idHJhbnNsYXRlKDExLjEyOTgsLTIuMjcxNTUpIj4mI3hhOwkJCTx0aXRsZSBpZD0idGl0bGU1NjQwMyI+U2hlZXQuNTc3MDwvdGl0bGU+JiN4YTsJCQk8cGF0aCBpZD0icGF0aDU2NDA1IiBpbmtzY2FwZTpjb25uZWN0b3ItY3VydmF0dXJlPSIwIiBzdHlsZT0iZmlsbDojRkZGRkZGOyIgZD0iTTEzLjYzLDQ1LjcxSDB2MTYuNjZoMTUuMTRWNDUuNzFIMTMuNjN6ICAgICAgTTQuNTQsNjAuODVIMS41MVY0Ny4yMmgzLjAzVjYwLjg1eiBNOS4wOSw2MC44NUg2LjA2VjQ3LjIyaDMuMDNWNjAuODV6IE0xMy42Myw2MC44NUgxMC42VjQ3LjIyaDMuMDNWNjAuODV6Ii8+JiN4YTsJCTwvZz4mI3hhOwk8L2c+JiN4YTs8L2c+JiN4YTs8L3N2Zz4=;fillColor=#CCCCCC;" vertex="1" parent="1">
          <mxGeometry x="645.1300000000001" y="1018.1199999999999" width="48.75" height="48.75" as="geometry" />
        </mxCell>
        <mxCell id="3jxLnCF12T15F944jgeX-28" value="" style="shape=image;verticalLabelPosition=bottom;labelBackgroundColor=#ffffff;verticalAlign=top;aspect=fixed;imageAspect=0;image=data:image/svg+xml,PHN2ZyB4bWxuczpjYz0iaHR0cDovL2NyZWF0aXZlY29tbW9ucy5vcmcvbnMjIiB4bWxuczpkYz0iaHR0cDovL3B1cmwub3JnL2RjL2VsZW1lbnRzLzEuMS8iIHhtbG5zOmlua3NjYXBlPSJodHRwOi8vd3d3Lmlua3NjYXBlLm9yZy9uYW1lc3BhY2VzL2lua3NjYXBlIiB4bWxuczpyZGY9Imh0dHA6Ly93d3cudzMub3JnLzE5OTkvMDIvMjItcmRmLXN5bnRheC1ucyMiIHhtbG5zOnNvZGlwb2RpPSJodHRwOi8vc29kaXBvZGkuc291cmNlZm9yZ2UubmV0L0RURC9zb2RpcG9kaS0wLmR0ZCIgeG1sbnM6c3ZnPSJodHRwOi8vd3d3LnczLm9yZy8yMDAwL3N2ZyIgeG1sbnM9Imh0dHA6Ly93d3cudzMub3JnLzIwMDAvc3ZnIiB4bWxuczp4bGluaz0iaHR0cDovL3d3dy53My5vcmcvMTk5OS94bGluayIgdmVyc2lvbj0iMS4xIiBpZD0ic3ZnNTY0MTEiIGlua3NjYXBlOnZlcnNpb249IjAuOTIuMyAoMjQwNTU0NiwgMjAxOC0wMy0xMSkiIHNvZGlwb2RpOmRvY25hbWU9ImF6dXJlX2NvbnRhaW5lcl9pbnN0YW5jZXMuc3ZnIiB4PSIwcHgiIHk9IjBweCIgdmlld0JveD0iMCAwIDM3LjcgMzcuOCIgc3R5bGU9ImVuYWJsZS1iYWNrZ3JvdW5kOm5ldyAwIDAgMzcuNyAzNy44OyIgeG1sOnNwYWNlPSJwcmVzZXJ2ZSI+JiN4YTs8c29kaXBvZGk6bmFtZWR2aWV3IGJvcmRlcmNvbG9yPSIjNjY2NjY2IiBib3JkZXJvcGFjaXR5PSIxIiBmaXQtbWFyZ2luLWJvdHRvbT0iMCIgZml0LW1hcmdpbi1sZWZ0PSIwIiBmaXQtbWFyZ2luLXJpZ2h0PSIwIiBmaXQtbWFyZ2luLXRvcD0iMCIgZ3JpZHRvbGVyYW5jZT0iMTAiIGd1aWRldG9sZXJhbmNlPSIxMCIgaWQ9Im5hbWVkdmlldzU2NDEzIiBpbmtzY2FwZTpjdXJyZW50LWxheWVyPSJzdmc1NjQxMSIgaW5rc2NhcGU6Y3g9IjI3LjYxODI3MyIgaW5rc2NhcGU6Y3k9IjIyLjQ3Mzg3NCIgaW5rc2NhcGU6cGFnZW9wYWNpdHk9IjAiIGlua3NjYXBlOnBhZ2VzaGFkb3c9IjIiIGlua3NjYXBlOndpbmRvdy1oZWlnaHQ9IjEwMTciIGlua3NjYXBlOndpbmRvdy1tYXhpbWl6ZWQ9IjEiIGlua3NjYXBlOndpbmRvdy13aWR0aD0iMTkyMCIgaW5rc2NhcGU6d2luZG93LXg9Ii04IiBpbmtzY2FwZTp3aW5kb3cteT0iLTgiIGlua3NjYXBlOnpvb209IjEwLjQyNTkxNCIgb2JqZWN0dG9sZXJhbmNlPSIxMCIgcGFnZWNvbG9yPSIjZmZmZmZmIiBzaG93Z3JpZD0iZmFsc2UiPiYjeGE7CTwvc29kaXBvZGk6bmFtZWR2aWV3PiYjeGE7PGcgaWQ9Imc1NjQwOSIgdHJhbnNmb3JtPSJ0cmFuc2xhdGUoLTEyLjI4NjgzNiwtMTIuMjgyMzczKSI+JiN4YTsJPHRpdGxlIGlkPSJ0aXRsZTU2MzY1Ij5QYWdlLTE8L3RpdGxlPiYjeGE7CTxnIGlkPSJncm91cDU3NjEtMSIgdHJhbnNmb3JtPSJ0cmFuc2xhdGUoMTIuNDQxOCwtMTIuMjg5MikiPiYjeGE7CQk8dGl0bGUgaWQ9InRpdGxlNTYzNjciPkF6dXJlIENvbnRhaW5lciBJbnN0YW5jZXM8L3RpdGxlPiYjeGE7CQk8ZyBpZD0ic2hhcGU1NzYyLTIiIHRyYW5zZm9ybT0idHJhbnNsYXRlKDAsLTEzLjYyOTMpIj4mI3hhOwkJCTx0aXRsZSBpZD0idGl0bGU1NjM2OSI+U2hlZXQuNTc2MjwvdGl0bGU+JiN4YTsJCQk8cGF0aCBpZD0icGF0aDU2MzcxIiBpbmtzY2FwZTpjb25uZWN0b3ItY3VydmF0dXJlPSIwIiBzdHlsZT0iZmlsbDojRkZGRkZGOyIgZD0iTTMxLjUsNDYuNzVjLTAuMjctNC45OC00LjUyLTguOC05LjUtOC41NCAgICAgYy0yLjc0LDAuMTUtNS4yNiwxLjUzLTYuODYsMy43NmMtMy4xMy0yLjQxLTcuNjItMS44My0xMC4wMywxLjI5Yy0xLjM0LDEuNzQtMS44MSw0LTEuMjcsNi4xM2MtMy40MiwxLjU0LTQuOTQsNS41Ny0zLjM5LDguOTkgICAgIGMxLjEsMi40MywzLjUyLDQsNi4xOSwzLjk5aDIzYzQuMzgtMC4wMSw3LjkyLTMuNTYsNy45MS03Ljk0QzM3LjU0LDUwLjc5LDM1LjA0LDQ3LjYxLDMxLjUsNDYuNzV6Ii8+JiN4YTsJCTwvZz4mI3hhOwkJPGcgaWQ9InNoYXBlNTc2My00IiB0cmFuc2Zvcm09InRyYW5zbGF0ZSgwLC0xMy42MjkzKSI+JiN4YTsJCQk8dGl0bGUgaWQ9InRpdGxlNTYzNzQiPlNoZWV0LjU3NjM8L3RpdGxlPiYjeGE7CQkJPHBhdGggaWQ9InBhdGg1NjM3NiIgaW5rc2NhcGU6Y29ubmVjdG9yLWN1cnZhdHVyZT0iMCIgc3R5bGU9ImZpbGw6IzI3QTlFMTtmaWxsLW9wYWNpdHk6MC42OyIgZD0iTTMxLjUsNDYuNzUgICAgIGMtMC4yNy00Ljk4LTQuNTItOC44LTkuNS04LjU0Yy0yLjc0LDAuMTUtNS4yNiwxLjUzLTYuODYsMy43NmMtMy4xMy0yLjQxLTcuNjItMS44My0xMC4wMywxLjI5Yy0xLjM0LDEuNzQtMS44MSw0LTEuMjcsNi4xMyAgICAgYy0zLjQyLDEuNTQtNC45NCw1LjU3LTMuMzksOC45OWMxLjEsMi40MywzLjUyLDQsNi4xOSwzLjk5aDIzYzQuMzgtMC4wMSw3LjkyLTMuNTYsNy45MS03Ljk0ICAgICBDMzcuNTQsNTAuNzksMzUuMDQsNDcuNjEsMzEuNSw0Ni43NXoiLz4mI3hhOwkJPC9nPiYjeGE7CQk8ZyBpZD0ic2hhcGU1NzY0LTYiIHRyYW5zZm9ybT0idHJhbnNsYXRlKDguODU4MjQpIj4mI3hhOwkJCTx0aXRsZSBpZD0idGl0bGU1NjM3OSI+U2hlZXQuNTc2NDwvdGl0bGU+JiN4YTsJCQk8cGF0aCBpZD0icGF0aDU2MzgxIiBpbmtzY2FwZTpjb25uZWN0b3ItY3VydmF0dXJlPSIwIiBzdHlsZT0iZmlsbDojNjcyQTdBOyIgZD0iTTAuNzYsNDEuMTdDMC4zNCw0MS4xNywwLDQxLjUxLDAsNDEuOTMgICAgIGMwLDAsMCwwLDAsMGwwLDE5LjY4YzAsMC40MiwwLjM0LDAuNzYsMC43NiwwLjc2YzAsMCwwLDAsMCwwbDE4LjE3LDBjMC40MiwwLDAuNzYtMC4zNCwwLjc2LTAuNzZsMC0xOS42OSAgICAgYzAtMC40Mi0wLjM0LTAuNzYtMC43Ni0wLjc2aDBMMC43Niw0MS4xN3oiLz4mI3hhOwkJPC9nPiYjeGE7CQk8ZyBpZD0ic2hhcGU1NzY1LTgiIHRyYW5zZm9ybT0idHJhbnNsYXRlKDIwLjE3ODEsLTI1Ljc0NDMpIj4mI3hhOwkJCTx0aXRsZSBpZD0idGl0bGU1NjM4NCI+U2hlZXQuNTc2NTwvdGl0bGU+JiN4YTsJCTwvZz4mI3hhOwkJPGcgaWQ9InNoYXBlNTc2Ni05IiB0cmFuc2Zvcm09InRyYW5zbGF0ZSgyNi4yMzU2LC0yMi43MTU1KSI+JiN4YTsJCQk8dGl0bGUgaWQ9InRpdGxlNTYzODciPlNoZWV0LjU3NjY8L3RpdGxlPiYjeGE7CQk8L2c+JiN4YTsJCTxnIGlkPSJzaGFwZTU3NjctMTAiIHRyYW5zZm9ybT0idHJhbnNsYXRlKDE0LjkxNTcsLTIxLjIwMTIpIj4mI3hhOwkJCTx0aXRsZSBpZD0idGl0bGU1NjM5MCI+U2hlZXQuNTc2NzwvdGl0bGU+JiN4YTsJCQk8cGF0aCBpZD0icGF0aDU2MzkyIiBpbmtzY2FwZTpjb25uZWN0b3ItY3VydmF0dXJlPSIwIiBzdHlsZT0iZmlsbDojRkZGRkZGOyIgZD0iTTIuMjcsNjIuMzd2LTUuM0gwbDMuNzktNS4zbDMuNzgsNS4zSDUuM3Y1LjMgICAgIEgyLjI3eiIvPiYjeGE7CQk8L2c+JiN4YTsJCTxnIGlkPSJzaGFwZTU3NjgtMTIiIHRyYW5zZm9ybT0idHJhbnNsYXRlKDIwLjE3ODEsLTI1Ljc0NDMpIj4mI3hhOwkJCTx0aXRsZSBpZD0idGl0bGU1NjM5NSI+U2hlZXQuNTc2ODwvdGl0bGU+JiN4YTsJCTwvZz4mI3hhOwkJPGcgaWQ9InNoYXBlNTc2OS0xMyIgdHJhbnNmb3JtPSJ0cmFuc2xhdGUoMTEuMTI5OCwtMi4yNzE1NSkiPiYjeGE7CQkJPHRpdGxlIGlkPSJ0aXRsZTU2Mzk4Ij5TaGVldC41NzY5PC90aXRsZT4mI3hhOwkJCTxwYXRoIGlkPSJwYXRoNTY0MDAiIGlua3NjYXBlOmNvbm5lY3Rvci1jdXJ2YXR1cmU9IjAiIHN0eWxlPSJmaWxsOiNCOTIwMjU7ZmlsbC1vcGFjaXR5OjAuMzsiIGQ9Ik0xMy42Myw0NS43MUgwdjE2LjY2aDE1LjE0ICAgICBWNDUuNzFIMTMuNjN6IE00LjU0LDYwLjg1SDEuNTFWNDcuMjJoMy4wM1Y2MC44NXogTTkuMDksNjAuODVINi4wNlY0Ny4yMmgzLjAzVjYwLjg1eiBNMTMuNjMsNjAuODVIMTAuNlY0Ny4yMmgzLjAzVjYwLjg1eiIvPiYjeGE7CQk8L2c+JiN4YTsJCTxnIGlkPSJzaGFwZTU3NzAtMTUiIHRyYW5zZm9ybT0idHJhbnNsYXRlKDExLjEyOTgsLTIuMjcxNTUpIj4mI3hhOwkJCTx0aXRsZSBpZD0idGl0bGU1NjQwMyI+U2hlZXQuNTc3MDwvdGl0bGU+JiN4YTsJCQk8cGF0aCBpZD0icGF0aDU2NDA1IiBpbmtzY2FwZTpjb25uZWN0b3ItY3VydmF0dXJlPSIwIiBzdHlsZT0iZmlsbDojRkZGRkZGOyIgZD0iTTEzLjYzLDQ1LjcxSDB2MTYuNjZoMTUuMTRWNDUuNzFIMTMuNjN6ICAgICAgTTQuNTQsNjAuODVIMS41MVY0Ny4yMmgzLjAzVjYwLjg1eiBNOS4wOSw2MC44NUg2LjA2VjQ3LjIyaDMuMDNWNjAuODV6IE0xMy42Myw2MC44NUgxMC42VjQ3LjIyaDMuMDNWNjAuODV6Ii8+JiN4YTsJCTwvZz4mI3hhOwk8L2c+JiN4YTs8L2c+JiN4YTs8L3N2Zz4=;fillColor=#CCCCCC;" vertex="1" parent="1">
          <mxGeometry x="795.1300000000001" y="1018.1199999999999" width="48.75" height="48.75" as="geometry" />
        </mxCell>
        <mxCell id="3jxLnCF12T15F944jgeX-29" value="&lt;font style=&quot;font-size: 24px;&quot;&gt;Family Server&lt;/font&gt;" style="whiteSpace=wrap;html=1;dashed=1;strokeColor=none;strokeWidth=2;fillColor=#3399FF;fontFamily=Helvetica;fontSize=18;fontColor=#FFFFFF;fontStyle=1" vertex="1" parent="1">
          <mxGeometry y="1097.5" width="965.13" height="70" as="geometry" />
        </mxCell>
        <mxCell id="3jxLnCF12T15F944jgeX-30" value="" style="shape=image;verticalLabelPosition=bottom;labelBackgroundColor=#ffffff;verticalAlign=top;aspect=fixed;imageAspect=0;image=data:image/svg+xml,PHN2ZyB4bWxuczpjYz0iaHR0cDovL2NyZWF0aXZlY29tbW9ucy5vcmcvbnMjIiB4bWxuczpkYz0iaHR0cDovL3B1cmwub3JnL2RjL2VsZW1lbnRzLzEuMS8iIHhtbG5zOmlua3NjYXBlPSJodHRwOi8vd3d3Lmlua3NjYXBlLm9yZy9uYW1lc3BhY2VzL2lua3NjYXBlIiB4bWxuczpyZGY9Imh0dHA6Ly93d3cudzMub3JnLzE5OTkvMDIvMjItcmRmLXN5bnRheC1ucyMiIHhtbG5zOnNvZGlwb2RpPSJodHRwOi8vc29kaXBvZGkuc291cmNlZm9yZ2UubmV0L0RURC9zb2RpcG9kaS0wLmR0ZCIgeG1sbnM6c3ZnPSJodHRwOi8vd3d3LnczLm9yZy8yMDAwL3N2ZyIgeG1sbnM9Imh0dHA6Ly93d3cudzMub3JnLzIwMDAvc3ZnIiB4bWxuczp4bGluaz0iaHR0cDovL3d3dy53My5vcmcvMTk5OS94bGluayIgdmVyc2lvbj0iMS4xIiBpZD0ic3ZnNTY0MTEiIGlua3NjYXBlOnZlcnNpb249IjAuOTIuMyAoMjQwNTU0NiwgMjAxOC0wMy0xMSkiIHNvZGlwb2RpOmRvY25hbWU9ImF6dXJlX2NvbnRhaW5lcl9pbnN0YW5jZXMuc3ZnIiB4PSIwcHgiIHk9IjBweCIgdmlld0JveD0iMCAwIDM3LjcgMzcuOCIgc3R5bGU9ImVuYWJsZS1iYWNrZ3JvdW5kOm5ldyAwIDAgMzcuNyAzNy44OyIgeG1sOnNwYWNlPSJwcmVzZXJ2ZSI+JiN4YTs8c29kaXBvZGk6bmFtZWR2aWV3IGJvcmRlcmNvbG9yPSIjNjY2NjY2IiBib3JkZXJvcGFjaXR5PSIxIiBmaXQtbWFyZ2luLWJvdHRvbT0iMCIgZml0LW1hcmdpbi1sZWZ0PSIwIiBmaXQtbWFyZ2luLXJpZ2h0PSIwIiBmaXQtbWFyZ2luLXRvcD0iMCIgZ3JpZHRvbGVyYW5jZT0iMTAiIGd1aWRldG9sZXJhbmNlPSIxMCIgaWQ9Im5hbWVkdmlldzU2NDEzIiBpbmtzY2FwZTpjdXJyZW50LWxheWVyPSJzdmc1NjQxMSIgaW5rc2NhcGU6Y3g9IjI3LjYxODI3MyIgaW5rc2NhcGU6Y3k9IjIyLjQ3Mzg3NCIgaW5rc2NhcGU6cGFnZW9wYWNpdHk9IjAiIGlua3NjYXBlOnBhZ2VzaGFkb3c9IjIiIGlua3NjYXBlOndpbmRvdy1oZWlnaHQ9IjEwMTciIGlua3NjYXBlOndpbmRvdy1tYXhpbWl6ZWQ9IjEiIGlua3NjYXBlOndpbmRvdy13aWR0aD0iMTkyMCIgaW5rc2NhcGU6d2luZG93LXg9Ii04IiBpbmtzY2FwZTp3aW5kb3cteT0iLTgiIGlua3NjYXBlOnpvb209IjEwLjQyNTkxNCIgb2JqZWN0dG9sZXJhbmNlPSIxMCIgcGFnZWNvbG9yPSIjZmZmZmZmIiBzaG93Z3JpZD0iZmFsc2UiPiYjeGE7CTwvc29kaXBvZGk6bmFtZWR2aWV3PiYjeGE7PGcgaWQ9Imc1NjQwOSIgdHJhbnNmb3JtPSJ0cmFuc2xhdGUoLTEyLjI4NjgzNiwtMTIuMjgyMzczKSI+JiN4YTsJPHRpdGxlIGlkPSJ0aXRsZTU2MzY1Ij5QYWdlLTE8L3RpdGxlPiYjeGE7CTxnIGlkPSJncm91cDU3NjEtMSIgdHJhbnNmb3JtPSJ0cmFuc2xhdGUoMTIuNDQxOCwtMTIuMjg5MikiPiYjeGE7CQk8dGl0bGUgaWQ9InRpdGxlNTYzNjciPkF6dXJlIENvbnRhaW5lciBJbnN0YW5jZXM8L3RpdGxlPiYjeGE7CQk8ZyBpZD0ic2hhcGU1NzYyLTIiIHRyYW5zZm9ybT0idHJhbnNsYXRlKDAsLTEzLjYyOTMpIj4mI3hhOwkJCTx0aXRsZSBpZD0idGl0bGU1NjM2OSI+U2hlZXQuNTc2MjwvdGl0bGU+JiN4YTsJCQk8cGF0aCBpZD0icGF0aDU2MzcxIiBpbmtzY2FwZTpjb25uZWN0b3ItY3VydmF0dXJlPSIwIiBzdHlsZT0iZmlsbDojRkZGRkZGOyIgZD0iTTMxLjUsNDYuNzVjLTAuMjctNC45OC00LjUyLTguOC05LjUtOC41NCAgICAgYy0yLjc0LDAuMTUtNS4yNiwxLjUzLTYuODYsMy43NmMtMy4xMy0yLjQxLTcuNjItMS44My0xMC4wMywxLjI5Yy0xLjM0LDEuNzQtMS44MSw0LTEuMjcsNi4xM2MtMy40MiwxLjU0LTQuOTQsNS41Ny0zLjM5LDguOTkgICAgIGMxLjEsMi40MywzLjUyLDQsNi4xOSwzLjk5aDIzYzQuMzgtMC4wMSw3LjkyLTMuNTYsNy45MS03Ljk0QzM3LjU0LDUwLjc5LDM1LjA0LDQ3LjYxLDMxLjUsNDYuNzV6Ii8+JiN4YTsJCTwvZz4mI3hhOwkJPGcgaWQ9InNoYXBlNTc2My00IiB0cmFuc2Zvcm09InRyYW5zbGF0ZSgwLC0xMy42MjkzKSI+JiN4YTsJCQk8dGl0bGUgaWQ9InRpdGxlNTYzNzQiPlNoZWV0LjU3NjM8L3RpdGxlPiYjeGE7CQkJPHBhdGggaWQ9InBhdGg1NjM3NiIgaW5rc2NhcGU6Y29ubmVjdG9yLWN1cnZhdHVyZT0iMCIgc3R5bGU9ImZpbGw6IzI3QTlFMTtmaWxsLW9wYWNpdHk6MC42OyIgZD0iTTMxLjUsNDYuNzUgICAgIGMtMC4yNy00Ljk4LTQuNTItOC44LTkuNS04LjU0Yy0yLjc0LDAuMTUtNS4yNiwxLjUzLTYuODYsMy43NmMtMy4xMy0yLjQxLTcuNjItMS44My0xMC4wMywxLjI5Yy0xLjM0LDEuNzQtMS44MSw0LTEuMjcsNi4xMyAgICAgYy0zLjQyLDEuNTQtNC45NCw1LjU3LTMuMzksOC45OWMxLjEsMi40MywzLjUyLDQsNi4xOSwzLjk5aDIzYzQuMzgtMC4wMSw3LjkyLTMuNTYsNy45MS03Ljk0ICAgICBDMzcuNTQsNTAuNzksMzUuMDQsNDcuNjEsMzEuNSw0Ni43NXoiLz4mI3hhOwkJPC9nPiYjeGE7CQk8ZyBpZD0ic2hhcGU1NzY0LTYiIHRyYW5zZm9ybT0idHJhbnNsYXRlKDguODU4MjQpIj4mI3hhOwkJCTx0aXRsZSBpZD0idGl0bGU1NjM3OSI+U2hlZXQuNTc2NDwvdGl0bGU+JiN4YTsJCQk8cGF0aCBpZD0icGF0aDU2MzgxIiBpbmtzY2FwZTpjb25uZWN0b3ItY3VydmF0dXJlPSIwIiBzdHlsZT0iZmlsbDojNjcyQTdBOyIgZD0iTTAuNzYsNDEuMTdDMC4zNCw0MS4xNywwLDQxLjUxLDAsNDEuOTMgICAgIGMwLDAsMCwwLDAsMGwwLDE5LjY4YzAsMC40MiwwLjM0LDAuNzYsMC43NiwwLjc2YzAsMCwwLDAsMCwwbDE4LjE3LDBjMC40MiwwLDAuNzYtMC4zNCwwLjc2LTAuNzZsMC0xOS42OSAgICAgYzAtMC40Mi0wLjM0LTAuNzYtMC43Ni0wLjc2aDBMMC43Niw0MS4xN3oiLz4mI3hhOwkJPC9nPiYjeGE7CQk8ZyBpZD0ic2hhcGU1NzY1LTgiIHRyYW5zZm9ybT0idHJhbnNsYXRlKDIwLjE3ODEsLTI1Ljc0NDMpIj4mI3hhOwkJCTx0aXRsZSBpZD0idGl0bGU1NjM4NCI+U2hlZXQuNTc2NTwvdGl0bGU+JiN4YTsJCTwvZz4mI3hhOwkJPGcgaWQ9InNoYXBlNTc2Ni05IiB0cmFuc2Zvcm09InRyYW5zbGF0ZSgyNi4yMzU2LC0yMi43MTU1KSI+JiN4YTsJCQk8dGl0bGUgaWQ9InRpdGxlNTYzODciPlNoZWV0LjU3NjY8L3RpdGxlPiYjeGE7CQk8L2c+JiN4YTsJCTxnIGlkPSJzaGFwZTU3NjctMTAiIHRyYW5zZm9ybT0idHJhbnNsYXRlKDE0LjkxNTcsLTIxLjIwMTIpIj4mI3hhOwkJCTx0aXRsZSBpZD0idGl0bGU1NjM5MCI+U2hlZXQuNTc2NzwvdGl0bGU+JiN4YTsJCQk8cGF0aCBpZD0icGF0aDU2MzkyIiBpbmtzY2FwZTpjb25uZWN0b3ItY3VydmF0dXJlPSIwIiBzdHlsZT0iZmlsbDojRkZGRkZGOyIgZD0iTTIuMjcsNjIuMzd2LTUuM0gwbDMuNzktNS4zbDMuNzgsNS4zSDUuM3Y1LjMgICAgIEgyLjI3eiIvPiYjeGE7CQk8L2c+JiN4YTsJCTxnIGlkPSJzaGFwZTU3NjgtMTIiIHRyYW5zZm9ybT0idHJhbnNsYXRlKDIwLjE3ODEsLTI1Ljc0NDMpIj4mI3hhOwkJCTx0aXRsZSBpZD0idGl0bGU1NjM5NSI+U2hlZXQuNTc2ODwvdGl0bGU+JiN4YTsJCTwvZz4mI3hhOwkJPGcgaWQ9InNoYXBlNTc2OS0xMyIgdHJhbnNmb3JtPSJ0cmFuc2xhdGUoMTEuMTI5OCwtMi4yNzE1NSkiPiYjeGE7CQkJPHRpdGxlIGlkPSJ0aXRsZTU2Mzk4Ij5TaGVldC41NzY5PC90aXRsZT4mI3hhOwkJCTxwYXRoIGlkPSJwYXRoNTY0MDAiIGlua3NjYXBlOmNvbm5lY3Rvci1jdXJ2YXR1cmU9IjAiIHN0eWxlPSJmaWxsOiNCOTIwMjU7ZmlsbC1vcGFjaXR5OjAuMzsiIGQ9Ik0xMy42Myw0NS43MUgwdjE2LjY2aDE1LjE0ICAgICBWNDUuNzFIMTMuNjN6IE00LjU0LDYwLjg1SDEuNTFWNDcuMjJoMy4wM1Y2MC44NXogTTkuMDksNjAuODVINi4wNlY0Ny4yMmgzLjAzVjYwLjg1eiBNMTMuNjMsNjAuODVIMTAuNlY0Ny4yMmgzLjAzVjYwLjg1eiIvPiYjeGE7CQk8L2c+JiN4YTsJCTxnIGlkPSJzaGFwZTU3NzAtMTUiIHRyYW5zZm9ybT0idHJhbnNsYXRlKDExLjEyOTgsLTIuMjcxNTUpIj4mI3hhOwkJCTx0aXRsZSBpZD0idGl0bGU1NjQwMyI+U2hlZXQuNTc3MDwvdGl0bGU+JiN4YTsJCQk8cGF0aCBpZD0icGF0aDU2NDA1IiBpbmtzY2FwZTpjb25uZWN0b3ItY3VydmF0dXJlPSIwIiBzdHlsZT0iZmlsbDojRkZGRkZGOyIgZD0iTTEzLjYzLDQ1LjcxSDB2MTYuNjZoMTUuMTRWNDUuNzFIMTMuNjN6ICAgICAgTTQuNTQsNjAuODVIMS41MVY0Ny4yMmgzLjAzVjYwLjg1eiBNOS4wOSw2MC44NUg2LjA2VjQ3LjIyaDMuMDNWNjAuODV6IE0xMy42Myw2MC44NUgxMC42VjQ3LjIyaDMuMDNWNjAuODV6Ii8+JiN4YTsJCTwvZz4mI3hhOwk8L2c+JiN4YTs8L2c+JiN4YTs8L3N2Zz4=;fillColor=#CCCCCC;" vertex="1" parent="1">
          <mxGeometry x="105.7600000000001" y="1108.1299999999999" width="48.75" height="48.75" as="geometry" />
        </mxCell>
        <mxCell id="3jxLnCF12T15F944jgeX-31" value="" style="shape=image;verticalLabelPosition=bottom;labelBackgroundColor=#ffffff;verticalAlign=top;aspect=fixed;imageAspect=0;image=data:image/svg+xml,PHN2ZyB4bWxuczpjYz0iaHR0cDovL2NyZWF0aXZlY29tbW9ucy5vcmcvbnMjIiB4bWxuczpkYz0iaHR0cDovL3B1cmwub3JnL2RjL2VsZW1lbnRzLzEuMS8iIHhtbG5zOmlua3NjYXBlPSJodHRwOi8vd3d3Lmlua3NjYXBlLm9yZy9uYW1lc3BhY2VzL2lua3NjYXBlIiB4bWxuczpyZGY9Imh0dHA6Ly93d3cudzMub3JnLzE5OTkvMDIvMjItcmRmLXN5bnRheC1ucyMiIHhtbG5zOnNvZGlwb2RpPSJodHRwOi8vc29kaXBvZGkuc291cmNlZm9yZ2UubmV0L0RURC9zb2RpcG9kaS0wLmR0ZCIgeG1sbnM6c3ZnPSJodHRwOi8vd3d3LnczLm9yZy8yMDAwL3N2ZyIgeG1sbnM9Imh0dHA6Ly93d3cudzMub3JnLzIwMDAvc3ZnIiB4bWxuczp4bGluaz0iaHR0cDovL3d3dy53My5vcmcvMTk5OS94bGluayIgdmVyc2lvbj0iMS4xIiBpZD0ic3ZnNTY0MTEiIGlua3NjYXBlOnZlcnNpb249IjAuOTIuMyAoMjQwNTU0NiwgMjAxOC0wMy0xMSkiIHNvZGlwb2RpOmRvY25hbWU9ImF6dXJlX2NvbnRhaW5lcl9pbnN0YW5jZXMuc3ZnIiB4PSIwcHgiIHk9IjBweCIgdmlld0JveD0iMCAwIDM3LjcgMzcuOCIgc3R5bGU9ImVuYWJsZS1iYWNrZ3JvdW5kOm5ldyAwIDAgMzcuNyAzNy44OyIgeG1sOnNwYWNlPSJwcmVzZXJ2ZSI+JiN4YTs8c29kaXBvZGk6bmFtZWR2aWV3IGJvcmRlcmNvbG9yPSIjNjY2NjY2IiBib3JkZXJvcGFjaXR5PSIxIiBmaXQtbWFyZ2luLWJvdHRvbT0iMCIgZml0LW1hcmdpbi1sZWZ0PSIwIiBmaXQtbWFyZ2luLXJpZ2h0PSIwIiBmaXQtbWFyZ2luLXRvcD0iMCIgZ3JpZHRvbGVyYW5jZT0iMTAiIGd1aWRldG9sZXJhbmNlPSIxMCIgaWQ9Im5hbWVkdmlldzU2NDEzIiBpbmtzY2FwZTpjdXJyZW50LWxheWVyPSJzdmc1NjQxMSIgaW5rc2NhcGU6Y3g9IjI3LjYxODI3MyIgaW5rc2NhcGU6Y3k9IjIyLjQ3Mzg3NCIgaW5rc2NhcGU6cGFnZW9wYWNpdHk9IjAiIGlua3NjYXBlOnBhZ2VzaGFkb3c9IjIiIGlua3NjYXBlOndpbmRvdy1oZWlnaHQ9IjEwMTciIGlua3NjYXBlOndpbmRvdy1tYXhpbWl6ZWQ9IjEiIGlua3NjYXBlOndpbmRvdy13aWR0aD0iMTkyMCIgaW5rc2NhcGU6d2luZG93LXg9Ii04IiBpbmtzY2FwZTp3aW5kb3cteT0iLTgiIGlua3NjYXBlOnpvb209IjEwLjQyNTkxNCIgb2JqZWN0dG9sZXJhbmNlPSIxMCIgcGFnZWNvbG9yPSIjZmZmZmZmIiBzaG93Z3JpZD0iZmFsc2UiPiYjeGE7CTwvc29kaXBvZGk6bmFtZWR2aWV3PiYjeGE7PGcgaWQ9Imc1NjQwOSIgdHJhbnNmb3JtPSJ0cmFuc2xhdGUoLTEyLjI4NjgzNiwtMTIuMjgyMzczKSI+JiN4YTsJPHRpdGxlIGlkPSJ0aXRsZTU2MzY1Ij5QYWdlLTE8L3RpdGxlPiYjeGE7CTxnIGlkPSJncm91cDU3NjEtMSIgdHJhbnNmb3JtPSJ0cmFuc2xhdGUoMTIuNDQxOCwtMTIuMjg5MikiPiYjeGE7CQk8dGl0bGUgaWQ9InRpdGxlNTYzNjciPkF6dXJlIENvbnRhaW5lciBJbnN0YW5jZXM8L3RpdGxlPiYjeGE7CQk8ZyBpZD0ic2hhcGU1NzYyLTIiIHRyYW5zZm9ybT0idHJhbnNsYXRlKDAsLTEzLjYyOTMpIj4mI3hhOwkJCTx0aXRsZSBpZD0idGl0bGU1NjM2OSI+U2hlZXQuNTc2MjwvdGl0bGU+JiN4YTsJCQk8cGF0aCBpZD0icGF0aDU2MzcxIiBpbmtzY2FwZTpjb25uZWN0b3ItY3VydmF0dXJlPSIwIiBzdHlsZT0iZmlsbDojRkZGRkZGOyIgZD0iTTMxLjUsNDYuNzVjLTAuMjctNC45OC00LjUyLTguOC05LjUtOC41NCAgICAgYy0yLjc0LDAuMTUtNS4yNiwxLjUzLTYuODYsMy43NmMtMy4xMy0yLjQxLTcuNjItMS44My0xMC4wMywxLjI5Yy0xLjM0LDEuNzQtMS44MSw0LTEuMjcsNi4xM2MtMy40MiwxLjU0LTQuOTQsNS41Ny0zLjM5LDguOTkgICAgIGMxLjEsMi40MywzLjUyLDQsNi4xOSwzLjk5aDIzYzQuMzgtMC4wMSw3LjkyLTMuNTYsNy45MS03Ljk0QzM3LjU0LDUwLjc5LDM1LjA0LDQ3LjYxLDMxLjUsNDYuNzV6Ii8+JiN4YTsJCTwvZz4mI3hhOwkJPGcgaWQ9InNoYXBlNTc2My00IiB0cmFuc2Zvcm09InRyYW5zbGF0ZSgwLC0xMy42MjkzKSI+JiN4YTsJCQk8dGl0bGUgaWQ9InRpdGxlNTYzNzQiPlNoZWV0LjU3NjM8L3RpdGxlPiYjeGE7CQkJPHBhdGggaWQ9InBhdGg1NjM3NiIgaW5rc2NhcGU6Y29ubmVjdG9yLWN1cnZhdHVyZT0iMCIgc3R5bGU9ImZpbGw6IzI3QTlFMTtmaWxsLW9wYWNpdHk6MC42OyIgZD0iTTMxLjUsNDYuNzUgICAgIGMtMC4yNy00Ljk4LTQuNTItOC44LTkuNS04LjU0Yy0yLjc0LDAuMTUtNS4yNiwxLjUzLTYuODYsMy43NmMtMy4xMy0yLjQxLTcuNjItMS44My0xMC4wMywxLjI5Yy0xLjM0LDEuNzQtMS44MSw0LTEuMjcsNi4xMyAgICAgYy0zLjQyLDEuNTQtNC45NCw1LjU3LTMuMzksOC45OWMxLjEsMi40MywzLjUyLDQsNi4xOSwzLjk5aDIzYzQuMzgtMC4wMSw3LjkyLTMuNTYsNy45MS03Ljk0ICAgICBDMzcuNTQsNTAuNzksMzUuMDQsNDcuNjEsMzEuNSw0Ni43NXoiLz4mI3hhOwkJPC9nPiYjeGE7CQk8ZyBpZD0ic2hhcGU1NzY0LTYiIHRyYW5zZm9ybT0idHJhbnNsYXRlKDguODU4MjQpIj4mI3hhOwkJCTx0aXRsZSBpZD0idGl0bGU1NjM3OSI+U2hlZXQuNTc2NDwvdGl0bGU+JiN4YTsJCQk8cGF0aCBpZD0icGF0aDU2MzgxIiBpbmtzY2FwZTpjb25uZWN0b3ItY3VydmF0dXJlPSIwIiBzdHlsZT0iZmlsbDojNjcyQTdBOyIgZD0iTTAuNzYsNDEuMTdDMC4zNCw0MS4xNywwLDQxLjUxLDAsNDEuOTMgICAgIGMwLDAsMCwwLDAsMGwwLDE5LjY4YzAsMC40MiwwLjM0LDAuNzYsMC43NiwwLjc2YzAsMCwwLDAsMCwwbDE4LjE3LDBjMC40MiwwLDAuNzYtMC4zNCwwLjc2LTAuNzZsMC0xOS42OSAgICAgYzAtMC40Mi0wLjM0LTAuNzYtMC43Ni0wLjc2aDBMMC43Niw0MS4xN3oiLz4mI3hhOwkJPC9nPiYjeGE7CQk8ZyBpZD0ic2hhcGU1NzY1LTgiIHRyYW5zZm9ybT0idHJhbnNsYXRlKDIwLjE3ODEsLTI1Ljc0NDMpIj4mI3hhOwkJCTx0aXRsZSBpZD0idGl0bGU1NjM4NCI+U2hlZXQuNTc2NTwvdGl0bGU+JiN4YTsJCTwvZz4mI3hhOwkJPGcgaWQ9InNoYXBlNTc2Ni05IiB0cmFuc2Zvcm09InRyYW5zbGF0ZSgyNi4yMzU2LC0yMi43MTU1KSI+JiN4YTsJCQk8dGl0bGUgaWQ9InRpdGxlNTYzODciPlNoZWV0LjU3NjY8L3RpdGxlPiYjeGE7CQk8L2c+JiN4YTsJCTxnIGlkPSJzaGFwZTU3NjctMTAiIHRyYW5zZm9ybT0idHJhbnNsYXRlKDE0LjkxNTcsLTIxLjIwMTIpIj4mI3hhOwkJCTx0aXRsZSBpZD0idGl0bGU1NjM5MCI+U2hlZXQuNTc2NzwvdGl0bGU+JiN4YTsJCQk8cGF0aCBpZD0icGF0aDU2MzkyIiBpbmtzY2FwZTpjb25uZWN0b3ItY3VydmF0dXJlPSIwIiBzdHlsZT0iZmlsbDojRkZGRkZGOyIgZD0iTTIuMjcsNjIuMzd2LTUuM0gwbDMuNzktNS4zbDMuNzgsNS4zSDUuM3Y1LjMgICAgIEgyLjI3eiIvPiYjeGE7CQk8L2c+JiN4YTsJCTxnIGlkPSJzaGFwZTU3NjgtMTIiIHRyYW5zZm9ybT0idHJhbnNsYXRlKDIwLjE3ODEsLTI1Ljc0NDMpIj4mI3hhOwkJCTx0aXRsZSBpZD0idGl0bGU1NjM5NSI+U2hlZXQuNTc2ODwvdGl0bGU+JiN4YTsJCTwvZz4mI3hhOwkJPGcgaWQ9InNoYXBlNTc2OS0xMyIgdHJhbnNmb3JtPSJ0cmFuc2xhdGUoMTEuMTI5OCwtMi4yNzE1NSkiPiYjeGE7CQkJPHRpdGxlIGlkPSJ0aXRsZTU2Mzk4Ij5TaGVldC41NzY5PC90aXRsZT4mI3hhOwkJCTxwYXRoIGlkPSJwYXRoNTY0MDAiIGlua3NjYXBlOmNvbm5lY3Rvci1jdXJ2YXR1cmU9IjAiIHN0eWxlPSJmaWxsOiNCOTIwMjU7ZmlsbC1vcGFjaXR5OjAuMzsiIGQ9Ik0xMy42Myw0NS43MUgwdjE2LjY2aDE1LjE0ICAgICBWNDUuNzFIMTMuNjN6IE00LjU0LDYwLjg1SDEuNTFWNDcuMjJoMy4wM1Y2MC44NXogTTkuMDksNjAuODVINi4wNlY0Ny4yMmgzLjAzVjYwLjg1eiBNMTMuNjMsNjAuODVIMTAuNlY0Ny4yMmgzLjAzVjYwLjg1eiIvPiYjeGE7CQk8L2c+JiN4YTsJCTxnIGlkPSJzaGFwZTU3NzAtMTUiIHRyYW5zZm9ybT0idHJhbnNsYXRlKDExLjEyOTgsLTIuMjcxNTUpIj4mI3hhOwkJCTx0aXRsZSBpZD0idGl0bGU1NjQwMyI+U2hlZXQuNTc3MDwvdGl0bGU+JiN4YTsJCQk8cGF0aCBpZD0icGF0aDU2NDA1IiBpbmtzY2FwZTpjb25uZWN0b3ItY3VydmF0dXJlPSIwIiBzdHlsZT0iZmlsbDojRkZGRkZGOyIgZD0iTTEzLjYzLDQ1LjcxSDB2MTYuNjZoMTUuMTRWNDUuNzFIMTMuNjN6ICAgICAgTTQuNTQsNjAuODVIMS41MVY0Ny4yMmgzLjAzVjYwLjg1eiBNOS4wOSw2MC44NUg2LjA2VjQ3LjIyaDMuMDNWNjAuODV6IE0xMy42Myw2MC44NUgxMC42VjQ3LjIyaDMuMDNWNjAuODV6Ii8+JiN4YTsJCTwvZz4mI3hhOwk8L2c+JiN4YTs8L2c+JiN4YTs8L3N2Zz4=;fillColor=#CCCCCC;" vertex="1" parent="1">
          <mxGeometry x="217.3800000000001" y="1118.75" width="48.75" height="48.75" as="geometry" />
        </mxCell>
        <mxCell id="3jxLnCF12T15F944jgeX-32" value="" style="shape=image;verticalLabelPosition=bottom;labelBackgroundColor=#ffffff;verticalAlign=top;aspect=fixed;imageAspect=0;image=data:image/svg+xml,PHN2ZyB4bWxuczpjYz0iaHR0cDovL2NyZWF0aXZlY29tbW9ucy5vcmcvbnMjIiB4bWxuczpkYz0iaHR0cDovL3B1cmwub3JnL2RjL2VsZW1lbnRzLzEuMS8iIHhtbG5zOmlua3NjYXBlPSJodHRwOi8vd3d3Lmlua3NjYXBlLm9yZy9uYW1lc3BhY2VzL2lua3NjYXBlIiB4bWxuczpyZGY9Imh0dHA6Ly93d3cudzMub3JnLzE5OTkvMDIvMjItcmRmLXN5bnRheC1ucyMiIHhtbG5zOnNvZGlwb2RpPSJodHRwOi8vc29kaXBvZGkuc291cmNlZm9yZ2UubmV0L0RURC9zb2RpcG9kaS0wLmR0ZCIgeG1sbnM6c3ZnPSJodHRwOi8vd3d3LnczLm9yZy8yMDAwL3N2ZyIgeG1sbnM9Imh0dHA6Ly93d3cudzMub3JnLzIwMDAvc3ZnIiB4bWxuczp4bGluaz0iaHR0cDovL3d3dy53My5vcmcvMTk5OS94bGluayIgdmVyc2lvbj0iMS4xIiBpZD0ic3ZnNTY0MTEiIGlua3NjYXBlOnZlcnNpb249IjAuOTIuMyAoMjQwNTU0NiwgMjAxOC0wMy0xMSkiIHNvZGlwb2RpOmRvY25hbWU9ImF6dXJlX2NvbnRhaW5lcl9pbnN0YW5jZXMuc3ZnIiB4PSIwcHgiIHk9IjBweCIgdmlld0JveD0iMCAwIDM3LjcgMzcuOCIgc3R5bGU9ImVuYWJsZS1iYWNrZ3JvdW5kOm5ldyAwIDAgMzcuNyAzNy44OyIgeG1sOnNwYWNlPSJwcmVzZXJ2ZSI+JiN4YTs8c29kaXBvZGk6bmFtZWR2aWV3IGJvcmRlcmNvbG9yPSIjNjY2NjY2IiBib3JkZXJvcGFjaXR5PSIxIiBmaXQtbWFyZ2luLWJvdHRvbT0iMCIgZml0LW1hcmdpbi1sZWZ0PSIwIiBmaXQtbWFyZ2luLXJpZ2h0PSIwIiBmaXQtbWFyZ2luLXRvcD0iMCIgZ3JpZHRvbGVyYW5jZT0iMTAiIGd1aWRldG9sZXJhbmNlPSIxMCIgaWQ9Im5hbWVkdmlldzU2NDEzIiBpbmtzY2FwZTpjdXJyZW50LWxheWVyPSJzdmc1NjQxMSIgaW5rc2NhcGU6Y3g9IjI3LjYxODI3MyIgaW5rc2NhcGU6Y3k9IjIyLjQ3Mzg3NCIgaW5rc2NhcGU6cGFnZW9wYWNpdHk9IjAiIGlua3NjYXBlOnBhZ2VzaGFkb3c9IjIiIGlua3NjYXBlOndpbmRvdy1oZWlnaHQ9IjEwMTciIGlua3NjYXBlOndpbmRvdy1tYXhpbWl6ZWQ9IjEiIGlua3NjYXBlOndpbmRvdy13aWR0aD0iMTkyMCIgaW5rc2NhcGU6d2luZG93LXg9Ii04IiBpbmtzY2FwZTp3aW5kb3cteT0iLTgiIGlua3NjYXBlOnpvb209IjEwLjQyNTkxNCIgb2JqZWN0dG9sZXJhbmNlPSIxMCIgcGFnZWNvbG9yPSIjZmZmZmZmIiBzaG93Z3JpZD0iZmFsc2UiPiYjeGE7CTwvc29kaXBvZGk6bmFtZWR2aWV3PiYjeGE7PGcgaWQ9Imc1NjQwOSIgdHJhbnNmb3JtPSJ0cmFuc2xhdGUoLTEyLjI4NjgzNiwtMTIuMjgyMzczKSI+JiN4YTsJPHRpdGxlIGlkPSJ0aXRsZTU2MzY1Ij5QYWdlLTE8L3RpdGxlPiYjeGE7CTxnIGlkPSJncm91cDU3NjEtMSIgdHJhbnNmb3JtPSJ0cmFuc2xhdGUoMTIuNDQxOCwtMTIuMjg5MikiPiYjeGE7CQk8dGl0bGUgaWQ9InRpdGxlNTYzNjciPkF6dXJlIENvbnRhaW5lciBJbnN0YW5jZXM8L3RpdGxlPiYjeGE7CQk8ZyBpZD0ic2hhcGU1NzYyLTIiIHRyYW5zZm9ybT0idHJhbnNsYXRlKDAsLTEzLjYyOTMpIj4mI3hhOwkJCTx0aXRsZSBpZD0idGl0bGU1NjM2OSI+U2hlZXQuNTc2MjwvdGl0bGU+JiN4YTsJCQk8cGF0aCBpZD0icGF0aDU2MzcxIiBpbmtzY2FwZTpjb25uZWN0b3ItY3VydmF0dXJlPSIwIiBzdHlsZT0iZmlsbDojRkZGRkZGOyIgZD0iTTMxLjUsNDYuNzVjLTAuMjctNC45OC00LjUyLTguOC05LjUtOC41NCAgICAgYy0yLjc0LDAuMTUtNS4yNiwxLjUzLTYuODYsMy43NmMtMy4xMy0yLjQxLTcuNjItMS44My0xMC4wMywxLjI5Yy0xLjM0LDEuNzQtMS44MSw0LTEuMjcsNi4xM2MtMy40MiwxLjU0LTQuOTQsNS41Ny0zLjM5LDguOTkgICAgIGMxLjEsMi40MywzLjUyLDQsNi4xOSwzLjk5aDIzYzQuMzgtMC4wMSw3LjkyLTMuNTYsNy45MS03Ljk0QzM3LjU0LDUwLjc5LDM1LjA0LDQ3LjYxLDMxLjUsNDYuNzV6Ii8+JiN4YTsJCTwvZz4mI3hhOwkJPGcgaWQ9InNoYXBlNTc2My00IiB0cmFuc2Zvcm09InRyYW5zbGF0ZSgwLC0xMy42MjkzKSI+JiN4YTsJCQk8dGl0bGUgaWQ9InRpdGxlNTYzNzQiPlNoZWV0LjU3NjM8L3RpdGxlPiYjeGE7CQkJPHBhdGggaWQ9InBhdGg1NjM3NiIgaW5rc2NhcGU6Y29ubmVjdG9yLWN1cnZhdHVyZT0iMCIgc3R5bGU9ImZpbGw6IzI3QTlFMTtmaWxsLW9wYWNpdHk6MC42OyIgZD0iTTMxLjUsNDYuNzUgICAgIGMtMC4yNy00Ljk4LTQuNTItOC44LTkuNS04LjU0Yy0yLjc0LDAuMTUtNS4yNiwxLjUzLTYuODYsMy43NmMtMy4xMy0yLjQxLTcuNjItMS44My0xMC4wMywxLjI5Yy0xLjM0LDEuNzQtMS44MSw0LTEuMjcsNi4xMyAgICAgYy0zLjQyLDEuNTQtNC45NCw1LjU3LTMuMzksOC45OWMxLjEsMi40MywzLjUyLDQsNi4xOSwzLjk5aDIzYzQuMzgtMC4wMSw3LjkyLTMuNTYsNy45MS03Ljk0ICAgICBDMzcuNTQsNTAuNzksMzUuMDQsNDcuNjEsMzEuNSw0Ni43NXoiLz4mI3hhOwkJPC9nPiYjeGE7CQk8ZyBpZD0ic2hhcGU1NzY0LTYiIHRyYW5zZm9ybT0idHJhbnNsYXRlKDguODU4MjQpIj4mI3hhOwkJCTx0aXRsZSBpZD0idGl0bGU1NjM3OSI+U2hlZXQuNTc2NDwvdGl0bGU+JiN4YTsJCQk8cGF0aCBpZD0icGF0aDU2MzgxIiBpbmtzY2FwZTpjb25uZWN0b3ItY3VydmF0dXJlPSIwIiBzdHlsZT0iZmlsbDojNjcyQTdBOyIgZD0iTTAuNzYsNDEuMTdDMC4zNCw0MS4xNywwLDQxLjUxLDAsNDEuOTMgICAgIGMwLDAsMCwwLDAsMGwwLDE5LjY4YzAsMC40MiwwLjM0LDAuNzYsMC43NiwwLjc2YzAsMCwwLDAsMCwwbDE4LjE3LDBjMC40MiwwLDAuNzYtMC4zNCwwLjc2LTAuNzZsMC0xOS42OSAgICAgYzAtMC40Mi0wLjM0LTAuNzYtMC43Ni0wLjc2aDBMMC43Niw0MS4xN3oiLz4mI3hhOwkJPC9nPiYjeGE7CQk8ZyBpZD0ic2hhcGU1NzY1LTgiIHRyYW5zZm9ybT0idHJhbnNsYXRlKDIwLjE3ODEsLTI1Ljc0NDMpIj4mI3hhOwkJCTx0aXRsZSBpZD0idGl0bGU1NjM4NCI+U2hlZXQuNTc2NTwvdGl0bGU+JiN4YTsJCTwvZz4mI3hhOwkJPGcgaWQ9InNoYXBlNTc2Ni05IiB0cmFuc2Zvcm09InRyYW5zbGF0ZSgyNi4yMzU2LC0yMi43MTU1KSI+JiN4YTsJCQk8dGl0bGUgaWQ9InRpdGxlNTYzODciPlNoZWV0LjU3NjY8L3RpdGxlPiYjeGE7CQk8L2c+JiN4YTsJCTxnIGlkPSJzaGFwZTU3NjctMTAiIHRyYW5zZm9ybT0idHJhbnNsYXRlKDE0LjkxNTcsLTIxLjIwMTIpIj4mI3hhOwkJCTx0aXRsZSBpZD0idGl0bGU1NjM5MCI+U2hlZXQuNTc2NzwvdGl0bGU+JiN4YTsJCQk8cGF0aCBpZD0icGF0aDU2MzkyIiBpbmtzY2FwZTpjb25uZWN0b3ItY3VydmF0dXJlPSIwIiBzdHlsZT0iZmlsbDojRkZGRkZGOyIgZD0iTTIuMjcsNjIuMzd2LTUuM0gwbDMuNzktNS4zbDMuNzgsNS4zSDUuM3Y1LjMgICAgIEgyLjI3eiIvPiYjeGE7CQk8L2c+JiN4YTsJCTxnIGlkPSJzaGFwZTU3NjgtMTIiIHRyYW5zZm9ybT0idHJhbnNsYXRlKDIwLjE3ODEsLTI1Ljc0NDMpIj4mI3hhOwkJCTx0aXRsZSBpZD0idGl0bGU1NjM5NSI+U2hlZXQuNTc2ODwvdGl0bGU+JiN4YTsJCTwvZz4mI3hhOwkJPGcgaWQ9InNoYXBlNTc2OS0xMyIgdHJhbnNmb3JtPSJ0cmFuc2xhdGUoMTEuMTI5OCwtMi4yNzE1NSkiPiYjeGE7CQkJPHRpdGxlIGlkPSJ0aXRsZTU2Mzk4Ij5TaGVldC41NzY5PC90aXRsZT4mI3hhOwkJCTxwYXRoIGlkPSJwYXRoNTY0MDAiIGlua3NjYXBlOmNvbm5lY3Rvci1jdXJ2YXR1cmU9IjAiIHN0eWxlPSJmaWxsOiNCOTIwMjU7ZmlsbC1vcGFjaXR5OjAuMzsiIGQ9Ik0xMy42Myw0NS43MUgwdjE2LjY2aDE1LjE0ICAgICBWNDUuNzFIMTMuNjN6IE00LjU0LDYwLjg1SDEuNTFWNDcuMjJoMy4wM1Y2MC44NXogTTkuMDksNjAuODVINi4wNlY0Ny4yMmgzLjAzVjYwLjg1eiBNMTMuNjMsNjAuODVIMTAuNlY0Ny4yMmgzLjAzVjYwLjg1eiIvPiYjeGE7CQk8L2c+JiN4YTsJCTxnIGlkPSJzaGFwZTU3NzAtMTUiIHRyYW5zZm9ybT0idHJhbnNsYXRlKDExLjEyOTgsLTIuMjcxNTUpIj4mI3hhOwkJCTx0aXRsZSBpZD0idGl0bGU1NjQwMyI+U2hlZXQuNTc3MDwvdGl0bGU+JiN4YTsJCQk8cGF0aCBpZD0icGF0aDU2NDA1IiBpbmtzY2FwZTpjb25uZWN0b3ItY3VydmF0dXJlPSIwIiBzdHlsZT0iZmlsbDojRkZGRkZGOyIgZD0iTTEzLjYzLDQ1LjcxSDB2MTYuNjZoMTUuMTRWNDUuNzFIMTMuNjN6ICAgICAgTTQuNTQsNjAuODVIMS41MVY0Ny4yMmgzLjAzVjYwLjg1eiBNOS4wOSw2MC44NUg2LjA2VjQ3LjIyaDMuMDNWNjAuODV6IE0xMy42Myw2MC44NUgxMC42VjQ3LjIyaDMuMDNWNjAuODV6Ii8+JiN4YTsJCTwvZz4mI3hhOwk8L2c+JiN4YTs8L2c+JiN4YTs8L3N2Zz4=;fillColor=#CCCCCC;" vertex="1" parent="1">
          <mxGeometry x="645.1300000000001" y="1108.12" width="48.75" height="48.75" as="geometry" />
        </mxCell>
        <mxCell id="3jxLnCF12T15F944jgeX-33" value="" style="shape=image;verticalLabelPosition=bottom;labelBackgroundColor=#ffffff;verticalAlign=top;aspect=fixed;imageAspect=0;image=data:image/svg+xml,PHN2ZyB4bWxuczpjYz0iaHR0cDovL2NyZWF0aXZlY29tbW9ucy5vcmcvbnMjIiB4bWxuczpkYz0iaHR0cDovL3B1cmwub3JnL2RjL2VsZW1lbnRzLzEuMS8iIHhtbG5zOmlua3NjYXBlPSJodHRwOi8vd3d3Lmlua3NjYXBlLm9yZy9uYW1lc3BhY2VzL2lua3NjYXBlIiB4bWxuczpyZGY9Imh0dHA6Ly93d3cudzMub3JnLzE5OTkvMDIvMjItcmRmLXN5bnRheC1ucyMiIHhtbG5zOnNvZGlwb2RpPSJodHRwOi8vc29kaXBvZGkuc291cmNlZm9yZ2UubmV0L0RURC9zb2RpcG9kaS0wLmR0ZCIgeG1sbnM6c3ZnPSJodHRwOi8vd3d3LnczLm9yZy8yMDAwL3N2ZyIgeG1sbnM9Imh0dHA6Ly93d3cudzMub3JnLzIwMDAvc3ZnIiB4bWxuczp4bGluaz0iaHR0cDovL3d3dy53My5vcmcvMTk5OS94bGluayIgdmVyc2lvbj0iMS4xIiBpZD0ic3ZnNTY0MTEiIGlua3NjYXBlOnZlcnNpb249IjAuOTIuMyAoMjQwNTU0NiwgMjAxOC0wMy0xMSkiIHNvZGlwb2RpOmRvY25hbWU9ImF6dXJlX2NvbnRhaW5lcl9pbnN0YW5jZXMuc3ZnIiB4PSIwcHgiIHk9IjBweCIgdmlld0JveD0iMCAwIDM3LjcgMzcuOCIgc3R5bGU9ImVuYWJsZS1iYWNrZ3JvdW5kOm5ldyAwIDAgMzcuNyAzNy44OyIgeG1sOnNwYWNlPSJwcmVzZXJ2ZSI+JiN4YTs8c29kaXBvZGk6bmFtZWR2aWV3IGJvcmRlcmNvbG9yPSIjNjY2NjY2IiBib3JkZXJvcGFjaXR5PSIxIiBmaXQtbWFyZ2luLWJvdHRvbT0iMCIgZml0LW1hcmdpbi1sZWZ0PSIwIiBmaXQtbWFyZ2luLXJpZ2h0PSIwIiBmaXQtbWFyZ2luLXRvcD0iMCIgZ3JpZHRvbGVyYW5jZT0iMTAiIGd1aWRldG9sZXJhbmNlPSIxMCIgaWQ9Im5hbWVkdmlldzU2NDEzIiBpbmtzY2FwZTpjdXJyZW50LWxheWVyPSJzdmc1NjQxMSIgaW5rc2NhcGU6Y3g9IjI3LjYxODI3MyIgaW5rc2NhcGU6Y3k9IjIyLjQ3Mzg3NCIgaW5rc2NhcGU6cGFnZW9wYWNpdHk9IjAiIGlua3NjYXBlOnBhZ2VzaGFkb3c9IjIiIGlua3NjYXBlOndpbmRvdy1oZWlnaHQ9IjEwMTciIGlua3NjYXBlOndpbmRvdy1tYXhpbWl6ZWQ9IjEiIGlua3NjYXBlOndpbmRvdy13aWR0aD0iMTkyMCIgaW5rc2NhcGU6d2luZG93LXg9Ii04IiBpbmtzY2FwZTp3aW5kb3cteT0iLTgiIGlua3NjYXBlOnpvb209IjEwLjQyNTkxNCIgb2JqZWN0dG9sZXJhbmNlPSIxMCIgcGFnZWNvbG9yPSIjZmZmZmZmIiBzaG93Z3JpZD0iZmFsc2UiPiYjeGE7CTwvc29kaXBvZGk6bmFtZWR2aWV3PiYjeGE7PGcgaWQ9Imc1NjQwOSIgdHJhbnNmb3JtPSJ0cmFuc2xhdGUoLTEyLjI4NjgzNiwtMTIuMjgyMzczKSI+JiN4YTsJPHRpdGxlIGlkPSJ0aXRsZTU2MzY1Ij5QYWdlLTE8L3RpdGxlPiYjeGE7CTxnIGlkPSJncm91cDU3NjEtMSIgdHJhbnNmb3JtPSJ0cmFuc2xhdGUoMTIuNDQxOCwtMTIuMjg5MikiPiYjeGE7CQk8dGl0bGUgaWQ9InRpdGxlNTYzNjciPkF6dXJlIENvbnRhaW5lciBJbnN0YW5jZXM8L3RpdGxlPiYjeGE7CQk8ZyBpZD0ic2hhcGU1NzYyLTIiIHRyYW5zZm9ybT0idHJhbnNsYXRlKDAsLTEzLjYyOTMpIj4mI3hhOwkJCTx0aXRsZSBpZD0idGl0bGU1NjM2OSI+U2hlZXQuNTc2MjwvdGl0bGU+JiN4YTsJCQk8cGF0aCBpZD0icGF0aDU2MzcxIiBpbmtzY2FwZTpjb25uZWN0b3ItY3VydmF0dXJlPSIwIiBzdHlsZT0iZmlsbDojRkZGRkZGOyIgZD0iTTMxLjUsNDYuNzVjLTAuMjctNC45OC00LjUyLTguOC05LjUtOC41NCAgICAgYy0yLjc0LDAuMTUtNS4yNiwxLjUzLTYuODYsMy43NmMtMy4xMy0yLjQxLTcuNjItMS44My0xMC4wMywxLjI5Yy0xLjM0LDEuNzQtMS44MSw0LTEuMjcsNi4xM2MtMy40MiwxLjU0LTQuOTQsNS41Ny0zLjM5LDguOTkgICAgIGMxLjEsMi40MywzLjUyLDQsNi4xOSwzLjk5aDIzYzQuMzgtMC4wMSw3LjkyLTMuNTYsNy45MS03Ljk0QzM3LjU0LDUwLjc5LDM1LjA0LDQ3LjYxLDMxLjUsNDYuNzV6Ii8+JiN4YTsJCTwvZz4mI3hhOwkJPGcgaWQ9InNoYXBlNTc2My00IiB0cmFuc2Zvcm09InRyYW5zbGF0ZSgwLC0xMy42MjkzKSI+JiN4YTsJCQk8dGl0bGUgaWQ9InRpdGxlNTYzNzQiPlNoZWV0LjU3NjM8L3RpdGxlPiYjeGE7CQkJPHBhdGggaWQ9InBhdGg1NjM3NiIgaW5rc2NhcGU6Y29ubmVjdG9yLWN1cnZhdHVyZT0iMCIgc3R5bGU9ImZpbGw6IzI3QTlFMTtmaWxsLW9wYWNpdHk6MC42OyIgZD0iTTMxLjUsNDYuNzUgICAgIGMtMC4yNy00Ljk4LTQuNTItOC44LTkuNS04LjU0Yy0yLjc0LDAuMTUtNS4yNiwxLjUzLTYuODYsMy43NmMtMy4xMy0yLjQxLTcuNjItMS44My0xMC4wMywxLjI5Yy0xLjM0LDEuNzQtMS44MSw0LTEuMjcsNi4xMyAgICAgYy0zLjQyLDEuNTQtNC45NCw1LjU3LTMuMzksOC45OWMxLjEsMi40MywzLjUyLDQsNi4xOSwzLjk5aDIzYzQuMzgtMC4wMSw3LjkyLTMuNTYsNy45MS03Ljk0ICAgICBDMzcuNTQsNTAuNzksMzUuMDQsNDcuNjEsMzEuNSw0Ni43NXoiLz4mI3hhOwkJPC9nPiYjeGE7CQk8ZyBpZD0ic2hhcGU1NzY0LTYiIHRyYW5zZm9ybT0idHJhbnNsYXRlKDguODU4MjQpIj4mI3hhOwkJCTx0aXRsZSBpZD0idGl0bGU1NjM3OSI+U2hlZXQuNTc2NDwvdGl0bGU+JiN4YTsJCQk8cGF0aCBpZD0icGF0aDU2MzgxIiBpbmtzY2FwZTpjb25uZWN0b3ItY3VydmF0dXJlPSIwIiBzdHlsZT0iZmlsbDojNjcyQTdBOyIgZD0iTTAuNzYsNDEuMTdDMC4zNCw0MS4xNywwLDQxLjUxLDAsNDEuOTMgICAgIGMwLDAsMCwwLDAsMGwwLDE5LjY4YzAsMC40MiwwLjM0LDAuNzYsMC43NiwwLjc2YzAsMCwwLDAsMCwwbDE4LjE3LDBjMC40MiwwLDAuNzYtMC4zNCwwLjc2LTAuNzZsMC0xOS42OSAgICAgYzAtMC40Mi0wLjM0LTAuNzYtMC43Ni0wLjc2aDBMMC43Niw0MS4xN3oiLz4mI3hhOwkJPC9nPiYjeGE7CQk8ZyBpZD0ic2hhcGU1NzY1LTgiIHRyYW5zZm9ybT0idHJhbnNsYXRlKDIwLjE3ODEsLTI1Ljc0NDMpIj4mI3hhOwkJCTx0aXRsZSBpZD0idGl0bGU1NjM4NCI+U2hlZXQuNTc2NTwvdGl0bGU+JiN4YTsJCTwvZz4mI3hhOwkJPGcgaWQ9InNoYXBlNTc2Ni05IiB0cmFuc2Zvcm09InRyYW5zbGF0ZSgyNi4yMzU2LC0yMi43MTU1KSI+JiN4YTsJCQk8dGl0bGUgaWQ9InRpdGxlNTYzODciPlNoZWV0LjU3NjY8L3RpdGxlPiYjeGE7CQk8L2c+JiN4YTsJCTxnIGlkPSJzaGFwZTU3NjctMTAiIHRyYW5zZm9ybT0idHJhbnNsYXRlKDE0LjkxNTcsLTIxLjIwMTIpIj4mI3hhOwkJCTx0aXRsZSBpZD0idGl0bGU1NjM5MCI+U2hlZXQuNTc2NzwvdGl0bGU+JiN4YTsJCQk8cGF0aCBpZD0icGF0aDU2MzkyIiBpbmtzY2FwZTpjb25uZWN0b3ItY3VydmF0dXJlPSIwIiBzdHlsZT0iZmlsbDojRkZGRkZGOyIgZD0iTTIuMjcsNjIuMzd2LTUuM0gwbDMuNzktNS4zbDMuNzgsNS4zSDUuM3Y1LjMgICAgIEgyLjI3eiIvPiYjeGE7CQk8L2c+JiN4YTsJCTxnIGlkPSJzaGFwZTU3NjgtMTIiIHRyYW5zZm9ybT0idHJhbnNsYXRlKDIwLjE3ODEsLTI1Ljc0NDMpIj4mI3hhOwkJCTx0aXRsZSBpZD0idGl0bGU1NjM5NSI+U2hlZXQuNTc2ODwvdGl0bGU+JiN4YTsJCTwvZz4mI3hhOwkJPGcgaWQ9InNoYXBlNTc2OS0xMyIgdHJhbnNmb3JtPSJ0cmFuc2xhdGUoMTEuMTI5OCwtMi4yNzE1NSkiPiYjeGE7CQkJPHRpdGxlIGlkPSJ0aXRsZTU2Mzk4Ij5TaGVldC41NzY5PC90aXRsZT4mI3hhOwkJCTxwYXRoIGlkPSJwYXRoNTY0MDAiIGlua3NjYXBlOmNvbm5lY3Rvci1jdXJ2YXR1cmU9IjAiIHN0eWxlPSJmaWxsOiNCOTIwMjU7ZmlsbC1vcGFjaXR5OjAuMzsiIGQ9Ik0xMy42Myw0NS43MUgwdjE2LjY2aDE1LjE0ICAgICBWNDUuNzFIMTMuNjN6IE00LjU0LDYwLjg1SDEuNTFWNDcuMjJoMy4wM1Y2MC44NXogTTkuMDksNjAuODVINi4wNlY0Ny4yMmgzLjAzVjYwLjg1eiBNMTMuNjMsNjAuODVIMTAuNlY0Ny4yMmgzLjAzVjYwLjg1eiIvPiYjeGE7CQk8L2c+JiN4YTsJCTxnIGlkPSJzaGFwZTU3NzAtMTUiIHRyYW5zZm9ybT0idHJhbnNsYXRlKDExLjEyOTgsLTIuMjcxNTUpIj4mI3hhOwkJCTx0aXRsZSBpZD0idGl0bGU1NjQwMyI+U2hlZXQuNTc3MDwvdGl0bGU+JiN4YTsJCQk8cGF0aCBpZD0icGF0aDU2NDA1IiBpbmtzY2FwZTpjb25uZWN0b3ItY3VydmF0dXJlPSIwIiBzdHlsZT0iZmlsbDojRkZGRkZGOyIgZD0iTTEzLjYzLDQ1LjcxSDB2MTYuNjZoMTUuMTRWNDUuNzFIMTMuNjN6ICAgICAgTTQuNTQsNjAuODVIMS41MVY0Ny4yMmgzLjAzVjYwLjg1eiBNOS4wOSw2MC44NUg2LjA2VjQ3LjIyaDMuMDNWNjAuODV6IE0xMy42Myw2MC44NUgxMC42VjQ3LjIyaDMuMDNWNjAuODV6Ii8+JiN4YTsJCTwvZz4mI3hhOwk8L2c+JiN4YTs8L2c+JiN4YTs8L3N2Zz4=;fillColor=#CCCCCC;" vertex="1" parent="1">
          <mxGeometry x="795.1300000000001" y="1108.12" width="48.75" height="48.75" as="geometry" />
        </mxCell>
        <mxCell id="3jxLnCF12T15F944jgeX-34" value="" style="html=1;shadow=0;dashed=0;align=center;verticalAlign=middle;shape=mxgraph.arrows2.twoWayArrow;dy=0.65;dx=22;labelBackgroundColor=none;fontSize=20;fillColor=#ffe6cc;rotation=90;strokeColor=#d79b00;" vertex="1" parent="1">
          <mxGeometry x="159.11" y="906.92" width="75.94" height="54.14" as="geometry" />
        </mxCell>
        <mxCell id="3jxLnCF12T15F944jgeX-35" value="" style="html=1;shadow=0;dashed=0;align=center;verticalAlign=middle;shape=mxgraph.arrows2.twoWayArrow;dy=0.65;dx=22;labelBackgroundColor=none;fontSize=20;fillColor=#ffe6cc;rotation=90;strokeColor=#d79b00;" vertex="1" parent="1">
          <mxGeometry x="80" y="1220" width="120.43" height="60" as="geometry" />
        </mxCell>
        <mxCell id="3jxLnCF12T15F944jgeX-36" value="" style="rounded=1;whiteSpace=wrap;html=1;dashed=1;strokeColor=none;strokeWidth=2;fillColor=#E6E6E6;fontFamily=Verdana;fontSize=12;fontColor=#00BEF2" vertex="1" parent="1">
          <mxGeometry x="60" y="555.08" width="470" height="323.43" as="geometry" />
        </mxCell>
        <mxCell id="3jxLnCF12T15F944jgeX-37" value="Daas Cloud" style="whiteSpace=wrap;html=1;dashed=1;strokeColor=none;strokeWidth=2;fillColor=#3399FF;fontFamily=Helvetica;fontSize=18;fontColor=#FFFFFF;fontStyle=1" vertex="1" parent="1">
          <mxGeometry x="60" y="548.76" width="470" height="60" as="geometry" />
        </mxCell>
        <mxCell id="3jxLnCF12T15F944jgeX-41" value="Daas Application Server" style="rounded=1;whiteSpace=wrap;html=1;dashed=1;strokeColor=none;strokeWidth=2;fillColor=#FFFFFF;fontFamily=Helvetica;fontSize=14;fontColor=#FFB366;opacity=75;verticalAlign=top;fontStyle=1" vertex="1" parent="1">
          <mxGeometry x="220" y="615.08" width="290" height="243.43" as="geometry" />
        </mxCell>
        <mxCell id="3jxLnCF12T15F944jgeX-42" value="" style="shape=image;verticalLabelPosition=bottom;labelBackgroundColor=#ffffff;verticalAlign=top;aspect=fixed;imageAspect=0;image=data:image/svg+xml,PHN2ZyB4bWxuczpjYz0iaHR0cDovL2NyZWF0aXZlY29tbW9ucy5vcmcvbnMjIiB4bWxuczpkYz0iaHR0cDovL3B1cmwub3JnL2RjL2VsZW1lbnRzLzEuMS8iIHhtbG5zOmlua3NjYXBlPSJodHRwOi8vd3d3Lmlua3NjYXBlLm9yZy9uYW1lc3BhY2VzL2lua3NjYXBlIiB4bWxuczpyZGY9Imh0dHA6Ly93d3cudzMub3JnLzE5OTkvMDIvMjItcmRmLXN5bnRheC1ucyMiIHhtbG5zOnNvZGlwb2RpPSJodHRwOi8vc29kaXBvZGkuc291cmNlZm9yZ2UubmV0L0RURC9zb2RpcG9kaS0wLmR0ZCIgeG1sbnM6c3ZnPSJodHRwOi8vd3d3LnczLm9yZy8yMDAwL3N2ZyIgeG1sbnM9Imh0dHA6Ly93d3cudzMub3JnLzIwMDAvc3ZnIiB4bWxuczp4bGluaz0iaHR0cDovL3d3dy53My5vcmcvMTk5OS94bGluayIgdmVyc2lvbj0iMS4xIiBpZD0ic3ZnNTY0MTEiIGlua3NjYXBlOnZlcnNpb249IjAuOTIuMyAoMjQwNTU0NiwgMjAxOC0wMy0xMSkiIHNvZGlwb2RpOmRvY25hbWU9ImF6dXJlX2NvbnRhaW5lcl9pbnN0YW5jZXMuc3ZnIiB4PSIwcHgiIHk9IjBweCIgdmlld0JveD0iMCAwIDM3LjcgMzcuOCIgc3R5bGU9ImVuYWJsZS1iYWNrZ3JvdW5kOm5ldyAwIDAgMzcuNyAzNy44OyIgeG1sOnNwYWNlPSJwcmVzZXJ2ZSI+JiN4YTs8c29kaXBvZGk6bmFtZWR2aWV3IGJvcmRlcmNvbG9yPSIjNjY2NjY2IiBib3JkZXJvcGFjaXR5PSIxIiBmaXQtbWFyZ2luLWJvdHRvbT0iMCIgZml0LW1hcmdpbi1sZWZ0PSIwIiBmaXQtbWFyZ2luLXJpZ2h0PSIwIiBmaXQtbWFyZ2luLXRvcD0iMCIgZ3JpZHRvbGVyYW5jZT0iMTAiIGd1aWRldG9sZXJhbmNlPSIxMCIgaWQ9Im5hbWVkdmlldzU2NDEzIiBpbmtzY2FwZTpjdXJyZW50LWxheWVyPSJzdmc1NjQxMSIgaW5rc2NhcGU6Y3g9IjI3LjYxODI3MyIgaW5rc2NhcGU6Y3k9IjIyLjQ3Mzg3NCIgaW5rc2NhcGU6cGFnZW9wYWNpdHk9IjAiIGlua3NjYXBlOnBhZ2VzaGFkb3c9IjIiIGlua3NjYXBlOndpbmRvdy1oZWlnaHQ9IjEwMTciIGlua3NjYXBlOndpbmRvdy1tYXhpbWl6ZWQ9IjEiIGlua3NjYXBlOndpbmRvdy13aWR0aD0iMTkyMCIgaW5rc2NhcGU6d2luZG93LXg9Ii04IiBpbmtzY2FwZTp3aW5kb3cteT0iLTgiIGlua3NjYXBlOnpvb209IjEwLjQyNTkxNCIgb2JqZWN0dG9sZXJhbmNlPSIxMCIgcGFnZWNvbG9yPSIjZmZmZmZmIiBzaG93Z3JpZD0iZmFsc2UiPiYjeGE7CTwvc29kaXBvZGk6bmFtZWR2aWV3PiYjeGE7PGcgaWQ9Imc1NjQwOSIgdHJhbnNmb3JtPSJ0cmFuc2xhdGUoLTEyLjI4NjgzNiwtMTIuMjgyMzczKSI+JiN4YTsJPHRpdGxlIGlkPSJ0aXRsZTU2MzY1Ij5QYWdlLTE8L3RpdGxlPiYjeGE7CTxnIGlkPSJncm91cDU3NjEtMSIgdHJhbnNmb3JtPSJ0cmFuc2xhdGUoMTIuNDQxOCwtMTIuMjg5MikiPiYjeGE7CQk8dGl0bGUgaWQ9InRpdGxlNTYzNjciPkF6dXJlIENvbnRhaW5lciBJbnN0YW5jZXM8L3RpdGxlPiYjeGE7CQk8ZyBpZD0ic2hhcGU1NzYyLTIiIHRyYW5zZm9ybT0idHJhbnNsYXRlKDAsLTEzLjYyOTMpIj4mI3hhOwkJCTx0aXRsZSBpZD0idGl0bGU1NjM2OSI+U2hlZXQuNTc2MjwvdGl0bGU+JiN4YTsJCQk8cGF0aCBpZD0icGF0aDU2MzcxIiBpbmtzY2FwZTpjb25uZWN0b3ItY3VydmF0dXJlPSIwIiBzdHlsZT0iZmlsbDojRkZGRkZGOyIgZD0iTTMxLjUsNDYuNzVjLTAuMjctNC45OC00LjUyLTguOC05LjUtOC41NCAgICAgYy0yLjc0LDAuMTUtNS4yNiwxLjUzLTYuODYsMy43NmMtMy4xMy0yLjQxLTcuNjItMS44My0xMC4wMywxLjI5Yy0xLjM0LDEuNzQtMS44MSw0LTEuMjcsNi4xM2MtMy40MiwxLjU0LTQuOTQsNS41Ny0zLjM5LDguOTkgICAgIGMxLjEsMi40MywzLjUyLDQsNi4xOSwzLjk5aDIzYzQuMzgtMC4wMSw3LjkyLTMuNTYsNy45MS03Ljk0QzM3LjU0LDUwLjc5LDM1LjA0LDQ3LjYxLDMxLjUsNDYuNzV6Ii8+JiN4YTsJCTwvZz4mI3hhOwkJPGcgaWQ9InNoYXBlNTc2My00IiB0cmFuc2Zvcm09InRyYW5zbGF0ZSgwLC0xMy42MjkzKSI+JiN4YTsJCQk8dGl0bGUgaWQ9InRpdGxlNTYzNzQiPlNoZWV0LjU3NjM8L3RpdGxlPiYjeGE7CQkJPHBhdGggaWQ9InBhdGg1NjM3NiIgaW5rc2NhcGU6Y29ubmVjdG9yLWN1cnZhdHVyZT0iMCIgc3R5bGU9ImZpbGw6IzI3QTlFMTtmaWxsLW9wYWNpdHk6MC42OyIgZD0iTTMxLjUsNDYuNzUgICAgIGMtMC4yNy00Ljk4LTQuNTItOC44LTkuNS04LjU0Yy0yLjc0LDAuMTUtNS4yNiwxLjUzLTYuODYsMy43NmMtMy4xMy0yLjQxLTcuNjItMS44My0xMC4wMywxLjI5Yy0xLjM0LDEuNzQtMS44MSw0LTEuMjcsNi4xMyAgICAgYy0zLjQyLDEuNTQtNC45NCw1LjU3LTMuMzksOC45OWMxLjEsMi40MywzLjUyLDQsNi4xOSwzLjk5aDIzYzQuMzgtMC4wMSw3LjkyLTMuNTYsNy45MS03Ljk0ICAgICBDMzcuNTQsNTAuNzksMzUuMDQsNDcuNjEsMzEuNSw0Ni43NXoiLz4mI3hhOwkJPC9nPiYjeGE7CQk8ZyBpZD0ic2hhcGU1NzY0LTYiIHRyYW5zZm9ybT0idHJhbnNsYXRlKDguODU4MjQpIj4mI3hhOwkJCTx0aXRsZSBpZD0idGl0bGU1NjM3OSI+U2hlZXQuNTc2NDwvdGl0bGU+JiN4YTsJCQk8cGF0aCBpZD0icGF0aDU2MzgxIiBpbmtzY2FwZTpjb25uZWN0b3ItY3VydmF0dXJlPSIwIiBzdHlsZT0iZmlsbDojNjcyQTdBOyIgZD0iTTAuNzYsNDEuMTdDMC4zNCw0MS4xNywwLDQxLjUxLDAsNDEuOTMgICAgIGMwLDAsMCwwLDAsMGwwLDE5LjY4YzAsMC40MiwwLjM0LDAuNzYsMC43NiwwLjc2YzAsMCwwLDAsMCwwbDE4LjE3LDBjMC40MiwwLDAuNzYtMC4zNCwwLjc2LTAuNzZsMC0xOS42OSAgICAgYzAtMC40Mi0wLjM0LTAuNzYtMC43Ni0wLjc2aDBMMC43Niw0MS4xN3oiLz4mI3hhOwkJPC9nPiYjeGE7CQk8ZyBpZD0ic2hhcGU1NzY1LTgiIHRyYW5zZm9ybT0idHJhbnNsYXRlKDIwLjE3ODEsLTI1Ljc0NDMpIj4mI3hhOwkJCTx0aXRsZSBpZD0idGl0bGU1NjM4NCI+U2hlZXQuNTc2NTwvdGl0bGU+JiN4YTsJCTwvZz4mI3hhOwkJPGcgaWQ9InNoYXBlNTc2Ni05IiB0cmFuc2Zvcm09InRyYW5zbGF0ZSgyNi4yMzU2LC0yMi43MTU1KSI+JiN4YTsJCQk8dGl0bGUgaWQ9InRpdGxlNTYzODciPlNoZWV0LjU3NjY8L3RpdGxlPiYjeGE7CQk8L2c+JiN4YTsJCTxnIGlkPSJzaGFwZTU3NjctMTAiIHRyYW5zZm9ybT0idHJhbnNsYXRlKDE0LjkxNTcsLTIxLjIwMTIpIj4mI3hhOwkJCTx0aXRsZSBpZD0idGl0bGU1NjM5MCI+U2hlZXQuNTc2NzwvdGl0bGU+JiN4YTsJCQk8cGF0aCBpZD0icGF0aDU2MzkyIiBpbmtzY2FwZTpjb25uZWN0b3ItY3VydmF0dXJlPSIwIiBzdHlsZT0iZmlsbDojRkZGRkZGOyIgZD0iTTIuMjcsNjIuMzd2LTUuM0gwbDMuNzktNS4zbDMuNzgsNS4zSDUuM3Y1LjMgICAgIEgyLjI3eiIvPiYjeGE7CQk8L2c+JiN4YTsJCTxnIGlkPSJzaGFwZTU3NjgtMTIiIHRyYW5zZm9ybT0idHJhbnNsYXRlKDIwLjE3ODEsLTI1Ljc0NDMpIj4mI3hhOwkJCTx0aXRsZSBpZD0idGl0bGU1NjM5NSI+U2hlZXQuNTc2ODwvdGl0bGU+JiN4YTsJCTwvZz4mI3hhOwkJPGcgaWQ9InNoYXBlNTc2OS0xMyIgdHJhbnNmb3JtPSJ0cmFuc2xhdGUoMTEuMTI5OCwtMi4yNzE1NSkiPiYjeGE7CQkJPHRpdGxlIGlkPSJ0aXRsZTU2Mzk4Ij5TaGVldC41NzY5PC90aXRsZT4mI3hhOwkJCTxwYXRoIGlkPSJwYXRoNTY0MDAiIGlua3NjYXBlOmNvbm5lY3Rvci1jdXJ2YXR1cmU9IjAiIHN0eWxlPSJmaWxsOiNCOTIwMjU7ZmlsbC1vcGFjaXR5OjAuMzsiIGQ9Ik0xMy42Myw0NS43MUgwdjE2LjY2aDE1LjE0ICAgICBWNDUuNzFIMTMuNjN6IE00LjU0LDYwLjg1SDEuNTFWNDcuMjJoMy4wM1Y2MC44NXogTTkuMDksNjAuODVINi4wNlY0Ny4yMmgzLjAzVjYwLjg1eiBNMTMuNjMsNjAuODVIMTAuNlY0Ny4yMmgzLjAzVjYwLjg1eiIvPiYjeGE7CQk8L2c+JiN4YTsJCTxnIGlkPSJzaGFwZTU3NzAtMTUiIHRyYW5zZm9ybT0idHJhbnNsYXRlKDExLjEyOTgsLTIuMjcxNTUpIj4mI3hhOwkJCTx0aXRsZSBpZD0idGl0bGU1NjQwMyI+U2hlZXQuNTc3MDwvdGl0bGU+JiN4YTsJCQk8cGF0aCBpZD0icGF0aDU2NDA1IiBpbmtzY2FwZTpjb25uZWN0b3ItY3VydmF0dXJlPSIwIiBzdHlsZT0iZmlsbDojRkZGRkZGOyIgZD0iTTEzLjYzLDQ1LjcxSDB2MTYuNjZoMTUuMTRWNDUuNzFIMTMuNjN6ICAgICAgTTQuNTQsNjAuODVIMS41MVY0Ny4yMmgzLjAzVjYwLjg1eiBNOS4wOSw2MC44NUg2LjA2VjQ3LjIyaDMuMDNWNjAuODV6IE0xMy42Myw2MC44NUgxMC42VjQ3LjIyaDMuMDNWNjAuODV6Ii8+JiN4YTsJCTwvZz4mI3hhOwk8L2c+JiN4YTs8L2c+JiN4YTs8L3N2Zz4=;fillColor=#CCCCCC;" vertex="1" parent="1">
          <mxGeometry x="250.62" y="696.21" width="48.75" height="48.75" as="geometry" />
        </mxCell>
        <mxCell id="3jxLnCF12T15F944jgeX-43" value="" style="shape=image;verticalLabelPosition=bottom;labelBackgroundColor=#ffffff;verticalAlign=top;aspect=fixed;imageAspect=0;image=data:image/svg+xml,PHN2ZyB4bWxuczpjYz0iaHR0cDovL2NyZWF0aXZlY29tbW9ucy5vcmcvbnMjIiB4bWxuczpkYz0iaHR0cDovL3B1cmwub3JnL2RjL2VsZW1lbnRzLzEuMS8iIHhtbG5zOmlua3NjYXBlPSJodHRwOi8vd3d3Lmlua3NjYXBlLm9yZy9uYW1lc3BhY2VzL2lua3NjYXBlIiB4bWxuczpyZGY9Imh0dHA6Ly93d3cudzMub3JnLzE5OTkvMDIvMjItcmRmLXN5bnRheC1ucyMiIHhtbG5zOnNvZGlwb2RpPSJodHRwOi8vc29kaXBvZGkuc291cmNlZm9yZ2UubmV0L0RURC9zb2RpcG9kaS0wLmR0ZCIgeG1sbnM6c3ZnPSJodHRwOi8vd3d3LnczLm9yZy8yMDAwL3N2ZyIgeG1sbnM9Imh0dHA6Ly93d3cudzMub3JnLzIwMDAvc3ZnIiB4bWxuczp4bGluaz0iaHR0cDovL3d3dy53My5vcmcvMTk5OS94bGluayIgdmVyc2lvbj0iMS4xIiBpZD0ic3ZnNTY0MTEiIGlua3NjYXBlOnZlcnNpb249IjAuOTIuMyAoMjQwNTU0NiwgMjAxOC0wMy0xMSkiIHNvZGlwb2RpOmRvY25hbWU9ImF6dXJlX2NvbnRhaW5lcl9pbnN0YW5jZXMuc3ZnIiB4PSIwcHgiIHk9IjBweCIgdmlld0JveD0iMCAwIDM3LjcgMzcuOCIgc3R5bGU9ImVuYWJsZS1iYWNrZ3JvdW5kOm5ldyAwIDAgMzcuNyAzNy44OyIgeG1sOnNwYWNlPSJwcmVzZXJ2ZSI+JiN4YTs8c29kaXBvZGk6bmFtZWR2aWV3IGJvcmRlcmNvbG9yPSIjNjY2NjY2IiBib3JkZXJvcGFjaXR5PSIxIiBmaXQtbWFyZ2luLWJvdHRvbT0iMCIgZml0LW1hcmdpbi1sZWZ0PSIwIiBmaXQtbWFyZ2luLXJpZ2h0PSIwIiBmaXQtbWFyZ2luLXRvcD0iMCIgZ3JpZHRvbGVyYW5jZT0iMTAiIGd1aWRldG9sZXJhbmNlPSIxMCIgaWQ9Im5hbWVkdmlldzU2NDEzIiBpbmtzY2FwZTpjdXJyZW50LWxheWVyPSJzdmc1NjQxMSIgaW5rc2NhcGU6Y3g9IjI3LjYxODI3MyIgaW5rc2NhcGU6Y3k9IjIyLjQ3Mzg3NCIgaW5rc2NhcGU6cGFnZW9wYWNpdHk9IjAiIGlua3NjYXBlOnBhZ2VzaGFkb3c9IjIiIGlua3NjYXBlOndpbmRvdy1oZWlnaHQ9IjEwMTciIGlua3NjYXBlOndpbmRvdy1tYXhpbWl6ZWQ9IjEiIGlua3NjYXBlOndpbmRvdy13aWR0aD0iMTkyMCIgaW5rc2NhcGU6d2luZG93LXg9Ii04IiBpbmtzY2FwZTp3aW5kb3cteT0iLTgiIGlua3NjYXBlOnpvb209IjEwLjQyNTkxNCIgb2JqZWN0dG9sZXJhbmNlPSIxMCIgcGFnZWNvbG9yPSIjZmZmZmZmIiBzaG93Z3JpZD0iZmFsc2UiPiYjeGE7CTwvc29kaXBvZGk6bmFtZWR2aWV3PiYjeGE7PGcgaWQ9Imc1NjQwOSIgdHJhbnNmb3JtPSJ0cmFuc2xhdGUoLTEyLjI4NjgzNiwtMTIuMjgyMzczKSI+JiN4YTsJPHRpdGxlIGlkPSJ0aXRsZTU2MzY1Ij5QYWdlLTE8L3RpdGxlPiYjeGE7CTxnIGlkPSJncm91cDU3NjEtMSIgdHJhbnNmb3JtPSJ0cmFuc2xhdGUoMTIuNDQxOCwtMTIuMjg5MikiPiYjeGE7CQk8dGl0bGUgaWQ9InRpdGxlNTYzNjciPkF6dXJlIENvbnRhaW5lciBJbnN0YW5jZXM8L3RpdGxlPiYjeGE7CQk8ZyBpZD0ic2hhcGU1NzYyLTIiIHRyYW5zZm9ybT0idHJhbnNsYXRlKDAsLTEzLjYyOTMpIj4mI3hhOwkJCTx0aXRsZSBpZD0idGl0bGU1NjM2OSI+U2hlZXQuNTc2MjwvdGl0bGU+JiN4YTsJCQk8cGF0aCBpZD0icGF0aDU2MzcxIiBpbmtzY2FwZTpjb25uZWN0b3ItY3VydmF0dXJlPSIwIiBzdHlsZT0iZmlsbDojRkZGRkZGOyIgZD0iTTMxLjUsNDYuNzVjLTAuMjctNC45OC00LjUyLTguOC05LjUtOC41NCAgICAgYy0yLjc0LDAuMTUtNS4yNiwxLjUzLTYuODYsMy43NmMtMy4xMy0yLjQxLTcuNjItMS44My0xMC4wMywxLjI5Yy0xLjM0LDEuNzQtMS44MSw0LTEuMjcsNi4xM2MtMy40MiwxLjU0LTQuOTQsNS41Ny0zLjM5LDguOTkgICAgIGMxLjEsMi40MywzLjUyLDQsNi4xOSwzLjk5aDIzYzQuMzgtMC4wMSw3LjkyLTMuNTYsNy45MS03Ljk0QzM3LjU0LDUwLjc5LDM1LjA0LDQ3LjYxLDMxLjUsNDYuNzV6Ii8+JiN4YTsJCTwvZz4mI3hhOwkJPGcgaWQ9InNoYXBlNTc2My00IiB0cmFuc2Zvcm09InRyYW5zbGF0ZSgwLC0xMy42MjkzKSI+JiN4YTsJCQk8dGl0bGUgaWQ9InRpdGxlNTYzNzQiPlNoZWV0LjU3NjM8L3RpdGxlPiYjeGE7CQkJPHBhdGggaWQ9InBhdGg1NjM3NiIgaW5rc2NhcGU6Y29ubmVjdG9yLWN1cnZhdHVyZT0iMCIgc3R5bGU9ImZpbGw6IzI3QTlFMTtmaWxsLW9wYWNpdHk6MC42OyIgZD0iTTMxLjUsNDYuNzUgICAgIGMtMC4yNy00Ljk4LTQuNTItOC44LTkuNS04LjU0Yy0yLjc0LDAuMTUtNS4yNiwxLjUzLTYuODYsMy43NmMtMy4xMy0yLjQxLTcuNjItMS44My0xMC4wMywxLjI5Yy0xLjM0LDEuNzQtMS44MSw0LTEuMjcsNi4xMyAgICAgYy0zLjQyLDEuNTQtNC45NCw1LjU3LTMuMzksOC45OWMxLjEsMi40MywzLjUyLDQsNi4xOSwzLjk5aDIzYzQuMzgtMC4wMSw3LjkyLTMuNTYsNy45MS03Ljk0ICAgICBDMzcuNTQsNTAuNzksMzUuMDQsNDcuNjEsMzEuNSw0Ni43NXoiLz4mI3hhOwkJPC9nPiYjeGE7CQk8ZyBpZD0ic2hhcGU1NzY0LTYiIHRyYW5zZm9ybT0idHJhbnNsYXRlKDguODU4MjQpIj4mI3hhOwkJCTx0aXRsZSBpZD0idGl0bGU1NjM3OSI+U2hlZXQuNTc2NDwvdGl0bGU+JiN4YTsJCQk8cGF0aCBpZD0icGF0aDU2MzgxIiBpbmtzY2FwZTpjb25uZWN0b3ItY3VydmF0dXJlPSIwIiBzdHlsZT0iZmlsbDojNjcyQTdBOyIgZD0iTTAuNzYsNDEuMTdDMC4zNCw0MS4xNywwLDQxLjUxLDAsNDEuOTMgICAgIGMwLDAsMCwwLDAsMGwwLDE5LjY4YzAsMC40MiwwLjM0LDAuNzYsMC43NiwwLjc2YzAsMCwwLDAsMCwwbDE4LjE3LDBjMC40MiwwLDAuNzYtMC4zNCwwLjc2LTAuNzZsMC0xOS42OSAgICAgYzAtMC40Mi0wLjM0LTAuNzYtMC43Ni0wLjc2aDBMMC43Niw0MS4xN3oiLz4mI3hhOwkJPC9nPiYjeGE7CQk8ZyBpZD0ic2hhcGU1NzY1LTgiIHRyYW5zZm9ybT0idHJhbnNsYXRlKDIwLjE3ODEsLTI1Ljc0NDMpIj4mI3hhOwkJCTx0aXRsZSBpZD0idGl0bGU1NjM4NCI+U2hlZXQuNTc2NTwvdGl0bGU+JiN4YTsJCTwvZz4mI3hhOwkJPGcgaWQ9InNoYXBlNTc2Ni05IiB0cmFuc2Zvcm09InRyYW5zbGF0ZSgyNi4yMzU2LC0yMi43MTU1KSI+JiN4YTsJCQk8dGl0bGUgaWQ9InRpdGxlNTYzODciPlNoZWV0LjU3NjY8L3RpdGxlPiYjeGE7CQk8L2c+JiN4YTsJCTxnIGlkPSJzaGFwZTU3NjctMTAiIHRyYW5zZm9ybT0idHJhbnNsYXRlKDE0LjkxNTcsLTIxLjIwMTIpIj4mI3hhOwkJCTx0aXRsZSBpZD0idGl0bGU1NjM5MCI+U2hlZXQuNTc2NzwvdGl0bGU+JiN4YTsJCQk8cGF0aCBpZD0icGF0aDU2MzkyIiBpbmtzY2FwZTpjb25uZWN0b3ItY3VydmF0dXJlPSIwIiBzdHlsZT0iZmlsbDojRkZGRkZGOyIgZD0iTTIuMjcsNjIuMzd2LTUuM0gwbDMuNzktNS4zbDMuNzgsNS4zSDUuM3Y1LjMgICAgIEgyLjI3eiIvPiYjeGE7CQk8L2c+JiN4YTsJCTxnIGlkPSJzaGFwZTU3NjgtMTIiIHRyYW5zZm9ybT0idHJhbnNsYXRlKDIwLjE3ODEsLTI1Ljc0NDMpIj4mI3hhOwkJCTx0aXRsZSBpZD0idGl0bGU1NjM5NSI+U2hlZXQuNTc2ODwvdGl0bGU+JiN4YTsJCTwvZz4mI3hhOwkJPGcgaWQ9InNoYXBlNTc2OS0xMyIgdHJhbnNmb3JtPSJ0cmFuc2xhdGUoMTEuMTI5OCwtMi4yNzE1NSkiPiYjeGE7CQkJPHRpdGxlIGlkPSJ0aXRsZTU2Mzk4Ij5TaGVldC41NzY5PC90aXRsZT4mI3hhOwkJCTxwYXRoIGlkPSJwYXRoNTY0MDAiIGlua3NjYXBlOmNvbm5lY3Rvci1jdXJ2YXR1cmU9IjAiIHN0eWxlPSJmaWxsOiNCOTIwMjU7ZmlsbC1vcGFjaXR5OjAuMzsiIGQ9Ik0xMy42Myw0NS43MUgwdjE2LjY2aDE1LjE0ICAgICBWNDUuNzFIMTMuNjN6IE00LjU0LDYwLjg1SDEuNTFWNDcuMjJoMy4wM1Y2MC44NXogTTkuMDksNjAuODVINi4wNlY0Ny4yMmgzLjAzVjYwLjg1eiBNMTMuNjMsNjAuODVIMTAuNlY0Ny4yMmgzLjAzVjYwLjg1eiIvPiYjeGE7CQk8L2c+JiN4YTsJCTxnIGlkPSJzaGFwZTU3NzAtMTUiIHRyYW5zZm9ybT0idHJhbnNsYXRlKDExLjEyOTgsLTIuMjcxNTUpIj4mI3hhOwkJCTx0aXRsZSBpZD0idGl0bGU1NjQwMyI+U2hlZXQuNTc3MDwvdGl0bGU+JiN4YTsJCQk8cGF0aCBpZD0icGF0aDU2NDA1IiBpbmtzY2FwZTpjb25uZWN0b3ItY3VydmF0dXJlPSIwIiBzdHlsZT0iZmlsbDojRkZGRkZGOyIgZD0iTTEzLjYzLDQ1LjcxSDB2MTYuNjZoMTUuMTRWNDUuNzFIMTMuNjN6ICAgICAgTTQuNTQsNjAuODVIMS41MVY0Ny4yMmgzLjAzVjYwLjg1eiBNOS4wOSw2MC44NUg2LjA2VjQ3LjIyaDMuMDNWNjAuODV6IE0xMy42Myw2MC44NUgxMC42VjQ3LjIyaDMuMDNWNjAuODV6Ii8+JiN4YTsJCTwvZz4mI3hhOwk8L2c+JiN4YTs8L2c+JiN4YTs8L3N2Zz4=;fillColor=#CCCCCC;" vertex="1" parent="1">
          <mxGeometry x="250.62" y="765.08" width="48.75" height="48.75" as="geometry" />
        </mxCell>
        <mxCell id="3jxLnCF12T15F944jgeX-48" value="Daas&lt;br&gt;Gateway&lt;br&gt;Server" style="rounded=1;whiteSpace=wrap;html=1;dashed=1;strokeColor=none;strokeWidth=2;fillColor=#FFFFFF;fontFamily=Helvetica;fontSize=14;fontColor=#FFB366;opacity=75;verticalAlign=top;fontStyle=1" vertex="1" parent="1">
          <mxGeometry x="80" y="619.46" width="110" height="229.05" as="geometry" />
        </mxCell>
        <mxCell id="3jxLnCF12T15F944jgeX-49" value="" style="shape=image;verticalLabelPosition=bottom;labelBackgroundColor=#ffffff;verticalAlign=top;aspect=fixed;imageAspect=0;image=data:image/svg+xml,PHN2ZyB4bWxuczpjYz0iaHR0cDovL2NyZWF0aXZlY29tbW9ucy5vcmcvbnMjIiB4bWxuczpkYz0iaHR0cDovL3B1cmwub3JnL2RjL2VsZW1lbnRzLzEuMS8iIHhtbG5zOmlua3NjYXBlPSJodHRwOi8vd3d3Lmlua3NjYXBlLm9yZy9uYW1lc3BhY2VzL2lua3NjYXBlIiB4bWxuczpyZGY9Imh0dHA6Ly93d3cudzMub3JnLzE5OTkvMDIvMjItcmRmLXN5bnRheC1ucyMiIHhtbG5zOnNvZGlwb2RpPSJodHRwOi8vc29kaXBvZGkuc291cmNlZm9yZ2UubmV0L0RURC9zb2RpcG9kaS0wLmR0ZCIgeG1sbnM6c3ZnPSJodHRwOi8vd3d3LnczLm9yZy8yMDAwL3N2ZyIgeG1sbnM9Imh0dHA6Ly93d3cudzMub3JnLzIwMDAvc3ZnIiB4bWxuczp4bGluaz0iaHR0cDovL3d3dy53My5vcmcvMTk5OS94bGluayIgdmVyc2lvbj0iMS4xIiBpZD0ic3ZnNTY0MTEiIGlua3NjYXBlOnZlcnNpb249IjAuOTIuMyAoMjQwNTU0NiwgMjAxOC0wMy0xMSkiIHNvZGlwb2RpOmRvY25hbWU9ImF6dXJlX2NvbnRhaW5lcl9pbnN0YW5jZXMuc3ZnIiB4PSIwcHgiIHk9IjBweCIgdmlld0JveD0iMCAwIDM3LjcgMzcuOCIgc3R5bGU9ImVuYWJsZS1iYWNrZ3JvdW5kOm5ldyAwIDAgMzcuNyAzNy44OyIgeG1sOnNwYWNlPSJwcmVzZXJ2ZSI+JiN4YTs8c29kaXBvZGk6bmFtZWR2aWV3IGJvcmRlcmNvbG9yPSIjNjY2NjY2IiBib3JkZXJvcGFjaXR5PSIxIiBmaXQtbWFyZ2luLWJvdHRvbT0iMCIgZml0LW1hcmdpbi1sZWZ0PSIwIiBmaXQtbWFyZ2luLXJpZ2h0PSIwIiBmaXQtbWFyZ2luLXRvcD0iMCIgZ3JpZHRvbGVyYW5jZT0iMTAiIGd1aWRldG9sZXJhbmNlPSIxMCIgaWQ9Im5hbWVkdmlldzU2NDEzIiBpbmtzY2FwZTpjdXJyZW50LWxheWVyPSJzdmc1NjQxMSIgaW5rc2NhcGU6Y3g9IjI3LjYxODI3MyIgaW5rc2NhcGU6Y3k9IjIyLjQ3Mzg3NCIgaW5rc2NhcGU6cGFnZW9wYWNpdHk9IjAiIGlua3NjYXBlOnBhZ2VzaGFkb3c9IjIiIGlua3NjYXBlOndpbmRvdy1oZWlnaHQ9IjEwMTciIGlua3NjYXBlOndpbmRvdy1tYXhpbWl6ZWQ9IjEiIGlua3NjYXBlOndpbmRvdy13aWR0aD0iMTkyMCIgaW5rc2NhcGU6d2luZG93LXg9Ii04IiBpbmtzY2FwZTp3aW5kb3cteT0iLTgiIGlua3NjYXBlOnpvb209IjEwLjQyNTkxNCIgb2JqZWN0dG9sZXJhbmNlPSIxMCIgcGFnZWNvbG9yPSIjZmZmZmZmIiBzaG93Z3JpZD0iZmFsc2UiPiYjeGE7CTwvc29kaXBvZGk6bmFtZWR2aWV3PiYjeGE7PGcgaWQ9Imc1NjQwOSIgdHJhbnNmb3JtPSJ0cmFuc2xhdGUoLTEyLjI4NjgzNiwtMTIuMjgyMzczKSI+JiN4YTsJPHRpdGxlIGlkPSJ0aXRsZTU2MzY1Ij5QYWdlLTE8L3RpdGxlPiYjeGE7CTxnIGlkPSJncm91cDU3NjEtMSIgdHJhbnNmb3JtPSJ0cmFuc2xhdGUoMTIuNDQxOCwtMTIuMjg5MikiPiYjeGE7CQk8dGl0bGUgaWQ9InRpdGxlNTYzNjciPkF6dXJlIENvbnRhaW5lciBJbnN0YW5jZXM8L3RpdGxlPiYjeGE7CQk8ZyBpZD0ic2hhcGU1NzYyLTIiIHRyYW5zZm9ybT0idHJhbnNsYXRlKDAsLTEzLjYyOTMpIj4mI3hhOwkJCTx0aXRsZSBpZD0idGl0bGU1NjM2OSI+U2hlZXQuNTc2MjwvdGl0bGU+JiN4YTsJCQk8cGF0aCBpZD0icGF0aDU2MzcxIiBpbmtzY2FwZTpjb25uZWN0b3ItY3VydmF0dXJlPSIwIiBzdHlsZT0iZmlsbDojRkZGRkZGOyIgZD0iTTMxLjUsNDYuNzVjLTAuMjctNC45OC00LjUyLTguOC05LjUtOC41NCAgICAgYy0yLjc0LDAuMTUtNS4yNiwxLjUzLTYuODYsMy43NmMtMy4xMy0yLjQxLTcuNjItMS44My0xMC4wMywxLjI5Yy0xLjM0LDEuNzQtMS44MSw0LTEuMjcsNi4xM2MtMy40MiwxLjU0LTQuOTQsNS41Ny0zLjM5LDguOTkgICAgIGMxLjEsMi40MywzLjUyLDQsNi4xOSwzLjk5aDIzYzQuMzgtMC4wMSw3LjkyLTMuNTYsNy45MS03Ljk0QzM3LjU0LDUwLjc5LDM1LjA0LDQ3LjYxLDMxLjUsNDYuNzV6Ii8+JiN4YTsJCTwvZz4mI3hhOwkJPGcgaWQ9InNoYXBlNTc2My00IiB0cmFuc2Zvcm09InRyYW5zbGF0ZSgwLC0xMy42MjkzKSI+JiN4YTsJCQk8dGl0bGUgaWQ9InRpdGxlNTYzNzQiPlNoZWV0LjU3NjM8L3RpdGxlPiYjeGE7CQkJPHBhdGggaWQ9InBhdGg1NjM3NiIgaW5rc2NhcGU6Y29ubmVjdG9yLWN1cnZhdHVyZT0iMCIgc3R5bGU9ImZpbGw6IzI3QTlFMTtmaWxsLW9wYWNpdHk6MC42OyIgZD0iTTMxLjUsNDYuNzUgICAgIGMtMC4yNy00Ljk4LTQuNTItOC44LTkuNS04LjU0Yy0yLjc0LDAuMTUtNS4yNiwxLjUzLTYuODYsMy43NmMtMy4xMy0yLjQxLTcuNjItMS44My0xMC4wMywxLjI5Yy0xLjM0LDEuNzQtMS44MSw0LTEuMjcsNi4xMyAgICAgYy0zLjQyLDEuNTQtNC45NCw1LjU3LTMuMzksOC45OWMxLjEsMi40MywzLjUyLDQsNi4xOSwzLjk5aDIzYzQuMzgtMC4wMSw3LjkyLTMuNTYsNy45MS03Ljk0ICAgICBDMzcuNTQsNTAuNzksMzUuMDQsNDcuNjEsMzEuNSw0Ni43NXoiLz4mI3hhOwkJPC9nPiYjeGE7CQk8ZyBpZD0ic2hhcGU1NzY0LTYiIHRyYW5zZm9ybT0idHJhbnNsYXRlKDguODU4MjQpIj4mI3hhOwkJCTx0aXRsZSBpZD0idGl0bGU1NjM3OSI+U2hlZXQuNTc2NDwvdGl0bGU+JiN4YTsJCQk8cGF0aCBpZD0icGF0aDU2MzgxIiBpbmtzY2FwZTpjb25uZWN0b3ItY3VydmF0dXJlPSIwIiBzdHlsZT0iZmlsbDojNjcyQTdBOyIgZD0iTTAuNzYsNDEuMTdDMC4zNCw0MS4xNywwLDQxLjUxLDAsNDEuOTMgICAgIGMwLDAsMCwwLDAsMGwwLDE5LjY4YzAsMC40MiwwLjM0LDAuNzYsMC43NiwwLjc2YzAsMCwwLDAsMCwwbDE4LjE3LDBjMC40MiwwLDAuNzYtMC4zNCwwLjc2LTAuNzZsMC0xOS42OSAgICAgYzAtMC40Mi0wLjM0LTAuNzYtMC43Ni0wLjc2aDBMMC43Niw0MS4xN3oiLz4mI3hhOwkJPC9nPiYjeGE7CQk8ZyBpZD0ic2hhcGU1NzY1LTgiIHRyYW5zZm9ybT0idHJhbnNsYXRlKDIwLjE3ODEsLTI1Ljc0NDMpIj4mI3hhOwkJCTx0aXRsZSBpZD0idGl0bGU1NjM4NCI+U2hlZXQuNTc2NTwvdGl0bGU+JiN4YTsJCTwvZz4mI3hhOwkJPGcgaWQ9InNoYXBlNTc2Ni05IiB0cmFuc2Zvcm09InRyYW5zbGF0ZSgyNi4yMzU2LC0yMi43MTU1KSI+JiN4YTsJCQk8dGl0bGUgaWQ9InRpdGxlNTYzODciPlNoZWV0LjU3NjY8L3RpdGxlPiYjeGE7CQk8L2c+JiN4YTsJCTxnIGlkPSJzaGFwZTU3NjctMTAiIHRyYW5zZm9ybT0idHJhbnNsYXRlKDE0LjkxNTcsLTIxLjIwMTIpIj4mI3hhOwkJCTx0aXRsZSBpZD0idGl0bGU1NjM5MCI+U2hlZXQuNTc2NzwvdGl0bGU+JiN4YTsJCQk8cGF0aCBpZD0icGF0aDU2MzkyIiBpbmtzY2FwZTpjb25uZWN0b3ItY3VydmF0dXJlPSIwIiBzdHlsZT0iZmlsbDojRkZGRkZGOyIgZD0iTTIuMjcsNjIuMzd2LTUuM0gwbDMuNzktNS4zbDMuNzgsNS4zSDUuM3Y1LjMgICAgIEgyLjI3eiIvPiYjeGE7CQk8L2c+JiN4YTsJCTxnIGlkPSJzaGFwZTU3NjgtMTIiIHRyYW5zZm9ybT0idHJhbnNsYXRlKDIwLjE3ODEsLTI1Ljc0NDMpIj4mI3hhOwkJCTx0aXRsZSBpZD0idGl0bGU1NjM5NSI+U2hlZXQuNTc2ODwvdGl0bGU+JiN4YTsJCTwvZz4mI3hhOwkJPGcgaWQ9InNoYXBlNTc2OS0xMyIgdHJhbnNmb3JtPSJ0cmFuc2xhdGUoMTEuMTI5OCwtMi4yNzE1NSkiPiYjeGE7CQkJPHRpdGxlIGlkPSJ0aXRsZTU2Mzk4Ij5TaGVldC41NzY5PC90aXRsZT4mI3hhOwkJCTxwYXRoIGlkPSJwYXRoNTY0MDAiIGlua3NjYXBlOmNvbm5lY3Rvci1jdXJ2YXR1cmU9IjAiIHN0eWxlPSJmaWxsOiNCOTIwMjU7ZmlsbC1vcGFjaXR5OjAuMzsiIGQ9Ik0xMy42Myw0NS43MUgwdjE2LjY2aDE1LjE0ICAgICBWNDUuNzFIMTMuNjN6IE00LjU0LDYwLjg1SDEuNTFWNDcuMjJoMy4wM1Y2MC44NXogTTkuMDksNjAuODVINi4wNlY0Ny4yMmgzLjAzVjYwLjg1eiBNMTMuNjMsNjAuODVIMTAuNlY0Ny4yMmgzLjAzVjYwLjg1eiIvPiYjeGE7CQk8L2c+JiN4YTsJCTxnIGlkPSJzaGFwZTU3NzAtMTUiIHRyYW5zZm9ybT0idHJhbnNsYXRlKDExLjEyOTgsLTIuMjcxNTUpIj4mI3hhOwkJCTx0aXRsZSBpZD0idGl0bGU1NjQwMyI+U2hlZXQuNTc3MDwvdGl0bGU+JiN4YTsJCQk8cGF0aCBpZD0icGF0aDU2NDA1IiBpbmtzY2FwZTpjb25uZWN0b3ItY3VydmF0dXJlPSIwIiBzdHlsZT0iZmlsbDojRkZGRkZGOyIgZD0iTTEzLjYzLDQ1LjcxSDB2MTYuNjZoMTUuMTRWNDUuNzFIMTMuNjN6ICAgICAgTTQuNTQsNjAuODVIMS41MVY0Ny4yMmgzLjAzVjYwLjg1eiBNOS4wOSw2MC44NUg2LjA2VjQ3LjIyaDMuMDNWNjAuODV6IE0xMy42Myw2MC44NUgxMC42VjQ3LjIyaDMuMDNWNjAuODV6Ii8+JiN4YTsJCTwvZz4mI3hhOwk8L2c+JiN4YTs8L2c+JiN4YTs8L3N2Zz4=;fillColor=#CCCCCC;" vertex="1" parent="1">
          <mxGeometry x="110.62" y="700.59" width="48.75" height="48.75" as="geometry" />
        </mxCell>
        <mxCell id="3jxLnCF12T15F944jgeX-50" value="" style="shape=image;verticalLabelPosition=bottom;labelBackgroundColor=#ffffff;verticalAlign=top;aspect=fixed;imageAspect=0;image=data:image/svg+xml,PHN2ZyB4bWxuczpjYz0iaHR0cDovL2NyZWF0aXZlY29tbW9ucy5vcmcvbnMjIiB4bWxuczpkYz0iaHR0cDovL3B1cmwub3JnL2RjL2VsZW1lbnRzLzEuMS8iIHhtbG5zOmlua3NjYXBlPSJodHRwOi8vd3d3Lmlua3NjYXBlLm9yZy9uYW1lc3BhY2VzL2lua3NjYXBlIiB4bWxuczpyZGY9Imh0dHA6Ly93d3cudzMub3JnLzE5OTkvMDIvMjItcmRmLXN5bnRheC1ucyMiIHhtbG5zOnNvZGlwb2RpPSJodHRwOi8vc29kaXBvZGkuc291cmNlZm9yZ2UubmV0L0RURC9zb2RpcG9kaS0wLmR0ZCIgeG1sbnM6c3ZnPSJodHRwOi8vd3d3LnczLm9yZy8yMDAwL3N2ZyIgeG1sbnM9Imh0dHA6Ly93d3cudzMub3JnLzIwMDAvc3ZnIiB4bWxuczp4bGluaz0iaHR0cDovL3d3dy53My5vcmcvMTk5OS94bGluayIgdmVyc2lvbj0iMS4xIiBpZD0ic3ZnNTY0MTEiIGlua3NjYXBlOnZlcnNpb249IjAuOTIuMyAoMjQwNTU0NiwgMjAxOC0wMy0xMSkiIHNvZGlwb2RpOmRvY25hbWU9ImF6dXJlX2NvbnRhaW5lcl9pbnN0YW5jZXMuc3ZnIiB4PSIwcHgiIHk9IjBweCIgdmlld0JveD0iMCAwIDM3LjcgMzcuOCIgc3R5bGU9ImVuYWJsZS1iYWNrZ3JvdW5kOm5ldyAwIDAgMzcuNyAzNy44OyIgeG1sOnNwYWNlPSJwcmVzZXJ2ZSI+JiN4YTs8c29kaXBvZGk6bmFtZWR2aWV3IGJvcmRlcmNvbG9yPSIjNjY2NjY2IiBib3JkZXJvcGFjaXR5PSIxIiBmaXQtbWFyZ2luLWJvdHRvbT0iMCIgZml0LW1hcmdpbi1sZWZ0PSIwIiBmaXQtbWFyZ2luLXJpZ2h0PSIwIiBmaXQtbWFyZ2luLXRvcD0iMCIgZ3JpZHRvbGVyYW5jZT0iMTAiIGd1aWRldG9sZXJhbmNlPSIxMCIgaWQ9Im5hbWVkdmlldzU2NDEzIiBpbmtzY2FwZTpjdXJyZW50LWxheWVyPSJzdmc1NjQxMSIgaW5rc2NhcGU6Y3g9IjI3LjYxODI3MyIgaW5rc2NhcGU6Y3k9IjIyLjQ3Mzg3NCIgaW5rc2NhcGU6cGFnZW9wYWNpdHk9IjAiIGlua3NjYXBlOnBhZ2VzaGFkb3c9IjIiIGlua3NjYXBlOndpbmRvdy1oZWlnaHQ9IjEwMTciIGlua3NjYXBlOndpbmRvdy1tYXhpbWl6ZWQ9IjEiIGlua3NjYXBlOndpbmRvdy13aWR0aD0iMTkyMCIgaW5rc2NhcGU6d2luZG93LXg9Ii04IiBpbmtzY2FwZTp3aW5kb3cteT0iLTgiIGlua3NjYXBlOnpvb209IjEwLjQyNTkxNCIgb2JqZWN0dG9sZXJhbmNlPSIxMCIgcGFnZWNvbG9yPSIjZmZmZmZmIiBzaG93Z3JpZD0iZmFsc2UiPiYjeGE7CTwvc29kaXBvZGk6bmFtZWR2aWV3PiYjeGE7PGcgaWQ9Imc1NjQwOSIgdHJhbnNmb3JtPSJ0cmFuc2xhdGUoLTEyLjI4NjgzNiwtMTIuMjgyMzczKSI+JiN4YTsJPHRpdGxlIGlkPSJ0aXRsZTU2MzY1Ij5QYWdlLTE8L3RpdGxlPiYjeGE7CTxnIGlkPSJncm91cDU3NjEtMSIgdHJhbnNmb3JtPSJ0cmFuc2xhdGUoMTIuNDQxOCwtMTIuMjg5MikiPiYjeGE7CQk8dGl0bGUgaWQ9InRpdGxlNTYzNjciPkF6dXJlIENvbnRhaW5lciBJbnN0YW5jZXM8L3RpdGxlPiYjeGE7CQk8ZyBpZD0ic2hhcGU1NzYyLTIiIHRyYW5zZm9ybT0idHJhbnNsYXRlKDAsLTEzLjYyOTMpIj4mI3hhOwkJCTx0aXRsZSBpZD0idGl0bGU1NjM2OSI+U2hlZXQuNTc2MjwvdGl0bGU+JiN4YTsJCQk8cGF0aCBpZD0icGF0aDU2MzcxIiBpbmtzY2FwZTpjb25uZWN0b3ItY3VydmF0dXJlPSIwIiBzdHlsZT0iZmlsbDojRkZGRkZGOyIgZD0iTTMxLjUsNDYuNzVjLTAuMjctNC45OC00LjUyLTguOC05LjUtOC41NCAgICAgYy0yLjc0LDAuMTUtNS4yNiwxLjUzLTYuODYsMy43NmMtMy4xMy0yLjQxLTcuNjItMS44My0xMC4wMywxLjI5Yy0xLjM0LDEuNzQtMS44MSw0LTEuMjcsNi4xM2MtMy40MiwxLjU0LTQuOTQsNS41Ny0zLjM5LDguOTkgICAgIGMxLjEsMi40MywzLjUyLDQsNi4xOSwzLjk5aDIzYzQuMzgtMC4wMSw3LjkyLTMuNTYsNy45MS03Ljk0QzM3LjU0LDUwLjc5LDM1LjA0LDQ3LjYxLDMxLjUsNDYuNzV6Ii8+JiN4YTsJCTwvZz4mI3hhOwkJPGcgaWQ9InNoYXBlNTc2My00IiB0cmFuc2Zvcm09InRyYW5zbGF0ZSgwLC0xMy42MjkzKSI+JiN4YTsJCQk8dGl0bGUgaWQ9InRpdGxlNTYzNzQiPlNoZWV0LjU3NjM8L3RpdGxlPiYjeGE7CQkJPHBhdGggaWQ9InBhdGg1NjM3NiIgaW5rc2NhcGU6Y29ubmVjdG9yLWN1cnZhdHVyZT0iMCIgc3R5bGU9ImZpbGw6IzI3QTlFMTtmaWxsLW9wYWNpdHk6MC42OyIgZD0iTTMxLjUsNDYuNzUgICAgIGMtMC4yNy00Ljk4LTQuNTItOC44LTkuNS04LjU0Yy0yLjc0LDAuMTUtNS4yNiwxLjUzLTYuODYsMy43NmMtMy4xMy0yLjQxLTcuNjItMS44My0xMC4wMywxLjI5Yy0xLjM0LDEuNzQtMS44MSw0LTEuMjcsNi4xMyAgICAgYy0zLjQyLDEuNTQtNC45NCw1LjU3LTMuMzksOC45OWMxLjEsMi40MywzLjUyLDQsNi4xOSwzLjk5aDIzYzQuMzgtMC4wMSw3LjkyLTMuNTYsNy45MS03Ljk0ICAgICBDMzcuNTQsNTAuNzksMzUuMDQsNDcuNjEsMzEuNSw0Ni43NXoiLz4mI3hhOwkJPC9nPiYjeGE7CQk8ZyBpZD0ic2hhcGU1NzY0LTYiIHRyYW5zZm9ybT0idHJhbnNsYXRlKDguODU4MjQpIj4mI3hhOwkJCTx0aXRsZSBpZD0idGl0bGU1NjM3OSI+U2hlZXQuNTc2NDwvdGl0bGU+JiN4YTsJCQk8cGF0aCBpZD0icGF0aDU2MzgxIiBpbmtzY2FwZTpjb25uZWN0b3ItY3VydmF0dXJlPSIwIiBzdHlsZT0iZmlsbDojNjcyQTdBOyIgZD0iTTAuNzYsNDEuMTdDMC4zNCw0MS4xNywwLDQxLjUxLDAsNDEuOTMgICAgIGMwLDAsMCwwLDAsMGwwLDE5LjY4YzAsMC40MiwwLjM0LDAuNzYsMC43NiwwLjc2YzAsMCwwLDAsMCwwbDE4LjE3LDBjMC40MiwwLDAuNzYtMC4zNCwwLjc2LTAuNzZsMC0xOS42OSAgICAgYzAtMC40Mi0wLjM0LTAuNzYtMC43Ni0wLjc2aDBMMC43Niw0MS4xN3oiLz4mI3hhOwkJPC9nPiYjeGE7CQk8ZyBpZD0ic2hhcGU1NzY1LTgiIHRyYW5zZm9ybT0idHJhbnNsYXRlKDIwLjE3ODEsLTI1Ljc0NDMpIj4mI3hhOwkJCTx0aXRsZSBpZD0idGl0bGU1NjM4NCI+U2hlZXQuNTc2NTwvdGl0bGU+JiN4YTsJCTwvZz4mI3hhOwkJPGcgaWQ9InNoYXBlNTc2Ni05IiB0cmFuc2Zvcm09InRyYW5zbGF0ZSgyNi4yMzU2LC0yMi43MTU1KSI+JiN4YTsJCQk8dGl0bGUgaWQ9InRpdGxlNTYzODciPlNoZWV0LjU3NjY8L3RpdGxlPiYjeGE7CQk8L2c+JiN4YTsJCTxnIGlkPSJzaGFwZTU3NjctMTAiIHRyYW5zZm9ybT0idHJhbnNsYXRlKDE0LjkxNTcsLTIxLjIwMTIpIj4mI3hhOwkJCTx0aXRsZSBpZD0idGl0bGU1NjM5MCI+U2hlZXQuNTc2NzwvdGl0bGU+JiN4YTsJCQk8cGF0aCBpZD0icGF0aDU2MzkyIiBpbmtzY2FwZTpjb25uZWN0b3ItY3VydmF0dXJlPSIwIiBzdHlsZT0iZmlsbDojRkZGRkZGOyIgZD0iTTIuMjcsNjIuMzd2LTUuM0gwbDMuNzktNS4zbDMuNzgsNS4zSDUuM3Y1LjMgICAgIEgyLjI3eiIvPiYjeGE7CQk8L2c+JiN4YTsJCTxnIGlkPSJzaGFwZTU3NjgtMTIiIHRyYW5zZm9ybT0idHJhbnNsYXRlKDIwLjE3ODEsLTI1Ljc0NDMpIj4mI3hhOwkJCTx0aXRsZSBpZD0idGl0bGU1NjM5NSI+U2hlZXQuNTc2ODwvdGl0bGU+JiN4YTsJCTwvZz4mI3hhOwkJPGcgaWQ9InNoYXBlNTc2OS0xMyIgdHJhbnNmb3JtPSJ0cmFuc2xhdGUoMTEuMTI5OCwtMi4yNzE1NSkiPiYjeGE7CQkJPHRpdGxlIGlkPSJ0aXRsZTU2Mzk4Ij5TaGVldC41NzY5PC90aXRsZT4mI3hhOwkJCTxwYXRoIGlkPSJwYXRoNTY0MDAiIGlua3NjYXBlOmNvbm5lY3Rvci1jdXJ2YXR1cmU9IjAiIHN0eWxlPSJmaWxsOiNCOTIwMjU7ZmlsbC1vcGFjaXR5OjAuMzsiIGQ9Ik0xMy42Myw0NS43MUgwdjE2LjY2aDE1LjE0ICAgICBWNDUuNzFIMTMuNjN6IE00LjU0LDYwLjg1SDEuNTFWNDcuMjJoMy4wM1Y2MC44NXogTTkuMDksNjAuODVINi4wNlY0Ny4yMmgzLjAzVjYwLjg1eiBNMTMuNjMsNjAuODVIMTAuNlY0Ny4yMmgzLjAzVjYwLjg1eiIvPiYjeGE7CQk8L2c+JiN4YTsJCTxnIGlkPSJzaGFwZTU3NzAtMTUiIHRyYW5zZm9ybT0idHJhbnNsYXRlKDExLjEyOTgsLTIuMjcxNTUpIj4mI3hhOwkJCTx0aXRsZSBpZD0idGl0bGU1NjQwMyI+U2hlZXQuNTc3MDwvdGl0bGU+JiN4YTsJCQk8cGF0aCBpZD0icGF0aDU2NDA1IiBpbmtzY2FwZTpjb25uZWN0b3ItY3VydmF0dXJlPSIwIiBzdHlsZT0iZmlsbDojRkZGRkZGOyIgZD0iTTEzLjYzLDQ1LjcxSDB2MTYuNjZoMTUuMTRWNDUuNzFIMTMuNjN6ICAgICAgTTQuNTQsNjAuODVIMS41MVY0Ny4yMmgzLjAzVjYwLjg1eiBNOS4wOSw2MC44NUg2LjA2VjQ3LjIyaDMuMDNWNjAuODV6IE0xMy42Myw2MC44NUgxMC42VjQ3LjIyaDMuMDNWNjAuODV6Ii8+JiN4YTsJCTwvZz4mI3hhOwk8L2c+JiN4YTs8L2c+JiN4YTs8L3N2Zz4=;fillColor=#CCCCCC;" vertex="1" parent="1">
          <mxGeometry x="110.62" y="769.46" width="48.75" height="48.75" as="geometry" />
        </mxCell>
        <mxCell id="3jxLnCF12T15F944jgeX-52" value="" style="shape=image;verticalLabelPosition=bottom;labelBackgroundColor=#ffffff;verticalAlign=top;aspect=fixed;imageAspect=0;image=data:image/svg+xml,PHN2ZyB4bWxuczpjYz0iaHR0cDovL2NyZWF0aXZlY29tbW9ucy5vcmcvbnMjIiB4bWxuczpkYz0iaHR0cDovL3B1cmwub3JnL2RjL2VsZW1lbnRzLzEuMS8iIHhtbG5zOmlua3NjYXBlPSJodHRwOi8vd3d3Lmlua3NjYXBlLm9yZy9uYW1lc3BhY2VzL2lua3NjYXBlIiB4bWxuczpyZGY9Imh0dHA6Ly93d3cudzMub3JnLzE5OTkvMDIvMjItcmRmLXN5bnRheC1ucyMiIHhtbG5zOnNvZGlwb2RpPSJodHRwOi8vc29kaXBvZGkuc291cmNlZm9yZ2UubmV0L0RURC9zb2RpcG9kaS0wLmR0ZCIgeG1sbnM6c3ZnPSJodHRwOi8vd3d3LnczLm9yZy8yMDAwL3N2ZyIgeG1sbnM9Imh0dHA6Ly93d3cudzMub3JnLzIwMDAvc3ZnIiB4bWxuczp4bGluaz0iaHR0cDovL3d3dy53My5vcmcvMTk5OS94bGluayIgdmVyc2lvbj0iMS4xIiBpZD0ic3ZnNTY0MTEiIGlua3NjYXBlOnZlcnNpb249IjAuOTIuMyAoMjQwNTU0NiwgMjAxOC0wMy0xMSkiIHNvZGlwb2RpOmRvY25hbWU9ImF6dXJlX2NvbnRhaW5lcl9pbnN0YW5jZXMuc3ZnIiB4PSIwcHgiIHk9IjBweCIgdmlld0JveD0iMCAwIDM3LjcgMzcuOCIgc3R5bGU9ImVuYWJsZS1iYWNrZ3JvdW5kOm5ldyAwIDAgMzcuNyAzNy44OyIgeG1sOnNwYWNlPSJwcmVzZXJ2ZSI+JiN4YTs8c29kaXBvZGk6bmFtZWR2aWV3IGJvcmRlcmNvbG9yPSIjNjY2NjY2IiBib3JkZXJvcGFjaXR5PSIxIiBmaXQtbWFyZ2luLWJvdHRvbT0iMCIgZml0LW1hcmdpbi1sZWZ0PSIwIiBmaXQtbWFyZ2luLXJpZ2h0PSIwIiBmaXQtbWFyZ2luLXRvcD0iMCIgZ3JpZHRvbGVyYW5jZT0iMTAiIGd1aWRldG9sZXJhbmNlPSIxMCIgaWQ9Im5hbWVkdmlldzU2NDEzIiBpbmtzY2FwZTpjdXJyZW50LWxheWVyPSJzdmc1NjQxMSIgaW5rc2NhcGU6Y3g9IjI3LjYxODI3MyIgaW5rc2NhcGU6Y3k9IjIyLjQ3Mzg3NCIgaW5rc2NhcGU6cGFnZW9wYWNpdHk9IjAiIGlua3NjYXBlOnBhZ2VzaGFkb3c9IjIiIGlua3NjYXBlOndpbmRvdy1oZWlnaHQ9IjEwMTciIGlua3NjYXBlOndpbmRvdy1tYXhpbWl6ZWQ9IjEiIGlua3NjYXBlOndpbmRvdy13aWR0aD0iMTkyMCIgaW5rc2NhcGU6d2luZG93LXg9Ii04IiBpbmtzY2FwZTp3aW5kb3cteT0iLTgiIGlua3NjYXBlOnpvb209IjEwLjQyNTkxNCIgb2JqZWN0dG9sZXJhbmNlPSIxMCIgcGFnZWNvbG9yPSIjZmZmZmZmIiBzaG93Z3JpZD0iZmFsc2UiPiYjeGE7CTwvc29kaXBvZGk6bmFtZWR2aWV3PiYjeGE7PGcgaWQ9Imc1NjQwOSIgdHJhbnNmb3JtPSJ0cmFuc2xhdGUoLTEyLjI4NjgzNiwtMTIuMjgyMzczKSI+JiN4YTsJPHRpdGxlIGlkPSJ0aXRsZTU2MzY1Ij5QYWdlLTE8L3RpdGxlPiYjeGE7CTxnIGlkPSJncm91cDU3NjEtMSIgdHJhbnNmb3JtPSJ0cmFuc2xhdGUoMTIuNDQxOCwtMTIuMjg5MikiPiYjeGE7CQk8dGl0bGUgaWQ9InRpdGxlNTYzNjciPkF6dXJlIENvbnRhaW5lciBJbnN0YW5jZXM8L3RpdGxlPiYjeGE7CQk8ZyBpZD0ic2hhcGU1NzYyLTIiIHRyYW5zZm9ybT0idHJhbnNsYXRlKDAsLTEzLjYyOTMpIj4mI3hhOwkJCTx0aXRsZSBpZD0idGl0bGU1NjM2OSI+U2hlZXQuNTc2MjwvdGl0bGU+JiN4YTsJCQk8cGF0aCBpZD0icGF0aDU2MzcxIiBpbmtzY2FwZTpjb25uZWN0b3ItY3VydmF0dXJlPSIwIiBzdHlsZT0iZmlsbDojRkZGRkZGOyIgZD0iTTMxLjUsNDYuNzVjLTAuMjctNC45OC00LjUyLTguOC05LjUtOC41NCAgICAgYy0yLjc0LDAuMTUtNS4yNiwxLjUzLTYuODYsMy43NmMtMy4xMy0yLjQxLTcuNjItMS44My0xMC4wMywxLjI5Yy0xLjM0LDEuNzQtMS44MSw0LTEuMjcsNi4xM2MtMy40MiwxLjU0LTQuOTQsNS41Ny0zLjM5LDguOTkgICAgIGMxLjEsMi40MywzLjUyLDQsNi4xOSwzLjk5aDIzYzQuMzgtMC4wMSw3LjkyLTMuNTYsNy45MS03Ljk0QzM3LjU0LDUwLjc5LDM1LjA0LDQ3LjYxLDMxLjUsNDYuNzV6Ii8+JiN4YTsJCTwvZz4mI3hhOwkJPGcgaWQ9InNoYXBlNTc2My00IiB0cmFuc2Zvcm09InRyYW5zbGF0ZSgwLC0xMy42MjkzKSI+JiN4YTsJCQk8dGl0bGUgaWQ9InRpdGxlNTYzNzQiPlNoZWV0LjU3NjM8L3RpdGxlPiYjeGE7CQkJPHBhdGggaWQ9InBhdGg1NjM3NiIgaW5rc2NhcGU6Y29ubmVjdG9yLWN1cnZhdHVyZT0iMCIgc3R5bGU9ImZpbGw6IzI3QTlFMTtmaWxsLW9wYWNpdHk6MC42OyIgZD0iTTMxLjUsNDYuNzUgICAgIGMtMC4yNy00Ljk4LTQuNTItOC44LTkuNS04LjU0Yy0yLjc0LDAuMTUtNS4yNiwxLjUzLTYuODYsMy43NmMtMy4xMy0yLjQxLTcuNjItMS44My0xMC4wMywxLjI5Yy0xLjM0LDEuNzQtMS44MSw0LTEuMjcsNi4xMyAgICAgYy0zLjQyLDEuNTQtNC45NCw1LjU3LTMuMzksOC45OWMxLjEsMi40MywzLjUyLDQsNi4xOSwzLjk5aDIzYzQuMzgtMC4wMSw3LjkyLTMuNTYsNy45MS03Ljk0ICAgICBDMzcuNTQsNTAuNzksMzUuMDQsNDcuNjEsMzEuNSw0Ni43NXoiLz4mI3hhOwkJPC9nPiYjeGE7CQk8ZyBpZD0ic2hhcGU1NzY0LTYiIHRyYW5zZm9ybT0idHJhbnNsYXRlKDguODU4MjQpIj4mI3hhOwkJCTx0aXRsZSBpZD0idGl0bGU1NjM3OSI+U2hlZXQuNTc2NDwvdGl0bGU+JiN4YTsJCQk8cGF0aCBpZD0icGF0aDU2MzgxIiBpbmtzY2FwZTpjb25uZWN0b3ItY3VydmF0dXJlPSIwIiBzdHlsZT0iZmlsbDojNjcyQTdBOyIgZD0iTTAuNzYsNDEuMTdDMC4zNCw0MS4xNywwLDQxLjUxLDAsNDEuOTMgICAgIGMwLDAsMCwwLDAsMGwwLDE5LjY4YzAsMC40MiwwLjM0LDAuNzYsMC43NiwwLjc2YzAsMCwwLDAsMCwwbDE4LjE3LDBjMC40MiwwLDAuNzYtMC4zNCwwLjc2LTAuNzZsMC0xOS42OSAgICAgYzAtMC40Mi0wLjM0LTAuNzYtMC43Ni0wLjc2aDBMMC43Niw0MS4xN3oiLz4mI3hhOwkJPC9nPiYjeGE7CQk8ZyBpZD0ic2hhcGU1NzY1LTgiIHRyYW5zZm9ybT0idHJhbnNsYXRlKDIwLjE3ODEsLTI1Ljc0NDMpIj4mI3hhOwkJCTx0aXRsZSBpZD0idGl0bGU1NjM4NCI+U2hlZXQuNTc2NTwvdGl0bGU+JiN4YTsJCTwvZz4mI3hhOwkJPGcgaWQ9InNoYXBlNTc2Ni05IiB0cmFuc2Zvcm09InRyYW5zbGF0ZSgyNi4yMzU2LC0yMi43MTU1KSI+JiN4YTsJCQk8dGl0bGUgaWQ9InRpdGxlNTYzODciPlNoZWV0LjU3NjY8L3RpdGxlPiYjeGE7CQk8L2c+JiN4YTsJCTxnIGlkPSJzaGFwZTU3NjctMTAiIHRyYW5zZm9ybT0idHJhbnNsYXRlKDE0LjkxNTcsLTIxLjIwMTIpIj4mI3hhOwkJCTx0aXRsZSBpZD0idGl0bGU1NjM5MCI+U2hlZXQuNTc2NzwvdGl0bGU+JiN4YTsJCQk8cGF0aCBpZD0icGF0aDU2MzkyIiBpbmtzY2FwZTpjb25uZWN0b3ItY3VydmF0dXJlPSIwIiBzdHlsZT0iZmlsbDojRkZGRkZGOyIgZD0iTTIuMjcsNjIuMzd2LTUuM0gwbDMuNzktNS4zbDMuNzgsNS4zSDUuM3Y1LjMgICAgIEgyLjI3eiIvPiYjeGE7CQk8L2c+JiN4YTsJCTxnIGlkPSJzaGFwZTU3NjgtMTIiIHRyYW5zZm9ybT0idHJhbnNsYXRlKDIwLjE3ODEsLTI1Ljc0NDMpIj4mI3hhOwkJCTx0aXRsZSBpZD0idGl0bGU1NjM5NSI+U2hlZXQuNTc2ODwvdGl0bGU+JiN4YTsJCTwvZz4mI3hhOwkJPGcgaWQ9InNoYXBlNTc2OS0xMyIgdHJhbnNmb3JtPSJ0cmFuc2xhdGUoMTEuMTI5OCwtMi4yNzE1NSkiPiYjeGE7CQkJPHRpdGxlIGlkPSJ0aXRsZTU2Mzk4Ij5TaGVldC41NzY5PC90aXRsZT4mI3hhOwkJCTxwYXRoIGlkPSJwYXRoNTY0MDAiIGlua3NjYXBlOmNvbm5lY3Rvci1jdXJ2YXR1cmU9IjAiIHN0eWxlPSJmaWxsOiNCOTIwMjU7ZmlsbC1vcGFjaXR5OjAuMzsiIGQ9Ik0xMy42Myw0NS43MUgwdjE2LjY2aDE1LjE0ICAgICBWNDUuNzFIMTMuNjN6IE00LjU0LDYwLjg1SDEuNTFWNDcuMjJoMy4wM1Y2MC44NXogTTkuMDksNjAuODVINi4wNlY0Ny4yMmgzLjAzVjYwLjg1eiBNMTMuNjMsNjAuODVIMTAuNlY0Ny4yMmgzLjAzVjYwLjg1eiIvPiYjeGE7CQk8L2c+JiN4YTsJCTxnIGlkPSJzaGFwZTU3NzAtMTUiIHRyYW5zZm9ybT0idHJhbnNsYXRlKDExLjEyOTgsLTIuMjcxNTUpIj4mI3hhOwkJCTx0aXRsZSBpZD0idGl0bGU1NjQwMyI+U2hlZXQuNTc3MDwvdGl0bGU+JiN4YTsJCQk8cGF0aCBpZD0icGF0aDU2NDA1IiBpbmtzY2FwZTpjb25uZWN0b3ItY3VydmF0dXJlPSIwIiBzdHlsZT0iZmlsbDojRkZGRkZGOyIgZD0iTTEzLjYzLDQ1LjcxSDB2MTYuNjZoMTUuMTRWNDUuNzFIMTMuNjN6ICAgICAgTTQuNTQsNjAuODVIMS41MVY0Ny4yMmgzLjAzVjYwLjg1eiBNOS4wOSw2MC44NUg2LjA2VjQ3LjIyaDMuMDNWNjAuODV6IE0xMy42Myw2MC44NUgxMC42VjQ3LjIyaDMuMDNWNjAuODV6Ii8+JiN4YTsJCTwvZz4mI3hhOwk8L2c+JiN4YTs8L2c+JiN4YTs8L3N2Zz4=;fillColor=#CCCCCC;" vertex="1" parent="1">
          <mxGeometry x="340.63" y="696.21" width="48.75" height="48.75" as="geometry" />
        </mxCell>
        <mxCell id="3jxLnCF12T15F944jgeX-53" value="" style="shape=image;verticalLabelPosition=bottom;labelBackgroundColor=#ffffff;verticalAlign=top;aspect=fixed;imageAspect=0;image=data:image/svg+xml,PHN2ZyB4bWxuczpjYz0iaHR0cDovL2NyZWF0aXZlY29tbW9ucy5vcmcvbnMjIiB4bWxuczpkYz0iaHR0cDovL3B1cmwub3JnL2RjL2VsZW1lbnRzLzEuMS8iIHhtbG5zOmlua3NjYXBlPSJodHRwOi8vd3d3Lmlua3NjYXBlLm9yZy9uYW1lc3BhY2VzL2lua3NjYXBlIiB4bWxuczpyZGY9Imh0dHA6Ly93d3cudzMub3JnLzE5OTkvMDIvMjItcmRmLXN5bnRheC1ucyMiIHhtbG5zOnNvZGlwb2RpPSJodHRwOi8vc29kaXBvZGkuc291cmNlZm9yZ2UubmV0L0RURC9zb2RpcG9kaS0wLmR0ZCIgeG1sbnM6c3ZnPSJodHRwOi8vd3d3LnczLm9yZy8yMDAwL3N2ZyIgeG1sbnM9Imh0dHA6Ly93d3cudzMub3JnLzIwMDAvc3ZnIiB4bWxuczp4bGluaz0iaHR0cDovL3d3dy53My5vcmcvMTk5OS94bGluayIgdmVyc2lvbj0iMS4xIiBpZD0ic3ZnNTY0MTEiIGlua3NjYXBlOnZlcnNpb249IjAuOTIuMyAoMjQwNTU0NiwgMjAxOC0wMy0xMSkiIHNvZGlwb2RpOmRvY25hbWU9ImF6dXJlX2NvbnRhaW5lcl9pbnN0YW5jZXMuc3ZnIiB4PSIwcHgiIHk9IjBweCIgdmlld0JveD0iMCAwIDM3LjcgMzcuOCIgc3R5bGU9ImVuYWJsZS1iYWNrZ3JvdW5kOm5ldyAwIDAgMzcuNyAzNy44OyIgeG1sOnNwYWNlPSJwcmVzZXJ2ZSI+JiN4YTs8c29kaXBvZGk6bmFtZWR2aWV3IGJvcmRlcmNvbG9yPSIjNjY2NjY2IiBib3JkZXJvcGFjaXR5PSIxIiBmaXQtbWFyZ2luLWJvdHRvbT0iMCIgZml0LW1hcmdpbi1sZWZ0PSIwIiBmaXQtbWFyZ2luLXJpZ2h0PSIwIiBmaXQtbWFyZ2luLXRvcD0iMCIgZ3JpZHRvbGVyYW5jZT0iMTAiIGd1aWRldG9sZXJhbmNlPSIxMCIgaWQ9Im5hbWVkdmlldzU2NDEzIiBpbmtzY2FwZTpjdXJyZW50LWxheWVyPSJzdmc1NjQxMSIgaW5rc2NhcGU6Y3g9IjI3LjYxODI3MyIgaW5rc2NhcGU6Y3k9IjIyLjQ3Mzg3NCIgaW5rc2NhcGU6cGFnZW9wYWNpdHk9IjAiIGlua3NjYXBlOnBhZ2VzaGFkb3c9IjIiIGlua3NjYXBlOndpbmRvdy1oZWlnaHQ9IjEwMTciIGlua3NjYXBlOndpbmRvdy1tYXhpbWl6ZWQ9IjEiIGlua3NjYXBlOndpbmRvdy13aWR0aD0iMTkyMCIgaW5rc2NhcGU6d2luZG93LXg9Ii04IiBpbmtzY2FwZTp3aW5kb3cteT0iLTgiIGlua3NjYXBlOnpvb209IjEwLjQyNTkxNCIgb2JqZWN0dG9sZXJhbmNlPSIxMCIgcGFnZWNvbG9yPSIjZmZmZmZmIiBzaG93Z3JpZD0iZmFsc2UiPiYjeGE7CTwvc29kaXBvZGk6bmFtZWR2aWV3PiYjeGE7PGcgaWQ9Imc1NjQwOSIgdHJhbnNmb3JtPSJ0cmFuc2xhdGUoLTEyLjI4NjgzNiwtMTIuMjgyMzczKSI+JiN4YTsJPHRpdGxlIGlkPSJ0aXRsZTU2MzY1Ij5QYWdlLTE8L3RpdGxlPiYjeGE7CTxnIGlkPSJncm91cDU3NjEtMSIgdHJhbnNmb3JtPSJ0cmFuc2xhdGUoMTIuNDQxOCwtMTIuMjg5MikiPiYjeGE7CQk8dGl0bGUgaWQ9InRpdGxlNTYzNjciPkF6dXJlIENvbnRhaW5lciBJbnN0YW5jZXM8L3RpdGxlPiYjeGE7CQk8ZyBpZD0ic2hhcGU1NzYyLTIiIHRyYW5zZm9ybT0idHJhbnNsYXRlKDAsLTEzLjYyOTMpIj4mI3hhOwkJCTx0aXRsZSBpZD0idGl0bGU1NjM2OSI+U2hlZXQuNTc2MjwvdGl0bGU+JiN4YTsJCQk8cGF0aCBpZD0icGF0aDU2MzcxIiBpbmtzY2FwZTpjb25uZWN0b3ItY3VydmF0dXJlPSIwIiBzdHlsZT0iZmlsbDojRkZGRkZGOyIgZD0iTTMxLjUsNDYuNzVjLTAuMjctNC45OC00LjUyLTguOC05LjUtOC41NCAgICAgYy0yLjc0LDAuMTUtNS4yNiwxLjUzLTYuODYsMy43NmMtMy4xMy0yLjQxLTcuNjItMS44My0xMC4wMywxLjI5Yy0xLjM0LDEuNzQtMS44MSw0LTEuMjcsNi4xM2MtMy40MiwxLjU0LTQuOTQsNS41Ny0zLjM5LDguOTkgICAgIGMxLjEsMi40MywzLjUyLDQsNi4xOSwzLjk5aDIzYzQuMzgtMC4wMSw3LjkyLTMuNTYsNy45MS03Ljk0QzM3LjU0LDUwLjc5LDM1LjA0LDQ3LjYxLDMxLjUsNDYuNzV6Ii8+JiN4YTsJCTwvZz4mI3hhOwkJPGcgaWQ9InNoYXBlNTc2My00IiB0cmFuc2Zvcm09InRyYW5zbGF0ZSgwLC0xMy42MjkzKSI+JiN4YTsJCQk8dGl0bGUgaWQ9InRpdGxlNTYzNzQiPlNoZWV0LjU3NjM8L3RpdGxlPiYjeGE7CQkJPHBhdGggaWQ9InBhdGg1NjM3NiIgaW5rc2NhcGU6Y29ubmVjdG9yLWN1cnZhdHVyZT0iMCIgc3R5bGU9ImZpbGw6IzI3QTlFMTtmaWxsLW9wYWNpdHk6MC42OyIgZD0iTTMxLjUsNDYuNzUgICAgIGMtMC4yNy00Ljk4LTQuNTItOC44LTkuNS04LjU0Yy0yLjc0LDAuMTUtNS4yNiwxLjUzLTYuODYsMy43NmMtMy4xMy0yLjQxLTcuNjItMS44My0xMC4wMywxLjI5Yy0xLjM0LDEuNzQtMS44MSw0LTEuMjcsNi4xMyAgICAgYy0zLjQyLDEuNTQtNC45NCw1LjU3LTMuMzksOC45OWMxLjEsMi40MywzLjUyLDQsNi4xOSwzLjk5aDIzYzQuMzgtMC4wMSw3LjkyLTMuNTYsNy45MS03Ljk0ICAgICBDMzcuNTQsNTAuNzksMzUuMDQsNDcuNjEsMzEuNSw0Ni43NXoiLz4mI3hhOwkJPC9nPiYjeGE7CQk8ZyBpZD0ic2hhcGU1NzY0LTYiIHRyYW5zZm9ybT0idHJhbnNsYXRlKDguODU4MjQpIj4mI3hhOwkJCTx0aXRsZSBpZD0idGl0bGU1NjM3OSI+U2hlZXQuNTc2NDwvdGl0bGU+JiN4YTsJCQk8cGF0aCBpZD0icGF0aDU2MzgxIiBpbmtzY2FwZTpjb25uZWN0b3ItY3VydmF0dXJlPSIwIiBzdHlsZT0iZmlsbDojNjcyQTdBOyIgZD0iTTAuNzYsNDEuMTdDMC4zNCw0MS4xNywwLDQxLjUxLDAsNDEuOTMgICAgIGMwLDAsMCwwLDAsMGwwLDE5LjY4YzAsMC40MiwwLjM0LDAuNzYsMC43NiwwLjc2YzAsMCwwLDAsMCwwbDE4LjE3LDBjMC40MiwwLDAuNzYtMC4zNCwwLjc2LTAuNzZsMC0xOS42OSAgICAgYzAtMC40Mi0wLjM0LTAuNzYtMC43Ni0wLjc2aDBMMC43Niw0MS4xN3oiLz4mI3hhOwkJPC9nPiYjeGE7CQk8ZyBpZD0ic2hhcGU1NzY1LTgiIHRyYW5zZm9ybT0idHJhbnNsYXRlKDIwLjE3ODEsLTI1Ljc0NDMpIj4mI3hhOwkJCTx0aXRsZSBpZD0idGl0bGU1NjM4NCI+U2hlZXQuNTc2NTwvdGl0bGU+JiN4YTsJCTwvZz4mI3hhOwkJPGcgaWQ9InNoYXBlNTc2Ni05IiB0cmFuc2Zvcm09InRyYW5zbGF0ZSgyNi4yMzU2LC0yMi43MTU1KSI+JiN4YTsJCQk8dGl0bGUgaWQ9InRpdGxlNTYzODciPlNoZWV0LjU3NjY8L3RpdGxlPiYjeGE7CQk8L2c+JiN4YTsJCTxnIGlkPSJzaGFwZTU3NjctMTAiIHRyYW5zZm9ybT0idHJhbnNsYXRlKDE0LjkxNTcsLTIxLjIwMTIpIj4mI3hhOwkJCTx0aXRsZSBpZD0idGl0bGU1NjM5MCI+U2hlZXQuNTc2NzwvdGl0bGU+JiN4YTsJCQk8cGF0aCBpZD0icGF0aDU2MzkyIiBpbmtzY2FwZTpjb25uZWN0b3ItY3VydmF0dXJlPSIwIiBzdHlsZT0iZmlsbDojRkZGRkZGOyIgZD0iTTIuMjcsNjIuMzd2LTUuM0gwbDMuNzktNS4zbDMuNzgsNS4zSDUuM3Y1LjMgICAgIEgyLjI3eiIvPiYjeGE7CQk8L2c+JiN4YTsJCTxnIGlkPSJzaGFwZTU3NjgtMTIiIHRyYW5zZm9ybT0idHJhbnNsYXRlKDIwLjE3ODEsLTI1Ljc0NDMpIj4mI3hhOwkJCTx0aXRsZSBpZD0idGl0bGU1NjM5NSI+U2hlZXQuNTc2ODwvdGl0bGU+JiN4YTsJCTwvZz4mI3hhOwkJPGcgaWQ9InNoYXBlNTc2OS0xMyIgdHJhbnNmb3JtPSJ0cmFuc2xhdGUoMTEuMTI5OCwtMi4yNzE1NSkiPiYjeGE7CQkJPHRpdGxlIGlkPSJ0aXRsZTU2Mzk4Ij5TaGVldC41NzY5PC90aXRsZT4mI3hhOwkJCTxwYXRoIGlkPSJwYXRoNTY0MDAiIGlua3NjYXBlOmNvbm5lY3Rvci1jdXJ2YXR1cmU9IjAiIHN0eWxlPSJmaWxsOiNCOTIwMjU7ZmlsbC1vcGFjaXR5OjAuMzsiIGQ9Ik0xMy42Myw0NS43MUgwdjE2LjY2aDE1LjE0ICAgICBWNDUuNzFIMTMuNjN6IE00LjU0LDYwLjg1SDEuNTFWNDcuMjJoMy4wM1Y2MC44NXogTTkuMDksNjAuODVINi4wNlY0Ny4yMmgzLjAzVjYwLjg1eiBNMTMuNjMsNjAuODVIMTAuNlY0Ny4yMmgzLjAzVjYwLjg1eiIvPiYjeGE7CQk8L2c+JiN4YTsJCTxnIGlkPSJzaGFwZTU3NzAtMTUiIHRyYW5zZm9ybT0idHJhbnNsYXRlKDExLjEyOTgsLTIuMjcxNTUpIj4mI3hhOwkJCTx0aXRsZSBpZD0idGl0bGU1NjQwMyI+U2hlZXQuNTc3MDwvdGl0bGU+JiN4YTsJCQk8cGF0aCBpZD0icGF0aDU2NDA1IiBpbmtzY2FwZTpjb25uZWN0b3ItY3VydmF0dXJlPSIwIiBzdHlsZT0iZmlsbDojRkZGRkZGOyIgZD0iTTEzLjYzLDQ1LjcxSDB2MTYuNjZoMTUuMTRWNDUuNzFIMTMuNjN6ICAgICAgTTQuNTQsNjAuODVIMS41MVY0Ny4yMmgzLjAzVjYwLjg1eiBNOS4wOSw2MC44NUg2LjA2VjQ3LjIyaDMuMDNWNjAuODV6IE0xMy42Myw2MC44NUgxMC42VjQ3LjIyaDMuMDNWNjAuODV6Ii8+JiN4YTsJCTwvZz4mI3hhOwk8L2c+JiN4YTs8L2c+JiN4YTs8L3N2Zz4=;fillColor=#CCCCCC;" vertex="1" parent="1">
          <mxGeometry x="340.63" y="769.46" width="48.75" height="48.75" as="geometry" />
        </mxCell>
        <mxCell id="3jxLnCF12T15F944jgeX-55" value="" style="shape=image;verticalLabelPosition=bottom;labelBackgroundColor=#ffffff;verticalAlign=top;aspect=fixed;imageAspect=0;image=data:image/svg+xml,PHN2ZyB4bWxuczpjYz0iaHR0cDovL2NyZWF0aXZlY29tbW9ucy5vcmcvbnMjIiB4bWxuczpkYz0iaHR0cDovL3B1cmwub3JnL2RjL2VsZW1lbnRzLzEuMS8iIHhtbG5zOmlua3NjYXBlPSJodHRwOi8vd3d3Lmlua3NjYXBlLm9yZy9uYW1lc3BhY2VzL2lua3NjYXBlIiB4bWxuczpyZGY9Imh0dHA6Ly93d3cudzMub3JnLzE5OTkvMDIvMjItcmRmLXN5bnRheC1ucyMiIHhtbG5zOnNvZGlwb2RpPSJodHRwOi8vc29kaXBvZGkuc291cmNlZm9yZ2UubmV0L0RURC9zb2RpcG9kaS0wLmR0ZCIgeG1sbnM6c3ZnPSJodHRwOi8vd3d3LnczLm9yZy8yMDAwL3N2ZyIgeG1sbnM9Imh0dHA6Ly93d3cudzMub3JnLzIwMDAvc3ZnIiB4bWxuczp4bGluaz0iaHR0cDovL3d3dy53My5vcmcvMTk5OS94bGluayIgdmVyc2lvbj0iMS4xIiBpZD0ic3ZnNTY0MTEiIGlua3NjYXBlOnZlcnNpb249IjAuOTIuMyAoMjQwNTU0NiwgMjAxOC0wMy0xMSkiIHNvZGlwb2RpOmRvY25hbWU9ImF6dXJlX2NvbnRhaW5lcl9pbnN0YW5jZXMuc3ZnIiB4PSIwcHgiIHk9IjBweCIgdmlld0JveD0iMCAwIDM3LjcgMzcuOCIgc3R5bGU9ImVuYWJsZS1iYWNrZ3JvdW5kOm5ldyAwIDAgMzcuNyAzNy44OyIgeG1sOnNwYWNlPSJwcmVzZXJ2ZSI+JiN4YTs8c29kaXBvZGk6bmFtZWR2aWV3IGJvcmRlcmNvbG9yPSIjNjY2NjY2IiBib3JkZXJvcGFjaXR5PSIxIiBmaXQtbWFyZ2luLWJvdHRvbT0iMCIgZml0LW1hcmdpbi1sZWZ0PSIwIiBmaXQtbWFyZ2luLXJpZ2h0PSIwIiBmaXQtbWFyZ2luLXRvcD0iMCIgZ3JpZHRvbGVyYW5jZT0iMTAiIGd1aWRldG9sZXJhbmNlPSIxMCIgaWQ9Im5hbWVkdmlldzU2NDEzIiBpbmtzY2FwZTpjdXJyZW50LWxheWVyPSJzdmc1NjQxMSIgaW5rc2NhcGU6Y3g9IjI3LjYxODI3MyIgaW5rc2NhcGU6Y3k9IjIyLjQ3Mzg3NCIgaW5rc2NhcGU6cGFnZW9wYWNpdHk9IjAiIGlua3NjYXBlOnBhZ2VzaGFkb3c9IjIiIGlua3NjYXBlOndpbmRvdy1oZWlnaHQ9IjEwMTciIGlua3NjYXBlOndpbmRvdy1tYXhpbWl6ZWQ9IjEiIGlua3NjYXBlOndpbmRvdy13aWR0aD0iMTkyMCIgaW5rc2NhcGU6d2luZG93LXg9Ii04IiBpbmtzY2FwZTp3aW5kb3cteT0iLTgiIGlua3NjYXBlOnpvb209IjEwLjQyNTkxNCIgb2JqZWN0dG9sZXJhbmNlPSIxMCIgcGFnZWNvbG9yPSIjZmZmZmZmIiBzaG93Z3JpZD0iZmFsc2UiPiYjeGE7CTwvc29kaXBvZGk6bmFtZWR2aWV3PiYjeGE7PGcgaWQ9Imc1NjQwOSIgdHJhbnNmb3JtPSJ0cmFuc2xhdGUoLTEyLjI4NjgzNiwtMTIuMjgyMzczKSI+JiN4YTsJPHRpdGxlIGlkPSJ0aXRsZTU2MzY1Ij5QYWdlLTE8L3RpdGxlPiYjeGE7CTxnIGlkPSJncm91cDU3NjEtMSIgdHJhbnNmb3JtPSJ0cmFuc2xhdGUoMTIuNDQxOCwtMTIuMjg5MikiPiYjeGE7CQk8dGl0bGUgaWQ9InRpdGxlNTYzNjciPkF6dXJlIENvbnRhaW5lciBJbnN0YW5jZXM8L3RpdGxlPiYjeGE7CQk8ZyBpZD0ic2hhcGU1NzYyLTIiIHRyYW5zZm9ybT0idHJhbnNsYXRlKDAsLTEzLjYyOTMpIj4mI3hhOwkJCTx0aXRsZSBpZD0idGl0bGU1NjM2OSI+U2hlZXQuNTc2MjwvdGl0bGU+JiN4YTsJCQk8cGF0aCBpZD0icGF0aDU2MzcxIiBpbmtzY2FwZTpjb25uZWN0b3ItY3VydmF0dXJlPSIwIiBzdHlsZT0iZmlsbDojRkZGRkZGOyIgZD0iTTMxLjUsNDYuNzVjLTAuMjctNC45OC00LjUyLTguOC05LjUtOC41NCAgICAgYy0yLjc0LDAuMTUtNS4yNiwxLjUzLTYuODYsMy43NmMtMy4xMy0yLjQxLTcuNjItMS44My0xMC4wMywxLjI5Yy0xLjM0LDEuNzQtMS44MSw0LTEuMjcsNi4xM2MtMy40MiwxLjU0LTQuOTQsNS41Ny0zLjM5LDguOTkgICAgIGMxLjEsMi40MywzLjUyLDQsNi4xOSwzLjk5aDIzYzQuMzgtMC4wMSw3LjkyLTMuNTYsNy45MS03Ljk0QzM3LjU0LDUwLjc5LDM1LjA0LDQ3LjYxLDMxLjUsNDYuNzV6Ii8+JiN4YTsJCTwvZz4mI3hhOwkJPGcgaWQ9InNoYXBlNTc2My00IiB0cmFuc2Zvcm09InRyYW5zbGF0ZSgwLC0xMy42MjkzKSI+JiN4YTsJCQk8dGl0bGUgaWQ9InRpdGxlNTYzNzQiPlNoZWV0LjU3NjM8L3RpdGxlPiYjeGE7CQkJPHBhdGggaWQ9InBhdGg1NjM3NiIgaW5rc2NhcGU6Y29ubmVjdG9yLWN1cnZhdHVyZT0iMCIgc3R5bGU9ImZpbGw6IzI3QTlFMTtmaWxsLW9wYWNpdHk6MC42OyIgZD0iTTMxLjUsNDYuNzUgICAgIGMtMC4yNy00Ljk4LTQuNTItOC44LTkuNS04LjU0Yy0yLjc0LDAuMTUtNS4yNiwxLjUzLTYuODYsMy43NmMtMy4xMy0yLjQxLTcuNjItMS44My0xMC4wMywxLjI5Yy0xLjM0LDEuNzQtMS44MSw0LTEuMjcsNi4xMyAgICAgYy0zLjQyLDEuNTQtNC45NCw1LjU3LTMuMzksOC45OWMxLjEsMi40MywzLjUyLDQsNi4xOSwzLjk5aDIzYzQuMzgtMC4wMSw3LjkyLTMuNTYsNy45MS03Ljk0ICAgICBDMzcuNTQsNTAuNzksMzUuMDQsNDcuNjEsMzEuNSw0Ni43NXoiLz4mI3hhOwkJPC9nPiYjeGE7CQk8ZyBpZD0ic2hhcGU1NzY0LTYiIHRyYW5zZm9ybT0idHJhbnNsYXRlKDguODU4MjQpIj4mI3hhOwkJCTx0aXRsZSBpZD0idGl0bGU1NjM3OSI+U2hlZXQuNTc2NDwvdGl0bGU+JiN4YTsJCQk8cGF0aCBpZD0icGF0aDU2MzgxIiBpbmtzY2FwZTpjb25uZWN0b3ItY3VydmF0dXJlPSIwIiBzdHlsZT0iZmlsbDojNjcyQTdBOyIgZD0iTTAuNzYsNDEuMTdDMC4zNCw0MS4xNywwLDQxLjUxLDAsNDEuOTMgICAgIGMwLDAsMCwwLDAsMGwwLDE5LjY4YzAsMC40MiwwLjM0LDAuNzYsMC43NiwwLjc2YzAsMCwwLDAsMCwwbDE4LjE3LDBjMC40MiwwLDAuNzYtMC4zNCwwLjc2LTAuNzZsMC0xOS42OSAgICAgYzAtMC40Mi0wLjM0LTAuNzYtMC43Ni0wLjc2aDBMMC43Niw0MS4xN3oiLz4mI3hhOwkJPC9nPiYjeGE7CQk8ZyBpZD0ic2hhcGU1NzY1LTgiIHRyYW5zZm9ybT0idHJhbnNsYXRlKDIwLjE3ODEsLTI1Ljc0NDMpIj4mI3hhOwkJCTx0aXRsZSBpZD0idGl0bGU1NjM4NCI+U2hlZXQuNTc2NTwvdGl0bGU+JiN4YTsJCTwvZz4mI3hhOwkJPGcgaWQ9InNoYXBlNTc2Ni05IiB0cmFuc2Zvcm09InRyYW5zbGF0ZSgyNi4yMzU2LC0yMi43MTU1KSI+JiN4YTsJCQk8dGl0bGUgaWQ9InRpdGxlNTYzODciPlNoZWV0LjU3NjY8L3RpdGxlPiYjeGE7CQk8L2c+JiN4YTsJCTxnIGlkPSJzaGFwZTU3NjctMTAiIHRyYW5zZm9ybT0idHJhbnNsYXRlKDE0LjkxNTcsLTIxLjIwMTIpIj4mI3hhOwkJCTx0aXRsZSBpZD0idGl0bGU1NjM5MCI+U2hlZXQuNTc2NzwvdGl0bGU+JiN4YTsJCQk8cGF0aCBpZD0icGF0aDU2MzkyIiBpbmtzY2FwZTpjb25uZWN0b3ItY3VydmF0dXJlPSIwIiBzdHlsZT0iZmlsbDojRkZGRkZGOyIgZD0iTTIuMjcsNjIuMzd2LTUuM0gwbDMuNzktNS4zbDMuNzgsNS4zSDUuM3Y1LjMgICAgIEgyLjI3eiIvPiYjeGE7CQk8L2c+JiN4YTsJCTxnIGlkPSJzaGFwZTU3NjgtMTIiIHRyYW5zZm9ybT0idHJhbnNsYXRlKDIwLjE3ODEsLTI1Ljc0NDMpIj4mI3hhOwkJCTx0aXRsZSBpZD0idGl0bGU1NjM5NSI+U2hlZXQuNTc2ODwvdGl0bGU+JiN4YTsJCTwvZz4mI3hhOwkJPGcgaWQ9InNoYXBlNTc2OS0xMyIgdHJhbnNmb3JtPSJ0cmFuc2xhdGUoMTEuMTI5OCwtMi4yNzE1NSkiPiYjeGE7CQkJPHRpdGxlIGlkPSJ0aXRsZTU2Mzk4Ij5TaGVldC41NzY5PC90aXRsZT4mI3hhOwkJCTxwYXRoIGlkPSJwYXRoNTY0MDAiIGlua3NjYXBlOmNvbm5lY3Rvci1jdXJ2YXR1cmU9IjAiIHN0eWxlPSJmaWxsOiNCOTIwMjU7ZmlsbC1vcGFjaXR5OjAuMzsiIGQ9Ik0xMy42Myw0NS43MUgwdjE2LjY2aDE1LjE0ICAgICBWNDUuNzFIMTMuNjN6IE00LjU0LDYwLjg1SDEuNTFWNDcuMjJoMy4wM1Y2MC44NXogTTkuMDksNjAuODVINi4wNlY0Ny4yMmgzLjAzVjYwLjg1eiBNMTMuNjMsNjAuODVIMTAuNlY0Ny4yMmgzLjAzVjYwLjg1eiIvPiYjeGE7CQk8L2c+JiN4YTsJCTxnIGlkPSJzaGFwZTU3NzAtMTUiIHRyYW5zZm9ybT0idHJhbnNsYXRlKDExLjEyOTgsLTIuMjcxNTUpIj4mI3hhOwkJCTx0aXRsZSBpZD0idGl0bGU1NjQwMyI+U2hlZXQuNTc3MDwvdGl0bGU+JiN4YTsJCQk8cGF0aCBpZD0icGF0aDU2NDA1IiBpbmtzY2FwZTpjb25uZWN0b3ItY3VydmF0dXJlPSIwIiBzdHlsZT0iZmlsbDojRkZGRkZGOyIgZD0iTTEzLjYzLDQ1LjcxSDB2MTYuNjZoMTUuMTRWNDUuNzFIMTMuNjN6ICAgICAgTTQuNTQsNjAuODVIMS41MVY0Ny4yMmgzLjAzVjYwLjg1eiBNOS4wOSw2MC44NUg2LjA2VjQ3LjIyaDMuMDNWNjAuODV6IE0xMy42Myw2MC44NUgxMC42VjQ3LjIyaDMuMDNWNjAuODV6Ii8+JiN4YTsJCTwvZz4mI3hhOwk8L2c+JiN4YTs8L2c+JiN4YTs8L3N2Zz4=;fillColor=#CCCCCC;" vertex="1" parent="1">
          <mxGeometry x="430" y="700.59" width="48.75" height="48.75" as="geometry" />
        </mxCell>
        <mxCell id="3jxLnCF12T15F944jgeX-56" value="" style="shape=image;verticalLabelPosition=bottom;labelBackgroundColor=#ffffff;verticalAlign=top;aspect=fixed;imageAspect=0;image=data:image/svg+xml,PHN2ZyB4bWxuczpjYz0iaHR0cDovL2NyZWF0aXZlY29tbW9ucy5vcmcvbnMjIiB4bWxuczpkYz0iaHR0cDovL3B1cmwub3JnL2RjL2VsZW1lbnRzLzEuMS8iIHhtbG5zOmlua3NjYXBlPSJodHRwOi8vd3d3Lmlua3NjYXBlLm9yZy9uYW1lc3BhY2VzL2lua3NjYXBlIiB4bWxuczpyZGY9Imh0dHA6Ly93d3cudzMub3JnLzE5OTkvMDIvMjItcmRmLXN5bnRheC1ucyMiIHhtbG5zOnNvZGlwb2RpPSJodHRwOi8vc29kaXBvZGkuc291cmNlZm9yZ2UubmV0L0RURC9zb2RpcG9kaS0wLmR0ZCIgeG1sbnM6c3ZnPSJodHRwOi8vd3d3LnczLm9yZy8yMDAwL3N2ZyIgeG1sbnM9Imh0dHA6Ly93d3cudzMub3JnLzIwMDAvc3ZnIiB4bWxuczp4bGluaz0iaHR0cDovL3d3dy53My5vcmcvMTk5OS94bGluayIgdmVyc2lvbj0iMS4xIiBpZD0ic3ZnNTY0MTEiIGlua3NjYXBlOnZlcnNpb249IjAuOTIuMyAoMjQwNTU0NiwgMjAxOC0wMy0xMSkiIHNvZGlwb2RpOmRvY25hbWU9ImF6dXJlX2NvbnRhaW5lcl9pbnN0YW5jZXMuc3ZnIiB4PSIwcHgiIHk9IjBweCIgdmlld0JveD0iMCAwIDM3LjcgMzcuOCIgc3R5bGU9ImVuYWJsZS1iYWNrZ3JvdW5kOm5ldyAwIDAgMzcuNyAzNy44OyIgeG1sOnNwYWNlPSJwcmVzZXJ2ZSI+JiN4YTs8c29kaXBvZGk6bmFtZWR2aWV3IGJvcmRlcmNvbG9yPSIjNjY2NjY2IiBib3JkZXJvcGFjaXR5PSIxIiBmaXQtbWFyZ2luLWJvdHRvbT0iMCIgZml0LW1hcmdpbi1sZWZ0PSIwIiBmaXQtbWFyZ2luLXJpZ2h0PSIwIiBmaXQtbWFyZ2luLXRvcD0iMCIgZ3JpZHRvbGVyYW5jZT0iMTAiIGd1aWRldG9sZXJhbmNlPSIxMCIgaWQ9Im5hbWVkdmlldzU2NDEzIiBpbmtzY2FwZTpjdXJyZW50LWxheWVyPSJzdmc1NjQxMSIgaW5rc2NhcGU6Y3g9IjI3LjYxODI3MyIgaW5rc2NhcGU6Y3k9IjIyLjQ3Mzg3NCIgaW5rc2NhcGU6cGFnZW9wYWNpdHk9IjAiIGlua3NjYXBlOnBhZ2VzaGFkb3c9IjIiIGlua3NjYXBlOndpbmRvdy1oZWlnaHQ9IjEwMTciIGlua3NjYXBlOndpbmRvdy1tYXhpbWl6ZWQ9IjEiIGlua3NjYXBlOndpbmRvdy13aWR0aD0iMTkyMCIgaW5rc2NhcGU6d2luZG93LXg9Ii04IiBpbmtzY2FwZTp3aW5kb3cteT0iLTgiIGlua3NjYXBlOnpvb209IjEwLjQyNTkxNCIgb2JqZWN0dG9sZXJhbmNlPSIxMCIgcGFnZWNvbG9yPSIjZmZmZmZmIiBzaG93Z3JpZD0iZmFsc2UiPiYjeGE7CTwvc29kaXBvZGk6bmFtZWR2aWV3PiYjeGE7PGcgaWQ9Imc1NjQwOSIgdHJhbnNmb3JtPSJ0cmFuc2xhdGUoLTEyLjI4NjgzNiwtMTIuMjgyMzczKSI+JiN4YTsJPHRpdGxlIGlkPSJ0aXRsZTU2MzY1Ij5QYWdlLTE8L3RpdGxlPiYjeGE7CTxnIGlkPSJncm91cDU3NjEtMSIgdHJhbnNmb3JtPSJ0cmFuc2xhdGUoMTIuNDQxOCwtMTIuMjg5MikiPiYjeGE7CQk8dGl0bGUgaWQ9InRpdGxlNTYzNjciPkF6dXJlIENvbnRhaW5lciBJbnN0YW5jZXM8L3RpdGxlPiYjeGE7CQk8ZyBpZD0ic2hhcGU1NzYyLTIiIHRyYW5zZm9ybT0idHJhbnNsYXRlKDAsLTEzLjYyOTMpIj4mI3hhOwkJCTx0aXRsZSBpZD0idGl0bGU1NjM2OSI+U2hlZXQuNTc2MjwvdGl0bGU+JiN4YTsJCQk8cGF0aCBpZD0icGF0aDU2MzcxIiBpbmtzY2FwZTpjb25uZWN0b3ItY3VydmF0dXJlPSIwIiBzdHlsZT0iZmlsbDojRkZGRkZGOyIgZD0iTTMxLjUsNDYuNzVjLTAuMjctNC45OC00LjUyLTguOC05LjUtOC41NCAgICAgYy0yLjc0LDAuMTUtNS4yNiwxLjUzLTYuODYsMy43NmMtMy4xMy0yLjQxLTcuNjItMS44My0xMC4wMywxLjI5Yy0xLjM0LDEuNzQtMS44MSw0LTEuMjcsNi4xM2MtMy40MiwxLjU0LTQuOTQsNS41Ny0zLjM5LDguOTkgICAgIGMxLjEsMi40MywzLjUyLDQsNi4xOSwzLjk5aDIzYzQuMzgtMC4wMSw3LjkyLTMuNTYsNy45MS03Ljk0QzM3LjU0LDUwLjc5LDM1LjA0LDQ3LjYxLDMxLjUsNDYuNzV6Ii8+JiN4YTsJCTwvZz4mI3hhOwkJPGcgaWQ9InNoYXBlNTc2My00IiB0cmFuc2Zvcm09InRyYW5zbGF0ZSgwLC0xMy42MjkzKSI+JiN4YTsJCQk8dGl0bGUgaWQ9InRpdGxlNTYzNzQiPlNoZWV0LjU3NjM8L3RpdGxlPiYjeGE7CQkJPHBhdGggaWQ9InBhdGg1NjM3NiIgaW5rc2NhcGU6Y29ubmVjdG9yLWN1cnZhdHVyZT0iMCIgc3R5bGU9ImZpbGw6IzI3QTlFMTtmaWxsLW9wYWNpdHk6MC42OyIgZD0iTTMxLjUsNDYuNzUgICAgIGMtMC4yNy00Ljk4LTQuNTItOC44LTkuNS04LjU0Yy0yLjc0LDAuMTUtNS4yNiwxLjUzLTYuODYsMy43NmMtMy4xMy0yLjQxLTcuNjItMS44My0xMC4wMywxLjI5Yy0xLjM0LDEuNzQtMS44MSw0LTEuMjcsNi4xMyAgICAgYy0zLjQyLDEuNTQtNC45NCw1LjU3LTMuMzksOC45OWMxLjEsMi40MywzLjUyLDQsNi4xOSwzLjk5aDIzYzQuMzgtMC4wMSw3LjkyLTMuNTYsNy45MS03Ljk0ICAgICBDMzcuNTQsNTAuNzksMzUuMDQsNDcuNjEsMzEuNSw0Ni43NXoiLz4mI3hhOwkJPC9nPiYjeGE7CQk8ZyBpZD0ic2hhcGU1NzY0LTYiIHRyYW5zZm9ybT0idHJhbnNsYXRlKDguODU4MjQpIj4mI3hhOwkJCTx0aXRsZSBpZD0idGl0bGU1NjM3OSI+U2hlZXQuNTc2NDwvdGl0bGU+JiN4YTsJCQk8cGF0aCBpZD0icGF0aDU2MzgxIiBpbmtzY2FwZTpjb25uZWN0b3ItY3VydmF0dXJlPSIwIiBzdHlsZT0iZmlsbDojNjcyQTdBOyIgZD0iTTAuNzYsNDEuMTdDMC4zNCw0MS4xNywwLDQxLjUxLDAsNDEuOTMgICAgIGMwLDAsMCwwLDAsMGwwLDE5LjY4YzAsMC40MiwwLjM0LDAuNzYsMC43NiwwLjc2YzAsMCwwLDAsMCwwbDE4LjE3LDBjMC40MiwwLDAuNzYtMC4zNCwwLjc2LTAuNzZsMC0xOS42OSAgICAgYzAtMC40Mi0wLjM0LTAuNzYtMC43Ni0wLjc2aDBMMC43Niw0MS4xN3oiLz4mI3hhOwkJPC9nPiYjeGE7CQk8ZyBpZD0ic2hhcGU1NzY1LTgiIHRyYW5zZm9ybT0idHJhbnNsYXRlKDIwLjE3ODEsLTI1Ljc0NDMpIj4mI3hhOwkJCTx0aXRsZSBpZD0idGl0bGU1NjM4NCI+U2hlZXQuNTc2NTwvdGl0bGU+JiN4YTsJCTwvZz4mI3hhOwkJPGcgaWQ9InNoYXBlNTc2Ni05IiB0cmFuc2Zvcm09InRyYW5zbGF0ZSgyNi4yMzU2LC0yMi43MTU1KSI+JiN4YTsJCQk8dGl0bGUgaWQ9InRpdGxlNTYzODciPlNoZWV0LjU3NjY8L3RpdGxlPiYjeGE7CQk8L2c+JiN4YTsJCTxnIGlkPSJzaGFwZTU3NjctMTAiIHRyYW5zZm9ybT0idHJhbnNsYXRlKDE0LjkxNTcsLTIxLjIwMTIpIj4mI3hhOwkJCTx0aXRsZSBpZD0idGl0bGU1NjM5MCI+U2hlZXQuNTc2NzwvdGl0bGU+JiN4YTsJCQk8cGF0aCBpZD0icGF0aDU2MzkyIiBpbmtzY2FwZTpjb25uZWN0b3ItY3VydmF0dXJlPSIwIiBzdHlsZT0iZmlsbDojRkZGRkZGOyIgZD0iTTIuMjcsNjIuMzd2LTUuM0gwbDMuNzktNS4zbDMuNzgsNS4zSDUuM3Y1LjMgICAgIEgyLjI3eiIvPiYjeGE7CQk8L2c+JiN4YTsJCTxnIGlkPSJzaGFwZTU3NjgtMTIiIHRyYW5zZm9ybT0idHJhbnNsYXRlKDIwLjE3ODEsLTI1Ljc0NDMpIj4mI3hhOwkJCTx0aXRsZSBpZD0idGl0bGU1NjM5NSI+U2hlZXQuNTc2ODwvdGl0bGU+JiN4YTsJCTwvZz4mI3hhOwkJPGcgaWQ9InNoYXBlNTc2OS0xMyIgdHJhbnNmb3JtPSJ0cmFuc2xhdGUoMTEuMTI5OCwtMi4yNzE1NSkiPiYjeGE7CQkJPHRpdGxlIGlkPSJ0aXRsZTU2Mzk4Ij5TaGVldC41NzY5PC90aXRsZT4mI3hhOwkJCTxwYXRoIGlkPSJwYXRoNTY0MDAiIGlua3NjYXBlOmNvbm5lY3Rvci1jdXJ2YXR1cmU9IjAiIHN0eWxlPSJmaWxsOiNCOTIwMjU7ZmlsbC1vcGFjaXR5OjAuMzsiIGQ9Ik0xMy42Myw0NS43MUgwdjE2LjY2aDE1LjE0ICAgICBWNDUuNzFIMTMuNjN6IE00LjU0LDYwLjg1SDEuNTFWNDcuMjJoMy4wM1Y2MC44NXogTTkuMDksNjAuODVINi4wNlY0Ny4yMmgzLjAzVjYwLjg1eiBNMTMuNjMsNjAuODVIMTAuNlY0Ny4yMmgzLjAzVjYwLjg1eiIvPiYjeGE7CQk8L2c+JiN4YTsJCTxnIGlkPSJzaGFwZTU3NzAtMTUiIHRyYW5zZm9ybT0idHJhbnNsYXRlKDExLjEyOTgsLTIuMjcxNTUpIj4mI3hhOwkJCTx0aXRsZSBpZD0idGl0bGU1NjQwMyI+U2hlZXQuNTc3MDwvdGl0bGU+JiN4YTsJCQk8cGF0aCBpZD0icGF0aDU2NDA1IiBpbmtzY2FwZTpjb25uZWN0b3ItY3VydmF0dXJlPSIwIiBzdHlsZT0iZmlsbDojRkZGRkZGOyIgZD0iTTEzLjYzLDQ1LjcxSDB2MTYuNjZoMTUuMTRWNDUuNzFIMTMuNjN6ICAgICAgTTQuNTQsNjAuODVIMS41MVY0Ny4yMmgzLjAzVjYwLjg1eiBNOS4wOSw2MC44NUg2LjA2VjQ3LjIyaDMuMDNWNjAuODV6IE0xMy42Myw2MC44NUgxMC42VjQ3LjIyaDMuMDNWNjAuODV6Ii8+JiN4YTsJCTwvZz4mI3hhOwk8L2c+JiN4YTs8L2c+JiN4YTs8L3N2Zz4=;fillColor=#CCCCCC;" vertex="1" parent="1">
          <mxGeometry x="430" y="771.83" width="48.75" height="48.75" as="geometry" />
        </mxCell>
        <mxCell id="3jxLnCF12T15F944jgeX-74" value="" style="rounded=1;whiteSpace=wrap;html=1;dashed=1;strokeColor=none;strokeWidth=2;fillColor=#E6E6E6;fontFamily=Verdana;fontSize=12;fontColor=#00BEF2" vertex="1" parent="1">
          <mxGeometry x="60" y="137.45999999999998" width="470" height="380" as="geometry" />
        </mxCell>
        <mxCell id="3jxLnCF12T15F944jgeX-75" value="Smart Building Cloud" style="whiteSpace=wrap;html=1;dashed=1;strokeColor=none;strokeWidth=2;fillColor=#3399FF;fontFamily=Helvetica;fontSize=18;fontColor=#FFFFFF;fontStyle=1" vertex="1" parent="1">
          <mxGeometry x="60" y="131.14" width="470" height="60" as="geometry" />
        </mxCell>
        <mxCell id="3jxLnCF12T15F944jgeX-76" value="Smart Building Server" style="rounded=1;whiteSpace=wrap;html=1;dashed=1;strokeColor=none;strokeWidth=2;fillColor=#FFFFFF;fontFamily=Helvetica;fontSize=14;fontColor=#FFB366;opacity=75;verticalAlign=top;fontStyle=1" vertex="1" parent="1">
          <mxGeometry x="220" y="197.45999999999998" width="290" height="300" as="geometry" />
        </mxCell>
        <mxCell id="3jxLnCF12T15F944jgeX-77" value="" style="shape=image;verticalLabelPosition=bottom;labelBackgroundColor=#ffffff;verticalAlign=top;aspect=fixed;imageAspect=0;image=data:image/svg+xml,PHN2ZyB4bWxuczpjYz0iaHR0cDovL2NyZWF0aXZlY29tbW9ucy5vcmcvbnMjIiB4bWxuczpkYz0iaHR0cDovL3B1cmwub3JnL2RjL2VsZW1lbnRzLzEuMS8iIHhtbG5zOmlua3NjYXBlPSJodHRwOi8vd3d3Lmlua3NjYXBlLm9yZy9uYW1lc3BhY2VzL2lua3NjYXBlIiB4bWxuczpyZGY9Imh0dHA6Ly93d3cudzMub3JnLzE5OTkvMDIvMjItcmRmLXN5bnRheC1ucyMiIHhtbG5zOnNvZGlwb2RpPSJodHRwOi8vc29kaXBvZGkuc291cmNlZm9yZ2UubmV0L0RURC9zb2RpcG9kaS0wLmR0ZCIgeG1sbnM6c3ZnPSJodHRwOi8vd3d3LnczLm9yZy8yMDAwL3N2ZyIgeG1sbnM9Imh0dHA6Ly93d3cudzMub3JnLzIwMDAvc3ZnIiB4bWxuczp4bGluaz0iaHR0cDovL3d3dy53My5vcmcvMTk5OS94bGluayIgdmVyc2lvbj0iMS4xIiBpZD0ic3ZnNTY0MTEiIGlua3NjYXBlOnZlcnNpb249IjAuOTIuMyAoMjQwNTU0NiwgMjAxOC0wMy0xMSkiIHNvZGlwb2RpOmRvY25hbWU9ImF6dXJlX2NvbnRhaW5lcl9pbnN0YW5jZXMuc3ZnIiB4PSIwcHgiIHk9IjBweCIgdmlld0JveD0iMCAwIDM3LjcgMzcuOCIgc3R5bGU9ImVuYWJsZS1iYWNrZ3JvdW5kOm5ldyAwIDAgMzcuNyAzNy44OyIgeG1sOnNwYWNlPSJwcmVzZXJ2ZSI+JiN4YTs8c29kaXBvZGk6bmFtZWR2aWV3IGJvcmRlcmNvbG9yPSIjNjY2NjY2IiBib3JkZXJvcGFjaXR5PSIxIiBmaXQtbWFyZ2luLWJvdHRvbT0iMCIgZml0LW1hcmdpbi1sZWZ0PSIwIiBmaXQtbWFyZ2luLXJpZ2h0PSIwIiBmaXQtbWFyZ2luLXRvcD0iMCIgZ3JpZHRvbGVyYW5jZT0iMTAiIGd1aWRldG9sZXJhbmNlPSIxMCIgaWQ9Im5hbWVkdmlldzU2NDEzIiBpbmtzY2FwZTpjdXJyZW50LWxheWVyPSJzdmc1NjQxMSIgaW5rc2NhcGU6Y3g9IjI3LjYxODI3MyIgaW5rc2NhcGU6Y3k9IjIyLjQ3Mzg3NCIgaW5rc2NhcGU6cGFnZW9wYWNpdHk9IjAiIGlua3NjYXBlOnBhZ2VzaGFkb3c9IjIiIGlua3NjYXBlOndpbmRvdy1oZWlnaHQ9IjEwMTciIGlua3NjYXBlOndpbmRvdy1tYXhpbWl6ZWQ9IjEiIGlua3NjYXBlOndpbmRvdy13aWR0aD0iMTkyMCIgaW5rc2NhcGU6d2luZG93LXg9Ii04IiBpbmtzY2FwZTp3aW5kb3cteT0iLTgiIGlua3NjYXBlOnpvb209IjEwLjQyNTkxNCIgb2JqZWN0dG9sZXJhbmNlPSIxMCIgcGFnZWNvbG9yPSIjZmZmZmZmIiBzaG93Z3JpZD0iZmFsc2UiPiYjeGE7CTwvc29kaXBvZGk6bmFtZWR2aWV3PiYjeGE7PGcgaWQ9Imc1NjQwOSIgdHJhbnNmb3JtPSJ0cmFuc2xhdGUoLTEyLjI4NjgzNiwtMTIuMjgyMzczKSI+JiN4YTsJPHRpdGxlIGlkPSJ0aXRsZTU2MzY1Ij5QYWdlLTE8L3RpdGxlPiYjeGE7CTxnIGlkPSJncm91cDU3NjEtMSIgdHJhbnNmb3JtPSJ0cmFuc2xhdGUoMTIuNDQxOCwtMTIuMjg5MikiPiYjeGE7CQk8dGl0bGUgaWQ9InRpdGxlNTYzNjciPkF6dXJlIENvbnRhaW5lciBJbnN0YW5jZXM8L3RpdGxlPiYjeGE7CQk8ZyBpZD0ic2hhcGU1NzYyLTIiIHRyYW5zZm9ybT0idHJhbnNsYXRlKDAsLTEzLjYyOTMpIj4mI3hhOwkJCTx0aXRsZSBpZD0idGl0bGU1NjM2OSI+U2hlZXQuNTc2MjwvdGl0bGU+JiN4YTsJCQk8cGF0aCBpZD0icGF0aDU2MzcxIiBpbmtzY2FwZTpjb25uZWN0b3ItY3VydmF0dXJlPSIwIiBzdHlsZT0iZmlsbDojRkZGRkZGOyIgZD0iTTMxLjUsNDYuNzVjLTAuMjctNC45OC00LjUyLTguOC05LjUtOC41NCAgICAgYy0yLjc0LDAuMTUtNS4yNiwxLjUzLTYuODYsMy43NmMtMy4xMy0yLjQxLTcuNjItMS44My0xMC4wMywxLjI5Yy0xLjM0LDEuNzQtMS44MSw0LTEuMjcsNi4xM2MtMy40MiwxLjU0LTQuOTQsNS41Ny0zLjM5LDguOTkgICAgIGMxLjEsMi40MywzLjUyLDQsNi4xOSwzLjk5aDIzYzQuMzgtMC4wMSw3LjkyLTMuNTYsNy45MS03Ljk0QzM3LjU0LDUwLjc5LDM1LjA0LDQ3LjYxLDMxLjUsNDYuNzV6Ii8+JiN4YTsJCTwvZz4mI3hhOwkJPGcgaWQ9InNoYXBlNTc2My00IiB0cmFuc2Zvcm09InRyYW5zbGF0ZSgwLC0xMy42MjkzKSI+JiN4YTsJCQk8dGl0bGUgaWQ9InRpdGxlNTYzNzQiPlNoZWV0LjU3NjM8L3RpdGxlPiYjeGE7CQkJPHBhdGggaWQ9InBhdGg1NjM3NiIgaW5rc2NhcGU6Y29ubmVjdG9yLWN1cnZhdHVyZT0iMCIgc3R5bGU9ImZpbGw6IzI3QTlFMTtmaWxsLW9wYWNpdHk6MC42OyIgZD0iTTMxLjUsNDYuNzUgICAgIGMtMC4yNy00Ljk4LTQuNTItOC44LTkuNS04LjU0Yy0yLjc0LDAuMTUtNS4yNiwxLjUzLTYuODYsMy43NmMtMy4xMy0yLjQxLTcuNjItMS44My0xMC4wMywxLjI5Yy0xLjM0LDEuNzQtMS44MSw0LTEuMjcsNi4xMyAgICAgYy0zLjQyLDEuNTQtNC45NCw1LjU3LTMuMzksOC45OWMxLjEsMi40MywzLjUyLDQsNi4xOSwzLjk5aDIzYzQuMzgtMC4wMSw3LjkyLTMuNTYsNy45MS03Ljk0ICAgICBDMzcuNTQsNTAuNzksMzUuMDQsNDcuNjEsMzEuNSw0Ni43NXoiLz4mI3hhOwkJPC9nPiYjeGE7CQk8ZyBpZD0ic2hhcGU1NzY0LTYiIHRyYW5zZm9ybT0idHJhbnNsYXRlKDguODU4MjQpIj4mI3hhOwkJCTx0aXRsZSBpZD0idGl0bGU1NjM3OSI+U2hlZXQuNTc2NDwvdGl0bGU+JiN4YTsJCQk8cGF0aCBpZD0icGF0aDU2MzgxIiBpbmtzY2FwZTpjb25uZWN0b3ItY3VydmF0dXJlPSIwIiBzdHlsZT0iZmlsbDojNjcyQTdBOyIgZD0iTTAuNzYsNDEuMTdDMC4zNCw0MS4xNywwLDQxLjUxLDAsNDEuOTMgICAgIGMwLDAsMCwwLDAsMGwwLDE5LjY4YzAsMC40MiwwLjM0LDAuNzYsMC43NiwwLjc2YzAsMCwwLDAsMCwwbDE4LjE3LDBjMC40MiwwLDAuNzYtMC4zNCwwLjc2LTAuNzZsMC0xOS42OSAgICAgYzAtMC40Mi0wLjM0LTAuNzYtMC43Ni0wLjc2aDBMMC43Niw0MS4xN3oiLz4mI3hhOwkJPC9nPiYjeGE7CQk8ZyBpZD0ic2hhcGU1NzY1LTgiIHRyYW5zZm9ybT0idHJhbnNsYXRlKDIwLjE3ODEsLTI1Ljc0NDMpIj4mI3hhOwkJCTx0aXRsZSBpZD0idGl0bGU1NjM4NCI+U2hlZXQuNTc2NTwvdGl0bGU+JiN4YTsJCTwvZz4mI3hhOwkJPGcgaWQ9InNoYXBlNTc2Ni05IiB0cmFuc2Zvcm09InRyYW5zbGF0ZSgyNi4yMzU2LC0yMi43MTU1KSI+JiN4YTsJCQk8dGl0bGUgaWQ9InRpdGxlNTYzODciPlNoZWV0LjU3NjY8L3RpdGxlPiYjeGE7CQk8L2c+JiN4YTsJCTxnIGlkPSJzaGFwZTU3NjctMTAiIHRyYW5zZm9ybT0idHJhbnNsYXRlKDE0LjkxNTcsLTIxLjIwMTIpIj4mI3hhOwkJCTx0aXRsZSBpZD0idGl0bGU1NjM5MCI+U2hlZXQuNTc2NzwvdGl0bGU+JiN4YTsJCQk8cGF0aCBpZD0icGF0aDU2MzkyIiBpbmtzY2FwZTpjb25uZWN0b3ItY3VydmF0dXJlPSIwIiBzdHlsZT0iZmlsbDojRkZGRkZGOyIgZD0iTTIuMjcsNjIuMzd2LTUuM0gwbDMuNzktNS4zbDMuNzgsNS4zSDUuM3Y1LjMgICAgIEgyLjI3eiIvPiYjeGE7CQk8L2c+JiN4YTsJCTxnIGlkPSJzaGFwZTU3NjgtMTIiIHRyYW5zZm9ybT0idHJhbnNsYXRlKDIwLjE3ODEsLTI1Ljc0NDMpIj4mI3hhOwkJCTx0aXRsZSBpZD0idGl0bGU1NjM5NSI+U2hlZXQuNTc2ODwvdGl0bGU+JiN4YTsJCTwvZz4mI3hhOwkJPGcgaWQ9InNoYXBlNTc2OS0xMyIgdHJhbnNmb3JtPSJ0cmFuc2xhdGUoMTEuMTI5OCwtMi4yNzE1NSkiPiYjeGE7CQkJPHRpdGxlIGlkPSJ0aXRsZTU2Mzk4Ij5TaGVldC41NzY5PC90aXRsZT4mI3hhOwkJCTxwYXRoIGlkPSJwYXRoNTY0MDAiIGlua3NjYXBlOmNvbm5lY3Rvci1jdXJ2YXR1cmU9IjAiIHN0eWxlPSJmaWxsOiNCOTIwMjU7ZmlsbC1vcGFjaXR5OjAuMzsiIGQ9Ik0xMy42Myw0NS43MUgwdjE2LjY2aDE1LjE0ICAgICBWNDUuNzFIMTMuNjN6IE00LjU0LDYwLjg1SDEuNTFWNDcuMjJoMy4wM1Y2MC44NXogTTkuMDksNjAuODVINi4wNlY0Ny4yMmgzLjAzVjYwLjg1eiBNMTMuNjMsNjAuODVIMTAuNlY0Ny4yMmgzLjAzVjYwLjg1eiIvPiYjeGE7CQk8L2c+JiN4YTsJCTxnIGlkPSJzaGFwZTU3NzAtMTUiIHRyYW5zZm9ybT0idHJhbnNsYXRlKDExLjEyOTgsLTIuMjcxNTUpIj4mI3hhOwkJCTx0aXRsZSBpZD0idGl0bGU1NjQwMyI+U2hlZXQuNTc3MDwvdGl0bGU+JiN4YTsJCQk8cGF0aCBpZD0icGF0aDU2NDA1IiBpbmtzY2FwZTpjb25uZWN0b3ItY3VydmF0dXJlPSIwIiBzdHlsZT0iZmlsbDojRkZGRkZGOyIgZD0iTTEzLjYzLDQ1LjcxSDB2MTYuNjZoMTUuMTRWNDUuNzFIMTMuNjN6ICAgICAgTTQuNTQsNjAuODVIMS41MVY0Ny4yMmgzLjAzVjYwLjg1eiBNOS4wOSw2MC44NUg2LjA2VjQ3LjIyaDMuMDNWNjAuODV6IE0xMy42Myw2MC44NUgxMC42VjQ3LjIyaDMuMDNWNjAuODV6Ii8+JiN4YTsJCTwvZz4mI3hhOwk8L2c+JiN4YTs8L2c+JiN4YTs8L3N2Zz4=;fillColor=#CCCCCC;" vertex="1" parent="1">
          <mxGeometry x="250.62" y="278.59" width="48.75" height="48.75" as="geometry" />
        </mxCell>
        <mxCell id="3jxLnCF12T15F944jgeX-78" value="" style="shape=image;verticalLabelPosition=bottom;labelBackgroundColor=#ffffff;verticalAlign=top;aspect=fixed;imageAspect=0;image=data:image/svg+xml,PHN2ZyB4bWxuczpjYz0iaHR0cDovL2NyZWF0aXZlY29tbW9ucy5vcmcvbnMjIiB4bWxuczpkYz0iaHR0cDovL3B1cmwub3JnL2RjL2VsZW1lbnRzLzEuMS8iIHhtbG5zOmlua3NjYXBlPSJodHRwOi8vd3d3Lmlua3NjYXBlLm9yZy9uYW1lc3BhY2VzL2lua3NjYXBlIiB4bWxuczpyZGY9Imh0dHA6Ly93d3cudzMub3JnLzE5OTkvMDIvMjItcmRmLXN5bnRheC1ucyMiIHhtbG5zOnNvZGlwb2RpPSJodHRwOi8vc29kaXBvZGkuc291cmNlZm9yZ2UubmV0L0RURC9zb2RpcG9kaS0wLmR0ZCIgeG1sbnM6c3ZnPSJodHRwOi8vd3d3LnczLm9yZy8yMDAwL3N2ZyIgeG1sbnM9Imh0dHA6Ly93d3cudzMub3JnLzIwMDAvc3ZnIiB4bWxuczp4bGluaz0iaHR0cDovL3d3dy53My5vcmcvMTk5OS94bGluayIgdmVyc2lvbj0iMS4xIiBpZD0ic3ZnNTY0MTEiIGlua3NjYXBlOnZlcnNpb249IjAuOTIuMyAoMjQwNTU0NiwgMjAxOC0wMy0xMSkiIHNvZGlwb2RpOmRvY25hbWU9ImF6dXJlX2NvbnRhaW5lcl9pbnN0YW5jZXMuc3ZnIiB4PSIwcHgiIHk9IjBweCIgdmlld0JveD0iMCAwIDM3LjcgMzcuOCIgc3R5bGU9ImVuYWJsZS1iYWNrZ3JvdW5kOm5ldyAwIDAgMzcuNyAzNy44OyIgeG1sOnNwYWNlPSJwcmVzZXJ2ZSI+JiN4YTs8c29kaXBvZGk6bmFtZWR2aWV3IGJvcmRlcmNvbG9yPSIjNjY2NjY2IiBib3JkZXJvcGFjaXR5PSIxIiBmaXQtbWFyZ2luLWJvdHRvbT0iMCIgZml0LW1hcmdpbi1sZWZ0PSIwIiBmaXQtbWFyZ2luLXJpZ2h0PSIwIiBmaXQtbWFyZ2luLXRvcD0iMCIgZ3JpZHRvbGVyYW5jZT0iMTAiIGd1aWRldG9sZXJhbmNlPSIxMCIgaWQ9Im5hbWVkdmlldzU2NDEzIiBpbmtzY2FwZTpjdXJyZW50LWxheWVyPSJzdmc1NjQxMSIgaW5rc2NhcGU6Y3g9IjI3LjYxODI3MyIgaW5rc2NhcGU6Y3k9IjIyLjQ3Mzg3NCIgaW5rc2NhcGU6cGFnZW9wYWNpdHk9IjAiIGlua3NjYXBlOnBhZ2VzaGFkb3c9IjIiIGlua3NjYXBlOndpbmRvdy1oZWlnaHQ9IjEwMTciIGlua3NjYXBlOndpbmRvdy1tYXhpbWl6ZWQ9IjEiIGlua3NjYXBlOndpbmRvdy13aWR0aD0iMTkyMCIgaW5rc2NhcGU6d2luZG93LXg9Ii04IiBpbmtzY2FwZTp3aW5kb3cteT0iLTgiIGlua3NjYXBlOnpvb209IjEwLjQyNTkxNCIgb2JqZWN0dG9sZXJhbmNlPSIxMCIgcGFnZWNvbG9yPSIjZmZmZmZmIiBzaG93Z3JpZD0iZmFsc2UiPiYjeGE7CTwvc29kaXBvZGk6bmFtZWR2aWV3PiYjeGE7PGcgaWQ9Imc1NjQwOSIgdHJhbnNmb3JtPSJ0cmFuc2xhdGUoLTEyLjI4NjgzNiwtMTIuMjgyMzczKSI+JiN4YTsJPHRpdGxlIGlkPSJ0aXRsZTU2MzY1Ij5QYWdlLTE8L3RpdGxlPiYjeGE7CTxnIGlkPSJncm91cDU3NjEtMSIgdHJhbnNmb3JtPSJ0cmFuc2xhdGUoMTIuNDQxOCwtMTIuMjg5MikiPiYjeGE7CQk8dGl0bGUgaWQ9InRpdGxlNTYzNjciPkF6dXJlIENvbnRhaW5lciBJbnN0YW5jZXM8L3RpdGxlPiYjeGE7CQk8ZyBpZD0ic2hhcGU1NzYyLTIiIHRyYW5zZm9ybT0idHJhbnNsYXRlKDAsLTEzLjYyOTMpIj4mI3hhOwkJCTx0aXRsZSBpZD0idGl0bGU1NjM2OSI+U2hlZXQuNTc2MjwvdGl0bGU+JiN4YTsJCQk8cGF0aCBpZD0icGF0aDU2MzcxIiBpbmtzY2FwZTpjb25uZWN0b3ItY3VydmF0dXJlPSIwIiBzdHlsZT0iZmlsbDojRkZGRkZGOyIgZD0iTTMxLjUsNDYuNzVjLTAuMjctNC45OC00LjUyLTguOC05LjUtOC41NCAgICAgYy0yLjc0LDAuMTUtNS4yNiwxLjUzLTYuODYsMy43NmMtMy4xMy0yLjQxLTcuNjItMS44My0xMC4wMywxLjI5Yy0xLjM0LDEuNzQtMS44MSw0LTEuMjcsNi4xM2MtMy40MiwxLjU0LTQuOTQsNS41Ny0zLjM5LDguOTkgICAgIGMxLjEsMi40MywzLjUyLDQsNi4xOSwzLjk5aDIzYzQuMzgtMC4wMSw3LjkyLTMuNTYsNy45MS03Ljk0QzM3LjU0LDUwLjc5LDM1LjA0LDQ3LjYxLDMxLjUsNDYuNzV6Ii8+JiN4YTsJCTwvZz4mI3hhOwkJPGcgaWQ9InNoYXBlNTc2My00IiB0cmFuc2Zvcm09InRyYW5zbGF0ZSgwLC0xMy42MjkzKSI+JiN4YTsJCQk8dGl0bGUgaWQ9InRpdGxlNTYzNzQiPlNoZWV0LjU3NjM8L3RpdGxlPiYjeGE7CQkJPHBhdGggaWQ9InBhdGg1NjM3NiIgaW5rc2NhcGU6Y29ubmVjdG9yLWN1cnZhdHVyZT0iMCIgc3R5bGU9ImZpbGw6IzI3QTlFMTtmaWxsLW9wYWNpdHk6MC42OyIgZD0iTTMxLjUsNDYuNzUgICAgIGMtMC4yNy00Ljk4LTQuNTItOC44LTkuNS04LjU0Yy0yLjc0LDAuMTUtNS4yNiwxLjUzLTYuODYsMy43NmMtMy4xMy0yLjQxLTcuNjItMS44My0xMC4wMywxLjI5Yy0xLjM0LDEuNzQtMS44MSw0LTEuMjcsNi4xMyAgICAgYy0zLjQyLDEuNTQtNC45NCw1LjU3LTMuMzksOC45OWMxLjEsMi40MywzLjUyLDQsNi4xOSwzLjk5aDIzYzQuMzgtMC4wMSw3LjkyLTMuNTYsNy45MS03Ljk0ICAgICBDMzcuNTQsNTAuNzksMzUuMDQsNDcuNjEsMzEuNSw0Ni43NXoiLz4mI3hhOwkJPC9nPiYjeGE7CQk8ZyBpZD0ic2hhcGU1NzY0LTYiIHRyYW5zZm9ybT0idHJhbnNsYXRlKDguODU4MjQpIj4mI3hhOwkJCTx0aXRsZSBpZD0idGl0bGU1NjM3OSI+U2hlZXQuNTc2NDwvdGl0bGU+JiN4YTsJCQk8cGF0aCBpZD0icGF0aDU2MzgxIiBpbmtzY2FwZTpjb25uZWN0b3ItY3VydmF0dXJlPSIwIiBzdHlsZT0iZmlsbDojNjcyQTdBOyIgZD0iTTAuNzYsNDEuMTdDMC4zNCw0MS4xNywwLDQxLjUxLDAsNDEuOTMgICAgIGMwLDAsMCwwLDAsMGwwLDE5LjY4YzAsMC40MiwwLjM0LDAuNzYsMC43NiwwLjc2YzAsMCwwLDAsMCwwbDE4LjE3LDBjMC40MiwwLDAuNzYtMC4zNCwwLjc2LTAuNzZsMC0xOS42OSAgICAgYzAtMC40Mi0wLjM0LTAuNzYtMC43Ni0wLjc2aDBMMC43Niw0MS4xN3oiLz4mI3hhOwkJPC9nPiYjeGE7CQk8ZyBpZD0ic2hhcGU1NzY1LTgiIHRyYW5zZm9ybT0idHJhbnNsYXRlKDIwLjE3ODEsLTI1Ljc0NDMpIj4mI3hhOwkJCTx0aXRsZSBpZD0idGl0bGU1NjM4NCI+U2hlZXQuNTc2NTwvdGl0bGU+JiN4YTsJCTwvZz4mI3hhOwkJPGcgaWQ9InNoYXBlNTc2Ni05IiB0cmFuc2Zvcm09InRyYW5zbGF0ZSgyNi4yMzU2LC0yMi43MTU1KSI+JiN4YTsJCQk8dGl0bGUgaWQ9InRpdGxlNTYzODciPlNoZWV0LjU3NjY8L3RpdGxlPiYjeGE7CQk8L2c+JiN4YTsJCTxnIGlkPSJzaGFwZTU3NjctMTAiIHRyYW5zZm9ybT0idHJhbnNsYXRlKDE0LjkxNTcsLTIxLjIwMTIpIj4mI3hhOwkJCTx0aXRsZSBpZD0idGl0bGU1NjM5MCI+U2hlZXQuNTc2NzwvdGl0bGU+JiN4YTsJCQk8cGF0aCBpZD0icGF0aDU2MzkyIiBpbmtzY2FwZTpjb25uZWN0b3ItY3VydmF0dXJlPSIwIiBzdHlsZT0iZmlsbDojRkZGRkZGOyIgZD0iTTIuMjcsNjIuMzd2LTUuM0gwbDMuNzktNS4zbDMuNzgsNS4zSDUuM3Y1LjMgICAgIEgyLjI3eiIvPiYjeGE7CQk8L2c+JiN4YTsJCTxnIGlkPSJzaGFwZTU3NjgtMTIiIHRyYW5zZm9ybT0idHJhbnNsYXRlKDIwLjE3ODEsLTI1Ljc0NDMpIj4mI3hhOwkJCTx0aXRsZSBpZD0idGl0bGU1NjM5NSI+U2hlZXQuNTc2ODwvdGl0bGU+JiN4YTsJCTwvZz4mI3hhOwkJPGcgaWQ9InNoYXBlNTc2OS0xMyIgdHJhbnNmb3JtPSJ0cmFuc2xhdGUoMTEuMTI5OCwtMi4yNzE1NSkiPiYjeGE7CQkJPHRpdGxlIGlkPSJ0aXRsZTU2Mzk4Ij5TaGVldC41NzY5PC90aXRsZT4mI3hhOwkJCTxwYXRoIGlkPSJwYXRoNTY0MDAiIGlua3NjYXBlOmNvbm5lY3Rvci1jdXJ2YXR1cmU9IjAiIHN0eWxlPSJmaWxsOiNCOTIwMjU7ZmlsbC1vcGFjaXR5OjAuMzsiIGQ9Ik0xMy42Myw0NS43MUgwdjE2LjY2aDE1LjE0ICAgICBWNDUuNzFIMTMuNjN6IE00LjU0LDYwLjg1SDEuNTFWNDcuMjJoMy4wM1Y2MC44NXogTTkuMDksNjAuODVINi4wNlY0Ny4yMmgzLjAzVjYwLjg1eiBNMTMuNjMsNjAuODVIMTAuNlY0Ny4yMmgzLjAzVjYwLjg1eiIvPiYjeGE7CQk8L2c+JiN4YTsJCTxnIGlkPSJzaGFwZTU3NzAtMTUiIHRyYW5zZm9ybT0idHJhbnNsYXRlKDExLjEyOTgsLTIuMjcxNTUpIj4mI3hhOwkJCTx0aXRsZSBpZD0idGl0bGU1NjQwMyI+U2hlZXQuNTc3MDwvdGl0bGU+JiN4YTsJCQk8cGF0aCBpZD0icGF0aDU2NDA1IiBpbmtzY2FwZTpjb25uZWN0b3ItY3VydmF0dXJlPSIwIiBzdHlsZT0iZmlsbDojRkZGRkZGOyIgZD0iTTEzLjYzLDQ1LjcxSDB2MTYuNjZoMTUuMTRWNDUuNzFIMTMuNjN6ICAgICAgTTQuNTQsNjAuODVIMS41MVY0Ny4yMmgzLjAzVjYwLjg1eiBNOS4wOSw2MC44NUg2LjA2VjQ3LjIyaDMuMDNWNjAuODV6IE0xMy42Myw2MC44NUgxMC42VjQ3LjIyaDMuMDNWNjAuODV6Ii8+JiN4YTsJCTwvZz4mI3hhOwk8L2c+JiN4YTs8L2c+JiN4YTs8L3N2Zz4=;fillColor=#CCCCCC;" vertex="1" parent="1">
          <mxGeometry x="250.62" y="347.46" width="48.75" height="48.75" as="geometry" />
        </mxCell>
        <mxCell id="3jxLnCF12T15F944jgeX-79" value="" style="shape=image;verticalLabelPosition=bottom;labelBackgroundColor=#ffffff;verticalAlign=top;aspect=fixed;imageAspect=0;image=data:image/svg+xml,PHN2ZyB4bWxuczpjYz0iaHR0cDovL2NyZWF0aXZlY29tbW9ucy5vcmcvbnMjIiB4bWxuczpkYz0iaHR0cDovL3B1cmwub3JnL2RjL2VsZW1lbnRzLzEuMS8iIHhtbG5zOmlua3NjYXBlPSJodHRwOi8vd3d3Lmlua3NjYXBlLm9yZy9uYW1lc3BhY2VzL2lua3NjYXBlIiB4bWxuczpyZGY9Imh0dHA6Ly93d3cudzMub3JnLzE5OTkvMDIvMjItcmRmLXN5bnRheC1ucyMiIHhtbG5zOnNvZGlwb2RpPSJodHRwOi8vc29kaXBvZGkuc291cmNlZm9yZ2UubmV0L0RURC9zb2RpcG9kaS0wLmR0ZCIgeG1sbnM6c3ZnPSJodHRwOi8vd3d3LnczLm9yZy8yMDAwL3N2ZyIgeG1sbnM9Imh0dHA6Ly93d3cudzMub3JnLzIwMDAvc3ZnIiB4bWxuczp4bGluaz0iaHR0cDovL3d3dy53My5vcmcvMTk5OS94bGluayIgdmVyc2lvbj0iMS4xIiBpZD0ic3ZnNTY0MTEiIGlua3NjYXBlOnZlcnNpb249IjAuOTIuMyAoMjQwNTU0NiwgMjAxOC0wMy0xMSkiIHNvZGlwb2RpOmRvY25hbWU9ImF6dXJlX2NvbnRhaW5lcl9pbnN0YW5jZXMuc3ZnIiB4PSIwcHgiIHk9IjBweCIgdmlld0JveD0iMCAwIDM3LjcgMzcuOCIgc3R5bGU9ImVuYWJsZS1iYWNrZ3JvdW5kOm5ldyAwIDAgMzcuNyAzNy44OyIgeG1sOnNwYWNlPSJwcmVzZXJ2ZSI+JiN4YTs8c29kaXBvZGk6bmFtZWR2aWV3IGJvcmRlcmNvbG9yPSIjNjY2NjY2IiBib3JkZXJvcGFjaXR5PSIxIiBmaXQtbWFyZ2luLWJvdHRvbT0iMCIgZml0LW1hcmdpbi1sZWZ0PSIwIiBmaXQtbWFyZ2luLXJpZ2h0PSIwIiBmaXQtbWFyZ2luLXRvcD0iMCIgZ3JpZHRvbGVyYW5jZT0iMTAiIGd1aWRldG9sZXJhbmNlPSIxMCIgaWQ9Im5hbWVkdmlldzU2NDEzIiBpbmtzY2FwZTpjdXJyZW50LWxheWVyPSJzdmc1NjQxMSIgaW5rc2NhcGU6Y3g9IjI3LjYxODI3MyIgaW5rc2NhcGU6Y3k9IjIyLjQ3Mzg3NCIgaW5rc2NhcGU6cGFnZW9wYWNpdHk9IjAiIGlua3NjYXBlOnBhZ2VzaGFkb3c9IjIiIGlua3NjYXBlOndpbmRvdy1oZWlnaHQ9IjEwMTciIGlua3NjYXBlOndpbmRvdy1tYXhpbWl6ZWQ9IjEiIGlua3NjYXBlOndpbmRvdy13aWR0aD0iMTkyMCIgaW5rc2NhcGU6d2luZG93LXg9Ii04IiBpbmtzY2FwZTp3aW5kb3cteT0iLTgiIGlua3NjYXBlOnpvb209IjEwLjQyNTkxNCIgb2JqZWN0dG9sZXJhbmNlPSIxMCIgcGFnZWNvbG9yPSIjZmZmZmZmIiBzaG93Z3JpZD0iZmFsc2UiPiYjeGE7CTwvc29kaXBvZGk6bmFtZWR2aWV3PiYjeGE7PGcgaWQ9Imc1NjQwOSIgdHJhbnNmb3JtPSJ0cmFuc2xhdGUoLTEyLjI4NjgzNiwtMTIuMjgyMzczKSI+JiN4YTsJPHRpdGxlIGlkPSJ0aXRsZTU2MzY1Ij5QYWdlLTE8L3RpdGxlPiYjeGE7CTxnIGlkPSJncm91cDU3NjEtMSIgdHJhbnNmb3JtPSJ0cmFuc2xhdGUoMTIuNDQxOCwtMTIuMjg5MikiPiYjeGE7CQk8dGl0bGUgaWQ9InRpdGxlNTYzNjciPkF6dXJlIENvbnRhaW5lciBJbnN0YW5jZXM8L3RpdGxlPiYjeGE7CQk8ZyBpZD0ic2hhcGU1NzYyLTIiIHRyYW5zZm9ybT0idHJhbnNsYXRlKDAsLTEzLjYyOTMpIj4mI3hhOwkJCTx0aXRsZSBpZD0idGl0bGU1NjM2OSI+U2hlZXQuNTc2MjwvdGl0bGU+JiN4YTsJCQk8cGF0aCBpZD0icGF0aDU2MzcxIiBpbmtzY2FwZTpjb25uZWN0b3ItY3VydmF0dXJlPSIwIiBzdHlsZT0iZmlsbDojRkZGRkZGOyIgZD0iTTMxLjUsNDYuNzVjLTAuMjctNC45OC00LjUyLTguOC05LjUtOC41NCAgICAgYy0yLjc0LDAuMTUtNS4yNiwxLjUzLTYuODYsMy43NmMtMy4xMy0yLjQxLTcuNjItMS44My0xMC4wMywxLjI5Yy0xLjM0LDEuNzQtMS44MSw0LTEuMjcsNi4xM2MtMy40MiwxLjU0LTQuOTQsNS41Ny0zLjM5LDguOTkgICAgIGMxLjEsMi40MywzLjUyLDQsNi4xOSwzLjk5aDIzYzQuMzgtMC4wMSw3LjkyLTMuNTYsNy45MS03Ljk0QzM3LjU0LDUwLjc5LDM1LjA0LDQ3LjYxLDMxLjUsNDYuNzV6Ii8+JiN4YTsJCTwvZz4mI3hhOwkJPGcgaWQ9InNoYXBlNTc2My00IiB0cmFuc2Zvcm09InRyYW5zbGF0ZSgwLC0xMy42MjkzKSI+JiN4YTsJCQk8dGl0bGUgaWQ9InRpdGxlNTYzNzQiPlNoZWV0LjU3NjM8L3RpdGxlPiYjeGE7CQkJPHBhdGggaWQ9InBhdGg1NjM3NiIgaW5rc2NhcGU6Y29ubmVjdG9yLWN1cnZhdHVyZT0iMCIgc3R5bGU9ImZpbGw6IzI3QTlFMTtmaWxsLW9wYWNpdHk6MC42OyIgZD0iTTMxLjUsNDYuNzUgICAgIGMtMC4yNy00Ljk4LTQuNTItOC44LTkuNS04LjU0Yy0yLjc0LDAuMTUtNS4yNiwxLjUzLTYuODYsMy43NmMtMy4xMy0yLjQxLTcuNjItMS44My0xMC4wMywxLjI5Yy0xLjM0LDEuNzQtMS44MSw0LTEuMjcsNi4xMyAgICAgYy0zLjQyLDEuNTQtNC45NCw1LjU3LTMuMzksOC45OWMxLjEsMi40MywzLjUyLDQsNi4xOSwzLjk5aDIzYzQuMzgtMC4wMSw3LjkyLTMuNTYsNy45MS03Ljk0ICAgICBDMzcuNTQsNTAuNzksMzUuMDQsNDcuNjEsMzEuNSw0Ni43NXoiLz4mI3hhOwkJPC9nPiYjeGE7CQk8ZyBpZD0ic2hhcGU1NzY0LTYiIHRyYW5zZm9ybT0idHJhbnNsYXRlKDguODU4MjQpIj4mI3hhOwkJCTx0aXRsZSBpZD0idGl0bGU1NjM3OSI+U2hlZXQuNTc2NDwvdGl0bGU+JiN4YTsJCQk8cGF0aCBpZD0icGF0aDU2MzgxIiBpbmtzY2FwZTpjb25uZWN0b3ItY3VydmF0dXJlPSIwIiBzdHlsZT0iZmlsbDojNjcyQTdBOyIgZD0iTTAuNzYsNDEuMTdDMC4zNCw0MS4xNywwLDQxLjUxLDAsNDEuOTMgICAgIGMwLDAsMCwwLDAsMGwwLDE5LjY4YzAsMC40MiwwLjM0LDAuNzYsMC43NiwwLjc2YzAsMCwwLDAsMCwwbDE4LjE3LDBjMC40MiwwLDAuNzYtMC4zNCwwLjc2LTAuNzZsMC0xOS42OSAgICAgYzAtMC40Mi0wLjM0LTAuNzYtMC43Ni0wLjc2aDBMMC43Niw0MS4xN3oiLz4mI3hhOwkJPC9nPiYjeGE7CQk8ZyBpZD0ic2hhcGU1NzY1LTgiIHRyYW5zZm9ybT0idHJhbnNsYXRlKDIwLjE3ODEsLTI1Ljc0NDMpIj4mI3hhOwkJCTx0aXRsZSBpZD0idGl0bGU1NjM4NCI+U2hlZXQuNTc2NTwvdGl0bGU+JiN4YTsJCTwvZz4mI3hhOwkJPGcgaWQ9InNoYXBlNTc2Ni05IiB0cmFuc2Zvcm09InRyYW5zbGF0ZSgyNi4yMzU2LC0yMi43MTU1KSI+JiN4YTsJCQk8dGl0bGUgaWQ9InRpdGxlNTYzODciPlNoZWV0LjU3NjY8L3RpdGxlPiYjeGE7CQk8L2c+JiN4YTsJCTxnIGlkPSJzaGFwZTU3NjctMTAiIHRyYW5zZm9ybT0idHJhbnNsYXRlKDE0LjkxNTcsLTIxLjIwMTIpIj4mI3hhOwkJCTx0aXRsZSBpZD0idGl0bGU1NjM5MCI+U2hlZXQuNTc2NzwvdGl0bGU+JiN4YTsJCQk8cGF0aCBpZD0icGF0aDU2MzkyIiBpbmtzY2FwZTpjb25uZWN0b3ItY3VydmF0dXJlPSIwIiBzdHlsZT0iZmlsbDojRkZGRkZGOyIgZD0iTTIuMjcsNjIuMzd2LTUuM0gwbDMuNzktNS4zbDMuNzgsNS4zSDUuM3Y1LjMgICAgIEgyLjI3eiIvPiYjeGE7CQk8L2c+JiN4YTsJCTxnIGlkPSJzaGFwZTU3NjgtMTIiIHRyYW5zZm9ybT0idHJhbnNsYXRlKDIwLjE3ODEsLTI1Ljc0NDMpIj4mI3hhOwkJCTx0aXRsZSBpZD0idGl0bGU1NjM5NSI+U2hlZXQuNTc2ODwvdGl0bGU+JiN4YTsJCTwvZz4mI3hhOwkJPGcgaWQ9InNoYXBlNTc2OS0xMyIgdHJhbnNmb3JtPSJ0cmFuc2xhdGUoMTEuMTI5OCwtMi4yNzE1NSkiPiYjeGE7CQkJPHRpdGxlIGlkPSJ0aXRsZTU2Mzk4Ij5TaGVldC41NzY5PC90aXRsZT4mI3hhOwkJCTxwYXRoIGlkPSJwYXRoNTY0MDAiIGlua3NjYXBlOmNvbm5lY3Rvci1jdXJ2YXR1cmU9IjAiIHN0eWxlPSJmaWxsOiNCOTIwMjU7ZmlsbC1vcGFjaXR5OjAuMzsiIGQ9Ik0xMy42Myw0NS43MUgwdjE2LjY2aDE1LjE0ICAgICBWNDUuNzFIMTMuNjN6IE00LjU0LDYwLjg1SDEuNTFWNDcuMjJoMy4wM1Y2MC44NXogTTkuMDksNjAuODVINi4wNlY0Ny4yMmgzLjAzVjYwLjg1eiBNMTMuNjMsNjAuODVIMTAuNlY0Ny4yMmgzLjAzVjYwLjg1eiIvPiYjeGE7CQk8L2c+JiN4YTsJCTxnIGlkPSJzaGFwZTU3NzAtMTUiIHRyYW5zZm9ybT0idHJhbnNsYXRlKDExLjEyOTgsLTIuMjcxNTUpIj4mI3hhOwkJCTx0aXRsZSBpZD0idGl0bGU1NjQwMyI+U2hlZXQuNTc3MDwvdGl0bGU+JiN4YTsJCQk8cGF0aCBpZD0icGF0aDU2NDA1IiBpbmtzY2FwZTpjb25uZWN0b3ItY3VydmF0dXJlPSIwIiBzdHlsZT0iZmlsbDojRkZGRkZGOyIgZD0iTTEzLjYzLDQ1LjcxSDB2MTYuNjZoMTUuMTRWNDUuNzFIMTMuNjN6ICAgICAgTTQuNTQsNjAuODVIMS41MVY0Ny4yMmgzLjAzVjYwLjg1eiBNOS4wOSw2MC44NUg2LjA2VjQ3LjIyaDMuMDNWNjAuODV6IE0xMy42Myw2MC44NUgxMC42VjQ3LjIyaDMuMDNWNjAuODV6Ii8+JiN4YTsJCTwvZz4mI3hhOwk8L2c+JiN4YTs8L2c+JiN4YTs8L3N2Zz4=;fillColor=#CCCCCC;" vertex="1" parent="1">
          <mxGeometry x="250.62" y="419.21999999999997" width="48.75" height="48.75" as="geometry" />
        </mxCell>
        <mxCell id="3jxLnCF12T15F944jgeX-80" value="Smart Building Gateway" style="rounded=1;whiteSpace=wrap;html=1;dashed=1;strokeColor=none;strokeWidth=2;fillColor=#FFFFFF;fontFamily=Helvetica;fontSize=14;fontColor=#FFB366;opacity=75;verticalAlign=top;fontStyle=1" vertex="1" parent="1">
          <mxGeometry x="80" y="201.83999999999997" width="110" height="300" as="geometry" />
        </mxCell>
        <mxCell id="3jxLnCF12T15F944jgeX-81" value="" style="shape=image;verticalLabelPosition=bottom;labelBackgroundColor=#ffffff;verticalAlign=top;aspect=fixed;imageAspect=0;image=data:image/svg+xml,PHN2ZyB4bWxuczpjYz0iaHR0cDovL2NyZWF0aXZlY29tbW9ucy5vcmcvbnMjIiB4bWxuczpkYz0iaHR0cDovL3B1cmwub3JnL2RjL2VsZW1lbnRzLzEuMS8iIHhtbG5zOmlua3NjYXBlPSJodHRwOi8vd3d3Lmlua3NjYXBlLm9yZy9uYW1lc3BhY2VzL2lua3NjYXBlIiB4bWxuczpyZGY9Imh0dHA6Ly93d3cudzMub3JnLzE5OTkvMDIvMjItcmRmLXN5bnRheC1ucyMiIHhtbG5zOnNvZGlwb2RpPSJodHRwOi8vc29kaXBvZGkuc291cmNlZm9yZ2UubmV0L0RURC9zb2RpcG9kaS0wLmR0ZCIgeG1sbnM6c3ZnPSJodHRwOi8vd3d3LnczLm9yZy8yMDAwL3N2ZyIgeG1sbnM9Imh0dHA6Ly93d3cudzMub3JnLzIwMDAvc3ZnIiB4bWxuczp4bGluaz0iaHR0cDovL3d3dy53My5vcmcvMTk5OS94bGluayIgdmVyc2lvbj0iMS4xIiBpZD0ic3ZnNTY0MTEiIGlua3NjYXBlOnZlcnNpb249IjAuOTIuMyAoMjQwNTU0NiwgMjAxOC0wMy0xMSkiIHNvZGlwb2RpOmRvY25hbWU9ImF6dXJlX2NvbnRhaW5lcl9pbnN0YW5jZXMuc3ZnIiB4PSIwcHgiIHk9IjBweCIgdmlld0JveD0iMCAwIDM3LjcgMzcuOCIgc3R5bGU9ImVuYWJsZS1iYWNrZ3JvdW5kOm5ldyAwIDAgMzcuNyAzNy44OyIgeG1sOnNwYWNlPSJwcmVzZXJ2ZSI+JiN4YTs8c29kaXBvZGk6bmFtZWR2aWV3IGJvcmRlcmNvbG9yPSIjNjY2NjY2IiBib3JkZXJvcGFjaXR5PSIxIiBmaXQtbWFyZ2luLWJvdHRvbT0iMCIgZml0LW1hcmdpbi1sZWZ0PSIwIiBmaXQtbWFyZ2luLXJpZ2h0PSIwIiBmaXQtbWFyZ2luLXRvcD0iMCIgZ3JpZHRvbGVyYW5jZT0iMTAiIGd1aWRldG9sZXJhbmNlPSIxMCIgaWQ9Im5hbWVkdmlldzU2NDEzIiBpbmtzY2FwZTpjdXJyZW50LWxheWVyPSJzdmc1NjQxMSIgaW5rc2NhcGU6Y3g9IjI3LjYxODI3MyIgaW5rc2NhcGU6Y3k9IjIyLjQ3Mzg3NCIgaW5rc2NhcGU6cGFnZW9wYWNpdHk9IjAiIGlua3NjYXBlOnBhZ2VzaGFkb3c9IjIiIGlua3NjYXBlOndpbmRvdy1oZWlnaHQ9IjEwMTciIGlua3NjYXBlOndpbmRvdy1tYXhpbWl6ZWQ9IjEiIGlua3NjYXBlOndpbmRvdy13aWR0aD0iMTkyMCIgaW5rc2NhcGU6d2luZG93LXg9Ii04IiBpbmtzY2FwZTp3aW5kb3cteT0iLTgiIGlua3NjYXBlOnpvb209IjEwLjQyNTkxNCIgb2JqZWN0dG9sZXJhbmNlPSIxMCIgcGFnZWNvbG9yPSIjZmZmZmZmIiBzaG93Z3JpZD0iZmFsc2UiPiYjeGE7CTwvc29kaXBvZGk6bmFtZWR2aWV3PiYjeGE7PGcgaWQ9Imc1NjQwOSIgdHJhbnNmb3JtPSJ0cmFuc2xhdGUoLTEyLjI4NjgzNiwtMTIuMjgyMzczKSI+JiN4YTsJPHRpdGxlIGlkPSJ0aXRsZTU2MzY1Ij5QYWdlLTE8L3RpdGxlPiYjeGE7CTxnIGlkPSJncm91cDU3NjEtMSIgdHJhbnNmb3JtPSJ0cmFuc2xhdGUoMTIuNDQxOCwtMTIuMjg5MikiPiYjeGE7CQk8dGl0bGUgaWQ9InRpdGxlNTYzNjciPkF6dXJlIENvbnRhaW5lciBJbnN0YW5jZXM8L3RpdGxlPiYjeGE7CQk8ZyBpZD0ic2hhcGU1NzYyLTIiIHRyYW5zZm9ybT0idHJhbnNsYXRlKDAsLTEzLjYyOTMpIj4mI3hhOwkJCTx0aXRsZSBpZD0idGl0bGU1NjM2OSI+U2hlZXQuNTc2MjwvdGl0bGU+JiN4YTsJCQk8cGF0aCBpZD0icGF0aDU2MzcxIiBpbmtzY2FwZTpjb25uZWN0b3ItY3VydmF0dXJlPSIwIiBzdHlsZT0iZmlsbDojRkZGRkZGOyIgZD0iTTMxLjUsNDYuNzVjLTAuMjctNC45OC00LjUyLTguOC05LjUtOC41NCAgICAgYy0yLjc0LDAuMTUtNS4yNiwxLjUzLTYuODYsMy43NmMtMy4xMy0yLjQxLTcuNjItMS44My0xMC4wMywxLjI5Yy0xLjM0LDEuNzQtMS44MSw0LTEuMjcsNi4xM2MtMy40MiwxLjU0LTQuOTQsNS41Ny0zLjM5LDguOTkgICAgIGMxLjEsMi40MywzLjUyLDQsNi4xOSwzLjk5aDIzYzQuMzgtMC4wMSw3LjkyLTMuNTYsNy45MS03Ljk0QzM3LjU0LDUwLjc5LDM1LjA0LDQ3LjYxLDMxLjUsNDYuNzV6Ii8+JiN4YTsJCTwvZz4mI3hhOwkJPGcgaWQ9InNoYXBlNTc2My00IiB0cmFuc2Zvcm09InRyYW5zbGF0ZSgwLC0xMy42MjkzKSI+JiN4YTsJCQk8dGl0bGUgaWQ9InRpdGxlNTYzNzQiPlNoZWV0LjU3NjM8L3RpdGxlPiYjeGE7CQkJPHBhdGggaWQ9InBhdGg1NjM3NiIgaW5rc2NhcGU6Y29ubmVjdG9yLWN1cnZhdHVyZT0iMCIgc3R5bGU9ImZpbGw6IzI3QTlFMTtmaWxsLW9wYWNpdHk6MC42OyIgZD0iTTMxLjUsNDYuNzUgICAgIGMtMC4yNy00Ljk4LTQuNTItOC44LTkuNS04LjU0Yy0yLjc0LDAuMTUtNS4yNiwxLjUzLTYuODYsMy43NmMtMy4xMy0yLjQxLTcuNjItMS44My0xMC4wMywxLjI5Yy0xLjM0LDEuNzQtMS44MSw0LTEuMjcsNi4xMyAgICAgYy0zLjQyLDEuNTQtNC45NCw1LjU3LTMuMzksOC45OWMxLjEsMi40MywzLjUyLDQsNi4xOSwzLjk5aDIzYzQuMzgtMC4wMSw3LjkyLTMuNTYsNy45MS03Ljk0ICAgICBDMzcuNTQsNTAuNzksMzUuMDQsNDcuNjEsMzEuNSw0Ni43NXoiLz4mI3hhOwkJPC9nPiYjeGE7CQk8ZyBpZD0ic2hhcGU1NzY0LTYiIHRyYW5zZm9ybT0idHJhbnNsYXRlKDguODU4MjQpIj4mI3hhOwkJCTx0aXRsZSBpZD0idGl0bGU1NjM3OSI+U2hlZXQuNTc2NDwvdGl0bGU+JiN4YTsJCQk8cGF0aCBpZD0icGF0aDU2MzgxIiBpbmtzY2FwZTpjb25uZWN0b3ItY3VydmF0dXJlPSIwIiBzdHlsZT0iZmlsbDojNjcyQTdBOyIgZD0iTTAuNzYsNDEuMTdDMC4zNCw0MS4xNywwLDQxLjUxLDAsNDEuOTMgICAgIGMwLDAsMCwwLDAsMGwwLDE5LjY4YzAsMC40MiwwLjM0LDAuNzYsMC43NiwwLjc2YzAsMCwwLDAsMCwwbDE4LjE3LDBjMC40MiwwLDAuNzYtMC4zNCwwLjc2LTAuNzZsMC0xOS42OSAgICAgYzAtMC40Mi0wLjM0LTAuNzYtMC43Ni0wLjc2aDBMMC43Niw0MS4xN3oiLz4mI3hhOwkJPC9nPiYjeGE7CQk8ZyBpZD0ic2hhcGU1NzY1LTgiIHRyYW5zZm9ybT0idHJhbnNsYXRlKDIwLjE3ODEsLTI1Ljc0NDMpIj4mI3hhOwkJCTx0aXRsZSBpZD0idGl0bGU1NjM4NCI+U2hlZXQuNTc2NTwvdGl0bGU+JiN4YTsJCTwvZz4mI3hhOwkJPGcgaWQ9InNoYXBlNTc2Ni05IiB0cmFuc2Zvcm09InRyYW5zbGF0ZSgyNi4yMzU2LC0yMi43MTU1KSI+JiN4YTsJCQk8dGl0bGUgaWQ9InRpdGxlNTYzODciPlNoZWV0LjU3NjY8L3RpdGxlPiYjeGE7CQk8L2c+JiN4YTsJCTxnIGlkPSJzaGFwZTU3NjctMTAiIHRyYW5zZm9ybT0idHJhbnNsYXRlKDE0LjkxNTcsLTIxLjIwMTIpIj4mI3hhOwkJCTx0aXRsZSBpZD0idGl0bGU1NjM5MCI+U2hlZXQuNTc2NzwvdGl0bGU+JiN4YTsJCQk8cGF0aCBpZD0icGF0aDU2MzkyIiBpbmtzY2FwZTpjb25uZWN0b3ItY3VydmF0dXJlPSIwIiBzdHlsZT0iZmlsbDojRkZGRkZGOyIgZD0iTTIuMjcsNjIuMzd2LTUuM0gwbDMuNzktNS4zbDMuNzgsNS4zSDUuM3Y1LjMgICAgIEgyLjI3eiIvPiYjeGE7CQk8L2c+JiN4YTsJCTxnIGlkPSJzaGFwZTU3NjgtMTIiIHRyYW5zZm9ybT0idHJhbnNsYXRlKDIwLjE3ODEsLTI1Ljc0NDMpIj4mI3hhOwkJCTx0aXRsZSBpZD0idGl0bGU1NjM5NSI+U2hlZXQuNTc2ODwvdGl0bGU+JiN4YTsJCTwvZz4mI3hhOwkJPGcgaWQ9InNoYXBlNTc2OS0xMyIgdHJhbnNmb3JtPSJ0cmFuc2xhdGUoMTEuMTI5OCwtMi4yNzE1NSkiPiYjeGE7CQkJPHRpdGxlIGlkPSJ0aXRsZTU2Mzk4Ij5TaGVldC41NzY5PC90aXRsZT4mI3hhOwkJCTxwYXRoIGlkPSJwYXRoNTY0MDAiIGlua3NjYXBlOmNvbm5lY3Rvci1jdXJ2YXR1cmU9IjAiIHN0eWxlPSJmaWxsOiNCOTIwMjU7ZmlsbC1vcGFjaXR5OjAuMzsiIGQ9Ik0xMy42Myw0NS43MUgwdjE2LjY2aDE1LjE0ICAgICBWNDUuNzFIMTMuNjN6IE00LjU0LDYwLjg1SDEuNTFWNDcuMjJoMy4wM1Y2MC44NXogTTkuMDksNjAuODVINi4wNlY0Ny4yMmgzLjAzVjYwLjg1eiBNMTMuNjMsNjAuODVIMTAuNlY0Ny4yMmgzLjAzVjYwLjg1eiIvPiYjeGE7CQk8L2c+JiN4YTsJCTxnIGlkPSJzaGFwZTU3NzAtMTUiIHRyYW5zZm9ybT0idHJhbnNsYXRlKDExLjEyOTgsLTIuMjcxNTUpIj4mI3hhOwkJCTx0aXRsZSBpZD0idGl0bGU1NjQwMyI+U2hlZXQuNTc3MDwvdGl0bGU+JiN4YTsJCQk8cGF0aCBpZD0icGF0aDU2NDA1IiBpbmtzY2FwZTpjb25uZWN0b3ItY3VydmF0dXJlPSIwIiBzdHlsZT0iZmlsbDojRkZGRkZGOyIgZD0iTTEzLjYzLDQ1LjcxSDB2MTYuNjZoMTUuMTRWNDUuNzFIMTMuNjN6ICAgICAgTTQuNTQsNjAuODVIMS41MVY0Ny4yMmgzLjAzVjYwLjg1eiBNOS4wOSw2MC44NUg2LjA2VjQ3LjIyaDMuMDNWNjAuODV6IE0xMy42Myw2MC44NUgxMC42VjQ3LjIyaDMuMDNWNjAuODV6Ii8+JiN4YTsJCTwvZz4mI3hhOwk8L2c+JiN4YTs8L2c+JiN4YTs8L3N2Zz4=;fillColor=#CCCCCC;" vertex="1" parent="1">
          <mxGeometry x="110.62" y="282.96999999999997" width="48.75" height="48.75" as="geometry" />
        </mxCell>
        <mxCell id="3jxLnCF12T15F944jgeX-82" value="" style="shape=image;verticalLabelPosition=bottom;labelBackgroundColor=#ffffff;verticalAlign=top;aspect=fixed;imageAspect=0;image=data:image/svg+xml,PHN2ZyB4bWxuczpjYz0iaHR0cDovL2NyZWF0aXZlY29tbW9ucy5vcmcvbnMjIiB4bWxuczpkYz0iaHR0cDovL3B1cmwub3JnL2RjL2VsZW1lbnRzLzEuMS8iIHhtbG5zOmlua3NjYXBlPSJodHRwOi8vd3d3Lmlua3NjYXBlLm9yZy9uYW1lc3BhY2VzL2lua3NjYXBlIiB4bWxuczpyZGY9Imh0dHA6Ly93d3cudzMub3JnLzE5OTkvMDIvMjItcmRmLXN5bnRheC1ucyMiIHhtbG5zOnNvZGlwb2RpPSJodHRwOi8vc29kaXBvZGkuc291cmNlZm9yZ2UubmV0L0RURC9zb2RpcG9kaS0wLmR0ZCIgeG1sbnM6c3ZnPSJodHRwOi8vd3d3LnczLm9yZy8yMDAwL3N2ZyIgeG1sbnM9Imh0dHA6Ly93d3cudzMub3JnLzIwMDAvc3ZnIiB4bWxuczp4bGluaz0iaHR0cDovL3d3dy53My5vcmcvMTk5OS94bGluayIgdmVyc2lvbj0iMS4xIiBpZD0ic3ZnNTY0MTEiIGlua3NjYXBlOnZlcnNpb249IjAuOTIuMyAoMjQwNTU0NiwgMjAxOC0wMy0xMSkiIHNvZGlwb2RpOmRvY25hbWU9ImF6dXJlX2NvbnRhaW5lcl9pbnN0YW5jZXMuc3ZnIiB4PSIwcHgiIHk9IjBweCIgdmlld0JveD0iMCAwIDM3LjcgMzcuOCIgc3R5bGU9ImVuYWJsZS1iYWNrZ3JvdW5kOm5ldyAwIDAgMzcuNyAzNy44OyIgeG1sOnNwYWNlPSJwcmVzZXJ2ZSI+JiN4YTs8c29kaXBvZGk6bmFtZWR2aWV3IGJvcmRlcmNvbG9yPSIjNjY2NjY2IiBib3JkZXJvcGFjaXR5PSIxIiBmaXQtbWFyZ2luLWJvdHRvbT0iMCIgZml0LW1hcmdpbi1sZWZ0PSIwIiBmaXQtbWFyZ2luLXJpZ2h0PSIwIiBmaXQtbWFyZ2luLXRvcD0iMCIgZ3JpZHRvbGVyYW5jZT0iMTAiIGd1aWRldG9sZXJhbmNlPSIxMCIgaWQ9Im5hbWVkdmlldzU2NDEzIiBpbmtzY2FwZTpjdXJyZW50LWxheWVyPSJzdmc1NjQxMSIgaW5rc2NhcGU6Y3g9IjI3LjYxODI3MyIgaW5rc2NhcGU6Y3k9IjIyLjQ3Mzg3NCIgaW5rc2NhcGU6cGFnZW9wYWNpdHk9IjAiIGlua3NjYXBlOnBhZ2VzaGFkb3c9IjIiIGlua3NjYXBlOndpbmRvdy1oZWlnaHQ9IjEwMTciIGlua3NjYXBlOndpbmRvdy1tYXhpbWl6ZWQ9IjEiIGlua3NjYXBlOndpbmRvdy13aWR0aD0iMTkyMCIgaW5rc2NhcGU6d2luZG93LXg9Ii04IiBpbmtzY2FwZTp3aW5kb3cteT0iLTgiIGlua3NjYXBlOnpvb209IjEwLjQyNTkxNCIgb2JqZWN0dG9sZXJhbmNlPSIxMCIgcGFnZWNvbG9yPSIjZmZmZmZmIiBzaG93Z3JpZD0iZmFsc2UiPiYjeGE7CTwvc29kaXBvZGk6bmFtZWR2aWV3PiYjeGE7PGcgaWQ9Imc1NjQwOSIgdHJhbnNmb3JtPSJ0cmFuc2xhdGUoLTEyLjI4NjgzNiwtMTIuMjgyMzczKSI+JiN4YTsJPHRpdGxlIGlkPSJ0aXRsZTU2MzY1Ij5QYWdlLTE8L3RpdGxlPiYjeGE7CTxnIGlkPSJncm91cDU3NjEtMSIgdHJhbnNmb3JtPSJ0cmFuc2xhdGUoMTIuNDQxOCwtMTIuMjg5MikiPiYjeGE7CQk8dGl0bGUgaWQ9InRpdGxlNTYzNjciPkF6dXJlIENvbnRhaW5lciBJbnN0YW5jZXM8L3RpdGxlPiYjeGE7CQk8ZyBpZD0ic2hhcGU1NzYyLTIiIHRyYW5zZm9ybT0idHJhbnNsYXRlKDAsLTEzLjYyOTMpIj4mI3hhOwkJCTx0aXRsZSBpZD0idGl0bGU1NjM2OSI+U2hlZXQuNTc2MjwvdGl0bGU+JiN4YTsJCQk8cGF0aCBpZD0icGF0aDU2MzcxIiBpbmtzY2FwZTpjb25uZWN0b3ItY3VydmF0dXJlPSIwIiBzdHlsZT0iZmlsbDojRkZGRkZGOyIgZD0iTTMxLjUsNDYuNzVjLTAuMjctNC45OC00LjUyLTguOC05LjUtOC41NCAgICAgYy0yLjc0LDAuMTUtNS4yNiwxLjUzLTYuODYsMy43NmMtMy4xMy0yLjQxLTcuNjItMS44My0xMC4wMywxLjI5Yy0xLjM0LDEuNzQtMS44MSw0LTEuMjcsNi4xM2MtMy40MiwxLjU0LTQuOTQsNS41Ny0zLjM5LDguOTkgICAgIGMxLjEsMi40MywzLjUyLDQsNi4xOSwzLjk5aDIzYzQuMzgtMC4wMSw3LjkyLTMuNTYsNy45MS03Ljk0QzM3LjU0LDUwLjc5LDM1LjA0LDQ3LjYxLDMxLjUsNDYuNzV6Ii8+JiN4YTsJCTwvZz4mI3hhOwkJPGcgaWQ9InNoYXBlNTc2My00IiB0cmFuc2Zvcm09InRyYW5zbGF0ZSgwLC0xMy42MjkzKSI+JiN4YTsJCQk8dGl0bGUgaWQ9InRpdGxlNTYzNzQiPlNoZWV0LjU3NjM8L3RpdGxlPiYjeGE7CQkJPHBhdGggaWQ9InBhdGg1NjM3NiIgaW5rc2NhcGU6Y29ubmVjdG9yLWN1cnZhdHVyZT0iMCIgc3R5bGU9ImZpbGw6IzI3QTlFMTtmaWxsLW9wYWNpdHk6MC42OyIgZD0iTTMxLjUsNDYuNzUgICAgIGMtMC4yNy00Ljk4LTQuNTItOC44LTkuNS04LjU0Yy0yLjc0LDAuMTUtNS4yNiwxLjUzLTYuODYsMy43NmMtMy4xMy0yLjQxLTcuNjItMS44My0xMC4wMywxLjI5Yy0xLjM0LDEuNzQtMS44MSw0LTEuMjcsNi4xMyAgICAgYy0zLjQyLDEuNTQtNC45NCw1LjU3LTMuMzksOC45OWMxLjEsMi40MywzLjUyLDQsNi4xOSwzLjk5aDIzYzQuMzgtMC4wMSw3LjkyLTMuNTYsNy45MS03Ljk0ICAgICBDMzcuNTQsNTAuNzksMzUuMDQsNDcuNjEsMzEuNSw0Ni43NXoiLz4mI3hhOwkJPC9nPiYjeGE7CQk8ZyBpZD0ic2hhcGU1NzY0LTYiIHRyYW5zZm9ybT0idHJhbnNsYXRlKDguODU4MjQpIj4mI3hhOwkJCTx0aXRsZSBpZD0idGl0bGU1NjM3OSI+U2hlZXQuNTc2NDwvdGl0bGU+JiN4YTsJCQk8cGF0aCBpZD0icGF0aDU2MzgxIiBpbmtzY2FwZTpjb25uZWN0b3ItY3VydmF0dXJlPSIwIiBzdHlsZT0iZmlsbDojNjcyQTdBOyIgZD0iTTAuNzYsNDEuMTdDMC4zNCw0MS4xNywwLDQxLjUxLDAsNDEuOTMgICAgIGMwLDAsMCwwLDAsMGwwLDE5LjY4YzAsMC40MiwwLjM0LDAuNzYsMC43NiwwLjc2YzAsMCwwLDAsMCwwbDE4LjE3LDBjMC40MiwwLDAuNzYtMC4zNCwwLjc2LTAuNzZsMC0xOS42OSAgICAgYzAtMC40Mi0wLjM0LTAuNzYtMC43Ni0wLjc2aDBMMC43Niw0MS4xN3oiLz4mI3hhOwkJPC9nPiYjeGE7CQk8ZyBpZD0ic2hhcGU1NzY1LTgiIHRyYW5zZm9ybT0idHJhbnNsYXRlKDIwLjE3ODEsLTI1Ljc0NDMpIj4mI3hhOwkJCTx0aXRsZSBpZD0idGl0bGU1NjM4NCI+U2hlZXQuNTc2NTwvdGl0bGU+JiN4YTsJCTwvZz4mI3hhOwkJPGcgaWQ9InNoYXBlNTc2Ni05IiB0cmFuc2Zvcm09InRyYW5zbGF0ZSgyNi4yMzU2LC0yMi43MTU1KSI+JiN4YTsJCQk8dGl0bGUgaWQ9InRpdGxlNTYzODciPlNoZWV0LjU3NjY8L3RpdGxlPiYjeGE7CQk8L2c+JiN4YTsJCTxnIGlkPSJzaGFwZTU3NjctMTAiIHRyYW5zZm9ybT0idHJhbnNsYXRlKDE0LjkxNTcsLTIxLjIwMTIpIj4mI3hhOwkJCTx0aXRsZSBpZD0idGl0bGU1NjM5MCI+U2hlZXQuNTc2NzwvdGl0bGU+JiN4YTsJCQk8cGF0aCBpZD0icGF0aDU2MzkyIiBpbmtzY2FwZTpjb25uZWN0b3ItY3VydmF0dXJlPSIwIiBzdHlsZT0iZmlsbDojRkZGRkZGOyIgZD0iTTIuMjcsNjIuMzd2LTUuM0gwbDMuNzktNS4zbDMuNzgsNS4zSDUuM3Y1LjMgICAgIEgyLjI3eiIvPiYjeGE7CQk8L2c+JiN4YTsJCTxnIGlkPSJzaGFwZTU3NjgtMTIiIHRyYW5zZm9ybT0idHJhbnNsYXRlKDIwLjE3ODEsLTI1Ljc0NDMpIj4mI3hhOwkJCTx0aXRsZSBpZD0idGl0bGU1NjM5NSI+U2hlZXQuNTc2ODwvdGl0bGU+JiN4YTsJCTwvZz4mI3hhOwkJPGcgaWQ9InNoYXBlNTc2OS0xMyIgdHJhbnNmb3JtPSJ0cmFuc2xhdGUoMTEuMTI5OCwtMi4yNzE1NSkiPiYjeGE7CQkJPHRpdGxlIGlkPSJ0aXRsZTU2Mzk4Ij5TaGVldC41NzY5PC90aXRsZT4mI3hhOwkJCTxwYXRoIGlkPSJwYXRoNTY0MDAiIGlua3NjYXBlOmNvbm5lY3Rvci1jdXJ2YXR1cmU9IjAiIHN0eWxlPSJmaWxsOiNCOTIwMjU7ZmlsbC1vcGFjaXR5OjAuMzsiIGQ9Ik0xMy42Myw0NS43MUgwdjE2LjY2aDE1LjE0ICAgICBWNDUuNzFIMTMuNjN6IE00LjU0LDYwLjg1SDEuNTFWNDcuMjJoMy4wM1Y2MC44NXogTTkuMDksNjAuODVINi4wNlY0Ny4yMmgzLjAzVjYwLjg1eiBNMTMuNjMsNjAuODVIMTAuNlY0Ny4yMmgzLjAzVjYwLjg1eiIvPiYjeGE7CQk8L2c+JiN4YTsJCTxnIGlkPSJzaGFwZTU3NzAtMTUiIHRyYW5zZm9ybT0idHJhbnNsYXRlKDExLjEyOTgsLTIuMjcxNTUpIj4mI3hhOwkJCTx0aXRsZSBpZD0idGl0bGU1NjQwMyI+U2hlZXQuNTc3MDwvdGl0bGU+JiN4YTsJCQk8cGF0aCBpZD0icGF0aDU2NDA1IiBpbmtzY2FwZTpjb25uZWN0b3ItY3VydmF0dXJlPSIwIiBzdHlsZT0iZmlsbDojRkZGRkZGOyIgZD0iTTEzLjYzLDQ1LjcxSDB2MTYuNjZoMTUuMTRWNDUuNzFIMTMuNjN6ICAgICAgTTQuNTQsNjAuODVIMS41MVY0Ny4yMmgzLjAzVjYwLjg1eiBNOS4wOSw2MC44NUg2LjA2VjQ3LjIyaDMuMDNWNjAuODV6IE0xMy42Myw2MC44NUgxMC42VjQ3LjIyaDMuMDNWNjAuODV6Ii8+JiN4YTsJCTwvZz4mI3hhOwk8L2c+JiN4YTs8L2c+JiN4YTs8L3N2Zz4=;fillColor=#CCCCCC;" vertex="1" parent="1">
          <mxGeometry x="110.62" y="351.84" width="48.75" height="48.75" as="geometry" />
        </mxCell>
        <mxCell id="3jxLnCF12T15F944jgeX-83" value="" style="shape=image;verticalLabelPosition=bottom;labelBackgroundColor=#ffffff;verticalAlign=top;aspect=fixed;imageAspect=0;image=data:image/svg+xml,PHN2ZyB4bWxuczpjYz0iaHR0cDovL2NyZWF0aXZlY29tbW9ucy5vcmcvbnMjIiB4bWxuczpkYz0iaHR0cDovL3B1cmwub3JnL2RjL2VsZW1lbnRzLzEuMS8iIHhtbG5zOmlua3NjYXBlPSJodHRwOi8vd3d3Lmlua3NjYXBlLm9yZy9uYW1lc3BhY2VzL2lua3NjYXBlIiB4bWxuczpyZGY9Imh0dHA6Ly93d3cudzMub3JnLzE5OTkvMDIvMjItcmRmLXN5bnRheC1ucyMiIHhtbG5zOnNvZGlwb2RpPSJodHRwOi8vc29kaXBvZGkuc291cmNlZm9yZ2UubmV0L0RURC9zb2RpcG9kaS0wLmR0ZCIgeG1sbnM6c3ZnPSJodHRwOi8vd3d3LnczLm9yZy8yMDAwL3N2ZyIgeG1sbnM9Imh0dHA6Ly93d3cudzMub3JnLzIwMDAvc3ZnIiB4bWxuczp4bGluaz0iaHR0cDovL3d3dy53My5vcmcvMTk5OS94bGluayIgdmVyc2lvbj0iMS4xIiBpZD0ic3ZnNTY0MTEiIGlua3NjYXBlOnZlcnNpb249IjAuOTIuMyAoMjQwNTU0NiwgMjAxOC0wMy0xMSkiIHNvZGlwb2RpOmRvY25hbWU9ImF6dXJlX2NvbnRhaW5lcl9pbnN0YW5jZXMuc3ZnIiB4PSIwcHgiIHk9IjBweCIgdmlld0JveD0iMCAwIDM3LjcgMzcuOCIgc3R5bGU9ImVuYWJsZS1iYWNrZ3JvdW5kOm5ldyAwIDAgMzcuNyAzNy44OyIgeG1sOnNwYWNlPSJwcmVzZXJ2ZSI+JiN4YTs8c29kaXBvZGk6bmFtZWR2aWV3IGJvcmRlcmNvbG9yPSIjNjY2NjY2IiBib3JkZXJvcGFjaXR5PSIxIiBmaXQtbWFyZ2luLWJvdHRvbT0iMCIgZml0LW1hcmdpbi1sZWZ0PSIwIiBmaXQtbWFyZ2luLXJpZ2h0PSIwIiBmaXQtbWFyZ2luLXRvcD0iMCIgZ3JpZHRvbGVyYW5jZT0iMTAiIGd1aWRldG9sZXJhbmNlPSIxMCIgaWQ9Im5hbWVkdmlldzU2NDEzIiBpbmtzY2FwZTpjdXJyZW50LWxheWVyPSJzdmc1NjQxMSIgaW5rc2NhcGU6Y3g9IjI3LjYxODI3MyIgaW5rc2NhcGU6Y3k9IjIyLjQ3Mzg3NCIgaW5rc2NhcGU6cGFnZW9wYWNpdHk9IjAiIGlua3NjYXBlOnBhZ2VzaGFkb3c9IjIiIGlua3NjYXBlOndpbmRvdy1oZWlnaHQ9IjEwMTciIGlua3NjYXBlOndpbmRvdy1tYXhpbWl6ZWQ9IjEiIGlua3NjYXBlOndpbmRvdy13aWR0aD0iMTkyMCIgaW5rc2NhcGU6d2luZG93LXg9Ii04IiBpbmtzY2FwZTp3aW5kb3cteT0iLTgiIGlua3NjYXBlOnpvb209IjEwLjQyNTkxNCIgb2JqZWN0dG9sZXJhbmNlPSIxMCIgcGFnZWNvbG9yPSIjZmZmZmZmIiBzaG93Z3JpZD0iZmFsc2UiPiYjeGE7CTwvc29kaXBvZGk6bmFtZWR2aWV3PiYjeGE7PGcgaWQ9Imc1NjQwOSIgdHJhbnNmb3JtPSJ0cmFuc2xhdGUoLTEyLjI4NjgzNiwtMTIuMjgyMzczKSI+JiN4YTsJPHRpdGxlIGlkPSJ0aXRsZTU2MzY1Ij5QYWdlLTE8L3RpdGxlPiYjeGE7CTxnIGlkPSJncm91cDU3NjEtMSIgdHJhbnNmb3JtPSJ0cmFuc2xhdGUoMTIuNDQxOCwtMTIuMjg5MikiPiYjeGE7CQk8dGl0bGUgaWQ9InRpdGxlNTYzNjciPkF6dXJlIENvbnRhaW5lciBJbnN0YW5jZXM8L3RpdGxlPiYjeGE7CQk8ZyBpZD0ic2hhcGU1NzYyLTIiIHRyYW5zZm9ybT0idHJhbnNsYXRlKDAsLTEzLjYyOTMpIj4mI3hhOwkJCTx0aXRsZSBpZD0idGl0bGU1NjM2OSI+U2hlZXQuNTc2MjwvdGl0bGU+JiN4YTsJCQk8cGF0aCBpZD0icGF0aDU2MzcxIiBpbmtzY2FwZTpjb25uZWN0b3ItY3VydmF0dXJlPSIwIiBzdHlsZT0iZmlsbDojRkZGRkZGOyIgZD0iTTMxLjUsNDYuNzVjLTAuMjctNC45OC00LjUyLTguOC05LjUtOC41NCAgICAgYy0yLjc0LDAuMTUtNS4yNiwxLjUzLTYuODYsMy43NmMtMy4xMy0yLjQxLTcuNjItMS44My0xMC4wMywxLjI5Yy0xLjM0LDEuNzQtMS44MSw0LTEuMjcsNi4xM2MtMy40MiwxLjU0LTQuOTQsNS41Ny0zLjM5LDguOTkgICAgIGMxLjEsMi40MywzLjUyLDQsNi4xOSwzLjk5aDIzYzQuMzgtMC4wMSw3LjkyLTMuNTYsNy45MS03Ljk0QzM3LjU0LDUwLjc5LDM1LjA0LDQ3LjYxLDMxLjUsNDYuNzV6Ii8+JiN4YTsJCTwvZz4mI3hhOwkJPGcgaWQ9InNoYXBlNTc2My00IiB0cmFuc2Zvcm09InRyYW5zbGF0ZSgwLC0xMy42MjkzKSI+JiN4YTsJCQk8dGl0bGUgaWQ9InRpdGxlNTYzNzQiPlNoZWV0LjU3NjM8L3RpdGxlPiYjeGE7CQkJPHBhdGggaWQ9InBhdGg1NjM3NiIgaW5rc2NhcGU6Y29ubmVjdG9yLWN1cnZhdHVyZT0iMCIgc3R5bGU9ImZpbGw6IzI3QTlFMTtmaWxsLW9wYWNpdHk6MC42OyIgZD0iTTMxLjUsNDYuNzUgICAgIGMtMC4yNy00Ljk4LTQuNTItOC44LTkuNS04LjU0Yy0yLjc0LDAuMTUtNS4yNiwxLjUzLTYuODYsMy43NmMtMy4xMy0yLjQxLTcuNjItMS44My0xMC4wMywxLjI5Yy0xLjM0LDEuNzQtMS44MSw0LTEuMjcsNi4xMyAgICAgYy0zLjQyLDEuNTQtNC45NCw1LjU3LTMuMzksOC45OWMxLjEsMi40MywzLjUyLDQsNi4xOSwzLjk5aDIzYzQuMzgtMC4wMSw3LjkyLTMuNTYsNy45MS03Ljk0ICAgICBDMzcuNTQsNTAuNzksMzUuMDQsNDcuNjEsMzEuNSw0Ni43NXoiLz4mI3hhOwkJPC9nPiYjeGE7CQk8ZyBpZD0ic2hhcGU1NzY0LTYiIHRyYW5zZm9ybT0idHJhbnNsYXRlKDguODU4MjQpIj4mI3hhOwkJCTx0aXRsZSBpZD0idGl0bGU1NjM3OSI+U2hlZXQuNTc2NDwvdGl0bGU+JiN4YTsJCQk8cGF0aCBpZD0icGF0aDU2MzgxIiBpbmtzY2FwZTpjb25uZWN0b3ItY3VydmF0dXJlPSIwIiBzdHlsZT0iZmlsbDojNjcyQTdBOyIgZD0iTTAuNzYsNDEuMTdDMC4zNCw0MS4xNywwLDQxLjUxLDAsNDEuOTMgICAgIGMwLDAsMCwwLDAsMGwwLDE5LjY4YzAsMC40MiwwLjM0LDAuNzYsMC43NiwwLjc2YzAsMCwwLDAsMCwwbDE4LjE3LDBjMC40MiwwLDAuNzYtMC4zNCwwLjc2LTAuNzZsMC0xOS42OSAgICAgYzAtMC40Mi0wLjM0LTAuNzYtMC43Ni0wLjc2aDBMMC43Niw0MS4xN3oiLz4mI3hhOwkJPC9nPiYjeGE7CQk8ZyBpZD0ic2hhcGU1NzY1LTgiIHRyYW5zZm9ybT0idHJhbnNsYXRlKDIwLjE3ODEsLTI1Ljc0NDMpIj4mI3hhOwkJCTx0aXRsZSBpZD0idGl0bGU1NjM4NCI+U2hlZXQuNTc2NTwvdGl0bGU+JiN4YTsJCTwvZz4mI3hhOwkJPGcgaWQ9InNoYXBlNTc2Ni05IiB0cmFuc2Zvcm09InRyYW5zbGF0ZSgyNi4yMzU2LC0yMi43MTU1KSI+JiN4YTsJCQk8dGl0bGUgaWQ9InRpdGxlNTYzODciPlNoZWV0LjU3NjY8L3RpdGxlPiYjeGE7CQk8L2c+JiN4YTsJCTxnIGlkPSJzaGFwZTU3NjctMTAiIHRyYW5zZm9ybT0idHJhbnNsYXRlKDE0LjkxNTcsLTIxLjIwMTIpIj4mI3hhOwkJCTx0aXRsZSBpZD0idGl0bGU1NjM5MCI+U2hlZXQuNTc2NzwvdGl0bGU+JiN4YTsJCQk8cGF0aCBpZD0icGF0aDU2MzkyIiBpbmtzY2FwZTpjb25uZWN0b3ItY3VydmF0dXJlPSIwIiBzdHlsZT0iZmlsbDojRkZGRkZGOyIgZD0iTTIuMjcsNjIuMzd2LTUuM0gwbDMuNzktNS4zbDMuNzgsNS4zSDUuM3Y1LjMgICAgIEgyLjI3eiIvPiYjeGE7CQk8L2c+JiN4YTsJCTxnIGlkPSJzaGFwZTU3NjgtMTIiIHRyYW5zZm9ybT0idHJhbnNsYXRlKDIwLjE3ODEsLTI1Ljc0NDMpIj4mI3hhOwkJCTx0aXRsZSBpZD0idGl0bGU1NjM5NSI+U2hlZXQuNTc2ODwvdGl0bGU+JiN4YTsJCTwvZz4mI3hhOwkJPGcgaWQ9InNoYXBlNTc2OS0xMyIgdHJhbnNmb3JtPSJ0cmFuc2xhdGUoMTEuMTI5OCwtMi4yNzE1NSkiPiYjeGE7CQkJPHRpdGxlIGlkPSJ0aXRsZTU2Mzk4Ij5TaGVldC41NzY5PC90aXRsZT4mI3hhOwkJCTxwYXRoIGlkPSJwYXRoNTY0MDAiIGlua3NjYXBlOmNvbm5lY3Rvci1jdXJ2YXR1cmU9IjAiIHN0eWxlPSJmaWxsOiNCOTIwMjU7ZmlsbC1vcGFjaXR5OjAuMzsiIGQ9Ik0xMy42Myw0NS43MUgwdjE2LjY2aDE1LjE0ICAgICBWNDUuNzFIMTMuNjN6IE00LjU0LDYwLjg1SDEuNTFWNDcuMjJoMy4wM1Y2MC44NXogTTkuMDksNjAuODVINi4wNlY0Ny4yMmgzLjAzVjYwLjg1eiBNMTMuNjMsNjAuODVIMTAuNlY0Ny4yMmgzLjAzVjYwLjg1eiIvPiYjeGE7CQk8L2c+JiN4YTsJCTxnIGlkPSJzaGFwZTU3NzAtMTUiIHRyYW5zZm9ybT0idHJhbnNsYXRlKDExLjEyOTgsLTIuMjcxNTUpIj4mI3hhOwkJCTx0aXRsZSBpZD0idGl0bGU1NjQwMyI+U2hlZXQuNTc3MDwvdGl0bGU+JiN4YTsJCQk8cGF0aCBpZD0icGF0aDU2NDA1IiBpbmtzY2FwZTpjb25uZWN0b3ItY3VydmF0dXJlPSIwIiBzdHlsZT0iZmlsbDojRkZGRkZGOyIgZD0iTTEzLjYzLDQ1LjcxSDB2MTYuNjZoMTUuMTRWNDUuNzFIMTMuNjN6ICAgICAgTTQuNTQsNjAuODVIMS41MVY0Ny4yMmgzLjAzVjYwLjg1eiBNOS4wOSw2MC44NUg2LjA2VjQ3LjIyaDMuMDNWNjAuODV6IE0xMy42Myw2MC44NUgxMC42VjQ3LjIyaDMuMDNWNjAuODV6Ii8+JiN4YTsJCTwvZz4mI3hhOwk8L2c+JiN4YTs8L2c+JiN4YTs8L3N2Zz4=;fillColor=#CCCCCC;" vertex="1" parent="1">
          <mxGeometry x="110.62" y="423.59999999999997" width="48.75" height="48.75" as="geometry" />
        </mxCell>
        <mxCell id="3jxLnCF12T15F944jgeX-84" value="" style="shape=image;verticalLabelPosition=bottom;labelBackgroundColor=#ffffff;verticalAlign=top;aspect=fixed;imageAspect=0;image=data:image/svg+xml,PHN2ZyB4bWxuczpjYz0iaHR0cDovL2NyZWF0aXZlY29tbW9ucy5vcmcvbnMjIiB4bWxuczpkYz0iaHR0cDovL3B1cmwub3JnL2RjL2VsZW1lbnRzLzEuMS8iIHhtbG5zOmlua3NjYXBlPSJodHRwOi8vd3d3Lmlua3NjYXBlLm9yZy9uYW1lc3BhY2VzL2lua3NjYXBlIiB4bWxuczpyZGY9Imh0dHA6Ly93d3cudzMub3JnLzE5OTkvMDIvMjItcmRmLXN5bnRheC1ucyMiIHhtbG5zOnNvZGlwb2RpPSJodHRwOi8vc29kaXBvZGkuc291cmNlZm9yZ2UubmV0L0RURC9zb2RpcG9kaS0wLmR0ZCIgeG1sbnM6c3ZnPSJodHRwOi8vd3d3LnczLm9yZy8yMDAwL3N2ZyIgeG1sbnM9Imh0dHA6Ly93d3cudzMub3JnLzIwMDAvc3ZnIiB4bWxuczp4bGluaz0iaHR0cDovL3d3dy53My5vcmcvMTk5OS94bGluayIgdmVyc2lvbj0iMS4xIiBpZD0ic3ZnNTY0MTEiIGlua3NjYXBlOnZlcnNpb249IjAuOTIuMyAoMjQwNTU0NiwgMjAxOC0wMy0xMSkiIHNvZGlwb2RpOmRvY25hbWU9ImF6dXJlX2NvbnRhaW5lcl9pbnN0YW5jZXMuc3ZnIiB4PSIwcHgiIHk9IjBweCIgdmlld0JveD0iMCAwIDM3LjcgMzcuOCIgc3R5bGU9ImVuYWJsZS1iYWNrZ3JvdW5kOm5ldyAwIDAgMzcuNyAzNy44OyIgeG1sOnNwYWNlPSJwcmVzZXJ2ZSI+JiN4YTs8c29kaXBvZGk6bmFtZWR2aWV3IGJvcmRlcmNvbG9yPSIjNjY2NjY2IiBib3JkZXJvcGFjaXR5PSIxIiBmaXQtbWFyZ2luLWJvdHRvbT0iMCIgZml0LW1hcmdpbi1sZWZ0PSIwIiBmaXQtbWFyZ2luLXJpZ2h0PSIwIiBmaXQtbWFyZ2luLXRvcD0iMCIgZ3JpZHRvbGVyYW5jZT0iMTAiIGd1aWRldG9sZXJhbmNlPSIxMCIgaWQ9Im5hbWVkdmlldzU2NDEzIiBpbmtzY2FwZTpjdXJyZW50LWxheWVyPSJzdmc1NjQxMSIgaW5rc2NhcGU6Y3g9IjI3LjYxODI3MyIgaW5rc2NhcGU6Y3k9IjIyLjQ3Mzg3NCIgaW5rc2NhcGU6cGFnZW9wYWNpdHk9IjAiIGlua3NjYXBlOnBhZ2VzaGFkb3c9IjIiIGlua3NjYXBlOndpbmRvdy1oZWlnaHQ9IjEwMTciIGlua3NjYXBlOndpbmRvdy1tYXhpbWl6ZWQ9IjEiIGlua3NjYXBlOndpbmRvdy13aWR0aD0iMTkyMCIgaW5rc2NhcGU6d2luZG93LXg9Ii04IiBpbmtzY2FwZTp3aW5kb3cteT0iLTgiIGlua3NjYXBlOnpvb209IjEwLjQyNTkxNCIgb2JqZWN0dG9sZXJhbmNlPSIxMCIgcGFnZWNvbG9yPSIjZmZmZmZmIiBzaG93Z3JpZD0iZmFsc2UiPiYjeGE7CTwvc29kaXBvZGk6bmFtZWR2aWV3PiYjeGE7PGcgaWQ9Imc1NjQwOSIgdHJhbnNmb3JtPSJ0cmFuc2xhdGUoLTEyLjI4NjgzNiwtMTIuMjgyMzczKSI+JiN4YTsJPHRpdGxlIGlkPSJ0aXRsZTU2MzY1Ij5QYWdlLTE8L3RpdGxlPiYjeGE7CTxnIGlkPSJncm91cDU3NjEtMSIgdHJhbnNmb3JtPSJ0cmFuc2xhdGUoMTIuNDQxOCwtMTIuMjg5MikiPiYjeGE7CQk8dGl0bGUgaWQ9InRpdGxlNTYzNjciPkF6dXJlIENvbnRhaW5lciBJbnN0YW5jZXM8L3RpdGxlPiYjeGE7CQk8ZyBpZD0ic2hhcGU1NzYyLTIiIHRyYW5zZm9ybT0idHJhbnNsYXRlKDAsLTEzLjYyOTMpIj4mI3hhOwkJCTx0aXRsZSBpZD0idGl0bGU1NjM2OSI+U2hlZXQuNTc2MjwvdGl0bGU+JiN4YTsJCQk8cGF0aCBpZD0icGF0aDU2MzcxIiBpbmtzY2FwZTpjb25uZWN0b3ItY3VydmF0dXJlPSIwIiBzdHlsZT0iZmlsbDojRkZGRkZGOyIgZD0iTTMxLjUsNDYuNzVjLTAuMjctNC45OC00LjUyLTguOC05LjUtOC41NCAgICAgYy0yLjc0LDAuMTUtNS4yNiwxLjUzLTYuODYsMy43NmMtMy4xMy0yLjQxLTcuNjItMS44My0xMC4wMywxLjI5Yy0xLjM0LDEuNzQtMS44MSw0LTEuMjcsNi4xM2MtMy40MiwxLjU0LTQuOTQsNS41Ny0zLjM5LDguOTkgICAgIGMxLjEsMi40MywzLjUyLDQsNi4xOSwzLjk5aDIzYzQuMzgtMC4wMSw3LjkyLTMuNTYsNy45MS03Ljk0QzM3LjU0LDUwLjc5LDM1LjA0LDQ3LjYxLDMxLjUsNDYuNzV6Ii8+JiN4YTsJCTwvZz4mI3hhOwkJPGcgaWQ9InNoYXBlNTc2My00IiB0cmFuc2Zvcm09InRyYW5zbGF0ZSgwLC0xMy42MjkzKSI+JiN4YTsJCQk8dGl0bGUgaWQ9InRpdGxlNTYzNzQiPlNoZWV0LjU3NjM8L3RpdGxlPiYjeGE7CQkJPHBhdGggaWQ9InBhdGg1NjM3NiIgaW5rc2NhcGU6Y29ubmVjdG9yLWN1cnZhdHVyZT0iMCIgc3R5bGU9ImZpbGw6IzI3QTlFMTtmaWxsLW9wYWNpdHk6MC42OyIgZD0iTTMxLjUsNDYuNzUgICAgIGMtMC4yNy00Ljk4LTQuNTItOC44LTkuNS04LjU0Yy0yLjc0LDAuMTUtNS4yNiwxLjUzLTYuODYsMy43NmMtMy4xMy0yLjQxLTcuNjItMS44My0xMC4wMywxLjI5Yy0xLjM0LDEuNzQtMS44MSw0LTEuMjcsNi4xMyAgICAgYy0zLjQyLDEuNTQtNC45NCw1LjU3LTMuMzksOC45OWMxLjEsMi40MywzLjUyLDQsNi4xOSwzLjk5aDIzYzQuMzgtMC4wMSw3LjkyLTMuNTYsNy45MS03Ljk0ICAgICBDMzcuNTQsNTAuNzksMzUuMDQsNDcuNjEsMzEuNSw0Ni43NXoiLz4mI3hhOwkJPC9nPiYjeGE7CQk8ZyBpZD0ic2hhcGU1NzY0LTYiIHRyYW5zZm9ybT0idHJhbnNsYXRlKDguODU4MjQpIj4mI3hhOwkJCTx0aXRsZSBpZD0idGl0bGU1NjM3OSI+U2hlZXQuNTc2NDwvdGl0bGU+JiN4YTsJCQk8cGF0aCBpZD0icGF0aDU2MzgxIiBpbmtzY2FwZTpjb25uZWN0b3ItY3VydmF0dXJlPSIwIiBzdHlsZT0iZmlsbDojNjcyQTdBOyIgZD0iTTAuNzYsNDEuMTdDMC4zNCw0MS4xNywwLDQxLjUxLDAsNDEuOTMgICAgIGMwLDAsMCwwLDAsMGwwLDE5LjY4YzAsMC40MiwwLjM0LDAuNzYsMC43NiwwLjc2YzAsMCwwLDAsMCwwbDE4LjE3LDBjMC40MiwwLDAuNzYtMC4zNCwwLjc2LTAuNzZsMC0xOS42OSAgICAgYzAtMC40Mi0wLjM0LTAuNzYtMC43Ni0wLjc2aDBMMC43Niw0MS4xN3oiLz4mI3hhOwkJPC9nPiYjeGE7CQk8ZyBpZD0ic2hhcGU1NzY1LTgiIHRyYW5zZm9ybT0idHJhbnNsYXRlKDIwLjE3ODEsLTI1Ljc0NDMpIj4mI3hhOwkJCTx0aXRsZSBpZD0idGl0bGU1NjM4NCI+U2hlZXQuNTc2NTwvdGl0bGU+JiN4YTsJCTwvZz4mI3hhOwkJPGcgaWQ9InNoYXBlNTc2Ni05IiB0cmFuc2Zvcm09InRyYW5zbGF0ZSgyNi4yMzU2LC0yMi43MTU1KSI+JiN4YTsJCQk8dGl0bGUgaWQ9InRpdGxlNTYzODciPlNoZWV0LjU3NjY8L3RpdGxlPiYjeGE7CQk8L2c+JiN4YTsJCTxnIGlkPSJzaGFwZTU3NjctMTAiIHRyYW5zZm9ybT0idHJhbnNsYXRlKDE0LjkxNTcsLTIxLjIwMTIpIj4mI3hhOwkJCTx0aXRsZSBpZD0idGl0bGU1NjM5MCI+U2hlZXQuNTc2NzwvdGl0bGU+JiN4YTsJCQk8cGF0aCBpZD0icGF0aDU2MzkyIiBpbmtzY2FwZTpjb25uZWN0b3ItY3VydmF0dXJlPSIwIiBzdHlsZT0iZmlsbDojRkZGRkZGOyIgZD0iTTIuMjcsNjIuMzd2LTUuM0gwbDMuNzktNS4zbDMuNzgsNS4zSDUuM3Y1LjMgICAgIEgyLjI3eiIvPiYjeGE7CQk8L2c+JiN4YTsJCTxnIGlkPSJzaGFwZTU3NjgtMTIiIHRyYW5zZm9ybT0idHJhbnNsYXRlKDIwLjE3ODEsLTI1Ljc0NDMpIj4mI3hhOwkJCTx0aXRsZSBpZD0idGl0bGU1NjM5NSI+U2hlZXQuNTc2ODwvdGl0bGU+JiN4YTsJCTwvZz4mI3hhOwkJPGcgaWQ9InNoYXBlNTc2OS0xMyIgdHJhbnNmb3JtPSJ0cmFuc2xhdGUoMTEuMTI5OCwtMi4yNzE1NSkiPiYjeGE7CQkJPHRpdGxlIGlkPSJ0aXRsZTU2Mzk4Ij5TaGVldC41NzY5PC90aXRsZT4mI3hhOwkJCTxwYXRoIGlkPSJwYXRoNTY0MDAiIGlua3NjYXBlOmNvbm5lY3Rvci1jdXJ2YXR1cmU9IjAiIHN0eWxlPSJmaWxsOiNCOTIwMjU7ZmlsbC1vcGFjaXR5OjAuMzsiIGQ9Ik0xMy42Myw0NS43MUgwdjE2LjY2aDE1LjE0ICAgICBWNDUuNzFIMTMuNjN6IE00LjU0LDYwLjg1SDEuNTFWNDcuMjJoMy4wM1Y2MC44NXogTTkuMDksNjAuODVINi4wNlY0Ny4yMmgzLjAzVjYwLjg1eiBNMTMuNjMsNjAuODVIMTAuNlY0Ny4yMmgzLjAzVjYwLjg1eiIvPiYjeGE7CQk8L2c+JiN4YTsJCTxnIGlkPSJzaGFwZTU3NzAtMTUiIHRyYW5zZm9ybT0idHJhbnNsYXRlKDExLjEyOTgsLTIuMjcxNTUpIj4mI3hhOwkJCTx0aXRsZSBpZD0idGl0bGU1NjQwMyI+U2hlZXQuNTc3MDwvdGl0bGU+JiN4YTsJCQk8cGF0aCBpZD0icGF0aDU2NDA1IiBpbmtzY2FwZTpjb25uZWN0b3ItY3VydmF0dXJlPSIwIiBzdHlsZT0iZmlsbDojRkZGRkZGOyIgZD0iTTEzLjYzLDQ1LjcxSDB2MTYuNjZoMTUuMTRWNDUuNzFIMTMuNjN6ICAgICAgTTQuNTQsNjAuODVIMS41MVY0Ny4yMmgzLjAzVjYwLjg1eiBNOS4wOSw2MC44NUg2LjA2VjQ3LjIyaDMuMDNWNjAuODV6IE0xMy42Myw2MC44NUgxMC42VjQ3LjIyaDMuMDNWNjAuODV6Ii8+JiN4YTsJCTwvZz4mI3hhOwk8L2c+JiN4YTs8L2c+JiN4YTs8L3N2Zz4=;fillColor=#CCCCCC;" vertex="1" parent="1">
          <mxGeometry x="340.63" y="278.59" width="48.75" height="48.75" as="geometry" />
        </mxCell>
        <mxCell id="3jxLnCF12T15F944jgeX-85" value="" style="shape=image;verticalLabelPosition=bottom;labelBackgroundColor=#ffffff;verticalAlign=top;aspect=fixed;imageAspect=0;image=data:image/svg+xml,PHN2ZyB4bWxuczpjYz0iaHR0cDovL2NyZWF0aXZlY29tbW9ucy5vcmcvbnMjIiB4bWxuczpkYz0iaHR0cDovL3B1cmwub3JnL2RjL2VsZW1lbnRzLzEuMS8iIHhtbG5zOmlua3NjYXBlPSJodHRwOi8vd3d3Lmlua3NjYXBlLm9yZy9uYW1lc3BhY2VzL2lua3NjYXBlIiB4bWxuczpyZGY9Imh0dHA6Ly93d3cudzMub3JnLzE5OTkvMDIvMjItcmRmLXN5bnRheC1ucyMiIHhtbG5zOnNvZGlwb2RpPSJodHRwOi8vc29kaXBvZGkuc291cmNlZm9yZ2UubmV0L0RURC9zb2RpcG9kaS0wLmR0ZCIgeG1sbnM6c3ZnPSJodHRwOi8vd3d3LnczLm9yZy8yMDAwL3N2ZyIgeG1sbnM9Imh0dHA6Ly93d3cudzMub3JnLzIwMDAvc3ZnIiB4bWxuczp4bGluaz0iaHR0cDovL3d3dy53My5vcmcvMTk5OS94bGluayIgdmVyc2lvbj0iMS4xIiBpZD0ic3ZnNTY0MTEiIGlua3NjYXBlOnZlcnNpb249IjAuOTIuMyAoMjQwNTU0NiwgMjAxOC0wMy0xMSkiIHNvZGlwb2RpOmRvY25hbWU9ImF6dXJlX2NvbnRhaW5lcl9pbnN0YW5jZXMuc3ZnIiB4PSIwcHgiIHk9IjBweCIgdmlld0JveD0iMCAwIDM3LjcgMzcuOCIgc3R5bGU9ImVuYWJsZS1iYWNrZ3JvdW5kOm5ldyAwIDAgMzcuNyAzNy44OyIgeG1sOnNwYWNlPSJwcmVzZXJ2ZSI+JiN4YTs8c29kaXBvZGk6bmFtZWR2aWV3IGJvcmRlcmNvbG9yPSIjNjY2NjY2IiBib3JkZXJvcGFjaXR5PSIxIiBmaXQtbWFyZ2luLWJvdHRvbT0iMCIgZml0LW1hcmdpbi1sZWZ0PSIwIiBmaXQtbWFyZ2luLXJpZ2h0PSIwIiBmaXQtbWFyZ2luLXRvcD0iMCIgZ3JpZHRvbGVyYW5jZT0iMTAiIGd1aWRldG9sZXJhbmNlPSIxMCIgaWQ9Im5hbWVkdmlldzU2NDEzIiBpbmtzY2FwZTpjdXJyZW50LWxheWVyPSJzdmc1NjQxMSIgaW5rc2NhcGU6Y3g9IjI3LjYxODI3MyIgaW5rc2NhcGU6Y3k9IjIyLjQ3Mzg3NCIgaW5rc2NhcGU6cGFnZW9wYWNpdHk9IjAiIGlua3NjYXBlOnBhZ2VzaGFkb3c9IjIiIGlua3NjYXBlOndpbmRvdy1oZWlnaHQ9IjEwMTciIGlua3NjYXBlOndpbmRvdy1tYXhpbWl6ZWQ9IjEiIGlua3NjYXBlOndpbmRvdy13aWR0aD0iMTkyMCIgaW5rc2NhcGU6d2luZG93LXg9Ii04IiBpbmtzY2FwZTp3aW5kb3cteT0iLTgiIGlua3NjYXBlOnpvb209IjEwLjQyNTkxNCIgb2JqZWN0dG9sZXJhbmNlPSIxMCIgcGFnZWNvbG9yPSIjZmZmZmZmIiBzaG93Z3JpZD0iZmFsc2UiPiYjeGE7CTwvc29kaXBvZGk6bmFtZWR2aWV3PiYjeGE7PGcgaWQ9Imc1NjQwOSIgdHJhbnNmb3JtPSJ0cmFuc2xhdGUoLTEyLjI4NjgzNiwtMTIuMjgyMzczKSI+JiN4YTsJPHRpdGxlIGlkPSJ0aXRsZTU2MzY1Ij5QYWdlLTE8L3RpdGxlPiYjeGE7CTxnIGlkPSJncm91cDU3NjEtMSIgdHJhbnNmb3JtPSJ0cmFuc2xhdGUoMTIuNDQxOCwtMTIuMjg5MikiPiYjeGE7CQk8dGl0bGUgaWQ9InRpdGxlNTYzNjciPkF6dXJlIENvbnRhaW5lciBJbnN0YW5jZXM8L3RpdGxlPiYjeGE7CQk8ZyBpZD0ic2hhcGU1NzYyLTIiIHRyYW5zZm9ybT0idHJhbnNsYXRlKDAsLTEzLjYyOTMpIj4mI3hhOwkJCTx0aXRsZSBpZD0idGl0bGU1NjM2OSI+U2hlZXQuNTc2MjwvdGl0bGU+JiN4YTsJCQk8cGF0aCBpZD0icGF0aDU2MzcxIiBpbmtzY2FwZTpjb25uZWN0b3ItY3VydmF0dXJlPSIwIiBzdHlsZT0iZmlsbDojRkZGRkZGOyIgZD0iTTMxLjUsNDYuNzVjLTAuMjctNC45OC00LjUyLTguOC05LjUtOC41NCAgICAgYy0yLjc0LDAuMTUtNS4yNiwxLjUzLTYuODYsMy43NmMtMy4xMy0yLjQxLTcuNjItMS44My0xMC4wMywxLjI5Yy0xLjM0LDEuNzQtMS44MSw0LTEuMjcsNi4xM2MtMy40MiwxLjU0LTQuOTQsNS41Ny0zLjM5LDguOTkgICAgIGMxLjEsMi40MywzLjUyLDQsNi4xOSwzLjk5aDIzYzQuMzgtMC4wMSw3LjkyLTMuNTYsNy45MS03Ljk0QzM3LjU0LDUwLjc5LDM1LjA0LDQ3LjYxLDMxLjUsNDYuNzV6Ii8+JiN4YTsJCTwvZz4mI3hhOwkJPGcgaWQ9InNoYXBlNTc2My00IiB0cmFuc2Zvcm09InRyYW5zbGF0ZSgwLC0xMy42MjkzKSI+JiN4YTsJCQk8dGl0bGUgaWQ9InRpdGxlNTYzNzQiPlNoZWV0LjU3NjM8L3RpdGxlPiYjeGE7CQkJPHBhdGggaWQ9InBhdGg1NjM3NiIgaW5rc2NhcGU6Y29ubmVjdG9yLWN1cnZhdHVyZT0iMCIgc3R5bGU9ImZpbGw6IzI3QTlFMTtmaWxsLW9wYWNpdHk6MC42OyIgZD0iTTMxLjUsNDYuNzUgICAgIGMtMC4yNy00Ljk4LTQuNTItOC44LTkuNS04LjU0Yy0yLjc0LDAuMTUtNS4yNiwxLjUzLTYuODYsMy43NmMtMy4xMy0yLjQxLTcuNjItMS44My0xMC4wMywxLjI5Yy0xLjM0LDEuNzQtMS44MSw0LTEuMjcsNi4xMyAgICAgYy0zLjQyLDEuNTQtNC45NCw1LjU3LTMuMzksOC45OWMxLjEsMi40MywzLjUyLDQsNi4xOSwzLjk5aDIzYzQuMzgtMC4wMSw3LjkyLTMuNTYsNy45MS03Ljk0ICAgICBDMzcuNTQsNTAuNzksMzUuMDQsNDcuNjEsMzEuNSw0Ni43NXoiLz4mI3hhOwkJPC9nPiYjeGE7CQk8ZyBpZD0ic2hhcGU1NzY0LTYiIHRyYW5zZm9ybT0idHJhbnNsYXRlKDguODU4MjQpIj4mI3hhOwkJCTx0aXRsZSBpZD0idGl0bGU1NjM3OSI+U2hlZXQuNTc2NDwvdGl0bGU+JiN4YTsJCQk8cGF0aCBpZD0icGF0aDU2MzgxIiBpbmtzY2FwZTpjb25uZWN0b3ItY3VydmF0dXJlPSIwIiBzdHlsZT0iZmlsbDojNjcyQTdBOyIgZD0iTTAuNzYsNDEuMTdDMC4zNCw0MS4xNywwLDQxLjUxLDAsNDEuOTMgICAgIGMwLDAsMCwwLDAsMGwwLDE5LjY4YzAsMC40MiwwLjM0LDAuNzYsMC43NiwwLjc2YzAsMCwwLDAsMCwwbDE4LjE3LDBjMC40MiwwLDAuNzYtMC4zNCwwLjc2LTAuNzZsMC0xOS42OSAgICAgYzAtMC40Mi0wLjM0LTAuNzYtMC43Ni0wLjc2aDBMMC43Niw0MS4xN3oiLz4mI3hhOwkJPC9nPiYjeGE7CQk8ZyBpZD0ic2hhcGU1NzY1LTgiIHRyYW5zZm9ybT0idHJhbnNsYXRlKDIwLjE3ODEsLTI1Ljc0NDMpIj4mI3hhOwkJCTx0aXRsZSBpZD0idGl0bGU1NjM4NCI+U2hlZXQuNTc2NTwvdGl0bGU+JiN4YTsJCTwvZz4mI3hhOwkJPGcgaWQ9InNoYXBlNTc2Ni05IiB0cmFuc2Zvcm09InRyYW5zbGF0ZSgyNi4yMzU2LC0yMi43MTU1KSI+JiN4YTsJCQk8dGl0bGUgaWQ9InRpdGxlNTYzODciPlNoZWV0LjU3NjY8L3RpdGxlPiYjeGE7CQk8L2c+JiN4YTsJCTxnIGlkPSJzaGFwZTU3NjctMTAiIHRyYW5zZm9ybT0idHJhbnNsYXRlKDE0LjkxNTcsLTIxLjIwMTIpIj4mI3hhOwkJCTx0aXRsZSBpZD0idGl0bGU1NjM5MCI+U2hlZXQuNTc2NzwvdGl0bGU+JiN4YTsJCQk8cGF0aCBpZD0icGF0aDU2MzkyIiBpbmtzY2FwZTpjb25uZWN0b3ItY3VydmF0dXJlPSIwIiBzdHlsZT0iZmlsbDojRkZGRkZGOyIgZD0iTTIuMjcsNjIuMzd2LTUuM0gwbDMuNzktNS4zbDMuNzgsNS4zSDUuM3Y1LjMgICAgIEgyLjI3eiIvPiYjeGE7CQk8L2c+JiN4YTsJCTxnIGlkPSJzaGFwZTU3NjgtMTIiIHRyYW5zZm9ybT0idHJhbnNsYXRlKDIwLjE3ODEsLTI1Ljc0NDMpIj4mI3hhOwkJCTx0aXRsZSBpZD0idGl0bGU1NjM5NSI+U2hlZXQuNTc2ODwvdGl0bGU+JiN4YTsJCTwvZz4mI3hhOwkJPGcgaWQ9InNoYXBlNTc2OS0xMyIgdHJhbnNmb3JtPSJ0cmFuc2xhdGUoMTEuMTI5OCwtMi4yNzE1NSkiPiYjeGE7CQkJPHRpdGxlIGlkPSJ0aXRsZTU2Mzk4Ij5TaGVldC41NzY5PC90aXRsZT4mI3hhOwkJCTxwYXRoIGlkPSJwYXRoNTY0MDAiIGlua3NjYXBlOmNvbm5lY3Rvci1jdXJ2YXR1cmU9IjAiIHN0eWxlPSJmaWxsOiNCOTIwMjU7ZmlsbC1vcGFjaXR5OjAuMzsiIGQ9Ik0xMy42Myw0NS43MUgwdjE2LjY2aDE1LjE0ICAgICBWNDUuNzFIMTMuNjN6IE00LjU0LDYwLjg1SDEuNTFWNDcuMjJoMy4wM1Y2MC44NXogTTkuMDksNjAuODVINi4wNlY0Ny4yMmgzLjAzVjYwLjg1eiBNMTMuNjMsNjAuODVIMTAuNlY0Ny4yMmgzLjAzVjYwLjg1eiIvPiYjeGE7CQk8L2c+JiN4YTsJCTxnIGlkPSJzaGFwZTU3NzAtMTUiIHRyYW5zZm9ybT0idHJhbnNsYXRlKDExLjEyOTgsLTIuMjcxNTUpIj4mI3hhOwkJCTx0aXRsZSBpZD0idGl0bGU1NjQwMyI+U2hlZXQuNTc3MDwvdGl0bGU+JiN4YTsJCQk8cGF0aCBpZD0icGF0aDU2NDA1IiBpbmtzY2FwZTpjb25uZWN0b3ItY3VydmF0dXJlPSIwIiBzdHlsZT0iZmlsbDojRkZGRkZGOyIgZD0iTTEzLjYzLDQ1LjcxSDB2MTYuNjZoMTUuMTRWNDUuNzFIMTMuNjN6ICAgICAgTTQuNTQsNjAuODVIMS41MVY0Ny4yMmgzLjAzVjYwLjg1eiBNOS4wOSw2MC44NUg2LjA2VjQ3LjIyaDMuMDNWNjAuODV6IE0xMy42Myw2MC44NUgxMC42VjQ3LjIyaDMuMDNWNjAuODV6Ii8+JiN4YTsJCTwvZz4mI3hhOwk8L2c+JiN4YTs8L2c+JiN4YTs8L3N2Zz4=;fillColor=#CCCCCC;" vertex="1" parent="1">
          <mxGeometry x="340.63" y="351.84" width="48.75" height="48.75" as="geometry" />
        </mxCell>
        <mxCell id="3jxLnCF12T15F944jgeX-86" value="" style="shape=image;verticalLabelPosition=bottom;labelBackgroundColor=#ffffff;verticalAlign=top;aspect=fixed;imageAspect=0;image=data:image/svg+xml,PHN2ZyB4bWxuczpjYz0iaHR0cDovL2NyZWF0aXZlY29tbW9ucy5vcmcvbnMjIiB4bWxuczpkYz0iaHR0cDovL3B1cmwub3JnL2RjL2VsZW1lbnRzLzEuMS8iIHhtbG5zOmlua3NjYXBlPSJodHRwOi8vd3d3Lmlua3NjYXBlLm9yZy9uYW1lc3BhY2VzL2lua3NjYXBlIiB4bWxuczpyZGY9Imh0dHA6Ly93d3cudzMub3JnLzE5OTkvMDIvMjItcmRmLXN5bnRheC1ucyMiIHhtbG5zOnNvZGlwb2RpPSJodHRwOi8vc29kaXBvZGkuc291cmNlZm9yZ2UubmV0L0RURC9zb2RpcG9kaS0wLmR0ZCIgeG1sbnM6c3ZnPSJodHRwOi8vd3d3LnczLm9yZy8yMDAwL3N2ZyIgeG1sbnM9Imh0dHA6Ly93d3cudzMub3JnLzIwMDAvc3ZnIiB4bWxuczp4bGluaz0iaHR0cDovL3d3dy53My5vcmcvMTk5OS94bGluayIgdmVyc2lvbj0iMS4xIiBpZD0ic3ZnNTY0MTEiIGlua3NjYXBlOnZlcnNpb249IjAuOTIuMyAoMjQwNTU0NiwgMjAxOC0wMy0xMSkiIHNvZGlwb2RpOmRvY25hbWU9ImF6dXJlX2NvbnRhaW5lcl9pbnN0YW5jZXMuc3ZnIiB4PSIwcHgiIHk9IjBweCIgdmlld0JveD0iMCAwIDM3LjcgMzcuOCIgc3R5bGU9ImVuYWJsZS1iYWNrZ3JvdW5kOm5ldyAwIDAgMzcuNyAzNy44OyIgeG1sOnNwYWNlPSJwcmVzZXJ2ZSI+JiN4YTs8c29kaXBvZGk6bmFtZWR2aWV3IGJvcmRlcmNvbG9yPSIjNjY2NjY2IiBib3JkZXJvcGFjaXR5PSIxIiBmaXQtbWFyZ2luLWJvdHRvbT0iMCIgZml0LW1hcmdpbi1sZWZ0PSIwIiBmaXQtbWFyZ2luLXJpZ2h0PSIwIiBmaXQtbWFyZ2luLXRvcD0iMCIgZ3JpZHRvbGVyYW5jZT0iMTAiIGd1aWRldG9sZXJhbmNlPSIxMCIgaWQ9Im5hbWVkdmlldzU2NDEzIiBpbmtzY2FwZTpjdXJyZW50LWxheWVyPSJzdmc1NjQxMSIgaW5rc2NhcGU6Y3g9IjI3LjYxODI3MyIgaW5rc2NhcGU6Y3k9IjIyLjQ3Mzg3NCIgaW5rc2NhcGU6cGFnZW9wYWNpdHk9IjAiIGlua3NjYXBlOnBhZ2VzaGFkb3c9IjIiIGlua3NjYXBlOndpbmRvdy1oZWlnaHQ9IjEwMTciIGlua3NjYXBlOndpbmRvdy1tYXhpbWl6ZWQ9IjEiIGlua3NjYXBlOndpbmRvdy13aWR0aD0iMTkyMCIgaW5rc2NhcGU6d2luZG93LXg9Ii04IiBpbmtzY2FwZTp3aW5kb3cteT0iLTgiIGlua3NjYXBlOnpvb209IjEwLjQyNTkxNCIgb2JqZWN0dG9sZXJhbmNlPSIxMCIgcGFnZWNvbG9yPSIjZmZmZmZmIiBzaG93Z3JpZD0iZmFsc2UiPiYjeGE7CTwvc29kaXBvZGk6bmFtZWR2aWV3PiYjeGE7PGcgaWQ9Imc1NjQwOSIgdHJhbnNmb3JtPSJ0cmFuc2xhdGUoLTEyLjI4NjgzNiwtMTIuMjgyMzczKSI+JiN4YTsJPHRpdGxlIGlkPSJ0aXRsZTU2MzY1Ij5QYWdlLTE8L3RpdGxlPiYjeGE7CTxnIGlkPSJncm91cDU3NjEtMSIgdHJhbnNmb3JtPSJ0cmFuc2xhdGUoMTIuNDQxOCwtMTIuMjg5MikiPiYjeGE7CQk8dGl0bGUgaWQ9InRpdGxlNTYzNjciPkF6dXJlIENvbnRhaW5lciBJbnN0YW5jZXM8L3RpdGxlPiYjeGE7CQk8ZyBpZD0ic2hhcGU1NzYyLTIiIHRyYW5zZm9ybT0idHJhbnNsYXRlKDAsLTEzLjYyOTMpIj4mI3hhOwkJCTx0aXRsZSBpZD0idGl0bGU1NjM2OSI+U2hlZXQuNTc2MjwvdGl0bGU+JiN4YTsJCQk8cGF0aCBpZD0icGF0aDU2MzcxIiBpbmtzY2FwZTpjb25uZWN0b3ItY3VydmF0dXJlPSIwIiBzdHlsZT0iZmlsbDojRkZGRkZGOyIgZD0iTTMxLjUsNDYuNzVjLTAuMjctNC45OC00LjUyLTguOC05LjUtOC41NCAgICAgYy0yLjc0LDAuMTUtNS4yNiwxLjUzLTYuODYsMy43NmMtMy4xMy0yLjQxLTcuNjItMS44My0xMC4wMywxLjI5Yy0xLjM0LDEuNzQtMS44MSw0LTEuMjcsNi4xM2MtMy40MiwxLjU0LTQuOTQsNS41Ny0zLjM5LDguOTkgICAgIGMxLjEsMi40MywzLjUyLDQsNi4xOSwzLjk5aDIzYzQuMzgtMC4wMSw3LjkyLTMuNTYsNy45MS03Ljk0QzM3LjU0LDUwLjc5LDM1LjA0LDQ3LjYxLDMxLjUsNDYuNzV6Ii8+JiN4YTsJCTwvZz4mI3hhOwkJPGcgaWQ9InNoYXBlNTc2My00IiB0cmFuc2Zvcm09InRyYW5zbGF0ZSgwLC0xMy42MjkzKSI+JiN4YTsJCQk8dGl0bGUgaWQ9InRpdGxlNTYzNzQiPlNoZWV0LjU3NjM8L3RpdGxlPiYjeGE7CQkJPHBhdGggaWQ9InBhdGg1NjM3NiIgaW5rc2NhcGU6Y29ubmVjdG9yLWN1cnZhdHVyZT0iMCIgc3R5bGU9ImZpbGw6IzI3QTlFMTtmaWxsLW9wYWNpdHk6MC42OyIgZD0iTTMxLjUsNDYuNzUgICAgIGMtMC4yNy00Ljk4LTQuNTItOC44LTkuNS04LjU0Yy0yLjc0LDAuMTUtNS4yNiwxLjUzLTYuODYsMy43NmMtMy4xMy0yLjQxLTcuNjItMS44My0xMC4wMywxLjI5Yy0xLjM0LDEuNzQtMS44MSw0LTEuMjcsNi4xMyAgICAgYy0zLjQyLDEuNTQtNC45NCw1LjU3LTMuMzksOC45OWMxLjEsMi40MywzLjUyLDQsNi4xOSwzLjk5aDIzYzQuMzgtMC4wMSw3LjkyLTMuNTYsNy45MS03Ljk0ICAgICBDMzcuNTQsNTAuNzksMzUuMDQsNDcuNjEsMzEuNSw0Ni43NXoiLz4mI3hhOwkJPC9nPiYjeGE7CQk8ZyBpZD0ic2hhcGU1NzY0LTYiIHRyYW5zZm9ybT0idHJhbnNsYXRlKDguODU4MjQpIj4mI3hhOwkJCTx0aXRsZSBpZD0idGl0bGU1NjM3OSI+U2hlZXQuNTc2NDwvdGl0bGU+JiN4YTsJCQk8cGF0aCBpZD0icGF0aDU2MzgxIiBpbmtzY2FwZTpjb25uZWN0b3ItY3VydmF0dXJlPSIwIiBzdHlsZT0iZmlsbDojNjcyQTdBOyIgZD0iTTAuNzYsNDEuMTdDMC4zNCw0MS4xNywwLDQxLjUxLDAsNDEuOTMgICAgIGMwLDAsMCwwLDAsMGwwLDE5LjY4YzAsMC40MiwwLjM0LDAuNzYsMC43NiwwLjc2YzAsMCwwLDAsMCwwbDE4LjE3LDBjMC40MiwwLDAuNzYtMC4zNCwwLjc2LTAuNzZsMC0xOS42OSAgICAgYzAtMC40Mi0wLjM0LTAuNzYtMC43Ni0wLjc2aDBMMC43Niw0MS4xN3oiLz4mI3hhOwkJPC9nPiYjeGE7CQk8ZyBpZD0ic2hhcGU1NzY1LTgiIHRyYW5zZm9ybT0idHJhbnNsYXRlKDIwLjE3ODEsLTI1Ljc0NDMpIj4mI3hhOwkJCTx0aXRsZSBpZD0idGl0bGU1NjM4NCI+U2hlZXQuNTc2NTwvdGl0bGU+JiN4YTsJCTwvZz4mI3hhOwkJPGcgaWQ9InNoYXBlNTc2Ni05IiB0cmFuc2Zvcm09InRyYW5zbGF0ZSgyNi4yMzU2LC0yMi43MTU1KSI+JiN4YTsJCQk8dGl0bGUgaWQ9InRpdGxlNTYzODciPlNoZWV0LjU3NjY8L3RpdGxlPiYjeGE7CQk8L2c+JiN4YTsJCTxnIGlkPSJzaGFwZTU3NjctMTAiIHRyYW5zZm9ybT0idHJhbnNsYXRlKDE0LjkxNTcsLTIxLjIwMTIpIj4mI3hhOwkJCTx0aXRsZSBpZD0idGl0bGU1NjM5MCI+U2hlZXQuNTc2NzwvdGl0bGU+JiN4YTsJCQk8cGF0aCBpZD0icGF0aDU2MzkyIiBpbmtzY2FwZTpjb25uZWN0b3ItY3VydmF0dXJlPSIwIiBzdHlsZT0iZmlsbDojRkZGRkZGOyIgZD0iTTIuMjcsNjIuMzd2LTUuM0gwbDMuNzktNS4zbDMuNzgsNS4zSDUuM3Y1LjMgICAgIEgyLjI3eiIvPiYjeGE7CQk8L2c+JiN4YTsJCTxnIGlkPSJzaGFwZTU3NjgtMTIiIHRyYW5zZm9ybT0idHJhbnNsYXRlKDIwLjE3ODEsLTI1Ljc0NDMpIj4mI3hhOwkJCTx0aXRsZSBpZD0idGl0bGU1NjM5NSI+U2hlZXQuNTc2ODwvdGl0bGU+JiN4YTsJCTwvZz4mI3hhOwkJPGcgaWQ9InNoYXBlNTc2OS0xMyIgdHJhbnNmb3JtPSJ0cmFuc2xhdGUoMTEuMTI5OCwtMi4yNzE1NSkiPiYjeGE7CQkJPHRpdGxlIGlkPSJ0aXRsZTU2Mzk4Ij5TaGVldC41NzY5PC90aXRsZT4mI3hhOwkJCTxwYXRoIGlkPSJwYXRoNTY0MDAiIGlua3NjYXBlOmNvbm5lY3Rvci1jdXJ2YXR1cmU9IjAiIHN0eWxlPSJmaWxsOiNCOTIwMjU7ZmlsbC1vcGFjaXR5OjAuMzsiIGQ9Ik0xMy42Myw0NS43MUgwdjE2LjY2aDE1LjE0ICAgICBWNDUuNzFIMTMuNjN6IE00LjU0LDYwLjg1SDEuNTFWNDcuMjJoMy4wM1Y2MC44NXogTTkuMDksNjAuODVINi4wNlY0Ny4yMmgzLjAzVjYwLjg1eiBNMTMuNjMsNjAuODVIMTAuNlY0Ny4yMmgzLjAzVjYwLjg1eiIvPiYjeGE7CQk8L2c+JiN4YTsJCTxnIGlkPSJzaGFwZTU3NzAtMTUiIHRyYW5zZm9ybT0idHJhbnNsYXRlKDExLjEyOTgsLTIuMjcxNTUpIj4mI3hhOwkJCTx0aXRsZSBpZD0idGl0bGU1NjQwMyI+U2hlZXQuNTc3MDwvdGl0bGU+JiN4YTsJCQk8cGF0aCBpZD0icGF0aDU2NDA1IiBpbmtzY2FwZTpjb25uZWN0b3ItY3VydmF0dXJlPSIwIiBzdHlsZT0iZmlsbDojRkZGRkZGOyIgZD0iTTEzLjYzLDQ1LjcxSDB2MTYuNjZoMTUuMTRWNDUuNzFIMTMuNjN6ICAgICAgTTQuNTQsNjAuODVIMS41MVY0Ny4yMmgzLjAzVjYwLjg1eiBNOS4wOSw2MC44NUg2LjA2VjQ3LjIyaDMuMDNWNjAuODV6IE0xMy42Myw2MC44NUgxMC42VjQ3LjIyaDMuMDNWNjAuODV6Ii8+JiN4YTsJCTwvZz4mI3hhOwk8L2c+JiN4YTs8L2c+JiN4YTs8L3N2Zz4=;fillColor=#CCCCCC;" vertex="1" parent="1">
          <mxGeometry x="346.87" y="424.21" width="48.75" height="48.75" as="geometry" />
        </mxCell>
        <mxCell id="3jxLnCF12T15F944jgeX-87" value="" style="shape=image;verticalLabelPosition=bottom;labelBackgroundColor=#ffffff;verticalAlign=top;aspect=fixed;imageAspect=0;image=data:image/svg+xml,PHN2ZyB4bWxuczpjYz0iaHR0cDovL2NyZWF0aXZlY29tbW9ucy5vcmcvbnMjIiB4bWxuczpkYz0iaHR0cDovL3B1cmwub3JnL2RjL2VsZW1lbnRzLzEuMS8iIHhtbG5zOmlua3NjYXBlPSJodHRwOi8vd3d3Lmlua3NjYXBlLm9yZy9uYW1lc3BhY2VzL2lua3NjYXBlIiB4bWxuczpyZGY9Imh0dHA6Ly93d3cudzMub3JnLzE5OTkvMDIvMjItcmRmLXN5bnRheC1ucyMiIHhtbG5zOnNvZGlwb2RpPSJodHRwOi8vc29kaXBvZGkuc291cmNlZm9yZ2UubmV0L0RURC9zb2RpcG9kaS0wLmR0ZCIgeG1sbnM6c3ZnPSJodHRwOi8vd3d3LnczLm9yZy8yMDAwL3N2ZyIgeG1sbnM9Imh0dHA6Ly93d3cudzMub3JnLzIwMDAvc3ZnIiB4bWxuczp4bGluaz0iaHR0cDovL3d3dy53My5vcmcvMTk5OS94bGluayIgdmVyc2lvbj0iMS4xIiBpZD0ic3ZnNTY0MTEiIGlua3NjYXBlOnZlcnNpb249IjAuOTIuMyAoMjQwNTU0NiwgMjAxOC0wMy0xMSkiIHNvZGlwb2RpOmRvY25hbWU9ImF6dXJlX2NvbnRhaW5lcl9pbnN0YW5jZXMuc3ZnIiB4PSIwcHgiIHk9IjBweCIgdmlld0JveD0iMCAwIDM3LjcgMzcuOCIgc3R5bGU9ImVuYWJsZS1iYWNrZ3JvdW5kOm5ldyAwIDAgMzcuNyAzNy44OyIgeG1sOnNwYWNlPSJwcmVzZXJ2ZSI+JiN4YTs8c29kaXBvZGk6bmFtZWR2aWV3IGJvcmRlcmNvbG9yPSIjNjY2NjY2IiBib3JkZXJvcGFjaXR5PSIxIiBmaXQtbWFyZ2luLWJvdHRvbT0iMCIgZml0LW1hcmdpbi1sZWZ0PSIwIiBmaXQtbWFyZ2luLXJpZ2h0PSIwIiBmaXQtbWFyZ2luLXRvcD0iMCIgZ3JpZHRvbGVyYW5jZT0iMTAiIGd1aWRldG9sZXJhbmNlPSIxMCIgaWQ9Im5hbWVkdmlldzU2NDEzIiBpbmtzY2FwZTpjdXJyZW50LWxheWVyPSJzdmc1NjQxMSIgaW5rc2NhcGU6Y3g9IjI3LjYxODI3MyIgaW5rc2NhcGU6Y3k9IjIyLjQ3Mzg3NCIgaW5rc2NhcGU6cGFnZW9wYWNpdHk9IjAiIGlua3NjYXBlOnBhZ2VzaGFkb3c9IjIiIGlua3NjYXBlOndpbmRvdy1oZWlnaHQ9IjEwMTciIGlua3NjYXBlOndpbmRvdy1tYXhpbWl6ZWQ9IjEiIGlua3NjYXBlOndpbmRvdy13aWR0aD0iMTkyMCIgaW5rc2NhcGU6d2luZG93LXg9Ii04IiBpbmtzY2FwZTp3aW5kb3cteT0iLTgiIGlua3NjYXBlOnpvb209IjEwLjQyNTkxNCIgb2JqZWN0dG9sZXJhbmNlPSIxMCIgcGFnZWNvbG9yPSIjZmZmZmZmIiBzaG93Z3JpZD0iZmFsc2UiPiYjeGE7CTwvc29kaXBvZGk6bmFtZWR2aWV3PiYjeGE7PGcgaWQ9Imc1NjQwOSIgdHJhbnNmb3JtPSJ0cmFuc2xhdGUoLTEyLjI4NjgzNiwtMTIuMjgyMzczKSI+JiN4YTsJPHRpdGxlIGlkPSJ0aXRsZTU2MzY1Ij5QYWdlLTE8L3RpdGxlPiYjeGE7CTxnIGlkPSJncm91cDU3NjEtMSIgdHJhbnNmb3JtPSJ0cmFuc2xhdGUoMTIuNDQxOCwtMTIuMjg5MikiPiYjeGE7CQk8dGl0bGUgaWQ9InRpdGxlNTYzNjciPkF6dXJlIENvbnRhaW5lciBJbnN0YW5jZXM8L3RpdGxlPiYjeGE7CQk8ZyBpZD0ic2hhcGU1NzYyLTIiIHRyYW5zZm9ybT0idHJhbnNsYXRlKDAsLTEzLjYyOTMpIj4mI3hhOwkJCTx0aXRsZSBpZD0idGl0bGU1NjM2OSI+U2hlZXQuNTc2MjwvdGl0bGU+JiN4YTsJCQk8cGF0aCBpZD0icGF0aDU2MzcxIiBpbmtzY2FwZTpjb25uZWN0b3ItY3VydmF0dXJlPSIwIiBzdHlsZT0iZmlsbDojRkZGRkZGOyIgZD0iTTMxLjUsNDYuNzVjLTAuMjctNC45OC00LjUyLTguOC05LjUtOC41NCAgICAgYy0yLjc0LDAuMTUtNS4yNiwxLjUzLTYuODYsMy43NmMtMy4xMy0yLjQxLTcuNjItMS44My0xMC4wMywxLjI5Yy0xLjM0LDEuNzQtMS44MSw0LTEuMjcsNi4xM2MtMy40MiwxLjU0LTQuOTQsNS41Ny0zLjM5LDguOTkgICAgIGMxLjEsMi40MywzLjUyLDQsNi4xOSwzLjk5aDIzYzQuMzgtMC4wMSw3LjkyLTMuNTYsNy45MS03Ljk0QzM3LjU0LDUwLjc5LDM1LjA0LDQ3LjYxLDMxLjUsNDYuNzV6Ii8+JiN4YTsJCTwvZz4mI3hhOwkJPGcgaWQ9InNoYXBlNTc2My00IiB0cmFuc2Zvcm09InRyYW5zbGF0ZSgwLC0xMy42MjkzKSI+JiN4YTsJCQk8dGl0bGUgaWQ9InRpdGxlNTYzNzQiPlNoZWV0LjU3NjM8L3RpdGxlPiYjeGE7CQkJPHBhdGggaWQ9InBhdGg1NjM3NiIgaW5rc2NhcGU6Y29ubmVjdG9yLWN1cnZhdHVyZT0iMCIgc3R5bGU9ImZpbGw6IzI3QTlFMTtmaWxsLW9wYWNpdHk6MC42OyIgZD0iTTMxLjUsNDYuNzUgICAgIGMtMC4yNy00Ljk4LTQuNTItOC44LTkuNS04LjU0Yy0yLjc0LDAuMTUtNS4yNiwxLjUzLTYuODYsMy43NmMtMy4xMy0yLjQxLTcuNjItMS44My0xMC4wMywxLjI5Yy0xLjM0LDEuNzQtMS44MSw0LTEuMjcsNi4xMyAgICAgYy0zLjQyLDEuNTQtNC45NCw1LjU3LTMuMzksOC45OWMxLjEsMi40MywzLjUyLDQsNi4xOSwzLjk5aDIzYzQuMzgtMC4wMSw3LjkyLTMuNTYsNy45MS03Ljk0ICAgICBDMzcuNTQsNTAuNzksMzUuMDQsNDcuNjEsMzEuNSw0Ni43NXoiLz4mI3hhOwkJPC9nPiYjeGE7CQk8ZyBpZD0ic2hhcGU1NzY0LTYiIHRyYW5zZm9ybT0idHJhbnNsYXRlKDguODU4MjQpIj4mI3hhOwkJCTx0aXRsZSBpZD0idGl0bGU1NjM3OSI+U2hlZXQuNTc2NDwvdGl0bGU+JiN4YTsJCQk8cGF0aCBpZD0icGF0aDU2MzgxIiBpbmtzY2FwZTpjb25uZWN0b3ItY3VydmF0dXJlPSIwIiBzdHlsZT0iZmlsbDojNjcyQTdBOyIgZD0iTTAuNzYsNDEuMTdDMC4zNCw0MS4xNywwLDQxLjUxLDAsNDEuOTMgICAgIGMwLDAsMCwwLDAsMGwwLDE5LjY4YzAsMC40MiwwLjM0LDAuNzYsMC43NiwwLjc2YzAsMCwwLDAsMCwwbDE4LjE3LDBjMC40MiwwLDAuNzYtMC4zNCwwLjc2LTAuNzZsMC0xOS42OSAgICAgYzAtMC40Mi0wLjM0LTAuNzYtMC43Ni0wLjc2aDBMMC43Niw0MS4xN3oiLz4mI3hhOwkJPC9nPiYjeGE7CQk8ZyBpZD0ic2hhcGU1NzY1LTgiIHRyYW5zZm9ybT0idHJhbnNsYXRlKDIwLjE3ODEsLTI1Ljc0NDMpIj4mI3hhOwkJCTx0aXRsZSBpZD0idGl0bGU1NjM4NCI+U2hlZXQuNTc2NTwvdGl0bGU+JiN4YTsJCTwvZz4mI3hhOwkJPGcgaWQ9InNoYXBlNTc2Ni05IiB0cmFuc2Zvcm09InRyYW5zbGF0ZSgyNi4yMzU2LC0yMi43MTU1KSI+JiN4YTsJCQk8dGl0bGUgaWQ9InRpdGxlNTYzODciPlNoZWV0LjU3NjY8L3RpdGxlPiYjeGE7CQk8L2c+JiN4YTsJCTxnIGlkPSJzaGFwZTU3NjctMTAiIHRyYW5zZm9ybT0idHJhbnNsYXRlKDE0LjkxNTcsLTIxLjIwMTIpIj4mI3hhOwkJCTx0aXRsZSBpZD0idGl0bGU1NjM5MCI+U2hlZXQuNTc2NzwvdGl0bGU+JiN4YTsJCQk8cGF0aCBpZD0icGF0aDU2MzkyIiBpbmtzY2FwZTpjb25uZWN0b3ItY3VydmF0dXJlPSIwIiBzdHlsZT0iZmlsbDojRkZGRkZGOyIgZD0iTTIuMjcsNjIuMzd2LTUuM0gwbDMuNzktNS4zbDMuNzgsNS4zSDUuM3Y1LjMgICAgIEgyLjI3eiIvPiYjeGE7CQk8L2c+JiN4YTsJCTxnIGlkPSJzaGFwZTU3NjgtMTIiIHRyYW5zZm9ybT0idHJhbnNsYXRlKDIwLjE3ODEsLTI1Ljc0NDMpIj4mI3hhOwkJCTx0aXRsZSBpZD0idGl0bGU1NjM5NSI+U2hlZXQuNTc2ODwvdGl0bGU+JiN4YTsJCTwvZz4mI3hhOwkJPGcgaWQ9InNoYXBlNTc2OS0xMyIgdHJhbnNmb3JtPSJ0cmFuc2xhdGUoMTEuMTI5OCwtMi4yNzE1NSkiPiYjeGE7CQkJPHRpdGxlIGlkPSJ0aXRsZTU2Mzk4Ij5TaGVldC41NzY5PC90aXRsZT4mI3hhOwkJCTxwYXRoIGlkPSJwYXRoNTY0MDAiIGlua3NjYXBlOmNvbm5lY3Rvci1jdXJ2YXR1cmU9IjAiIHN0eWxlPSJmaWxsOiNCOTIwMjU7ZmlsbC1vcGFjaXR5OjAuMzsiIGQ9Ik0xMy42Myw0NS43MUgwdjE2LjY2aDE1LjE0ICAgICBWNDUuNzFIMTMuNjN6IE00LjU0LDYwLjg1SDEuNTFWNDcuMjJoMy4wM1Y2MC44NXogTTkuMDksNjAuODVINi4wNlY0Ny4yMmgzLjAzVjYwLjg1eiBNMTMuNjMsNjAuODVIMTAuNlY0Ny4yMmgzLjAzVjYwLjg1eiIvPiYjeGE7CQk8L2c+JiN4YTsJCTxnIGlkPSJzaGFwZTU3NzAtMTUiIHRyYW5zZm9ybT0idHJhbnNsYXRlKDExLjEyOTgsLTIuMjcxNTUpIj4mI3hhOwkJCTx0aXRsZSBpZD0idGl0bGU1NjQwMyI+U2hlZXQuNTc3MDwvdGl0bGU+JiN4YTsJCQk8cGF0aCBpZD0icGF0aDU2NDA1IiBpbmtzY2FwZTpjb25uZWN0b3ItY3VydmF0dXJlPSIwIiBzdHlsZT0iZmlsbDojRkZGRkZGOyIgZD0iTTEzLjYzLDQ1LjcxSDB2MTYuNjZoMTUuMTRWNDUuNzFIMTMuNjN6ICAgICAgTTQuNTQsNjAuODVIMS41MVY0Ny4yMmgzLjAzVjYwLjg1eiBNOS4wOSw2MC44NUg2LjA2VjQ3LjIyaDMuMDNWNjAuODV6IE0xMy42Myw2MC44NUgxMC42VjQ3LjIyaDMuMDNWNjAuODV6Ii8+JiN4YTsJCTwvZz4mI3hhOwk8L2c+JiN4YTs8L2c+JiN4YTs8L3N2Zz4=;fillColor=#CCCCCC;" vertex="1" parent="1">
          <mxGeometry x="430" y="282.96999999999997" width="48.75" height="48.75" as="geometry" />
        </mxCell>
        <mxCell id="3jxLnCF12T15F944jgeX-88" value="" style="shape=image;verticalLabelPosition=bottom;labelBackgroundColor=#ffffff;verticalAlign=top;aspect=fixed;imageAspect=0;image=data:image/svg+xml,PHN2ZyB4bWxuczpjYz0iaHR0cDovL2NyZWF0aXZlY29tbW9ucy5vcmcvbnMjIiB4bWxuczpkYz0iaHR0cDovL3B1cmwub3JnL2RjL2VsZW1lbnRzLzEuMS8iIHhtbG5zOmlua3NjYXBlPSJodHRwOi8vd3d3Lmlua3NjYXBlLm9yZy9uYW1lc3BhY2VzL2lua3NjYXBlIiB4bWxuczpyZGY9Imh0dHA6Ly93d3cudzMub3JnLzE5OTkvMDIvMjItcmRmLXN5bnRheC1ucyMiIHhtbG5zOnNvZGlwb2RpPSJodHRwOi8vc29kaXBvZGkuc291cmNlZm9yZ2UubmV0L0RURC9zb2RpcG9kaS0wLmR0ZCIgeG1sbnM6c3ZnPSJodHRwOi8vd3d3LnczLm9yZy8yMDAwL3N2ZyIgeG1sbnM9Imh0dHA6Ly93d3cudzMub3JnLzIwMDAvc3ZnIiB4bWxuczp4bGluaz0iaHR0cDovL3d3dy53My5vcmcvMTk5OS94bGluayIgdmVyc2lvbj0iMS4xIiBpZD0ic3ZnNTY0MTEiIGlua3NjYXBlOnZlcnNpb249IjAuOTIuMyAoMjQwNTU0NiwgMjAxOC0wMy0xMSkiIHNvZGlwb2RpOmRvY25hbWU9ImF6dXJlX2NvbnRhaW5lcl9pbnN0YW5jZXMuc3ZnIiB4PSIwcHgiIHk9IjBweCIgdmlld0JveD0iMCAwIDM3LjcgMzcuOCIgc3R5bGU9ImVuYWJsZS1iYWNrZ3JvdW5kOm5ldyAwIDAgMzcuNyAzNy44OyIgeG1sOnNwYWNlPSJwcmVzZXJ2ZSI+JiN4YTs8c29kaXBvZGk6bmFtZWR2aWV3IGJvcmRlcmNvbG9yPSIjNjY2NjY2IiBib3JkZXJvcGFjaXR5PSIxIiBmaXQtbWFyZ2luLWJvdHRvbT0iMCIgZml0LW1hcmdpbi1sZWZ0PSIwIiBmaXQtbWFyZ2luLXJpZ2h0PSIwIiBmaXQtbWFyZ2luLXRvcD0iMCIgZ3JpZHRvbGVyYW5jZT0iMTAiIGd1aWRldG9sZXJhbmNlPSIxMCIgaWQ9Im5hbWVkdmlldzU2NDEzIiBpbmtzY2FwZTpjdXJyZW50LWxheWVyPSJzdmc1NjQxMSIgaW5rc2NhcGU6Y3g9IjI3LjYxODI3MyIgaW5rc2NhcGU6Y3k9IjIyLjQ3Mzg3NCIgaW5rc2NhcGU6cGFnZW9wYWNpdHk9IjAiIGlua3NjYXBlOnBhZ2VzaGFkb3c9IjIiIGlua3NjYXBlOndpbmRvdy1oZWlnaHQ9IjEwMTciIGlua3NjYXBlOndpbmRvdy1tYXhpbWl6ZWQ9IjEiIGlua3NjYXBlOndpbmRvdy13aWR0aD0iMTkyMCIgaW5rc2NhcGU6d2luZG93LXg9Ii04IiBpbmtzY2FwZTp3aW5kb3cteT0iLTgiIGlua3NjYXBlOnpvb209IjEwLjQyNTkxNCIgb2JqZWN0dG9sZXJhbmNlPSIxMCIgcGFnZWNvbG9yPSIjZmZmZmZmIiBzaG93Z3JpZD0iZmFsc2UiPiYjeGE7CTwvc29kaXBvZGk6bmFtZWR2aWV3PiYjeGE7PGcgaWQ9Imc1NjQwOSIgdHJhbnNmb3JtPSJ0cmFuc2xhdGUoLTEyLjI4NjgzNiwtMTIuMjgyMzczKSI+JiN4YTsJPHRpdGxlIGlkPSJ0aXRsZTU2MzY1Ij5QYWdlLTE8L3RpdGxlPiYjeGE7CTxnIGlkPSJncm91cDU3NjEtMSIgdHJhbnNmb3JtPSJ0cmFuc2xhdGUoMTIuNDQxOCwtMTIuMjg5MikiPiYjeGE7CQk8dGl0bGUgaWQ9InRpdGxlNTYzNjciPkF6dXJlIENvbnRhaW5lciBJbnN0YW5jZXM8L3RpdGxlPiYjeGE7CQk8ZyBpZD0ic2hhcGU1NzYyLTIiIHRyYW5zZm9ybT0idHJhbnNsYXRlKDAsLTEzLjYyOTMpIj4mI3hhOwkJCTx0aXRsZSBpZD0idGl0bGU1NjM2OSI+U2hlZXQuNTc2MjwvdGl0bGU+JiN4YTsJCQk8cGF0aCBpZD0icGF0aDU2MzcxIiBpbmtzY2FwZTpjb25uZWN0b3ItY3VydmF0dXJlPSIwIiBzdHlsZT0iZmlsbDojRkZGRkZGOyIgZD0iTTMxLjUsNDYuNzVjLTAuMjctNC45OC00LjUyLTguOC05LjUtOC41NCAgICAgYy0yLjc0LDAuMTUtNS4yNiwxLjUzLTYuODYsMy43NmMtMy4xMy0yLjQxLTcuNjItMS44My0xMC4wMywxLjI5Yy0xLjM0LDEuNzQtMS44MSw0LTEuMjcsNi4xM2MtMy40MiwxLjU0LTQuOTQsNS41Ny0zLjM5LDguOTkgICAgIGMxLjEsMi40MywzLjUyLDQsNi4xOSwzLjk5aDIzYzQuMzgtMC4wMSw3LjkyLTMuNTYsNy45MS03Ljk0QzM3LjU0LDUwLjc5LDM1LjA0LDQ3LjYxLDMxLjUsNDYuNzV6Ii8+JiN4YTsJCTwvZz4mI3hhOwkJPGcgaWQ9InNoYXBlNTc2My00IiB0cmFuc2Zvcm09InRyYW5zbGF0ZSgwLC0xMy42MjkzKSI+JiN4YTsJCQk8dGl0bGUgaWQ9InRpdGxlNTYzNzQiPlNoZWV0LjU3NjM8L3RpdGxlPiYjeGE7CQkJPHBhdGggaWQ9InBhdGg1NjM3NiIgaW5rc2NhcGU6Y29ubmVjdG9yLWN1cnZhdHVyZT0iMCIgc3R5bGU9ImZpbGw6IzI3QTlFMTtmaWxsLW9wYWNpdHk6MC42OyIgZD0iTTMxLjUsNDYuNzUgICAgIGMtMC4yNy00Ljk4LTQuNTItOC44LTkuNS04LjU0Yy0yLjc0LDAuMTUtNS4yNiwxLjUzLTYuODYsMy43NmMtMy4xMy0yLjQxLTcuNjItMS44My0xMC4wMywxLjI5Yy0xLjM0LDEuNzQtMS44MSw0LTEuMjcsNi4xMyAgICAgYy0zLjQyLDEuNTQtNC45NCw1LjU3LTMuMzksOC45OWMxLjEsMi40MywzLjUyLDQsNi4xOSwzLjk5aDIzYzQuMzgtMC4wMSw3LjkyLTMuNTYsNy45MS03Ljk0ICAgICBDMzcuNTQsNTAuNzksMzUuMDQsNDcuNjEsMzEuNSw0Ni43NXoiLz4mI3hhOwkJPC9nPiYjeGE7CQk8ZyBpZD0ic2hhcGU1NzY0LTYiIHRyYW5zZm9ybT0idHJhbnNsYXRlKDguODU4MjQpIj4mI3hhOwkJCTx0aXRsZSBpZD0idGl0bGU1NjM3OSI+U2hlZXQuNTc2NDwvdGl0bGU+JiN4YTsJCQk8cGF0aCBpZD0icGF0aDU2MzgxIiBpbmtzY2FwZTpjb25uZWN0b3ItY3VydmF0dXJlPSIwIiBzdHlsZT0iZmlsbDojNjcyQTdBOyIgZD0iTTAuNzYsNDEuMTdDMC4zNCw0MS4xNywwLDQxLjUxLDAsNDEuOTMgICAgIGMwLDAsMCwwLDAsMGwwLDE5LjY4YzAsMC40MiwwLjM0LDAuNzYsMC43NiwwLjc2YzAsMCwwLDAsMCwwbDE4LjE3LDBjMC40MiwwLDAuNzYtMC4zNCwwLjc2LTAuNzZsMC0xOS42OSAgICAgYzAtMC40Mi0wLjM0LTAuNzYtMC43Ni0wLjc2aDBMMC43Niw0MS4xN3oiLz4mI3hhOwkJPC9nPiYjeGE7CQk8ZyBpZD0ic2hhcGU1NzY1LTgiIHRyYW5zZm9ybT0idHJhbnNsYXRlKDIwLjE3ODEsLTI1Ljc0NDMpIj4mI3hhOwkJCTx0aXRsZSBpZD0idGl0bGU1NjM4NCI+U2hlZXQuNTc2NTwvdGl0bGU+JiN4YTsJCTwvZz4mI3hhOwkJPGcgaWQ9InNoYXBlNTc2Ni05IiB0cmFuc2Zvcm09InRyYW5zbGF0ZSgyNi4yMzU2LC0yMi43MTU1KSI+JiN4YTsJCQk8dGl0bGUgaWQ9InRpdGxlNTYzODciPlNoZWV0LjU3NjY8L3RpdGxlPiYjeGE7CQk8L2c+JiN4YTsJCTxnIGlkPSJzaGFwZTU3NjctMTAiIHRyYW5zZm9ybT0idHJhbnNsYXRlKDE0LjkxNTcsLTIxLjIwMTIpIj4mI3hhOwkJCTx0aXRsZSBpZD0idGl0bGU1NjM5MCI+U2hlZXQuNTc2NzwvdGl0bGU+JiN4YTsJCQk8cGF0aCBpZD0icGF0aDU2MzkyIiBpbmtzY2FwZTpjb25uZWN0b3ItY3VydmF0dXJlPSIwIiBzdHlsZT0iZmlsbDojRkZGRkZGOyIgZD0iTTIuMjcsNjIuMzd2LTUuM0gwbDMuNzktNS4zbDMuNzgsNS4zSDUuM3Y1LjMgICAgIEgyLjI3eiIvPiYjeGE7CQk8L2c+JiN4YTsJCTxnIGlkPSJzaGFwZTU3NjgtMTIiIHRyYW5zZm9ybT0idHJhbnNsYXRlKDIwLjE3ODEsLTI1Ljc0NDMpIj4mI3hhOwkJCTx0aXRsZSBpZD0idGl0bGU1NjM5NSI+U2hlZXQuNTc2ODwvdGl0bGU+JiN4YTsJCTwvZz4mI3hhOwkJPGcgaWQ9InNoYXBlNTc2OS0xMyIgdHJhbnNmb3JtPSJ0cmFuc2xhdGUoMTEuMTI5OCwtMi4yNzE1NSkiPiYjeGE7CQkJPHRpdGxlIGlkPSJ0aXRsZTU2Mzk4Ij5TaGVldC41NzY5PC90aXRsZT4mI3hhOwkJCTxwYXRoIGlkPSJwYXRoNTY0MDAiIGlua3NjYXBlOmNvbm5lY3Rvci1jdXJ2YXR1cmU9IjAiIHN0eWxlPSJmaWxsOiNCOTIwMjU7ZmlsbC1vcGFjaXR5OjAuMzsiIGQ9Ik0xMy42Myw0NS43MUgwdjE2LjY2aDE1LjE0ICAgICBWNDUuNzFIMTMuNjN6IE00LjU0LDYwLjg1SDEuNTFWNDcuMjJoMy4wM1Y2MC44NXogTTkuMDksNjAuODVINi4wNlY0Ny4yMmgzLjAzVjYwLjg1eiBNMTMuNjMsNjAuODVIMTAuNlY0Ny4yMmgzLjAzVjYwLjg1eiIvPiYjeGE7CQk8L2c+JiN4YTsJCTxnIGlkPSJzaGFwZTU3NzAtMTUiIHRyYW5zZm9ybT0idHJhbnNsYXRlKDExLjEyOTgsLTIuMjcxNTUpIj4mI3hhOwkJCTx0aXRsZSBpZD0idGl0bGU1NjQwMyI+U2hlZXQuNTc3MDwvdGl0bGU+JiN4YTsJCQk8cGF0aCBpZD0icGF0aDU2NDA1IiBpbmtzY2FwZTpjb25uZWN0b3ItY3VydmF0dXJlPSIwIiBzdHlsZT0iZmlsbDojRkZGRkZGOyIgZD0iTTEzLjYzLDQ1LjcxSDB2MTYuNjZoMTUuMTRWNDUuNzFIMTMuNjN6ICAgICAgTTQuNTQsNjAuODVIMS41MVY0Ny4yMmgzLjAzVjYwLjg1eiBNOS4wOSw2MC44NUg2LjA2VjQ3LjIyaDMuMDNWNjAuODV6IE0xMy42Myw2MC44NUgxMC42VjQ3LjIyaDMuMDNWNjAuODV6Ii8+JiN4YTsJCTwvZz4mI3hhOwk8L2c+JiN4YTs8L2c+JiN4YTs8L3N2Zz4=;fillColor=#CCCCCC;" vertex="1" parent="1">
          <mxGeometry x="430" y="354.21" width="48.75" height="48.75" as="geometry" />
        </mxCell>
        <mxCell id="3jxLnCF12T15F944jgeX-89" value="" style="shape=image;verticalLabelPosition=bottom;labelBackgroundColor=#ffffff;verticalAlign=top;aspect=fixed;imageAspect=0;image=data:image/svg+xml,PHN2ZyB4bWxuczpjYz0iaHR0cDovL2NyZWF0aXZlY29tbW9ucy5vcmcvbnMjIiB4bWxuczpkYz0iaHR0cDovL3B1cmwub3JnL2RjL2VsZW1lbnRzLzEuMS8iIHhtbG5zOmlua3NjYXBlPSJodHRwOi8vd3d3Lmlua3NjYXBlLm9yZy9uYW1lc3BhY2VzL2lua3NjYXBlIiB4bWxuczpyZGY9Imh0dHA6Ly93d3cudzMub3JnLzE5OTkvMDIvMjItcmRmLXN5bnRheC1ucyMiIHhtbG5zOnNvZGlwb2RpPSJodHRwOi8vc29kaXBvZGkuc291cmNlZm9yZ2UubmV0L0RURC9zb2RpcG9kaS0wLmR0ZCIgeG1sbnM6c3ZnPSJodHRwOi8vd3d3LnczLm9yZy8yMDAwL3N2ZyIgeG1sbnM9Imh0dHA6Ly93d3cudzMub3JnLzIwMDAvc3ZnIiB4bWxuczp4bGluaz0iaHR0cDovL3d3dy53My5vcmcvMTk5OS94bGluayIgdmVyc2lvbj0iMS4xIiBpZD0ic3ZnNTY0MTEiIGlua3NjYXBlOnZlcnNpb249IjAuOTIuMyAoMjQwNTU0NiwgMjAxOC0wMy0xMSkiIHNvZGlwb2RpOmRvY25hbWU9ImF6dXJlX2NvbnRhaW5lcl9pbnN0YW5jZXMuc3ZnIiB4PSIwcHgiIHk9IjBweCIgdmlld0JveD0iMCAwIDM3LjcgMzcuOCIgc3R5bGU9ImVuYWJsZS1iYWNrZ3JvdW5kOm5ldyAwIDAgMzcuNyAzNy44OyIgeG1sOnNwYWNlPSJwcmVzZXJ2ZSI+JiN4YTs8c29kaXBvZGk6bmFtZWR2aWV3IGJvcmRlcmNvbG9yPSIjNjY2NjY2IiBib3JkZXJvcGFjaXR5PSIxIiBmaXQtbWFyZ2luLWJvdHRvbT0iMCIgZml0LW1hcmdpbi1sZWZ0PSIwIiBmaXQtbWFyZ2luLXJpZ2h0PSIwIiBmaXQtbWFyZ2luLXRvcD0iMCIgZ3JpZHRvbGVyYW5jZT0iMTAiIGd1aWRldG9sZXJhbmNlPSIxMCIgaWQ9Im5hbWVkdmlldzU2NDEzIiBpbmtzY2FwZTpjdXJyZW50LWxheWVyPSJzdmc1NjQxMSIgaW5rc2NhcGU6Y3g9IjI3LjYxODI3MyIgaW5rc2NhcGU6Y3k9IjIyLjQ3Mzg3NCIgaW5rc2NhcGU6cGFnZW9wYWNpdHk9IjAiIGlua3NjYXBlOnBhZ2VzaGFkb3c9IjIiIGlua3NjYXBlOndpbmRvdy1oZWlnaHQ9IjEwMTciIGlua3NjYXBlOndpbmRvdy1tYXhpbWl6ZWQ9IjEiIGlua3NjYXBlOndpbmRvdy13aWR0aD0iMTkyMCIgaW5rc2NhcGU6d2luZG93LXg9Ii04IiBpbmtzY2FwZTp3aW5kb3cteT0iLTgiIGlua3NjYXBlOnpvb209IjEwLjQyNTkxNCIgb2JqZWN0dG9sZXJhbmNlPSIxMCIgcGFnZWNvbG9yPSIjZmZmZmZmIiBzaG93Z3JpZD0iZmFsc2UiPiYjeGE7CTwvc29kaXBvZGk6bmFtZWR2aWV3PiYjeGE7PGcgaWQ9Imc1NjQwOSIgdHJhbnNmb3JtPSJ0cmFuc2xhdGUoLTEyLjI4NjgzNiwtMTIuMjgyMzczKSI+JiN4YTsJPHRpdGxlIGlkPSJ0aXRsZTU2MzY1Ij5QYWdlLTE8L3RpdGxlPiYjeGE7CTxnIGlkPSJncm91cDU3NjEtMSIgdHJhbnNmb3JtPSJ0cmFuc2xhdGUoMTIuNDQxOCwtMTIuMjg5MikiPiYjeGE7CQk8dGl0bGUgaWQ9InRpdGxlNTYzNjciPkF6dXJlIENvbnRhaW5lciBJbnN0YW5jZXM8L3RpdGxlPiYjeGE7CQk8ZyBpZD0ic2hhcGU1NzYyLTIiIHRyYW5zZm9ybT0idHJhbnNsYXRlKDAsLTEzLjYyOTMpIj4mI3hhOwkJCTx0aXRsZSBpZD0idGl0bGU1NjM2OSI+U2hlZXQuNTc2MjwvdGl0bGU+JiN4YTsJCQk8cGF0aCBpZD0icGF0aDU2MzcxIiBpbmtzY2FwZTpjb25uZWN0b3ItY3VydmF0dXJlPSIwIiBzdHlsZT0iZmlsbDojRkZGRkZGOyIgZD0iTTMxLjUsNDYuNzVjLTAuMjctNC45OC00LjUyLTguOC05LjUtOC41NCAgICAgYy0yLjc0LDAuMTUtNS4yNiwxLjUzLTYuODYsMy43NmMtMy4xMy0yLjQxLTcuNjItMS44My0xMC4wMywxLjI5Yy0xLjM0LDEuNzQtMS44MSw0LTEuMjcsNi4xM2MtMy40MiwxLjU0LTQuOTQsNS41Ny0zLjM5LDguOTkgICAgIGMxLjEsMi40MywzLjUyLDQsNi4xOSwzLjk5aDIzYzQuMzgtMC4wMSw3LjkyLTMuNTYsNy45MS03Ljk0QzM3LjU0LDUwLjc5LDM1LjA0LDQ3LjYxLDMxLjUsNDYuNzV6Ii8+JiN4YTsJCTwvZz4mI3hhOwkJPGcgaWQ9InNoYXBlNTc2My00IiB0cmFuc2Zvcm09InRyYW5zbGF0ZSgwLC0xMy42MjkzKSI+JiN4YTsJCQk8dGl0bGUgaWQ9InRpdGxlNTYzNzQiPlNoZWV0LjU3NjM8L3RpdGxlPiYjeGE7CQkJPHBhdGggaWQ9InBhdGg1NjM3NiIgaW5rc2NhcGU6Y29ubmVjdG9yLWN1cnZhdHVyZT0iMCIgc3R5bGU9ImZpbGw6IzI3QTlFMTtmaWxsLW9wYWNpdHk6MC42OyIgZD0iTTMxLjUsNDYuNzUgICAgIGMtMC4yNy00Ljk4LTQuNTItOC44LTkuNS04LjU0Yy0yLjc0LDAuMTUtNS4yNiwxLjUzLTYuODYsMy43NmMtMy4xMy0yLjQxLTcuNjItMS44My0xMC4wMywxLjI5Yy0xLjM0LDEuNzQtMS44MSw0LTEuMjcsNi4xMyAgICAgYy0zLjQyLDEuNTQtNC45NCw1LjU3LTMuMzksOC45OWMxLjEsMi40MywzLjUyLDQsNi4xOSwzLjk5aDIzYzQuMzgtMC4wMSw3LjkyLTMuNTYsNy45MS03Ljk0ICAgICBDMzcuNTQsNTAuNzksMzUuMDQsNDcuNjEsMzEuNSw0Ni43NXoiLz4mI3hhOwkJPC9nPiYjeGE7CQk8ZyBpZD0ic2hhcGU1NzY0LTYiIHRyYW5zZm9ybT0idHJhbnNsYXRlKDguODU4MjQpIj4mI3hhOwkJCTx0aXRsZSBpZD0idGl0bGU1NjM3OSI+U2hlZXQuNTc2NDwvdGl0bGU+JiN4YTsJCQk8cGF0aCBpZD0icGF0aDU2MzgxIiBpbmtzY2FwZTpjb25uZWN0b3ItY3VydmF0dXJlPSIwIiBzdHlsZT0iZmlsbDojNjcyQTdBOyIgZD0iTTAuNzYsNDEuMTdDMC4zNCw0MS4xNywwLDQxLjUxLDAsNDEuOTMgICAgIGMwLDAsMCwwLDAsMGwwLDE5LjY4YzAsMC40MiwwLjM0LDAuNzYsMC43NiwwLjc2YzAsMCwwLDAsMCwwbDE4LjE3LDBjMC40MiwwLDAuNzYtMC4zNCwwLjc2LTAuNzZsMC0xOS42OSAgICAgYzAtMC40Mi0wLjM0LTAuNzYtMC43Ni0wLjc2aDBMMC43Niw0MS4xN3oiLz4mI3hhOwkJPC9nPiYjeGE7CQk8ZyBpZD0ic2hhcGU1NzY1LTgiIHRyYW5zZm9ybT0idHJhbnNsYXRlKDIwLjE3ODEsLTI1Ljc0NDMpIj4mI3hhOwkJCTx0aXRsZSBpZD0idGl0bGU1NjM4NCI+U2hlZXQuNTc2NTwvdGl0bGU+JiN4YTsJCTwvZz4mI3hhOwkJPGcgaWQ9InNoYXBlNTc2Ni05IiB0cmFuc2Zvcm09InRyYW5zbGF0ZSgyNi4yMzU2LC0yMi43MTU1KSI+JiN4YTsJCQk8dGl0bGUgaWQ9InRpdGxlNTYzODciPlNoZWV0LjU3NjY8L3RpdGxlPiYjeGE7CQk8L2c+JiN4YTsJCTxnIGlkPSJzaGFwZTU3NjctMTAiIHRyYW5zZm9ybT0idHJhbnNsYXRlKDE0LjkxNTcsLTIxLjIwMTIpIj4mI3hhOwkJCTx0aXRsZSBpZD0idGl0bGU1NjM5MCI+U2hlZXQuNTc2NzwvdGl0bGU+JiN4YTsJCQk8cGF0aCBpZD0icGF0aDU2MzkyIiBpbmtzY2FwZTpjb25uZWN0b3ItY3VydmF0dXJlPSIwIiBzdHlsZT0iZmlsbDojRkZGRkZGOyIgZD0iTTIuMjcsNjIuMzd2LTUuM0gwbDMuNzktNS4zbDMuNzgsNS4zSDUuM3Y1LjMgICAgIEgyLjI3eiIvPiYjeGE7CQk8L2c+JiN4YTsJCTxnIGlkPSJzaGFwZTU3NjgtMTIiIHRyYW5zZm9ybT0idHJhbnNsYXRlKDIwLjE3ODEsLTI1Ljc0NDMpIj4mI3hhOwkJCTx0aXRsZSBpZD0idGl0bGU1NjM5NSI+U2hlZXQuNTc2ODwvdGl0bGU+JiN4YTsJCTwvZz4mI3hhOwkJPGcgaWQ9InNoYXBlNTc2OS0xMyIgdHJhbnNmb3JtPSJ0cmFuc2xhdGUoMTEuMTI5OCwtMi4yNzE1NSkiPiYjeGE7CQkJPHRpdGxlIGlkPSJ0aXRsZTU2Mzk4Ij5TaGVldC41NzY5PC90aXRsZT4mI3hhOwkJCTxwYXRoIGlkPSJwYXRoNTY0MDAiIGlua3NjYXBlOmNvbm5lY3Rvci1jdXJ2YXR1cmU9IjAiIHN0eWxlPSJmaWxsOiNCOTIwMjU7ZmlsbC1vcGFjaXR5OjAuMzsiIGQ9Ik0xMy42Myw0NS43MUgwdjE2LjY2aDE1LjE0ICAgICBWNDUuNzFIMTMuNjN6IE00LjU0LDYwLjg1SDEuNTFWNDcuMjJoMy4wM1Y2MC44NXogTTkuMDksNjAuODVINi4wNlY0Ny4yMmgzLjAzVjYwLjg1eiBNMTMuNjMsNjAuODVIMTAuNlY0Ny4yMmgzLjAzVjYwLjg1eiIvPiYjeGE7CQk8L2c+JiN4YTsJCTxnIGlkPSJzaGFwZTU3NzAtMTUiIHRyYW5zZm9ybT0idHJhbnNsYXRlKDExLjEyOTgsLTIuMjcxNTUpIj4mI3hhOwkJCTx0aXRsZSBpZD0idGl0bGU1NjQwMyI+U2hlZXQuNTc3MDwvdGl0bGU+JiN4YTsJCQk8cGF0aCBpZD0icGF0aDU2NDA1IiBpbmtzY2FwZTpjb25uZWN0b3ItY3VydmF0dXJlPSIwIiBzdHlsZT0iZmlsbDojRkZGRkZGOyIgZD0iTTEzLjYzLDQ1LjcxSDB2MTYuNjZoMTUuMTRWNDUuNzFIMTMuNjN6ICAgICAgTTQuNTQsNjAuODVIMS41MVY0Ny4yMmgzLjAzVjYwLjg1eiBNOS4wOSw2MC44NUg2LjA2VjQ3LjIyaDMuMDNWNjAuODV6IE0xMy42Myw2MC44NUgxMC42VjQ3LjIyaDMuMDNWNjAuODV6Ii8+JiN4YTsJCTwvZz4mI3hhOwk8L2c+JiN4YTs8L2c+JiN4YTs8L3N2Zz4=;fillColor=#CCCCCC;" vertex="1" parent="1">
          <mxGeometry x="430" y="424.21" width="48.75" height="48.75" as="geometry" />
        </mxCell>
        <mxCell id="3jxLnCF12T15F944jgeX-90" value="&lt;font style=&quot;font-size: 20px;&quot; color=&quot;#ff0000&quot;&gt;new&lt;/font&gt;" style="whiteSpace=wrap;html=1;dashed=1;strokeColor=none;strokeWidth=2;fillColor=none;fontFamily=Helvetica;fontSize=18;fontColor=#FFFFFF;fontStyle=1" vertex="1" parent="1">
          <mxGeometry x="440.13" y="178.51" width="70" height="41.75" as="geometry" />
        </mxCell>
        <mxCell id="3jxLnCF12T15F944jgeX-23" value="&lt;font style=&quot;font-size: 20px;&quot; color=&quot;#ff0000&quot;&gt;new&lt;/font&gt;" style="whiteSpace=wrap;html=1;dashed=1;strokeColor=none;strokeWidth=2;fillColor=none;fontFamily=Helvetica;fontSize=18;fontColor=#FFFFFF;fontStyle=1" vertex="1" parent="1">
          <mxGeometry x="145.5" y="178.51" width="70" height="41.75" as="geometry" />
        </mxCell>
        <mxCell id="3jxLnCF12T15F944jgeX-91" value="&lt;font style=&quot;font-size: 20px;&quot; color=&quot;#ff0000&quot;&gt;new&lt;/font&gt;" style="whiteSpace=wrap;html=1;dashed=1;strokeColor=none;strokeWidth=2;fillColor=none;fontFamily=Helvetica;fontSize=18;fontColor=#FFFFFF;fontStyle=1" vertex="1" parent="1">
          <mxGeometry x="470" y="118.50999999999999" width="70" height="41.75" as="geometry" />
        </mxCell>
        <mxCell id="3jxLnCF12T15F944jgeX-24" value="" style="html=1;shadow=0;dashed=0;align=center;verticalAlign=middle;shape=mxgraph.arrows2.twoWayArrow;dy=0.65;dx=22;labelBackgroundColor=none;fontSize=20;fillColor=#ffe6cc;strokeColor=#d79b00;" vertex="1" parent="1">
          <mxGeometry x="520" y="245.27" width="184.87" height="60" as="geometry" />
        </mxCell>
        <mxCell id="3jxLnCF12T15F944jgeX-92" value="" style="arrow;html=1;endArrow=block;endFill=1;strokeColor=none;strokeWidth=4;fontFamily=Helvetica;fontSize=36;fontColor=#FFB366;fillColor=#3399FF;opacity=100;entryX=0.1;entryY=0.526;entryDx=0;entryDy=0;entryPerimeter=0;exitX=0.75;exitY=0.684;exitDx=0;exitDy=0;exitPerimeter=0;" edge="1" parent="1">
          <mxGeometry width="100" height="100" relative="1" as="geometry">
            <mxPoint x="172.99" y="739.56" as="sourcePoint" />
            <mxPoint x="243.99" y="738.56" as="targetPoint" />
            <Array as="points">
              <mxPoint x="336.99" y="698.25" />
              <mxPoint x="376.99" y="680" />
            </Array>
          </mxGeometry>
        </mxCell>
        <mxCell id="3jxLnCF12T15F944jgeX-93" value="" style="arrow;html=1;endArrow=block;endFill=1;strokeColor=none;strokeWidth=4;fontFamily=Helvetica;fontSize=36;fontColor=#FFB366;fillColor=#3399FF;opacity=100;entryX=0.1;entryY=0.526;entryDx=0;entryDy=0;entryPerimeter=0;exitX=0.75;exitY=0.684;exitDx=0;exitDy=0;exitPerimeter=0;" edge="1" parent="1">
          <mxGeometry width="100" height="100" relative="1" as="geometry">
            <mxPoint x="172.99" y="347.46000000000004" as="sourcePoint" />
            <mxPoint x="243.99" y="346.46000000000004" as="targetPoint" />
            <Array as="points">
              <mxPoint x="336.99" y="306.1500000000001" />
              <mxPoint x="376.99" y="287.9000000000001" />
            </Array>
          </mxGeometry>
        </mxCell>
      </root>
    </mxGraphModel>
  </diagram>
</mxfile>
